<?xml version="1.0" encoding="utf-8"?>
<!-- Generator: Adobe Illustrator 27.5.0, SVG Export Plug-In . SVG Version: 6.00 Build 0)  -->
<svg version="1.1" id="Layer_1" xmlns="http://www.w3.org/2000/svg" xmlns:xlink="http://www.w3.org/1999/xlink" x="0px" y="0px"
	 viewBox="0 0 526.1 78.6" style="enable-background:new 0 0 526.1 78.6;" xml:space="preserve">
<style type="text/css">
	.st0{fill:#FFFFFF;}
</style>
<g>
	<path class="st0" d="M493.2,39.5c0,3-0.4,6.1-1.4,9.2c-0.7,2.1-1.6,4.1-2.9,6c-2.8,4-6.6,6.5-11.4,7.7c-2.4,0.6-4.9,0.8-7.4,0.5
		c-4.6-0.5-8.6-2.3-11.9-5.6c-1.8-1.8-3.2-4-4.2-6.4c-1-2.4-1.6-4.8-1.9-7.3c-0.2-2-0.3-3.9-0.1-5.9c0.3-3.9,1.2-7.6,3.1-11
		c2.1-3.7,5-6.6,8.9-8.4c2-1,4.2-1.5,6.4-1.8c1.8-0.2,3.6-0.2,5.4,0.1c6.3,0.9,11.1,4.1,14.2,9.7c1.3,2.3,2.1,4.7,2.6,7.3
		C493,35.4,493.2,37.3,493.2,39.5z M487.1,39.3c0-2.1-0.3-4.3-0.8-6.5c-0.6-2.3-1.5-4.4-2.9-6.3c-1.3-1.8-2.9-3.3-4.9-4.3
		c-1.6-0.8-3.2-1.2-4.9-1.3c-2.2-0.1-4.3,0.2-6.3,1.1c-2.3,1-4.1,2.6-5.5,4.5c-1.3,1.8-2.1,3.8-2.7,5.8c-0.6,2-0.9,4.1-1,6.1
		c-0.1,2.9,0.2,5.7,1,8.4c0.7,2.4,1.8,4.7,3.5,6.6c3.5,4,7.9,5.4,13.1,4.4c2.8-0.6,5.1-2.1,7-4.2c1.4-1.6,2.4-3.4,3.1-5.4
		C486.7,45.4,487.1,42.5,487.1,39.3z"/>
	<path class="st0" d="M446.8,39.2c0,3.2-0.4,6.3-1.3,9.3c-0.8,2.4-1.9,4.7-3.4,6.7c-2.7,3.5-6.2,5.8-10.4,6.9
		c-2.4,0.7-4.9,0.9-7.4,0.7c-2.9-0.2-5.7-1-8.2-2.4c-3.3-1.9-5.8-4.6-7.6-8c-1.3-2.4-2.1-5-2.5-7.6c-0.3-2-0.4-3.9-0.4-6
		c0.1-3.8,0.8-7.4,2.4-10.8c1.6-3.3,3.8-6.1,6.8-8.2c2.5-1.8,5.3-2.8,8.2-3.3c1.7-0.3,3.4-0.4,5.1-0.2c6.8,0.5,12,3.7,15.5,9.6
		c1.3,2.2,2.1,4.6,2.6,7.2C446.6,35.1,446.8,37.1,446.8,39.2z M440.8,39.5c0-2-0.2-4-0.7-5.9c-0.6-2.4-1.5-4.7-2.9-6.8
		c-0.9-1.3-1.9-2.4-3.2-3.4c-1.9-1.5-4.1-2.3-6.5-2.5c-1.6-0.1-3.2,0-4.7,0.4c-2.8,0.7-5.1,2.2-6.9,4.5c-1.3,1.7-2.3,3.6-3,5.6
		c-0.7,2-1.1,4.1-1.2,6.2c-0.2,2.9,0,5.8,0.7,8.6c0.6,2.4,1.6,4.6,3,6.6c3.2,4.3,7.6,6.1,12.9,5.4c3-0.4,5.5-1.8,7.5-4
		c1.5-1.6,2.6-3.5,3.3-5.5C440.3,45.6,440.8,42.6,440.8,39.5z"/>
	<path class="st0" d="M392.1,35.9c0-6.3,0-12.5,0-18.8c0.2,0,0.3-0.1,0.4-0.1c1.7,0,3.3,0,5,0c0.1,0,0.2,0,0.3,0.1
		c0,0.1,0.1,0.1,0.1,0.2c0,14.8,0,29.7,0,44.5c0,0.1,0,0.2,0,0.3c0,0,0,0-0.1,0c0,0,0,0-0.1,0c-1.8,0-3.5,0-5.3,0
		c-0.1,0-0.2,0-0.3,0c0-0.1,0-0.3-0.1-0.4c0-0.2,0-0.4,0-0.6c0-6.5,0-12.9,0-19.4c0-0.3,0-0.5,0-0.8c-0.2,0-0.3-0.1-0.5-0.1
		c-0.2,0-0.3,0-0.5,0c-6.7,0-13.4,0-20.1,0c-0.2,0-0.4,0-0.6,0c-0.2,0-0.3,0.1-0.3,0.3c0,0.2,0,0.4,0,0.6c0,6.5,0,12.9,0,19.4
		c0,0.3,0,0.5,0,0.8c-0.7,0.1-1.3,0-1.9,0c-0.6,0-1.2,0-1.8,0c-0.6,0-1.3,0-1.9,0c0-0.1-0.1-0.2-0.1-0.3c0-14.9,0-29.8,0-44.8
		c0.1,0,0.2-0.1,0.3-0.1c1.7,0,3.3,0,5,0c0.1,0,0.2,0,0.4,0.1c0,0.3,0,0.5,0,0.8c0,5.7,0,11.5,0,17.2c0,0.3-0.1,0.6,0.1,0.8
		c0.6,0.1,18.7,0.1,21.5,0.1C391.8,35.9,391.9,35.9,392.1,35.9z"/>
	<path class="st0" d="M290,60c0.1-0.7,1.2-4.2,1.4-4.7c0.1,0,0.2,0.1,0.3,0.2c2.1,1.2,4.3,2,6.7,2.4c1.8,0.3,3.6,0.4,5.4,0.2
		c1.4-0.2,2.7-0.6,3.9-1.3c1.8-1.1,3-2.6,3.4-4.7c0.3-1.4,0.2-2.7-0.1-4c-0.3-1.2-1-2.3-2-3.2c-0.7-0.6-1.4-1.2-2.2-1.6
		c-1.3-0.8-2.8-1.4-4.2-2c-1.4-0.5-2.8-1.1-4.2-1.8c-1.5-0.8-3-1.7-4.2-2.9c-1.5-1.5-2.6-3.2-3.1-5.3c-1-4.2,0.3-8.8,4.1-11.8
		c1.8-1.4,3.8-2.3,6-2.7c2.2-0.5,4.5-0.5,6.7-0.3c1.8,0.2,3.5,0.5,5.2,1.1c0.5,0.2,1,0.4,1.5,0.6c0.2,0.1,0.4,0.2,0.6,0.3
		c0,0.1,0,0.3,0,0.4c-0.4,1.3-0.9,2.6-1.3,3.9c0,0.1-0.1,0.2-0.2,0.4c-0.2-0.1-0.4-0.2-0.6-0.3c-1.8-0.9-3.8-1.4-5.8-1.7
		c-1.4-0.2-2.7-0.2-4.1,0c-1.3,0.2-2.5,0.6-3.6,1.3c-1.5,1-2.6,2.4-2.9,4.2c-0.4,2.3,0.1,4.4,1.8,6.2c0.7,0.7,1.6,1.3,2.4,1.8
		c1.2,0.7,2.6,1.3,3.9,1.8c1.2,0.5,2.3,0.9,3.5,1.5c1.4,0.6,2.7,1.4,3.9,2.3c1,0.8,2,1.6,2.7,2.7c1.2,1.6,1.9,3.5,2.1,5.5
		c0.2,1.5,0.1,3-0.2,4.5c-0.7,3.3-2.6,5.8-5.4,7.6c-1.7,1.1-3.6,1.7-5.6,2.1c-1.9,0.4-3.7,0.5-5.6,0.4c-2.9-0.2-5.7-0.7-8.3-1.8
		c-0.5-0.2-1-0.5-1.5-0.7C290.2,60.1,290.1,60,290,60z"/>
	<path class="st0" d="M355.7,56.2c0.4,1.5,0.8,2.9,1.2,4.4c-0.2,0.3-0.4,0.3-0.6,0.4c-1.1,0.5-2.2,0.8-3.4,1
		c-3.1,0.7-6.2,0.9-9.4,0.8c-3-0.1-5.9-0.8-8.6-2c-5.2-2.3-8.7-6.2-10.7-11.6c-0.7-2-1.1-4.1-1.3-6.2c-0.2-1.6-0.2-3.2-0.1-4.7
		c0.2-3.5,1-6.9,2.6-10.1c2.7-5.2,6.8-8.7,12.4-10.6c1.8-0.6,3.8-1,5.7-1.2c2.2-0.2,4.4-0.2,6.6,0c2,0.2,3.9,0.6,5.8,1.3
		c0.4,0.1,0.8,0.3,1.1,0.5c-0.4,1.5-0.9,3-1.3,4.5c-0.1,0-0.3-0.1-0.4-0.1c-2.3-1-4.7-1.5-7.2-1.6c-1.8-0.1-3.7,0-5.5,0.3
		c-3.4,0.6-6.4,2-8.9,4.5c-1.9,1.9-3.1,4.2-3.9,6.7c-0.5,1.7-0.8,3.4-1,5.1c-0.1,1.6-0.1,3.1,0,4.7c0.2,2.2,0.7,4.3,1.6,6.3
		c1.9,4.3,5.2,7.2,9.7,8.6c1.8,0.6,3.7,0.8,5.6,0.8c2.6,0,5.1-0.2,7.6-1c0.6-0.2,1.2-0.4,1.8-0.6C355.2,56.4,355.4,56.3,355.7,56.2z
		"/>
	<path class="st0" d="M525.9,57.4c0.1,0.6,0.1,4.1,0,4.7c-0.1,0-0.2,0-0.4,0.1c-0.2,0-0.3,0-0.5,0c-7.8,0-15.6,0-23.3,0
		c-0.3,0-0.5,0-0.8,0c0-0.1-0.1-0.2-0.1-0.3c0-0.2,0-0.4,0-0.6c0-14.4,0-28.9,0-43.3c0-0.3,0-0.6,0-0.8c0.1,0,0.1-0.1,0.2-0.1
		c1.7,0,3.5,0,5.2,0c0.1,0,0.1,0,0.2,0.1c0,0.1,0,0.2,0,0.3c0,0.2,0,0.4,0,0.6c0,12.8,0,25.6,0,38.4c0,0.3-0.1,0.6,0.1,0.9
		c0.6,0,1.1,0,1.7,0c0.6,0,1.2,0,1.8,0c0.6,0,1.1,0,1.7,0c0.6,0,1.2,0,1.8,0s1.2,0,1.8,0c0.6,0,1.2,0,1.8,0s1.2,0,1.8,0
		c0.6,0,1.2,0,1.8,0c0.6,0,1.1,0,1.7,0c0.6,0,1.2,0,1.8,0C524.7,57.4,525.3,57.4,525.9,57.4z"/>
	<path class="st0" d="M280.4,65c0.1,0,0.3,0,0.4,0c0.3,0,0.5,0,0.8,0c81.1,0,162.2,0,243.4,0c0.3,0,0.7,0,1,0
		c0.1,0.2,0.1,0.5,0.1,0.7c0,0.2,0,0.4,0,0.6c-0.2,0-0.3,0.1-0.4,0.1c-0.3,0-0.5,0-0.8,0c-81.1,0-162.3,0-243.4,0c-0.3,0-0.7,0-1,0
		l0,0C280.5,65.9,280.5,65.4,280.4,65C280.4,65,280.4,65,280.4,65z"/>
	<path class="st0" d="M82.2,38.9c0,1.2-0.2,2.4-0.5,3.5c-1,2.6-2.8,4.2-5.5,4.9c-1.4,0.3-2.8,0.3-4.2,0c-2.5-0.7-4.1-2.3-5-4.7
		c-0.4-1-0.5-2.1-0.6-3.1c0-1.4,0.1-2.8,0.7-4.1c1.1-2.6,3-4.2,5.7-4.7c1.3-0.3,2.5-0.2,3.7,0.1c2.5,0.6,4.2,2.2,5.1,4.6
		C82,36.5,82.2,37.7,82.2,38.9z"/>
	<path class="st0" d="M23.2,39c0,1-0.1,2.1-0.5,3.2c-0.9,2.7-2.8,4.4-5.6,5.1c-1.4,0.3-2.8,0.3-4.2,0c-2.5-0.7-4.2-2.2-5-4.7
		C7,40.2,7,37.7,8,35.3c1.2-2.9,3.5-4.4,6.6-4.7c1.1-0.1,2.2,0,3.3,0.3c2.4,0.8,4,2.4,4.8,4.8C23,36.7,23.2,37.9,23.2,39z"/>
	<path class="st0" d="M62.5,38.9c0,1.2-0.1,2.3-0.5,3.4c-0.9,2.7-2.8,4.4-5.6,5c-1.5,0.4-3,0.3-4.5-0.1c-2.4-0.8-4-2.4-4.8-4.8
		c-0.5-1.4-0.6-2.8-0.5-4.2c0.1-0.9,0.2-1.8,0.6-2.6c1.2-3.1,3.5-4.7,6.8-5c1.1-0.1,2.2,0,3.2,0.3c2.5,0.8,4.1,2.5,4.9,5
		C62.4,36.9,62.5,37.9,62.5,38.9z"/>
	<path class="st0" d="M141.2,39.4c0,0.7-0.1,1.8-0.5,2.9c-0.9,2.7-2.8,4.3-5.5,5c-1.4,0.4-2.8,0.3-4.2,0c-2.3-0.6-3.9-2.1-4.9-4.3
		c-0.5-1.3-0.8-2.6-0.7-3.9c0-1.2,0.2-2.4,0.6-3.5c1.2-3.1,3.5-4.7,6.8-5c1.1-0.1,2.2,0,3.2,0.3c2.3,0.7,3.8,2.3,4.7,4.5
		C141,36.5,141.2,37.7,141.2,39.4z"/>
	<path class="st0" d="M82.2,63.5c0,1.2-0.2,2.4-0.6,3.5c-1,2.8-3.1,4.4-6,5c-1.3,0.2-2.6,0.2-3.8-0.2c-2.5-0.8-4.2-2.4-5-4.9
		c-0.3-0.9-0.4-1.8-0.5-2.8c0-1.3,0.1-2.6,0.6-3.8c1.1-2.8,3.1-4.5,6.1-5c1.3-0.2,2.6-0.2,3.8,0.2c2.4,0.7,3.9,2.3,4.8,4.5
		C82,61.1,82.2,62.3,82.2,63.5z"/>
	<path class="st0" d="M23.2,14.1c0,1.1-0.2,2.3-0.6,3.4c-0.9,2.6-2.8,4.2-5.4,4.9c-1.5,0.4-2.9,0.4-4.4,0c-2.4-0.7-4.1-2.3-5-4.7
		c-0.8-2.4-0.8-4.8,0.1-7.1c1-2.7,3.1-4.3,5.9-4.8c1.3-0.2,2.6-0.2,3.9,0.2c2.1,0.6,3.6,1.9,4.5,3.9C22.9,11.2,23.1,12.6,23.2,14.1z
		"/>
	<path class="st0" d="M86,39.2c0-1.3,0.2-2.6,0.7-3.8c1.2-3,3.5-4.5,6.7-4.8c1.1-0.1,2.2,0,3.2,0.3c2.1,0.7,3.7,2.1,4.6,4.1
		c0.7,1.5,0.8,3.1,0.7,4.8c-0.1,0.8-0.2,1.6-0.5,2.4c-0.9,2.7-2.8,4.4-5.6,5.1c-1.4,0.3-2.8,0.3-4.2,0c-2.7-0.8-4.4-2.5-5.2-5.1
		C86.1,41.2,86,40.2,86,39.2z"/>
	<path class="st0" d="M86,14.2c0-1.1,0.1-2.3,0.5-3.4c1-2.8,3-4.5,6-5c1.3-0.2,2.6-0.2,3.9,0.2c2.3,0.7,3.9,2.2,4.8,4.5
		c0.6,1.4,0.7,2.9,0.6,4.5c-0.1,0.8-0.2,1.6-0.5,2.4c-0.9,2.7-2.7,4.4-5.4,5.1c-1.5,0.4-3,0.4-4.4,0c-2.6-0.8-4.2-2.5-5.1-5
		C86.1,16.4,86,15.4,86,14.2z"/>
	<path class="st0" d="M125.3,14.3c0-1.4,0.2-2.7,0.8-4c1.1-2.6,3-4.1,5.8-4.6c1.2-0.2,2.5-0.2,3.7,0.1c2.1,0.5,3.7,1.8,4.7,3.8
		c0.6,1.1,0.9,2.4,0.9,3.6c0.1,1.5,0,2.9-0.5,4.3c-1.1,2.9-3.2,4.5-6.1,5c-1.2,0.2-2.4,0.2-3.6-0.2c-2.3-0.6-3.9-2.1-4.8-4.2
		C125.5,16.7,125.4,15.6,125.3,14.3z"/>
	<path class="st0" d="M145,14.3c0-1.5,0.2-2.9,0.8-4.2c1.1-2.4,3-3.9,5.7-4.4c1.3-0.2,2.6-0.2,3.9,0.2c2.3,0.7,3.9,2.2,4.8,4.5
		c0.5,1.4,0.7,2.9,0.6,4.4c-0.1,0.8-0.2,1.7-0.5,2.5c-1,3-3.2,4.7-6.3,5.3c-1.3,0.2-2.7,0.1-4-0.3c-2.4-0.8-3.9-2.5-4.7-4.9
		C145.1,16.3,145,15.3,145,14.3z"/>
	<path class="st0" d="M62.5,14c0,1.4-0.2,2.6-0.6,3.8c-1.1,2.7-3.2,4.2-6,4.8c-1.2,0.2-2.5,0.2-3.7-0.2c-2.2-0.6-3.8-2-4.7-4.1
		c-1.2-2.5-1.1-6.1,0.2-8.5c1.2-2.3,3-3.6,5.5-4c1.3-0.3,2.7-0.2,4,0.2c2.6,0.8,4.2,2.5,5,5C62.4,12,62.5,13,62.5,14z"/>
	<path class="st0" d="M23.2,63.6c0,1.2-0.2,2.3-0.6,3.5c-0.9,2.4-2.5,3.9-5,4.7c-1.6,0.5-3.2,0.5-4.8,0.1c-2.4-0.7-4.1-2.3-5-4.7
		c-0.8-2.4-0.8-4.8,0.1-7.1c1.1-2.8,3.1-4.4,6-4.8c1.3-0.2,2.6-0.1,3.8,0.2c2.3,0.7,3.9,2.2,4.8,4.5C23,61.1,23.1,62.2,23.2,63.6z"
		/>
	<path class="st0" d="M62.5,63.6c0,1-0.1,2.2-0.5,3.2c-1,2.9-3,4.5-6,5.1c-1.5,0.3-2.9,0.2-4.3-0.3c-2.3-0.8-3.8-2.4-4.6-4.7
		c-0.5-1.4-0.6-2.8-0.5-4.2c0.1-1,0.3-1.9,0.7-2.8c1.1-2.6,3.1-4.2,5.9-4.7c1.3-0.2,2.7-0.1,4,0.3c1.9,0.6,3.3,1.7,4.2,3.5
		C62.2,60.4,62.5,61.9,62.5,63.6z"/>
	<path class="st0" d="M121.5,63.5c0,1.3-0.2,2.6-0.6,3.7c-1.1,2.7-3.1,4.3-5.9,4.8c-1.3,0.3-2.6,0.2-3.9-0.2c-2.5-0.7-4.1-2.4-5-4.8
		c-0.8-2.3-0.7-4.6,0.1-6.8c1-2.8,3.1-4.5,6-5c1.3-0.2,2.6-0.2,3.8,0.2c2.3,0.7,3.9,2.2,4.7,4.4C121.3,61,121.5,62.3,121.5,63.5z"/>
	<g>
		<polygon class="st0" points="280.4,65 280.4,65 280.4,65 		"/>
		<path class="st0" d="M280.4,66.4L280.4,66.4L280.4,66.4L280.4,66.4z"/>
		<path class="st0" d="M280.4,72.1c0-1.9,0-3.8,0-5.7c-0.3,0-0.5,0-0.8,0c-31.9,0-63.9,0-95.8,0c-0.3,0-0.6,0-0.9,0
			c0-0.1,0-0.2,0-0.3c0-0.2,0-0.5,0-0.7c0-14,0-28,0-42c0-0.3,0-0.6,0-0.8c-0.3-0.1-0.5-0.1-0.7-0.1c-3.8,0-7.7,0-11.5,0
			c-0.2,0-0.4,0-0.6,0c-0.6,0-0.9-0.3-0.9-0.9c0-0.4,0-0.9,0-1.3c0-0.9,0-1.9,0-2.8c0-0.2,0-0.3,0-0.5c0.1-0.4,0.3-0.6,0.7-0.7
			c0.2,0,0.3,0,0.5,0c10.8,0,21.6,0,32.4,0c0.2,0,0.3,0,0.5,0c0.4,0,0.6,0.3,0.7,0.7c0,0.1,0,0.3,0,0.5c0,1.3,0,2.6,0,4
			c0,0.1,0,0.1,0,0.2c0,0.6-0.3,0.9-0.9,0.9c-0.2,0-0.4,0-0.6,0c-3.8,0-7.7,0-11.5,0c-0.3,0-0.5,0-0.8,0.1c0,0.1,0,0.2-0.1,0.4
			c0,0.2,0,0.4,0,0.6c0,12.2,0,24.5,0,36.7l0,0V65c29.8,0,59.6,0,89.4,0c0.3,0,0.6,0,1-0.1c0-0.2,0-0.5,0-0.7c0-21.1,0-42.2,0-63.3
			c0-0.2,0-0.3,0-0.5c0-0.1,0-0.3-0.1-0.4c-0.3,0-0.6,0-0.9,0C186.6,0,93.8,0,1,0C0.8,0,0.6,0,0.4,0C0.3,0,0.2,0,0,0
			c0,0.1,0,0.3,0,0.3c0,26,0,52,0,78.1c0,0,0,0.1,0.1,0.1c0.1,0,0.1,0,0.2,0c93.3,0,186.6,0,279.9,0c0.1,0,0.1,0,0.2-0.1
			c0.1-0.2,0-0.5,0-0.7C280.4,76,280.4,74,280.4,72.1z M240.7,17c0-0.4,0.3-0.6,0.7-0.7c0.2,0,0.3,0,0.5,0c1.6,0,3.2,0,4.8,0
			c0.2,0,0.3,0,0.5,0c0.4,0,0.7,0.3,0.7,0.8c0,0.2,0,0.4,0,0.6c0,6.1,0,12.2,0,18.2c0,0.2,0,0.5,0,0.7c0.2,0.1,0.2,0,0.3-0.1
			c3.5-4.8,7.5-9.3,11.2-13.9c1.4-1.8,2.9-3.6,4.3-5.3c0.2-0.2,0.3-0.4,0.5-0.6c0.2-0.3,0.5-0.4,0.8-0.4c0.1,0,0.2,0,0.3,0
			c2,0,4.1,0,6.1,0c0.2,0,0.3,0,0.5,0c0.6,0.1,0.9,0.7,0.6,1.2c-0.1,0.2-0.3,0.3-0.4,0.5c-2.4,2.7-4.7,5.5-7.1,8.2
			c-2.7,3.1-5.3,6.3-8,9.4c-0.1,0.2-0.3,0.3-0.5,0.5c0.2,0.3,0.3,0.5,0.5,0.7c5.5,8.1,10.9,16.1,16.4,24.2c0.1,0.2,0.3,0.3,0.4,0.5
			c0.3,0.5,0,1.1-0.6,1.2c-0.1,0-0.3,0-0.5,0c-1.9,0-3.9,0-5.8,0c-0.6,0-1-0.2-1.3-0.7c-3-4.4-5.9-8.8-8.9-13.3
			c-1.6-2.4-3.3-4.9-4.9-7.3c-0.1-0.2-0.3-0.3-0.4-0.6c-0.1,0.2-0.2,0.3-0.3,0.5c-0.9,1.1-1.9,2.2-2.8,3.2c-0.3,0.3-0.4,0.6-0.4,1
			c0,3.7,0,7.3,0,11c0,1.6,0,3.2,0,4.9c0,0.2,0,0.3,0,0.5c0,0.5-0.3,0.8-0.8,0.8c-0.1,0-0.2,0-0.3,0c-1.7,0-3.4,0-5.1,0
			c-0.1,0-0.2,0-0.3,0c-0.4-0.1-0.7-0.3-0.7-0.8c0-0.2,0-0.3,0-0.5c0-14.7,0-29.4,0-44C240.7,17.3,240.7,17.1,240.7,17z M207.6,17
			c0-0.4,0.3-0.7,0.7-0.7c0.2,0,0.4,0,0.6,0c7.8,0,15.5,0,23.3,0c0.2,0,0.3,0,0.5,0c0.4,0,0.7,0.3,0.8,0.8c0,0.1,0,0.2,0,0.3
			c0,1.3,0,2.7,0,4c0,0.1,0,0.1,0,0.2c0,0.6-0.3,0.9-0.9,0.9c-0.2,0-0.4,0-0.6,0c-5.4,0-10.8,0-16.3,0c-0.3,0-0.5,0-0.8,0
			c0,0.2,0,0.3-0.1,0.4c0,0.2,0,0.3,0,0.5c0,3.7,0,7.5,0,11.2c0,0.3,0,0.5,0,0.8c0.2,0.1,0.5,0.1,0.7,0.1c2.6,0,5.1,0,7.7,0
			c2.6,0,5.2,0,7.8,0c0.2,0,0.4,0,0.6,0c0.4,0,0.7,0.3,0.7,0.7c0,0.2,0,0.3,0,0.5c0,1.2,0,2.5,0,3.7c0,1.1-0.3,1.3-1.3,1.3
			c-5.2,0-10.3,0-15.5,0c-0.3,0-0.5,0-0.8,0c-0.1,0.7-0.1,10.5-0.1,14.4c0,0.1,0,0.3,0,0.5c0.2,0,0.3,0,0.4,0c0.2,0,0.4,0,0.6,0
			c5.7,0,11.4,0,17,0c0.2,0,0.4,0,0.6,0c0.6,0,0.8,0.3,0.9,0.9c0,0.1,0,0.2,0,0.3c0,1.3,0,2.6,0,3.9c0,0.2,0,0.3,0,0.5
			c-0.1,0.4-0.3,0.7-0.7,0.7c-0.1,0-0.3,0-0.5,0c-8.1,0-16.3,0-24.4,0c-0.2,0-0.3,0-0.5,0c-0.5-0.1-0.7-0.4-0.8-0.8
			c0-0.2,0-0.3,0-0.5c0-14.7,0-29.4,0-44.1C207.6,17.3,207.6,17.2,207.6,17z M106.3,10.5c1.1-2.6,3-4.2,5.8-4.7
			c1.3-0.2,2.7-0.2,4,0.2c2.6,0.8,4.2,2.5,5,5.1c0.3,0.9,0.4,1.9,0.4,3c0,1.2-0.1,2.3-0.5,3.4c-1,2.9-3.1,4.5-6,5.1
			c-1.3,0.3-2.6,0.2-3.9-0.2c-2.4-0.7-4.1-2.3-4.9-4.7C105.4,15.2,105.4,12.8,106.3,10.5z M121.5,38.9c0,1-0.1,2-0.4,2.9
			c-0.8,2.8-2.6,4.6-5.5,5.4c-1.5,0.4-3,0.4-4.4,0c-2.6-0.7-4.2-2.4-5.1-4.8c-0.8-2.3-0.8-4.6,0.1-6.8c1.2-3.1,3.5-4.8,6.8-5.1
			c1-0.1,1.9,0,2.8,0.2c2.4,0.6,4.1,2.1,5,4.4C121.3,36.2,121.5,37.5,121.5,38.9z M66.3,13.8c0-1.1,0.2-2.1,0.6-3c1.1-2.8,3-4.5,6-5
			c1.3-0.2,2.7-0.2,4,0.2c2.5,0.8,4.1,2.5,4.9,4.9c0.3,1,0.5,2.1,0.5,3.1c0,1.3-0.2,2.4-0.6,3.6c-1,2.8-3.1,4.4-6,5
			c-1.3,0.3-2.6,0.2-3.8-0.2c-2.5-0.8-4.2-2.4-5-4.9C66.4,16.2,66.3,15,66.3,13.8z M27.7,10.3c1.1-2.6,3-4.1,5.8-4.6
			c1.3-0.2,2.7-0.2,4,0.2c2.3,0.7,3.8,2.2,4.7,4.4c0.6,1.5,0.8,3.2,0.6,4.8c-0.1,0.8-0.2,1.5-0.5,2.2c-1,3-3.2,4.7-6.2,5.2
			c-1.2,0.2-2.5,0.1-3.7-0.2c-2.6-0.8-4.3-2.5-5.1-5.1c-0.3-1-0.4-1.9-0.4-2.9C27,12.9,27.2,11.6,27.7,10.3z M24.2,64.9
			c-0.1,0.9-0.3,1.7-0.6,2.5c-1.2,3.1-3.4,4.9-6.6,5.6c-0.3,0.1-0.5,0.1-0.8,0.1c-0.4,0-0.7,0-1.1,0.1c-1.6,0-3.1-0.4-4.5-1.2
			c-1.8-1-3-2.6-3.7-4.5C5.9,64.9,6,62.3,7,59.7c1.2-3.1,3.4-4.9,6.6-5.5c1.5-0.3,3-0.2,4.5,0.2c2.9,0.9,4.7,2.8,5.6,5.6
			C24.2,61.6,24.4,63.2,24.2,64.9z M6.2,38.1c0.1-1,0.3-1.9,0.6-2.9c1.3-3.4,3.7-5.3,7.3-5.8c1.4-0.2,2.7-0.1,4,0.3
			c2.8,0.9,4.6,2.8,5.5,5.5c0.4,1.1,0.5,2.3,0.5,3.2c0,1.6-0.2,2.9-0.6,4.2c-1.1,2.9-3.2,4.8-6.2,5.6c-1.7,0.4-3.5,0.4-5.2-0.2
			c-2.8-0.9-4.6-2.9-5.5-5.6C6.2,41.1,6.1,39.6,6.2,38.1z M23.5,18c-1.1,2.9-3.1,4.6-6,5.4c-1.7,0.4-3.4,0.4-5,0
			c-2.9-0.9-4.8-2.8-5.8-5.7c-0.5-1.4-0.6-2.9-0.5-4.4c0.1-1,0.3-2.1,0.7-3c1.2-3,3.4-4.9,6.6-5.5c0.6-0.1,1.3-0.2,1.9-0.2
			c1.4,0.1,2.8,0.3,4,1c2,1,3.4,2.6,4.1,4.7C24.5,12.8,24.5,15.4,23.5,18z M27.6,35.5c1.2-3,3.4-4.7,6.7-5c0.3,0,0.5,0,0.8,0
			c1,0,1.9,0.1,2.9,0.5c2.1,0.8,3.5,2.2,4.3,4.3c0.6,1.5,0.8,3.2,0.6,4.8c-0.1,0.6-0.2,1.2-0.3,1.8c-0.8,2.9-2.7,4.7-5.5,5.5
			c-1.4,0.4-2.9,0.4-4.4,0c-2.5-0.7-4.2-2.3-5-4.7C26.7,40.2,26.7,37.8,27.6,35.5z M42.8,64.6c-0.1,0.9-0.3,1.7-0.6,2.5
			c-1.1,2.7-3.1,4.3-5.9,4.8c-1.3,0.3-2.6,0.2-3.9-0.2c-2.6-0.8-4.2-2.5-5-5.1c-0.3-1-0.4-2-0.4-3c0-1.3,0.2-2.6,0.6-3.7
			c1.1-2.7,3.1-4.3,6-4.8c1.3-0.2,2.6-0.2,3.9,0.2c2.4,0.7,4,2.4,4.9,4.7C42.8,61.6,42.9,63.1,42.8,64.6z M46.5,9.7
			c1.2-2.7,3.4-4.4,6.3-4.9c1.6-0.3,3.2-0.3,4.7,0.2c2.7,0.8,4.6,2.7,5.5,5.3c0.5,1.2,0.6,2.5,0.6,3.8c0,1.3-0.2,2.6-0.6,3.8
			c-1.2,3.2-3.4,5-6.7,5.7c-1.5,0.3-3,0.3-4.4-0.2c-2.7-0.8-4.6-2.5-5.6-5.2C45.2,15.3,45.3,12.4,46.5,9.7z M62.9,67.6
			c-1.2,3-3.4,4.8-6.6,5.4c-1.5,0.3-3,0.3-4.5-0.2c-2.8-0.8-4.7-2.7-5.7-5.5c-0.6-1.7-0.7-3.4-0.5-5.1c0.1-1,0.4-2.1,0.8-3
			c1.3-2.8,3.4-4.5,6.5-5.1c1.5-0.3,3-0.2,4.5,0.2c2.6,0.8,4.5,2.5,5.5,5c0.5,1.3,0.7,2.7,0.7,4.1C63.6,65,63.4,66.3,62.9,67.6z
			 M63,42.7c-1.1,3-3.2,4.9-6.3,5.7c-2,0.5-3.9,0.4-5.8-0.4c-2.4-1-4-2.7-4.8-5.2c-0.9-2.7-0.8-5.3,0.2-7.9c1.3-3.2,3.7-4.9,7.1-5.3
			c1.5-0.2,3-0.1,4.4,0.5c2.7,1,4.4,2.9,5.2,5.6c0.4,1.1,0.5,2.3,0.5,3.4C63.6,40.2,63.4,41.5,63,42.7z M83.2,64.7
			c-0.1,1-0.3,2-0.7,2.9c-1.2,3-3.4,4.8-6.6,5.4c-0.6,0.1-1.3,0.2-1.9,0.2c-1.7,0-3.2-0.4-4.6-1.3c-1.8-1.1-3-2.7-3.7-4.7
			c-0.8-2.5-0.8-5,0.1-7.4c1.2-3.1,3.4-5,6.7-5.6c1.5-0.3,3-0.2,4.5,0.2c2.7,0.8,4.5,2.6,5.5,5.3C83.2,61.3,83.4,63,83.2,64.7z
			 M82.8,42.4c-1,3.1-3.1,5.1-6.3,5.9c-1.8,0.5-3.6,0.4-5.3-0.1c-2.8-0.9-4.6-2.8-5.5-5.6c-0.5-1.5-0.6-3-0.5-4.6
			c0.1-1,0.3-2.1,0.7-3c1.3-3.2,3.7-5,7.2-5.5c1.4-0.2,2.7-0.1,4,0.3c2.8,0.9,4.6,2.8,5.5,5.6c0.4,1.1,0.5,2.3,0.5,3.6
			C83.3,40.1,83.1,41.3,82.8,42.4z M101.8,64.4c-0.1,0.9-0.2,1.8-0.6,2.7c-1.1,2.7-3.1,4.3-5.9,4.9c-1.3,0.3-2.6,0.2-3.9-0.2
			c-2.6-0.8-4.2-2.5-5-5c-0.3-1-0.4-2-0.4-3c0-1.5,0.2-2.9,0.8-4.2c1.1-2.5,3.1-3.9,5.8-4.4c1.2-0.2,2.4-0.2,3.6,0.1
			c2.2,0.6,3.8,1.9,4.8,3.9C101.7,60.9,102,62.6,101.8,64.4z M102.3,42.8c-1.1,2.9-3.2,4.8-6.2,5.6c-1.7,0.4-3.4,0.4-5.1-0.1
			c-2.9-0.9-4.7-2.9-5.6-5.8c-0.3-1.1-0.5-2.2-0.5-3.2c0-1.7,0.2-3.2,0.9-4.6c1.4-3,3.7-4.7,7-5.2c1.4-0.2,2.8-0.1,4.1,0.3
			c2.6,0.8,4.4,2.6,5.3,5.1c0.4,1.1,0.6,2.3,0.7,3.5C103,39.9,102.8,41.4,102.3,42.8z M102.2,18.2c-1.2,3-3.4,4.7-6.6,5.3
			c-1.8,0.3-3.5,0.2-5.2-0.4c-2.6-1-4.2-2.9-5.1-5.6c-0.4-1.3-0.5-2.6-0.5-3.9c0.1-1.3,0.3-2.6,0.8-3.8C87,7,89.1,5.3,92.1,4.7
			c0.6-0.1,1.2-0.2,1.6-0.2c1.5,0,2.7,0.2,3.8,0.6c2.3,0.9,3.8,2.5,4.7,4.8C103.2,12.7,103.2,15.5,102.2,18.2z M121.9,67.5
			c-1.2,3-3.4,4.8-6.6,5.5c-1.6,0.3-3.3,0.3-4.9-0.3c-2.7-0.9-4.5-2.8-5.3-5.4c-0.8-2.5-0.8-5.1,0.1-7.6c1.2-3.1,3.4-4.9,6.7-5.5
			c1.6-0.3,3.3-0.2,4.9,0.3c2.6,0.9,4.3,2.7,5.2,5.3c0.4,1.2,0.6,2.4,0.6,3.5C122.6,64.9,122.4,66.2,121.9,67.5z M124.9,10.5
			c1.3-3.6,3.9-5.5,7.7-5.9c1.5-0.2,2.9,0,4.3,0.6c2.5,1,4.1,2.9,4.9,5.4c0.5,1.5,0.6,3,0.5,4.5c-0.1,1-0.3,2.1-0.7,3
			c-1.2,3-3.5,4.8-6.6,5.4c-0.6,0.1-1.2,0.1-1.6,0.2c-2.6,0-4.7-0.7-6.3-2.3c-1.2-1.1-1.9-2.4-2.4-4C124,15.1,124.1,12.7,124.9,10.5
			z M140.6,67c-1.1,2.8-3.1,4.5-6,5c-1.3,0.2-2.6,0.2-3.8-0.2c-2.5-0.8-4.2-2.4-5-4.9c-0.4-1.3-0.6-2.6-0.5-3.9
			c0.1-1,0.2-1.9,0.5-2.8c1-2.8,3.1-4.5,6.1-5c1.3-0.2,2.6-0.2,3.9,0.2c2.5,0.8,4.1,2.5,4.9,4.9c0.3,1,0.5,2.1,0.5,3.2
			C141.2,64.8,141,65.9,140.6,67z M142.3,39.9c-0.1,1-0.2,1.9-0.6,2.8c-1.1,3-3.2,4.8-6.2,5.6c-1.8,0.5-3.5,0.4-5.2-0.2
			c-2.9-1-4.7-3-5.6-6c-0.3-1-0.4-2-0.4-3.4c0-1.4,0.3-3.1,1.1-4.7c1.3-2.4,3.2-3.9,5.9-4.5c1.5-0.3,3-0.3,4.5,0.1
			c2.9,0.8,4.8,2.6,5.8,5.3C142.2,36.6,142.4,38.3,142.3,39.9z M160.9,64.2c-0.1,1-0.2,2-0.6,2.9c-1.1,2.7-3.1,4.3-5.9,4.9
			c-1.3,0.3-2.6,0.2-3.9-0.2c-2.6-0.8-4.2-2.5-5-5c-0.3-1-0.5-2.1-0.4-3.1c0-1.4,0.2-2.6,0.7-3.8c1.1-2.6,3.1-4.2,5.9-4.7
			c1.3-0.2,2.6-0.2,3.9,0.2c2.3,0.7,3.9,2.2,4.8,4.5C160.8,61.3,161,62.7,160.9,64.2z M145,39.2c0-1.2,0.2-2.3,0.5-3.4
			c1.1-3,3.6-5,6.8-5.2c1-0.1,2,0,3,0.3c2.2,0.6,3.7,1.9,4.7,3.9c0.8,1.6,1,3.2,0.9,4.9c-0.1,1-0.2,1.9-0.6,2.9
			c-1,2.6-2.8,4.2-5.5,4.8c-1.4,0.3-2.8,0.3-4.2,0c-2.5-0.7-4.1-2.3-5-4.7C145.2,41.5,145,40.3,145,39.2z M161.3,17.8
			c-1.1,3.2-3.5,5.1-6.8,5.8c-1.6,0.3-3.2,0.2-4.7-0.3c-2.8-1-4.5-2.9-5.4-5.6c-0.4-1.4-0.6-2.8-0.5-4.2c0.1-1.2,0.3-2.4,0.8-3.5
			c1.2-2.8,3.4-4.5,6.4-5.1c0.2,0,0.5-0.1,0.7-0.1c0.4,0,0.8-0.1,1-0.1c1.6,0,3,0.3,4.3,0.9c2.1,1.1,3.5,2.8,4.2,5
			C162.2,12.9,162.2,15.4,161.3,17.8z"/>
	</g>
</g>
</svg>
