<?xml version="1.0" encoding="utf-8"?>
<!-- Generator: Adobe Illustrator 27.4.1, SVG Export Plug-In . SVG Version: 6.00 Build 0)  -->
<svg version="1.1" id="Layer_1" xmlns="http://www.w3.org/2000/svg" xmlns:xlink="http://www.w3.org/1999/xlink" x="0px" y="0px"
	 viewBox="0 0 387.43 70" style="enable-background:new 0 0 387.43 70;" xml:space="preserve">
<style type="text/css">
	.st0{fill:#FFFFFF;}
</style>
<g>
	<path class="st0" d="M327.93,35.07c-0.02,1.9-0.27,3.91-0.9,5.85c-0.44,1.36-1.05,2.64-1.88,3.81c-1.81,2.54-4.24,4.15-7.26,4.89
		c-1.56,0.38-3.14,0.49-4.73,0.32c-2.95-0.3-5.51-1.46-7.59-3.59c-1.15-1.18-2.02-2.55-2.66-4.06c-0.63-1.5-1.01-3.06-1.19-4.68
		c-0.14-1.25-0.16-2.51-0.07-3.76c0.19-2.47,0.78-4.82,2-6.99c1.33-2.38,3.21-4.2,5.69-5.37c1.3-0.61,2.67-0.98,4.09-1.13
		c1.16-0.12,2.32-0.13,3.47,0.04c4.03,0.58,7.06,2.63,9.06,6.18c0.82,1.46,1.34,3.02,1.65,4.66
		C327.83,32.45,327.93,33.68,327.93,35.07z M324.06,34.99c0.02-1.34-0.16-2.75-0.52-4.13c-0.39-1.45-0.97-2.82-1.85-4.05
		c-0.83-1.17-1.86-2.11-3.15-2.76c-0.99-0.49-2.04-0.76-3.14-0.83c-1.4-0.09-2.76,0.1-4.05,0.67c-1.45,0.63-2.59,1.63-3.49,2.9
		c-0.81,1.14-1.36,2.4-1.74,3.73c-0.36,1.28-0.55,2.59-0.61,3.92c-0.09,1.82,0.1,3.61,0.61,5.36c0.46,1.55,1.15,2.99,2.21,4.23
		c2.22,2.58,5.04,3.46,8.35,2.8c1.8-0.36,3.26-1.31,4.46-2.69c0.89-1.03,1.53-2.2,1.99-3.46C323.78,38.87,324.06,37,324.06,34.99z"
		/>
	<path class="st0" d="M298.35,34.9c0,2.01-0.25,3.99-0.86,5.92c-0.49,1.55-1.2,3-2.2,4.29c-1.71,2.23-3.93,3.69-6.64,4.42
		c-1.55,0.42-3.12,0.55-4.72,0.43c-1.86-0.14-3.62-0.62-5.24-1.54c-2.13-1.2-3.72-2.92-4.86-5.08c-0.81-1.53-1.31-3.16-1.58-4.86
		c-0.2-1.26-0.28-2.52-0.23-3.8c0.08-2.4,0.54-4.71,1.56-6.9c0.99-2.12,2.4-3.9,4.32-5.25c1.59-1.12,3.35-1.8,5.26-2.11
		c1.08-0.18,2.18-0.23,3.27-0.14c4.35,0.34,7.67,2.35,9.88,6.13c0.83,1.42,1.35,2.96,1.68,4.57
		C298.24,32.29,298.35,33.59,298.35,34.9z M294.49,35.08c0.01-1.28-0.13-2.54-0.42-3.78c-0.36-1.54-0.94-3-1.84-4.32
		c-0.56-0.83-1.23-1.56-2.04-2.16c-1.24-0.93-2.63-1.44-4.17-1.57c-1.02-0.09-2.02-0.02-3,0.23c-1.79,0.45-3.24,1.43-4.4,2.87
		c-0.86,1.07-1.46,2.27-1.89,3.56c-0.43,1.28-0.67,2.59-0.77,3.93c-0.15,1.86-0.02,3.7,0.44,5.5c0.39,1.51,0.99,2.93,1.93,4.18
		c2.07,2.76,4.83,3.9,8.23,3.42c1.9-0.27,3.49-1.17,4.79-2.58c0.95-1.03,1.63-2.22,2.12-3.53
		C294.19,38.98,294.48,37.05,294.49,35.08z"/>
	<path class="st0" d="M263.46,32.77c0-4.02,0-8,0-11.99c0.1-0.02,0.17-0.06,0.25-0.06c1.06,0,2.13,0,3.19,0
		c0.07,0,0.13,0.02,0.2,0.04c0.02,0.05,0.04,0.09,0.04,0.13c0,9.46,0.01,18.92,0.01,28.38c0,0.07-0.02,0.13-0.02,0.19
		c-0.02,0.02-0.03,0.03-0.05,0.03c-0.01,0.01-0.02,0.02-0.04,0.02c-1.12,0-2.24,0.01-3.36,0.01c-0.05,0-0.11-0.01-0.18-0.02
		c-0.01-0.08-0.03-0.16-0.04-0.24c-0.01-0.12,0-0.25,0-0.37c0-4.12,0-8.23,0-12.35c0-0.16-0.01-0.33-0.01-0.51
		c-0.11-0.02-0.21-0.05-0.3-0.06c-0.11-0.01-0.22,0-0.33,0c-4.27,0-8.55,0-12.82,0c-0.14,0-0.28,0-0.41,0.01
		c-0.15,0.01-0.2,0.06-0.21,0.2c-0.01,0.14-0.01,0.28-0.01,0.41c0,4.13,0,8.26,0,12.39c0,0.16-0.01,0.33-0.01,0.51
		c-0.42,0.07-0.82,0.03-1.22,0.03c-0.39,0.01-0.77,0-1.16,0c-0.4,0-0.8,0-1.2-0.01c-0.02-0.08-0.05-0.13-0.05-0.18
		c-0.01-9.52,0-19.03-0.01-28.56c0.09-0.03,0.15-0.06,0.22-0.06c1.06,0,2.13,0,3.19,0c0.07,0,0.13,0.02,0.23,0.04
		c0,0.17,0.01,0.34,0.01,0.5c0,3.66,0,7.32,0,10.98c0,0.17-0.05,0.36,0.07,0.52c0.38,0.06,11.95,0.09,13.73,0.04
		C263.25,32.81,263.32,32.79,263.46,32.77z"/>
	<path class="st0" d="M198.26,48.15c0.08-0.45,0.77-2.7,0.92-3c0.07,0.03,0.14,0.06,0.21,0.1c1.33,0.76,2.76,1.26,4.27,1.53
		c1.15,0.2,2.31,0.27,3.47,0.1c0.88-0.12,1.73-0.37,2.5-0.83c1.15-0.69,1.89-1.67,2.17-2.99c0.18-0.87,0.15-1.73-0.09-2.58
		c-0.22-0.79-0.66-1.45-1.25-2.02c-0.42-0.4-0.9-0.74-1.4-1.03c-0.86-0.51-1.77-0.91-2.7-1.25c-0.91-0.34-1.8-0.7-2.66-1.15
		c-0.97-0.51-1.89-1.1-2.68-1.86c-0.98-0.94-1.69-2.05-1.99-3.38c-0.62-2.67,0.16-5.61,2.6-7.52c1.14-0.9,2.44-1.44,3.85-1.75
		c1.42-0.31,2.85-0.32,4.29-0.2c1.13,0.1,2.24,0.32,3.32,0.7c0.32,0.12,0.64,0.26,0.96,0.4c0.13,0.05,0.24,0.12,0.38,0.2
		c-0.01,0.09,0,0.17-0.03,0.24c-0.28,0.82-0.55,1.65-0.84,2.47c-0.03,0.07-0.07,0.14-0.11,0.23c-0.14-0.06-0.27-0.12-0.39-0.18
		c-1.18-0.57-2.42-0.92-3.73-1.06c-0.87-0.1-1.74-0.11-2.61,0.01c-0.82,0.12-1.59,0.36-2.28,0.81c-0.97,0.63-1.63,1.5-1.84,2.65
		c-0.28,1.49,0.04,2.83,1.14,3.93c0.46,0.46,1,0.83,1.56,1.15c0.79,0.46,1.63,0.82,2.47,1.16c0.74,0.3,1.49,0.6,2.22,0.93
		c0.88,0.4,1.72,0.88,2.5,1.46c0.66,0.49,1.25,1.04,1.75,1.7c0.78,1.04,1.2,2.23,1.34,3.52c0.11,0.97,0.07,1.93-0.15,2.88
		c-0.47,2.09-1.64,3.69-3.44,4.82c-1.1,0.69-2.31,1.11-3.59,1.35c-1.19,0.23-2.39,0.3-3.59,0.24c-1.83-0.1-3.62-0.45-5.32-1.15
		c-0.33-0.14-0.65-0.31-0.97-0.47C198.43,48.27,198.34,48.2,198.26,48.15z"/>
	<path class="st0" d="M240.2,45.77c0.28,0.96,0.5,1.88,0.74,2.78c-0.11,0.16-0.27,0.19-0.41,0.24c-0.7,0.29-1.43,0.5-2.18,0.66
		c-1.97,0.43-3.97,0.58-5.98,0.48c-1.91-0.09-3.75-0.48-5.5-1.26c-3.33-1.49-5.58-3.98-6.81-7.41c-0.46-1.28-0.72-2.6-0.85-3.96
		c-0.1-1.01-0.11-2.01-0.06-3.02c0.12-2.26,0.63-4.42,1.68-6.44c1.71-3.31,4.37-5.53,7.89-6.74c1.18-0.4,2.4-0.65,3.64-0.77
		c1.4-0.13,2.79-0.11,4.18,0.03c1.27,0.13,2.51,0.37,3.71,0.82c0.24,0.09,0.49,0.17,0.72,0.35c-0.27,0.96-0.55,1.9-0.85,2.88
		c-0.09-0.03-0.17-0.04-0.24-0.07c-1.46-0.63-3-0.94-4.58-1.04c-1.18-0.07-2.35-0.02-3.51,0.19c-2.18,0.39-4.1,1.29-5.67,2.88
		c-1.19,1.21-1.98,2.65-2.49,4.25c-0.33,1.06-0.52,2.14-0.61,3.25c-0.08,0.99-0.07,1.99,0.02,2.98c0.13,1.4,0.43,2.75,1,4.04
		c1.22,2.77,3.29,4.59,6.18,5.47c1.16,0.36,2.35,0.51,3.55,0.53c1.65,0.03,3.28-0.15,4.88-0.61c0.38-0.11,0.76-0.26,1.14-0.39
		C239.92,45.88,240.03,45.83,240.2,45.77z"/>
	<path class="st0" d="M348.82,46.49c0.06,0.36,0.07,2.59,0.02,3.01c-0.07,0.01-0.15,0.03-0.23,0.04c-0.1,0.01-0.19,0-0.29,0
		c-4.96,0-9.93,0-14.89,0c-0.16,0-0.33,0-0.5,0c-0.02-0.09-0.04-0.15-0.05-0.22c-0.01-0.12,0-0.25,0-0.37c0-9.21,0-18.43,0-27.64
		c0-0.18-0.02-0.36,0.03-0.53c0.05-0.02,0.09-0.04,0.13-0.04c1.11,0,2.21,0,3.32,0c0.04,0,0.08,0.03,0.13,0.04
		c0.01,0.07,0.03,0.13,0.03,0.2c0,0.14,0,0.28,0,0.41c0,8.16,0,16.33,0,24.49c0,0.19-0.05,0.39,0.08,0.6
		c0.36,0.02,0.73,0.01,1.1,0.01c0.37,0,0.75,0,1.12,0c0.36,0,0.72,0,1.08,0c0.37,0,0.75,0,1.12,0c0.37,0,0.75,0,1.12,0
		s0.75,0,1.12,0c0.37,0,0.75,0,1.12,0c0.37,0,0.75,0,1.12,0c0.36,0,0.72,0,1.08,0c0.37,0,0.75,0,1.12,0
		C348.05,46.49,348.42,46.49,348.82,46.49z"/>
	<path class="st0" d="M192.17,51.36c0.08,0.01,0.16,0.03,0.25,0.03c0.17,0,0.33,0,0.5,0c51.76,0,103.53,0,155.29,0
		c0.22,0,0.44,0.01,0.66,0.01c0.08,0.15,0.05,0.29,0.06,0.42c0,0.12,0,0.25,0,0.39c-0.1,0.02-0.18,0.04-0.25,0.05
		c-0.17,0.01-0.33,0-0.5,0c-51.78,0-103.56,0-155.33,0c-0.22,0-0.44,0-0.66,0c0,0,0.01,0.01,0.01,0.01c0-0.31,0-0.62,0-0.93
		C192.18,51.35,192.17,51.36,192.17,51.36z"/>
	<path class="st0" d="M65.68,34.72c-0.01,0.77-0.1,1.51-0.35,2.22c-0.61,1.68-1.8,2.71-3.52,3.14c-0.89,0.22-1.78,0.22-2.67-0.03
		c-1.58-0.44-2.64-1.45-3.21-2.97c-0.24-0.64-0.35-1.31-0.36-1.99c-0.02-0.89,0.08-1.76,0.42-2.6c0.67-1.67,1.89-2.68,3.66-3.03
		c0.8-0.16,1.6-0.14,2.38,0.05c1.61,0.4,2.69,1.41,3.28,2.95C65.58,33.2,65.67,33.96,65.68,34.72z"/>
	<path class="st0" d="M28.02,34.78c-0.02,0.66-0.09,1.36-0.32,2.03c-0.59,1.74-1.78,2.82-3.55,3.27c-0.89,0.22-1.78,0.22-2.67-0.02
		c-1.58-0.43-2.66-1.43-3.22-2.97c-0.56-1.57-0.54-3.16,0.09-4.7c0.77-1.86,2.22-2.83,4.21-3c0.71-0.06,1.41-0.01,2.09,0.21
		c1.55,0.5,2.54,1.56,3.05,3.09C27.92,33.3,28.02,34.05,28.02,34.78z"/>
	<path class="st0" d="M53.12,34.71c0.01,0.77-0.09,1.48-0.33,2.16c-0.59,1.72-1.8,2.78-3.55,3.21c-0.96,0.24-1.92,0.22-2.86-0.09
		c-1.53-0.49-2.53-1.53-3.05-3.04c-0.3-0.87-0.39-1.78-0.3-2.7c0.05-0.57,0.15-1.12,0.36-1.65c0.77-1.97,2.22-3.03,4.32-3.22
		c0.69-0.06,1.38,0,2.05,0.21c1.6,0.51,2.6,1.61,3.1,3.19C53.05,33.43,53.13,34.08,53.12,34.71z"/>
	<path class="st0" d="M103.33,35.03c0,0.45-0.09,1.16-0.33,1.84c-0.59,1.7-1.78,2.75-3.52,3.2c-0.89,0.23-1.78,0.22-2.67-0.02
		c-1.48-0.4-2.52-1.32-3.14-2.73c-0.35-0.8-0.48-1.64-0.47-2.5c0.01-0.76,0.11-1.52,0.39-2.23c0.77-1.97,2.23-3.03,4.33-3.21
		c0.69-0.06,1.38,0,2.05,0.21c1.47,0.47,2.45,1.46,2.99,2.89C103.22,33.16,103.34,33.95,103.33,35.03z"/>
	<path class="st0" d="M65.67,50.44c-0.01,0.76-0.1,1.52-0.37,2.24c-0.67,1.78-1.98,2.81-3.83,3.16c-0.81,0.15-1.63,0.12-2.42-0.12
		c-1.62-0.48-2.66-1.56-3.2-3.15c-0.2-0.58-0.28-1.18-0.29-1.79c-0.02-0.83,0.07-1.66,0.36-2.44c0.68-1.81,1.97-2.88,3.88-3.21
		c0.82-0.14,1.63-0.1,2.42,0.14c1.51,0.45,2.52,1.44,3.07,2.9C65.56,48.85,65.68,49.64,65.67,50.44z"/>
	<path class="st0" d="M28.02,18.87c-0.03,0.73-0.1,1.47-0.36,2.18c-0.6,1.64-1.76,2.67-3.44,3.12c-0.93,0.24-1.86,0.24-2.79-0.02
		c-1.56-0.45-2.62-1.45-3.16-2.97c-0.54-1.51-0.52-3.05,0.04-4.54c0.66-1.74,1.95-2.77,3.79-3.08c0.83-0.14,1.66-0.11,2.46,0.13
		c1.33,0.39,2.3,1.23,2.9,2.48C27.87,17.01,28.01,17.92,28.02,18.87z"/>
	<path class="st0" d="M68.12,34.89c-0.01-0.86,0.11-1.67,0.43-2.43c0.78-1.89,2.22-2.9,4.25-3.08c0.69-0.06,1.38-0.01,2.05,0.2
		c1.37,0.43,2.34,1.32,2.91,2.64c0.42,0.97,0.54,1.99,0.46,3.04c-0.04,0.52-0.12,1.04-0.29,1.54c-0.59,1.74-1.78,2.82-3.55,3.27
		c-0.89,0.22-1.78,0.22-2.67-0.02c-1.71-0.48-2.8-1.6-3.33-3.28C68.18,36.15,68.1,35.51,68.12,34.89z"/>
	<path class="st0" d="M68.11,18.93c-0.01-0.72,0.09-1.46,0.35-2.16c0.66-1.79,1.94-2.88,3.83-3.21c0.83-0.15,1.66-0.12,2.46,0.12
		c1.49,0.44,2.51,1.41,3.07,2.85c0.36,0.92,0.46,1.87,0.38,2.85c-0.04,0.52-0.12,1.04-0.29,1.54c-0.57,1.71-1.74,2.78-3.47,3.25
		c-0.94,0.25-1.89,0.25-2.83-0.02c-1.66-0.49-2.71-1.59-3.24-3.22C68.19,20.33,68.11,19.69,68.11,18.93z"/>
	<path class="st0" d="M93.21,19.01c0.02-0.91,0.14-1.74,0.48-2.53c0.71-1.63,1.94-2.61,3.7-2.92c0.79-0.14,1.57-0.12,2.34,0.08
		c1.36,0.35,2.37,1.16,3,2.41c0.37,0.72,0.55,1.5,0.59,2.31c0.05,0.93-0.02,1.85-0.35,2.73c-0.68,1.82-2.02,2.84-3.92,3.17
		c-0.78,0.14-1.55,0.1-2.3-0.12c-1.45-0.41-2.47-1.32-3.06-2.7C93.3,20.55,93.24,19.84,93.21,19.01z"/>
	<path class="st0" d="M105.78,19.01c-0.01-0.96,0.14-1.84,0.52-2.67c0.72-1.55,1.93-2.48,3.62-2.78c0.84-0.15,1.68-0.12,2.5,0.12
		c1.49,0.44,2.51,1.41,3.07,2.85c0.35,0.9,0.46,1.84,0.38,2.81c-0.04,0.54-0.12,1.07-0.29,1.58c-0.66,1.92-2.01,3.01-4,3.35
		c-0.86,0.15-1.71,0.08-2.54-0.2c-1.53-0.53-2.51-1.61-3-3.14C105.85,20.28,105.76,19.63,105.78,19.01z"/>
	<path class="st0" d="M53.12,18.81c0,0.87-0.11,1.65-0.41,2.41c-0.7,1.74-2.01,2.71-3.84,3.04c-0.79,0.14-1.57,0.1-2.34-0.12
		c-1.4-0.4-2.4-1.27-3.01-2.59c-0.75-1.62-0.68-3.89,0.11-5.42c0.74-1.44,1.92-2.28,3.5-2.57c0.86-0.16,1.71-0.13,2.54,0.12
		c1.64,0.5,2.67,1.61,3.17,3.22C53.05,17.54,53.13,18.2,53.12,18.81z"/>
	<path class="st0" d="M28.02,50.47c-0.03,0.74-0.11,1.49-0.38,2.21c-0.56,1.51-1.62,2.51-3.16,2.99c-1.01,0.32-2.04,0.35-3.06,0.05
		c-1.56-0.45-2.62-1.45-3.16-2.97c-0.54-1.51-0.52-3.05,0.05-4.54c0.67-1.76,1.98-2.78,3.84-3.09c0.82-0.14,1.63-0.09,2.42,0.14
		c1.49,0.44,2.5,1.42,3.05,2.87C27.91,48.89,28,49.59,28.02,50.47z"/>
	<path class="st0" d="M53.12,50.5c0.01,0.65-0.09,1.38-0.33,2.07c-0.64,1.82-1.94,2.87-3.81,3.25c-0.93,0.19-1.85,0.13-2.74-0.19
		c-1.47-0.52-2.42-1.55-2.92-3.01c-0.3-0.87-0.38-1.78-0.29-2.7c0.06-0.62,0.18-1.23,0.42-1.81c0.71-1.69,1.97-2.68,3.78-2.99
		c0.86-0.15,1.71-0.09,2.54,0.16c1.19,0.37,2.08,1.11,2.68,2.21C52.94,48.41,53.13,49.39,53.12,50.5z"/>
	<path class="st0" d="M90.78,50.38c0,0.85-0.11,1.63-0.4,2.37c-0.68,1.73-1.96,2.72-3.77,3.07c-0.83,0.16-1.65,0.13-2.46-0.11
		c-1.59-0.47-2.64-1.52-3.16-3.08c-0.49-1.45-0.47-2.91,0.06-4.35c0.66-1.8,1.97-2.85,3.86-3.17c0.82-0.14,1.63-0.1,2.42,0.14
		c1.46,0.43,2.46,1.38,3.03,2.79C90.67,48.82,90.79,49.62,90.78,50.38z"/>
	<g>
		<polygon class="st0" points="192.18,51.35 192.17,51.35 192.17,51.36 		"/>
		<path class="st0" d="M192.17,52.27c0,0,0,0.01,0,0.01c0,0,0.01,0,0.01,0L192.17,52.27z"/>
		<path class="st0" d="M192.18,55.91c0-1.21,0-2.42-0.01-3.64c-0.18,0-0.35-0.01-0.53-0.01c-20.38,0-40.77,0-61.15,0
			c-0.19,0-0.38,0.03-0.58-0.03c-0.01-0.06-0.03-0.11-0.03-0.17c0-0.15,0-0.3,0-0.46c0-8.94,0-17.87,0-26.81
			c0-0.18,0.02-0.36-0.03-0.53c-0.16-0.06-0.31-0.04-0.46-0.04c-2.45,0-4.9,0-7.34,0c-0.12,0-0.25,0-0.37,0
			c-0.4-0.02-0.58-0.2-0.59-0.6c-0.01-0.28,0-0.55,0-0.83c0-0.59,0-1.19,0-1.78c0-0.11,0-0.22,0.01-0.33
			c0.04-0.24,0.21-0.39,0.45-0.42c0.11-0.01,0.22-0.01,0.33-0.01c6.9,0,13.8,0,20.7,0c0.11,0,0.22,0,0.33,0.01
			c0.24,0.03,0.4,0.18,0.45,0.42c0.02,0.09,0.02,0.19,0.02,0.29c0,0.84,0,1.69,0,2.53c0,0.04,0,0.08,0,0.12
			c-0.02,0.4-0.19,0.58-0.59,0.6c-0.12,0.01-0.25,0-0.37,0c-2.45,0-4.9,0-7.34,0c-0.16,0-0.33-0.03-0.51,0.04
			c-0.01,0.07-0.03,0.15-0.04,0.23c-0.01,0.14,0,0.28,0,0.41c0,7.81,0,15.61,0,23.42h0v3.05c19.02,0,38.03,0,57.05,0
			c0.2,0,0.4-0.02,0.61-0.04c0-0.15,0.01-0.3,0.01-0.45c0-13.47,0-26.93,0-40.4c0-0.11,0-0.22,0-0.33c0-0.08-0.02-0.16-0.04-0.26
			c-0.21,0-0.4,0-0.59,0c-59.23,0-118.46,0-177.69,0c-0.12,0-0.25,0-0.37,0c-0.08,0-0.16,0.02-0.25,0.03
			c-0.01,0.09-0.02,0.16-0.02,0.22c0,16.6,0.01,33.21,0.01,49.81c0,0.02,0.03,0.05,0.05,0.08c0.04,0.01,0.09,0.03,0.15,0.03
			c59.53,0,119.07,0,178.6,0c0.04,0,0.08-0.02,0.13-0.04c0.05-0.14,0.03-0.3,0.03-0.44C192.18,58.37,192.18,57.14,192.18,55.91z
			 M166.85,20.71c0.03-0.24,0.18-0.41,0.42-0.44c0.11-0.02,0.22-0.01,0.33-0.01c1.02,0,2.05,0,3.07,0c0.1,0,0.19,0,0.29,0.01
			c0.28,0.03,0.45,0.21,0.47,0.49c0.01,0.14,0.01,0.28,0.01,0.41c0,3.88,0,7.76,0,11.64c0,0.15,0,0.3,0,0.45
			c0.1,0.05,0.14-0.02,0.18-0.07c2.26-3.06,4.76-5.93,7.13-8.89c0.92-1.14,1.85-2.27,2.77-3.41c0.1-0.13,0.21-0.25,0.31-0.39
			c0.13-0.16,0.29-0.25,0.5-0.25c0.07,0,0.14,0,0.21,0c1.3,0,2.6,0,3.9,0c0.11,0,0.22,0,0.33,0.01c0.38,0.06,0.57,0.46,0.36,0.78
			c-0.07,0.12-0.17,0.22-0.26,0.32c-1.5,1.75-3,3.51-4.5,5.26c-1.71,2-3.41,3.99-5.11,5.99c-0.09,0.1-0.18,0.21-0.29,0.35
			c0.11,0.17,0.21,0.32,0.31,0.47c3.49,5.14,6.98,10.29,10.47,15.43c0.08,0.11,0.16,0.22,0.23,0.35c0.19,0.35,0.01,0.72-0.38,0.79
			c-0.09,0.02-0.19,0.01-0.29,0.01c-1.24,0-2.49-0.01-3.73,0.01c-0.37,0-0.61-0.13-0.82-0.44c-1.89-2.83-3.78-5.64-5.68-8.47
			c-1.04-1.55-2.08-3.1-3.12-4.64c-0.07-0.11-0.16-0.22-0.27-0.38c-0.09,0.12-0.15,0.2-0.22,0.29c-0.6,0.69-1.19,1.39-1.79,2.07
			c-0.17,0.19-0.24,0.38-0.23,0.63c0.01,2.33,0,4.67,0,7c0,1.04,0,2.07,0,3.11c0,0.1,0,0.19,0,0.29c-0.02,0.3-0.19,0.49-0.48,0.53
			c-0.07,0.01-0.14,0.01-0.21,0.01c-1.08,0-2.16,0-3.24,0c-0.07,0-0.14,0-0.21-0.01c-0.28-0.05-0.43-0.22-0.45-0.51
			c-0.01-0.11,0-0.22,0-0.33c0-9.36,0-18.73,0-28.09C166.84,20.96,166.84,20.83,166.85,20.71z M145.72,20.73
			c0.03-0.26,0.2-0.43,0.45-0.46c0.12-0.01,0.25-0.01,0.37-0.01c4.95,0,9.9,0,14.85,0c0.11,0,0.22,0,0.33,0.01
			c0.28,0.03,0.45,0.2,0.48,0.48c0.01,0.07,0,0.14,0,0.21c0,0.86,0,1.71,0,2.57c0,0.04,0,0.08,0,0.12c-0.02,0.39-0.2,0.58-0.58,0.6
			c-0.12,0.01-0.25,0-0.37,0c-3.46,0-6.91,0-10.37,0c-0.16,0-0.33,0-0.52,0c-0.02,0.1-0.03,0.18-0.04,0.26c-0.01,0.1,0,0.19,0,0.29
			c0,2.39,0,4.78,0,7.17c0,0.16-0.02,0.33,0.03,0.48c0.15,0.09,0.31,0.06,0.46,0.06c1.63,0,3.26,0,4.9,0c1.66,0,3.32,0,4.98,0
			c0.14,0,0.28,0,0.41,0.01c0.26,0.03,0.43,0.2,0.46,0.46c0.01,0.1,0.01,0.19,0.01,0.29c0,0.79-0.02,1.58,0.01,2.36
			c0.02,0.68-0.19,0.83-0.81,0.83c-3.29-0.01-6.58-0.01-9.87-0.01c-0.16,0-0.33,0.01-0.51,0.01c-0.07,0.46-0.09,6.67-0.04,9.2
			c0,0.09,0.01,0.19,0.02,0.3c0.1,0.01,0.18,0.03,0.25,0.03c0.14,0,0.28,0,0.41,0c3.62,0,7.25,0,10.87,0c0.14,0,0.28-0.01,0.41,0.01
			c0.36,0.03,0.52,0.2,0.55,0.55c0.01,0.07,0,0.14,0,0.21c0,0.83,0,1.66,0,2.49c0,0.1,0,0.19-0.01,0.29
			c-0.04,0.26-0.2,0.42-0.46,0.46c-0.09,0.01-0.19,0.01-0.29,0.01c-5.2,0-10.4,0-15.6,0c-0.1,0-0.19,0-0.29-0.01
			c-0.29-0.04-0.47-0.23-0.49-0.53c-0.01-0.1,0-0.19,0-0.29c0-9.38,0-18.76,0-28.14C145.72,20.95,145.71,20.84,145.72,20.73z
			 M81.1,16.56c0.67-1.68,1.93-2.68,3.72-3c0.86-0.15,1.71-0.12,2.54,0.13c1.64,0.5,2.66,1.62,3.16,3.23
			c0.19,0.6,0.26,1.2,0.26,1.92c0.01,0.74-0.09,1.46-0.33,2.16c-0.65,1.83-1.96,2.89-3.84,3.26c-0.83,0.16-1.65,0.12-2.46-0.12
			c-1.56-0.46-2.6-1.48-3.13-3C80.48,19.61,80.51,18.06,81.1,16.56z M90.78,34.74c0.01,0.62-0.07,1.25-0.25,1.86
			c-0.52,1.79-1.69,2.94-3.48,3.44c-0.94,0.26-1.89,0.27-2.82,0.01c-1.63-0.46-2.71-1.51-3.24-3.09c-0.49-1.45-0.48-2.91,0.05-4.34
			c0.74-1.98,2.21-3.04,4.31-3.23c0.61-0.05,1.21-0.02,1.81,0.14c1.54,0.4,2.59,1.35,3.2,2.81C90.62,32.97,90.8,33.83,90.78,34.74z
			 M55.56,18.68c0.03-0.67,0.13-1.32,0.36-1.94c0.67-1.78,1.93-2.85,3.81-3.18c0.86-0.15,1.71-0.12,2.54,0.14
			c1.59,0.49,2.59,1.57,3.11,3.12c0.22,0.66,0.29,1.35,0.3,2c-0.02,0.8-0.1,1.55-0.37,2.27c-0.67,1.78-1.98,2.81-3.83,3.17
			c-0.81,0.16-1.63,0.12-2.42-0.11c-1.62-0.48-2.67-1.55-3.21-3.14C55.6,20.25,55.53,19.47,55.56,18.68z M30.91,16.48
			c0.7-1.63,1.94-2.61,3.69-2.93c0.86-0.15,1.71-0.12,2.54,0.13c1.46,0.44,2.45,1.39,3.01,2.8c0.39,0.98,0.48,2.01,0.39,3.05
			c-0.05,0.48-0.13,0.96-0.29,1.42c-0.66,1.9-2.01,2.98-3.98,3.32c-0.79,0.14-1.57,0.09-2.34-0.13c-1.67-0.5-2.72-1.62-3.23-3.27
			c-0.19-0.61-0.27-1.24-0.26-1.83C30.44,18.12,30.57,17.28,30.91,16.48z M28.66,51.3c-0.06,0.55-0.17,1.09-0.36,1.61
			c-0.74,1.97-2.18,3.14-4.22,3.58c-0.18,0.04-0.35,0.07-0.53,0.08c-0.23,0.02-0.47,0.02-0.7,0.04c-1.02,0-1.97-0.23-2.86-0.74
			c-1.15-0.66-1.94-1.64-2.37-2.88c-0.59-1.68-0.58-3.37,0.06-5.03c0.75-1.95,2.18-3.11,4.23-3.49c0.96-0.18,1.93-0.15,2.87,0.14
			c1.84,0.55,3.01,1.78,3.6,3.59C28.71,49.2,28.78,50.24,28.66,51.3z M17.22,34.23c0.06-0.62,0.16-1.23,0.38-1.82
			c0.82-2.16,2.38-3.39,4.68-3.69c0.88-0.12,1.74-0.04,2.58,0.22c1.78,0.57,2.92,1.78,3.51,3.53c0.24,0.73,0.34,1.48,0.34,2.04
			c0,1.05-0.11,1.88-0.41,2.68c-0.69,1.88-2.03,3.05-3.96,3.55c-1.11,0.28-2.22,0.26-3.31-0.1c-1.78-0.59-2.93-1.82-3.51-3.59
			C17.22,36.14,17.14,35.19,17.22,34.23z M28.26,21.4c-0.67,1.82-2,2.94-3.86,3.43c-1.06,0.28-2.14,0.28-3.2-0.03
			c-1.87-0.55-3.08-1.79-3.68-3.62c-0.3-0.91-0.39-1.86-0.3-2.82c0.06-0.66,0.17-1.31,0.42-1.94c0.76-1.94,2.16-3.13,4.21-3.53
			c0.41-0.08,0.82-0.1,1.23-0.14c0.9,0.04,1.76,0.21,2.57,0.61c1.29,0.64,2.16,1.66,2.64,3.01C28.88,18.04,28.88,19.73,28.26,21.4z
			 M30.85,32.55c0.74-1.94,2.2-2.97,4.26-3.17c0.16-0.02,0.33-0.02,0.5-0.02c0.63,0,1.24,0.09,1.83,0.31
			c1.32,0.5,2.22,1.42,2.72,2.72c0.38,0.98,0.48,2.01,0.37,3.05c-0.04,0.38-0.1,0.77-0.21,1.14c-0.52,1.82-1.71,2.99-3.54,3.48
			c-0.92,0.25-1.86,0.25-2.78-0.01c-1.59-0.45-2.66-1.48-3.2-3.03C30.28,35.53,30.29,34.02,30.85,32.55z M40.54,51.14
			c-0.05,0.55-0.16,1.09-0.36,1.61c-0.68,1.73-1.96,2.73-3.76,3.08c-0.84,0.17-1.68,0.13-2.5-0.12c-1.65-0.5-2.69-1.62-3.21-3.24
			c-0.2-0.62-0.28-1.26-0.26-1.89c-0.01-0.84,0.11-1.63,0.41-2.38c0.69-1.73,1.96-2.76,3.8-3.07c0.83-0.14,1.65-0.11,2.46,0.13
			c1.56,0.46,2.58,1.5,3.11,3.02C40.56,49.21,40.63,50.16,40.54,51.14z M42.91,16.05c0.77-1.74,2.14-2.78,4-3.15
			c1.01-0.2,2.01-0.17,2.99,0.13c1.75,0.53,2.91,1.7,3.53,3.4c0.29,0.79,0.38,1.61,0.39,2.43c-0.02,0.83-0.11,1.64-0.4,2.42
			c-0.74,2.01-2.19,3.21-4.27,3.64c-0.95,0.2-1.9,0.17-2.83-0.11c-1.74-0.51-2.95-1.62-3.57-3.3
			C42.08,19.67,42.12,17.83,42.91,16.05z M53.35,53.05c-0.77,1.91-2.19,3.04-4.19,3.45c-0.96,0.2-1.93,0.17-2.87-0.11
			c-1.8-0.54-2.99-1.73-3.61-3.48c-0.38-1.06-0.44-2.16-0.32-3.27c0.07-0.66,0.23-1.31,0.5-1.91c0.81-1.8,2.18-2.88,4.12-3.24
			c0.96-0.18,1.93-0.15,2.87,0.12c1.69,0.5,2.84,1.59,3.5,3.22c0.34,0.85,0.46,1.73,0.47,2.61C53.8,51.34,53.69,52.21,53.35,53.05z
			 M53.44,37.13c-0.69,1.92-2.03,3.12-4,3.61c-1.25,0.31-2.5,0.25-3.7-0.25c-1.52-0.63-2.54-1.75-3.06-3.3
			c-0.57-1.7-0.54-3.41,0.15-5.07c0.83-2.01,2.38-3.12,4.53-3.41c0.96-0.13,1.91-0.04,2.82,0.29c1.71,0.62,2.78,1.84,3.33,3.55
			c0.23,0.72,0.3,1.46,0.31,2.18C53.8,35.57,53.71,36.37,53.44,37.13z M66.33,51.19c-0.06,0.64-0.19,1.26-0.42,1.85
			c-0.77,1.91-2.19,3.04-4.19,3.45c-0.4,0.08-0.82,0.1-1.23,0.14c-1.06-0.02-2.06-0.28-2.96-0.83c-1.16-0.71-1.92-1.73-2.33-3.02
			c-0.5-1.58-0.48-3.17,0.09-4.72c0.74-2,2.18-3.21,4.29-3.6c0.96-0.18,1.93-0.14,2.87,0.14c1.74,0.53,2.9,1.67,3.52,3.36
			C66.35,49.01,66.44,50.09,66.33,51.19z M66.05,36.94c-0.64,1.99-1.98,3.25-3.99,3.79c-1.13,0.3-2.28,0.28-3.39-0.09
			c-1.76-0.59-2.91-1.81-3.48-3.56c-0.31-0.96-0.39-1.94-0.29-2.95c0.07-0.66,0.19-1.31,0.45-1.93c0.85-2.04,2.39-3.18,4.58-3.48
			c0.88-0.12,1.74-0.05,2.58,0.22c1.8,0.57,2.94,1.79,3.53,3.56c0.24,0.73,0.33,1.48,0.34,2.29C66.37,35.48,66.28,36.22,66.05,36.94
			z M78.21,50.99c-0.05,0.59-0.15,1.18-0.37,1.73c-0.68,1.74-1.96,2.75-3.78,3.11c-0.84,0.16-1.68,0.13-2.5-0.12
			c-1.63-0.5-2.67-1.61-3.18-3.21c-0.2-0.64-0.28-1.29-0.27-1.89c0-0.96,0.14-1.83,0.51-2.65c0.72-1.59,1.96-2.52,3.68-2.82
			c0.77-0.13,1.54-0.11,2.3,0.08c1.41,0.36,2.44,1.2,3.06,2.51C78.16,48.76,78.3,49.86,78.21,50.99z M78.52,37.19
			c-0.69,1.88-2.03,3.06-3.96,3.55c-1.09,0.28-2.2,0.26-3.27-0.09c-1.84-0.59-3-1.86-3.58-3.68c-0.22-0.69-0.29-1.4-0.3-2.02
			c0.01-1.08,0.15-2.04,0.56-2.93c0.87-1.94,2.38-3.02,4.48-3.31c0.89-0.12,1.77-0.05,2.62,0.22c1.67,0.52,2.79,1.64,3.41,3.25
			c0.28,0.71,0.41,1.46,0.43,2.23C78.94,35.37,78.85,36.3,78.52,37.19z M78.43,21.52c-0.75,1.9-2.2,3-4.18,3.39
			c-1.12,0.22-2.23,0.15-3.3-0.27c-1.65-0.65-2.7-1.87-3.23-3.55c-0.25-0.81-0.33-1.65-0.29-2.5c0.04-0.85,0.19-1.67,0.54-2.45
			c0.79-1.78,2.15-2.87,4.07-3.24c0.39-0.08,0.79-0.1,1-0.12c0.96,0.01,1.71,0.12,2.42,0.4c1.44,0.58,2.44,1.6,2.99,3.04
			C79.12,17.98,79.12,19.77,78.43,21.52z M91.04,52.99c-0.75,1.94-2.18,3.08-4.19,3.5c-1.05,0.22-2.09,0.17-3.11-0.18
			c-1.71-0.59-2.85-1.77-3.41-3.47c-0.53-1.61-0.51-3.25,0.09-4.83c0.74-1.97,2.18-3.15,4.25-3.54c1.05-0.2,2.1-0.14,3.11,0.21
			c1.67,0.58,2.75,1.74,3.33,3.39c0.27,0.76,0.37,1.56,0.37,2.21C91.47,51.31,91.36,52.16,91.04,52.99z M92.92,16.56
			c0.82-2.28,2.48-3.52,4.89-3.76c0.95-0.1,1.88,0.02,2.77,0.37c1.61,0.65,2.63,1.84,3.14,3.47c0.29,0.93,0.38,1.89,0.29,2.87
			c-0.06,0.66-0.18,1.31-0.43,1.93c-0.77,1.93-2.21,3.05-4.23,3.46c-0.39,0.08-0.79,0.09-0.99,0.11c-1.67-0.02-2.97-0.47-4.05-1.49
			c-0.74-0.7-1.24-1.56-1.51-2.53C92.39,19.52,92.4,18.02,92.92,16.56z M102.98,52.65c-0.67,1.8-1.98,2.84-3.85,3.19
			c-0.81,0.15-1.63,0.12-2.42-0.12c-1.6-0.48-2.65-1.54-3.18-3.11c-0.27-0.81-0.36-1.64-0.3-2.49c0.04-0.61,0.14-1.21,0.35-1.78
			c0.67-1.81,1.96-2.89,3.87-3.21c0.83-0.14,1.65-0.1,2.46,0.14c1.61,0.49,2.62,1.57,3.14,3.15c0.21,0.63,0.3,1.36,0.29,2.04
			C103.34,51.21,103.24,51.94,102.98,52.65z M104.01,35.36c-0.05,0.61-0.15,1.2-0.36,1.78c-0.68,1.9-2.02,3.09-3.97,3.6
			c-1.12,0.29-2.25,0.27-3.35-0.1c-1.86-0.63-3.01-1.94-3.55-3.8c-0.19-0.64-0.26-1.3-0.26-2.18c0.01-0.9,0.21-1.98,0.73-2.98
			c0.81-1.54,2.07-2.48,3.77-2.85c0.96-0.21,1.92-0.2,2.88,0.05c1.84,0.48,3.07,1.64,3.73,3.4C103.99,33.26,104.1,34.3,104.01,35.36
			z M115.89,50.84c-0.04,0.64-0.14,1.26-0.37,1.86c-0.67,1.75-1.95,2.76-3.77,3.13c-0.84,0.17-1.68,0.14-2.5-0.11
			c-1.63-0.49-2.68-1.59-3.2-3.2c-0.21-0.65-0.29-1.32-0.27-1.95c0-0.87,0.12-1.67,0.44-2.44c0.7-1.69,1.96-2.69,3.77-3
			c0.83-0.14,1.65-0.11,2.46,0.13c1.49,0.44,2.5,1.42,3.06,2.86C115.84,48.99,115.95,49.91,115.89,50.84z M105.78,34.88
			c-0.01-0.77,0.1-1.49,0.34-2.18c0.67-1.93,2.3-3.18,4.34-3.31c0.64-0.04,1.27-0.01,1.89,0.16c1.38,0.38,2.37,1.21,2.99,2.49
			c0.48,0.99,0.62,2.05,0.55,3.14c-0.04,0.62-0.14,1.23-0.36,1.82c-0.62,1.65-1.81,2.67-3.51,3.09c-0.89,0.22-1.78,0.21-2.66-0.03
			c-1.58-0.44-2.63-1.45-3.21-2.97C105.87,36.36,105.76,35.61,105.78,34.88z M116.19,21.26c-0.73,2.07-2.23,3.27-4.37,3.67
			c-1.01,0.19-2.01,0.13-2.99-0.2c-1.76-0.61-2.88-1.84-3.44-3.6c-0.28-0.88-0.36-1.78-0.29-2.7c0.06-0.78,0.21-1.53,0.52-2.25
			c0.79-1.8,2.16-2.89,4.09-3.28c0.15-0.03,0.3-0.06,0.45-0.07c0.25-0.02,0.5-0.04,0.66-0.05c1.01,0.01,1.9,0.17,2.73,0.59
			c1.34,0.68,2.23,1.76,2.69,3.17C116.74,18.11,116.74,19.7,116.19,21.26z"/>
	</g>
</g>
</svg>
