<?xml version="1.0" encoding="UTF-8"?>
<svg id="new" xmlns="http://www.w3.org/2000/svg" viewBox="0 0 150 150">
  <defs>
    <style>
      .cls-1 {
        fill: #f3eaad;
      }

      .cls-2 {
        fill: #f6e540;
      }

      .cls-3 {
        fill: #f6e548;
      }

      .cls-4 {
        fill: #958a72;
      }

      .cls-5 {
        fill: #f1edcf;
      }

      .cls-6 {
        fill: #f5e781;
      }

      .cls-7 {
        fill: #e89678;
      }

      .cls-8 {
        fill: #f2edc8;
      }

      .cls-9 {
        fill: #f2ecbf;
      }
    </style>
  </defs>
  <g>
    <path class="cls-1" d="M61.98,131.42v4.34c0,2.4-1.94,4.34-4.34,4.34h-8.68c-2.4,0-4.34-1.94-4.34-4.34v-4.34h17.36Z"/>
    <path class="cls-6" d="M53.74,9.91c23.73,.23,43,19.73,42.96,43.46-.02,14.73-7.38,27.73-18.62,35.56-4.65,3.24-7.42,8.56-7.42,14.23v6.56H35.94v-6.56c0-5.67-2.77-10.99-7.42-14.23-11.23-7.83-18.6-20.83-18.62-35.56-.04-23.73,19.22-43.23,42.96-43.46h.88Z"/>
    <path class="cls-1" d="M70.66,109.72v8.68l-26.04,13.02c-4.79,0-8.68-3.89-8.68-8.68l26.04-13.02h8.68Z"/>
    <path class="cls-9" d="M70.66,118.4v4.34c0,4.79-3.89,8.68-8.68,8.68h-17.36l26.04-13.02Z"/>
    <path class="cls-9" d="M61.98,109.72l-26.04,13.02v-13.02h26.04Z"/>
    <path class="cls-2" d="M88.02,44.62h-14.83c-3.35-7.66-10.99-13.02-19.89-13.02s-16.54,5.36-19.89,13.02h0c-1.16,2.66-1.81,5.59-1.81,8.68s.65,6.02,1.81,8.68h0c3.35,7.66,10.99,13.02,19.89,13.02s16.55-5.36,19.89-13.02h14.83l-6.1,1.52c-.34,.96-.74,1.9-1.17,2.82l3.24,5.39-12.28,12.28-5.39-3.24-2.82,1.17-1.52,6.1h-17.36l-1.52-6.1c-.96-.34-1.9-.74-2.82-1.17l-5.39,3.24-12.28-12.28,3.24-5.39c-.43-.92-.82-1.86-1.17-2.82l-6.1-1.52v-17.36l6.1-1.52c.34-.96,.74-1.9,1.17-2.82l-3.24-5.39,12.28-12.28,5.39,3.24c.92-.43,1.86-.82,2.82-1.17l1.52-6.1h17.36l1.52,6.1c.96,.34,1.9,.74,2.82,1.17l5.39-3.24,12.28,12.28-3.24,5.39c.43,.92,.82,1.86,1.17,2.82l6.1,1.52Z"/>
    <path class="cls-8" d="M140.1,29.43v47.74c0,1.2-.97,2.17-2.17,2.17h-6.51c0-4.79-3.89-8.68-8.68-8.68s-8.68,3.89-8.68,8.68h-6.51c-1.2,0-2.17-.97-2.17-2.17v-16.82l10.99-4.12c.61-.23,1.12-.64,1.48-1.15,.36-.52,.56-1.13,.56-1.78,0-1.3-.81-2.47-2.03-2.93l-10.99-4.12V29.43c0-1.2,.97-2.17,2.17-2.17h30.38c1.2,0,2.17,.97,2.17,2.17Z"/>
    <circle class="cls-7" cx="114.06" cy="131.42" r="8.68"/>
    <circle class="cls-7" cx="131.42" cy="105.38" r="8.68"/>
    <circle class="cls-7" cx="122.74" cy="79.34" r="8.68"/>
    <path class="cls-9" d="M105.38,46.25l10.99,4.12c1.22,.46,2.03,1.63,2.03,2.93,0,.65-.2,1.27-.56,1.78-.36,.51-.87,.92-1.48,1.15l-10.99,4.12-4.34,1.63v-17.36l4.34,1.63Z"/>
    <path class="cls-5" d="M101.04,53.3v8.68H33.41c-1.16-2.66-1.81-5.59-1.81-8.68H101.04Z"/>
    <path class="cls-3" d="M101.04,44.62v8.68H31.6c0-3.09,.65-6.02,1.81-8.68H101.04Z"/>
  </g>
  <g>
    <circle class="cls-4" cx="122.74" cy="79.34" r="2.17"/>
    <circle class="cls-4" cx="122.74" cy="18.58" r="2.17"/>
    <circle class="cls-4" cx="131.42" cy="18.58" r="2.17"/>
    <circle class="cls-4" cx="114.06" cy="18.58" r="2.17"/>
    <path class="cls-4" d="M133.37,81.51h4.56c2.39,0,4.34-1.95,4.34-4.34V29.43c0-2.39-1.95-4.34-4.34-4.34h-30.38c-2.39,0-4.34,1.95-4.34,4.34v13.69l-1.78-.67h-3.87C92.62,22.17,74.32,7.73,53.3,7.73c-.15,0-.3,0-.45,0C27.93,7.98,7.7,28.46,7.73,53.37c.02,14.87,7.33,28.82,19.55,37.34,4.06,2.83,6.49,7.49,6.49,12.45v19.58c0,5.24,3.73,9.62,8.68,10.63v2.39c0,3.59,2.92,6.51,6.51,6.51h8.68c3.59,0,6.51-2.92,6.51-6.51v-2.39c4.95-1.01,8.68-5.39,8.68-10.63v-19.58c0-4.94,2.47-9.63,6.61-12.53,9.13-6.4,15.51-15.75,18.13-26.48h3.87l1.78-.67v13.69c0,2.39,1.95,4.34,4.34,4.34h4.56c.87,4.24,4.22,7.6,8.46,8.46v4.56h-21.7v4.34h23.87c-.95,1.26-1.63,2.74-1.96,4.34h-8.9v4.34h8.9c1.01,4.95,5.39,8.68,10.63,8.68,5.98,0,10.85-4.87,10.85-10.85s-4.87-10.85-10.85-10.85c-2.44,0-4.7,.81-6.51,2.18v-6.73c4.24-.86,7.6-4.22,8.46-8.46Zm-52.11-10.13l-9.88,9.88-4.88-2.93-4.84,2-1.38,5.51h-13.97l-1.4-5.58-1.09-.39c-.89-.32-1.77-.68-2.61-1.08l-1.05-.5-4.94,2.96-9.88-9.88,2.96-4.94-.5-1.05c-.4-.85-.77-1.73-1.08-2.61l-.39-1.09-5.58-1.4v-13.97l5.58-1.4,.39-1.09c.32-.89,.68-1.77,1.08-2.61l.5-1.05-2.96-4.94,9.88-9.88,4.94,2.96,1.05-.5c.85-.4,1.73-.77,2.61-1.08l1.09-.39,1.4-5.58h13.97l1.4,5.58,1.09,.39c.89,.32,1.77,.68,2.61,1.08l1.05,.5,4.94-2.96,9.88,9.88-2.96,4.94,.5,1.05c.19,.41,.38,.82,.55,1.24h-4.78c-4.06-7.95-12.25-13.02-21.26-13.02-13.16,0-23.87,10.71-23.87,23.87s10.71,23.87,23.87,23.87c9.01,0,17.2-5.07,21.26-13.02h4.78c-.17,.42-.36,.83-.55,1.24l-.5,1.05,2.96,4.94Zm17.61-20.25H33.9c.17-1.5,.51-2.96,1-4.34h63.98v4.34Zm-61.8-8.68c3.51-5.23,9.47-8.68,16.23-8.68s12.66,3.32,16.24,8.68H37.07Zm0,21.7h32.47c-3.58,5.36-9.64,8.68-16.24,8.68s-12.72-3.45-16.23-8.68Zm-2.18-4.34c-.49-1.38-.83-2.84-1-4.34H98.87v4.34H34.89Zm68.32-.96v-11.1l12.4,4.65c.37,.14,.62,.5,.62,.9s-.25,.76-.62,.9l-12.4,4.65ZM38.11,111.89h14.68l-14.68,7.34v-7.34Zm.13,12.13l24.25-12.13h6v5.17l-24.34,12.17c-2.94-.21-5.34-2.38-5.91-5.21Zm19.4,13.91h-8.68c-1.2,0-2.17-.97-2.17-2.17v-2.17h13.02v2.17c0,1.2-.97,2.17-2.17,2.17Zm4.34-8.68h-8.17l14.68-7.34v.83c0,3.59-2.92,6.51-6.51,6.51Zm14.96-42.17c-5.29,3.71-8.45,9.72-8.45,16.08v4.39h-4.34v-7.78l3.7-3.7-3.07-3.07-4.98,4.98v9.58h-4.34v-8.68h-4.34v8.68h-4.34v-9.58l-4.98-4.98-3.07,3.07,3.7,3.7v7.78h-4.34v-4.39c0-6.38-3.12-12.37-8.35-16.01-11.05-7.7-17.67-20.33-17.69-33.78-.03-22.55,18.27-41.07,40.81-41.29,.14,0,.27,0,.41,0,18.66,0,34.96,12.57,39.79,30.38h-4.8l-4.74-1.18c-.11-.28-.23-.57-.35-.85l3.52-5.87-14.67-14.67-5.87,3.52c-.28-.12-.56-.24-.85-.35l-1.66-6.64h-20.75l-1.66,6.64c-.28,.11-.57,.23-.85,.35l-5.87-3.52-14.67,14.67,3.52,5.87c-.12,.28-.24,.56-.35,.85l-6.64,1.66v20.75l6.64,1.66c.11,.28,.23,.57,.35,.85l-3.52,5.87,14.67,14.67,5.87-3.52c.28,.12,.56,.24,.85,.35l1.66,6.64h20.75l1.67-6.68,.8-.33,5.91,3.54,14.67-14.67-3.52-5.87c.12-.28,.24-.56,.35-.85l4.74-1.18h4.8c-2.51,9.27-8.17,17.34-16.14,22.93h0Zm35.16-9.91h-4.56v-15.31l9.58-3.59c2.06-.77,3.44-2.77,3.44-4.96s-1.38-4.19-3.44-4.96l-9.58-3.59v-15.31h30.38v47.74h-4.56c-1.01-4.95-5.39-8.68-10.63-8.68s-9.62,3.73-10.63,8.68h0Zm4.12,2.17c0-3.59,2.92-6.51,6.51-6.51s6.51,2.92,6.51,6.51-2.92,6.51-6.51,6.51-6.51-2.92-6.51-6.51Zm15.19,19.53c3.59,0,6.51,2.92,6.51,6.51s-2.92,6.51-6.51,6.51-6.51-2.92-6.51-6.51,2.92-6.51,6.51-6.51Z"/>
    <circle class="cls-4" cx="131.42" cy="105.38" r="2.17"/>
    <path class="cls-4" d="M111.89,33.77h4.34v4.34h-4.34v-4.34Z"/>
    <path class="cls-4" d="M120.57,33.77h13.02v4.34h-13.02v-4.34Z"/>
    <path class="cls-4" d="M120.57,42.45h13.02v4.34h-13.02v-4.34Z"/>
    <path class="cls-4" d="M124.91,51.13h8.68v4.34h-8.68v-4.34Z"/>
    <path class="cls-4" d="M120.57,59.81h13.02v4.34h-13.02v-4.34Z"/>
    <path class="cls-4" d="M90.19,94.53h4.34v4.34h-4.34v-4.34Z"/>
    <path class="cls-4" d="M81.51,94.53h4.34v4.34h-4.34v-4.34Z"/>
    <circle class="cls-4" cx="114.06" cy="131.42" r="2.17"/>
    <path class="cls-4" d="M116.23,120.79v-8.9h-39.06v4.34h34.72v4.56c-4.95,1.01-8.68,5.39-8.68,10.63,0,5.98,4.87,10.85,10.85,10.85s10.85-4.87,10.85-10.85c0-5.24-3.73-9.62-8.68-10.63Zm-2.17,17.14c-3.59,0-6.51-2.92-6.51-6.51s2.92-6.51,6.51-6.51,6.51,2.92,6.51,6.51-2.92,6.51-6.51,6.51Z"/>
    <path class="cls-4" d="M103.21,103.21h4.34v4.34h-4.34v-4.34Z"/>
    <path class="cls-4" d="M94.53,103.21h4.34v4.34h-4.34v-4.34Z"/>
    <path class="cls-4" d="M77.17,103.21h13.02v4.34h-13.02v-4.34Z"/>
  </g>
</svg>