<?xml version="1.0" encoding="UTF-8"?>
<svg id="new" xmlns="http://www.w3.org/2000/svg" viewBox="0 0 150 150">
  <defs>
    <style>
      .cls-1 {
        fill: #f6e540;
      }

      .cls-2 {
        fill: #f7e300;
      }

      .cls-3 {
        fill: #f6e548;
      }

      .cls-4 {
        fill: #958a72;
      }

      .cls-5 {
        fill: #eeaf1a;
      }

      .cls-6 {
        fill: #f4e99a;
      }

      .cls-7 {
        fill: #f2da98;
      }

      .cls-8 {
        fill: #eba35d;
      }

      .cls-9 {
        fill: #f2cb4a;
      }

      .cls-10 {
        fill: #f2ecbf;
      }
    </style>
  </defs>
  <g>
    <path class="cls-5" d="M57.1,23.18c.36,.77,.55,1.62,.55,2.51,0,3.27-2.65,5.92-5.92,5.92h-2.76s-3.06-2.04-4.98-3.32c-1-.66-2.16-1.02-3.37-1.02h-.05c-1.57,0-3.07,.62-4.18,1.73l-.44,.44-.82-.82c-.86-.86-2.03-1.35-3.25-1.35h-.09c-2.49,0-4.51,2.02-4.51,4.53v.16c0,1.16,.46,2.28,1.29,3.1l.88,.88-4.34,8.68c-.31,0-.61,.02-.91,.05l-2.18-5.1c-1.13-2.63-1.98-5.36-2.56-8.15-.57-2.79-.86-5.64-.86-8.5,0-2.4,.97-4.57,2.54-6.14,1.57-1.57,3.74-2.54,6.14-2.54l.28-.28c2.6-2.6,6.12-4.05,9.81-4.05h.14c3.2,0,6.29,1.14,8.72,3.23l9.35,8.01c.66,.56,1.18,1.26,1.53,2.03Z"/>
    <path class="cls-9" d="M40.28,131.79c2.53,.89,4.34,3.3,4.34,6.14,0,.6-.24,1.14-.63,1.54-.39,.39-.94,.63-1.54,.63h-13.02c-1.2,0-2.17-.97-2.17-2.17,0-1.8,.73-3.42,1.91-4.6,1.18-1.18,2.81-1.91,4.6-1.91h4.34c.76,0,1.49,.13,2.17,.37Z"/>
    <path class="cls-9" d="M27.26,137.93c0,.6-.24,1.14-.63,1.54-.39,.39-.94,.63-1.54,.63H12.07c-1.2,0-2.17-.97-2.17-2.17,0-1.8,.73-3.42,1.91-4.6,1.18-1.18,2.81-1.91,4.6-1.91h4.34c3.59,0,6.51,2.92,6.51,6.51Z"/>
    <path class="cls-7" d="M27.26,137.93c0-3.59-2.92-6.51-6.51-6.51h-4.34c-1.8,0-3.42,.73-4.6,1.91l-.37-.37c-.49-.49-.88-1.07-1.14-1.7s-.4-1.31-.4-2c0-1.39,.55-2.72,1.54-3.71l1.53-1.53c.81-.81,1.27-1.92,1.27-3.07v-16.42c0-1.13-.17-2.26-.49-3.33-.33-1.08-.81-2.1-1.44-3.05-.79-1.18-1.39-2.46-1.79-3.8-.41-1.34-.62-2.74-.62-4.15,0-2.83,.84-5.6,2.41-7.95l1.93-2.9h21.7c2.88,8.62,4.34,17.65,4.34,26.74v25.71c-.68-.24-1.41-.37-2.17-.37h-4.34c-1.8,0-3.42,.73-4.6,1.91-1.18,1.18-1.91,2.81-1.91,4.6Z"/>
    <path class="cls-8" d="M35.94,72.31v7.03H14.24v-23.64c0-3.06,1.24-5.83,3.25-7.84,1.75-1.75,4.09-2.92,6.7-3.19,.3-.03,.6-.05,.91-.05,.08,0,.15,0,.23,0,3.38,0,6.54,1.54,8.62,4.12,.32,.4,.62,.82,.88,1.26l7.84,13.07c1.27,2.12,3.13,3.84,5.34,4.95l7.7,3.85-5.18,9.07-11.83-6.57c-1.01-.56-1.94-1.25-2.76-2.05h0Z"/>
    <path class="cls-10" d="M77.8,82.14c.98,.98,1.54,2.32,1.54,3.71,0,.69-.14,1.38-.4,2s-.64,1.21-1.14,1.7l-7.14,7.14-2.8,2.8c-.98,.98-2.32,1.54-3.71,1.54-.69,0-1.38-.14-2-.4s-1.21-.64-1.7-1.14l-5.61-5.61c-.98-.98-1.54-2.32-1.54-3.71,0-.69,.14-1.38,.4-2s.64-1.21,1.14-1.7l2.88-2.88h0c1.06-.19,2.02-.7,2.75-1.43s1.24-1.68,1.43-2.75h0l2.88-2.88c.98-.98,2.32-1.54,3.71-1.54,.69,0,1.38,.14,2,.4s1.21,.64,1.7,1.14l5.61,5.61Z"/>
    <path class="cls-6" d="M61.98,78.51c0,.31-.03,.61-.08,.91-.19,1.06-.7,2.02-1.43,2.75s-1.68,1.24-2.75,1.43c-.3,.05-.6,.08-.91,.08-.88,0-1.74-.23-2.51-.65l-3.77-2.09,5.18-9.07,3.13,1.57c.96,.48,1.75,1.21,2.29,2.09,.55,.88,.85,1.91,.85,2.99Z"/>
    <path class="cls-6" d="M48.96,31.6l-4.24,11.3c-1.37,3.65-4.85,6.06-8.75,6.06-.69,0-1.37-.08-2.03-.22-2.08-2.58-5.24-4.12-8.62-4.12-.08,0-.16,0-.23,0l4.34-8.68-.88-.88c-.82-.82-1.29-1.94-1.29-3.1v-.16c0-2.51,2.02-4.53,4.51-4.53h.09c1.22,0,2.39,.49,3.25,1.35l.82,.82,.44-.44c1.11-1.11,2.61-1.73,4.18-1.73h.05c1.21,0,2.38,.35,3.37,1.02,1.92,1.28,4.98,3.32,4.98,3.32Z"/>
    <path class="cls-3" d="M78.29,122.74c-2.08-3.1-3.29-6.84-3.29-10.85,0-1.8,.73-3.42,1.91-4.6,1.18-1.18,2.81-1.91,4.6-1.91,5.39,0,10.27,2.19,13.81,5.72s5.72,8.42,5.72,13.81c0-5.39,2.19-10.27,5.72-13.81s8.42-5.72,13.81-5.72c1.8,0,3.42,.73,4.6,1.91,1.18,1.18,1.91,2.81,1.91,4.6,0,4.01-1.21,7.75-3.29,10.85h2.26c1.76,0,3.52,.21,5.22,.61,1.71,.4,3.37,1,4.94,1.79,1.19,.6,2.16,1.5,2.83,2.59,.68,1.09,1.05,2.36,1.05,3.69s-.37,2.6-1.05,3.69c-.67,1.09-1.64,1.99-2.83,2.59-3.15,1.58-6.63,2.4-10.16,2.4h-4.06c-7.86,0-15.4-3.12-20.95-8.68-5.56,5.56-13.1,8.68-20.95,8.68h-4.06c-3.53,0-7.01-.82-10.16-2.4-1.19-.6-2.16-1.5-2.83-2.59-.68-1.09-1.05-2.36-1.05-3.69s.37-2.6,1.05-3.69c.67-1.09,1.64-1.99,2.83-2.59,1.58-.79,3.24-1.39,4.94-1.79,1.71-.4,3.46-.61,5.22-.61h2.26Z"/>
    <path class="cls-2" d="M101.04,9.9c16.78,0,30.38,13.6,30.38,30.38s-13.6,30.38-30.38,30.38-30.38-13.6-30.38-30.38,13.6-30.38,30.38-30.38Z"/>
    <circle class="cls-1" cx="101.04" cy="40.28" r="21.7"/>
  </g>
  <g>
    <path class="cls-4" d="M98.87,50.76v4.71h4.34v-4.34h4.34v-6.51c0-3.59-2.92-6.51-6.51-6.51-1.2,0-2.17-.97-2.17-2.17v-2.17h2.17c1.2,0,2.17,.97,2.17,2.17v2.17h4.34v-2.17c0-2.83-1.81-5.24-4.34-6.14v-4.71h-4.34v4.34h-4.34v6.51c0,3.59,2.92,6.51,6.51,6.51,1.2,0,2.17,.97,2.17,2.17v2.17h-2.17c-1.2,0-2.17-.97-2.17-2.17v-2.17h-4.34v2.17c0,2.83,1.81,5.24,4.34,6.14Z"/>
    <path class="cls-4" d="M137.18,123.19c-3.03-1.52-6.39-2.4-9.77-2.59,1.18-2.67,1.83-5.62,1.83-8.72,0-4.79-3.89-8.68-8.68-8.68-7.09,0-13.4,3.42-17.36,8.69v-39.15c16.94-1.12,30.38-15.26,30.38-32.47S118.99,7.73,101.04,7.73s-32.55,14.6-32.55,32.55,13.44,31.35,30.38,32.47v39.15c-3.96-5.28-10.27-8.69-17.36-8.69-4.79,0-8.68,3.89-8.68,8.68,0,3.1,.66,6.05,1.83,8.72-3.39,.19-6.74,1.07-9.77,2.59-3.13,1.57-5.08,4.72-5.08,8.22s1.95,6.65,5.08,8.22c3.44,1.72,7.29,2.63,11.13,2.63h4.06c7.79,0,15.15-2.78,20.95-7.88,5.8,5.1,13.16,7.88,20.95,7.88h4.06c3.84,0,7.69-.91,11.13-2.63,3.13-1.57,5.08-4.72,5.08-8.22s-1.95-6.65-5.08-8.22Zm-12.28-11.31c0,3.16-.85,6.12-2.34,8.68h-7.62l4.98-4.98-3.07-3.07-4.98,4.98v-7.62c2.56-1.48,5.52-2.34,8.68-2.34,2.39,0,4.34,1.95,4.34,4.34h0Zm-7.41,21.7l4.34,4.34c-5.28-.03-10.33-1.54-14.67-4.34h10.34Zm-32.92,0h10.34c-4.34,2.8-9.39,4.31-14.67,4.34l4.34-4.34Zm11.22-4.34h-1.27c-4.39,0-8.4-1.64-11.46-4.34h8.39l4.34,4.34Zm10.48,0l4.34-4.34h8.39c-3.06,2.7-7.07,4.34-11.46,4.34h-1.27Zm1.27-15.8v8.39l-4.34,4.34v-1.27c0-4.39,1.64-8.4,4.34-11.46Zm-27.92-54.82c-3.79-4.42-6.24-10.02-6.71-16.17h4.36c.45,4.95,2.42,9.48,5.43,13.1l-3.08,3.08Zm39.75-3.08c3.02-3.62,4.99-8.14,5.43-13.1h4.36c-.47,6.15-2.92,11.75-6.71,16.17l-3.08-3.08Zm5.43-17.44c-.45-4.95-2.42-9.48-5.43-13.1l3.08-3.08c3.79,4.42,6.24,10.02,6.71,16.17h-4.36Zm-8.5-16.16c-3.62-3.02-8.14-4.99-13.1-5.43v-4.36c6.15,.47,11.75,2.92,16.17,6.71l-3.08,3.08Zm-17.44-5.43c-4.95,.45-9.48,2.42-13.1,5.43l-3.08-3.08c4.42-3.79,10.02-6.24,16.17-6.71v4.36Zm-16.16,8.5c-3.02,3.62-4.99,8.14-5.43,13.1h-4.36c.47-6.15,2.92-11.75,6.71-16.17l3.08,3.08Zm-1.19,15.27c0-10.77,8.76-19.53,19.53-19.53s19.53,8.76,19.53,19.53-8.76,19.53-19.53,19.53-19.53-8.76-19.53-19.53Zm21.7,23.77c4.95-.45,9.48-2.42,13.1-5.43l3.08,3.08c-4.42,3.79-10.02,6.24-16.17,6.71v-4.36Zm-20.51-2.36l3.08-3.08c3.62,3.02,8.14,4.99,13.1,5.43v4.36c-6.15-.47-11.75-2.92-16.17-6.71h0Zm16.17,63.21v1.27l-4.34-4.34v-8.39c2.7,3.06,4.34,7.07,4.34,11.46Zm-17.36-17.36c3.16,0,6.12,.85,8.68,2.34v7.62l-4.98-4.98-3.07,3.07,4.98,4.98h-7.62c-1.48-2.56-2.34-5.52-2.34-8.68,0-2.39,1.95-4.34,4.34-4.34h0Zm-17.36,23.87c0-1.85,1.03-3.51,2.68-4.34,2.84-1.42,6.02-2.17,9.19-2.17h1.16c1.24,1.64,2.7,3.11,4.34,4.34h-8.69v4.34h5.61l-4.26,4.26c-2.55-.23-5.06-.94-7.35-2.09-1.65-.83-2.68-2.49-2.68-4.34h0Zm71.09,4.34c-2.29,1.14-4.8,1.85-7.35,2.09l-4.26-4.26h5.61v-4.34h-8.69c1.64-1.23,3.11-2.7,4.34-4.34h1.16c3.17,0,6.35,.75,9.19,2.17,1.65,.83,2.68,2.49,2.68,4.34s-1.03,3.51-2.68,4.34Z"/>
    <path class="cls-4" d="M69.39,101.04l2.17-2.17h9.95c2.04,0,3.98-.97,5.21-2.6l3.91-5.21c.41-.54,1.06-.87,1.74-.87h2.17v-4.34h-2.17c-2.04,0-3.98,.97-5.21,2.6l-3.91,5.21c-.41,.54-1.06,.87-1.74,.87h-5.61l3.44-3.44c1.4-1.4,2.17-3.26,2.17-5.24s-.77-3.84-2.17-5.24l-5.61-5.61c-1.4-1.4-3.26-2.17-5.24-2.17s-3.79,.75-5.19,2.12c-.74-1.47-1.95-2.69-3.49-3.46l-10.83-5.41c-1.85-.92-3.39-2.35-4.45-4.12l-6.6-10.99c3.97-.69,7.38-3.45,8.82-7.3l3.71-9.89h1.25c4.46,0,8.09-3.63,8.09-8.09,0-2.39-1.03-4.64-2.83-6.18l-9.35-8.01c-2.82-2.42-6.42-3.75-10.13-3.75h-.14c-4.14,0-8.04,1.55-11.03,4.38-5.55,.47-9.92,5.14-9.92,10.81,0,6.05,1.21,11.95,3.59,17.51l1.15,2.69c-5.27,1.75-9.09,6.73-9.09,12.58v22.98l-1.57,2.35c-1.81,2.72-2.77,5.89-2.77,9.15s.96,6.43,2.77,9.15c1.03,1.54,1.57,3.33,1.57,5.18v16.42c0,.58-.23,1.12-.64,1.53l-1.53,1.53c-1.4,1.4-2.17,3.26-2.17,5.24,0,1.5,.45,2.94,1.27,4.16-.81,1.32-1.27,2.87-1.27,4.52,0,2.39,1.95,4.34,4.34,4.34h13.02c.79,0,1.53-.22,2.17-.59,.64,.37,1.38,.59,2.17,.59h13.02c2.39,0,4.34-1.95,4.34-4.34,0-3.21-1.75-6.01-4.34-7.51v-24.33c0-9.22-1.46-18.33-4.34-27.08v-2.48l15.13,8.41s.04,.02,.05,.03c-1.4,1.4-2.17,3.26-2.17,5.24s.77,3.84,2.17,5.24l5.61,5.61c1.4,1.4,3.26,2.17,5.24,2.17s3.84-.77,5.24-2.17h0Zm-9.58-22.53c0,1.65-1.35,3-3,3-.51,0-1.01-.13-1.46-.38l-1.85-1.03,3.07-5.38,1.29,.65c1.2,.6,1.94,1.8,1.94,3.14Zm-17.12-36.37c-1.04,2.78-3.74,4.65-6.72,4.65-.3,0-.61-.02-.91-.06-1.78-1.93-4.11-3.29-6.65-3.9l3.66-7.31-1.99-1.99c-.42-.42-.65-.98-.65-1.57v-.16c0-.63,.24-1.23,.69-1.68,.44-.44,1.03-.69,1.66-.69h.09c.65,0,1.26,.25,1.72,.71l2.36,2.36,1.97-1.98c.7-.71,1.64-1.09,2.64-1.09h.05c.78,0,1.53,.23,2.17,.65l3.55,2.37-3.63,9.69Zm-15.43-25.72h.9l.92-.92c2.2-2.2,5.14-3.42,8.28-3.42h.14c2.68,0,5.28,.96,7.31,2.7l9.35,8.01c.84,.72,1.32,1.77,1.32,2.89,0,2.07-1.68,3.75-3.75,3.75h-2.1l-4.44-2.96c-1.36-.9-2.94-1.38-4.57-1.38h-.05c-1.65,0-3.22,.49-4.56,1.41-1.18-.91-2.62-1.41-4.13-1.41h-.09c-1.79,0-3.47,.7-4.73,1.96-1.26,1.27-1.96,2.95-1.96,4.74v.16c0,1.65,.6,3.2,1.7,4.41l-2.05,4.1-.75-1.74c-2.15-5.02-3.24-10.34-3.24-15.8,0-3.59,2.92-6.51,6.51-6.51h0Zm-15.19,121.51c0-2.39,1.95-4.34,4.34-4.34h4.34c2.38,0,4.32,1.93,4.34,4.31,0,.01,0,.02,0,.03H12.07Zm30.38,0h-13.02c0-2.39,1.95-4.34,4.34-4.34h4.34c2.39,0,4.34,1.95,4.34,4.34h0Zm-8.68-8.68c-2.11,0-4.05,.76-5.55,2.01l4.44-20.49c.74-3.42,1.12-6.93,1.12-10.43,0-4.03-.5-8.05-1.47-11.96l-.76-3.05-4.21,1.05,.76,3.05c.89,3.56,1.34,7.24,1.34,10.91,0,3.19-.34,6.39-1.02,9.52l-4.34,20.06c-1.02-.43-2.14-.66-3.32-.66h-4.34c-1.5,0-2.92,.38-4.15,1.06-.12-.33-.19-.69-.19-1.06,0-.82,.32-1.59,.9-2.17l1.53-1.53c1.23-1.23,1.91-2.86,1.91-4.6v-16.42c0-2.71-.79-5.33-2.3-7.59-1.34-2-2.04-4.34-2.04-6.75s.71-4.74,2.04-6.75l1.29-1.93h18.96c2.49,7.96,3.75,16.22,3.75,24.57v23.16h-4.34Zm2.22-60.25l-6.93-10.39-3.61,2.41,6.93,10.39c.42,.62,.88,1.21,1.39,1.77v4H16.41v-21.46c0-4.91,4-8.91,8.91-8.91,3.11,0,6.04,1.66,7.64,4.33l7.84,13.07c1.49,2.48,3.64,4.48,6.23,5.77l5.65,2.82-2.98,5.22-9.95-5.53c-1.5-.84-2.8-2.03-3.76-3.47h0Zm20.37,23.36c-.58-.58-.9-1.35-.9-2.17s.32-1.59,.9-2.17l2.45-2.45c2.43-.69,4.35-2.61,5.05-5.05l2.45-2.45c.58-.58,1.35-.9,2.17-.9s1.59,.32,2.17,.9l5.61,5.61c.58,.58,.9,1.35,.9,2.17s-.32,1.59-.9,2.17l-9.95,9.95c-.58,.58-1.35,.9-2.17,.9s-1.59-.32-2.17-.9l-5.61-5.61Z"/>
  </g>
</svg>