<?xml version="1.0" encoding="UTF-8"?>
<svg id="new" xmlns="http://www.w3.org/2000/svg" viewBox="0 0 150 150">
  <defs>
    <style>
      .cls-1 {
        fill: #f3eaad;
      }

      .cls-2 {
        fill: #f6e540;
      }

      .cls-3 {
        fill: #f6e548;
      }

      .cls-4 {
        fill: #958a72;
      }

      .cls-5 {
        fill: #f4e99a;
      }

      .cls-6 {
        fill: #f5e781;
      }

      .cls-7 {
        fill: #f2da98;
      }

      .cls-8 {
        fill: #f2cb4a;
      }

      .cls-9 {
        fill: #f2ecbf;
      }

      .cls-10 {
        fill: #edb773;
      }
    </style>
  </defs>
  <g>
    <path class="cls-1" d="M40.28,122.74h39.06c0,9.59-7.77,17.36-17.36,17.36h-4.34c-9.59,0-17.36-7.77-17.36-17.36Z"/>
    <path class="cls-9" d="M83.9,114.06c2.29,.12,4.12,2.01,4.12,4.33,0,1.2-.49,2.28-1.27,3.07-.79,.78-1.87,1.27-3.07,1.27H35.94c-2.4,0-4.34-1.94-4.34-4.34,0-1.2,.49-2.28,1.27-3.07,.79-.78,1.87-1.27,3.07-1.27h47.74c.08,0,.15,0,.22,0Z"/>
    <path class="cls-6" d="M72.83,102.11v-28.93c0-.69,.1-1.36,.3-1.99,.33-1.09,.92-2.07,1.71-2.86,.66-.66,1.45-1.18,2.33-1.53h0v-6.99l-3.38-1.69c-.13-.07-.26-.13-.39-.2-2.78-1.48-5.05-3.64-6.65-6.23-1.67-2.7-2.6-5.86-2.6-9.16,0-1.97,.33-3.87,.94-5.64,.98-2.86,2.68-5.38,4.88-7.36,3.08-2.76,7.16-4.43,11.62-4.43h8.6c.57,0,1.13,.04,1.67,.11h0c-7.56-9.33-19.11-15.3-32.05-15.3-11.39,0-21.69,4.61-29.15,12.08-7.46,7.46-12.08,17.77-12.08,29.15v1.42c0,10.26,3.82,20.14,10.72,27.73l10.98,12.08v21.7h43.4c.08,0,.15,0,.22,0v-.04c-2.95-.21-5.6-1.49-7.57-3.47-2.16-2.16-3.5-5.15-3.5-8.44h0Z"/>
    <path class="cls-3" d="M101.04,81.51l-.67-1.55c-1.77-4.14-4.69-7.55-8.29-9.92-1.91-1.26-4.01-2.23-6.23-2.86-1.97-.56-4.04-.86-6.15-.86-.89,0-1.74,.17-2.53,.48h0c-.88,.35-1.67,.87-2.33,1.53-.79,.79-1.39,1.77-1.71,2.86-.19,.63-.3,1.3-.3,1.99v27.85c4.31,0,8.6-.38,12.82-1.12,4.22-.75,8.38-1.86,12.43-3.33l7.62-2.77,.18-1.46,1.36-10.85h-6.22Z"/>
    <path class="cls-10" d="M103.21,38.11c0,2.4-1.94,4.34-4.34,4.34h-4.34c0-2.4-1.94-4.34-4.34-4.34h-8.68c-1.2,0-2.28,.49-3.07,1.27-.78,.79-1.27,1.87-1.27,3.07-1.2,0-2.28,.49-3.07,1.27-.78,.79-1.27,1.87-1.27,3.07s.49,2.28,1.27,3.07c.79,.78,1.87,1.27,3.07,1.27v8.68l-3.38-1.69c-.13-.07-.26-.13-.39-.2-2.78-1.48-5.05-3.64-6.65-6.23-1.67-2.7-2.6-5.86-2.6-9.16,0-1.97,.33-3.87,.94-5.64,.98-2.86,2.68-5.38,4.88-7.36,3.08-2.76,7.16-4.43,11.62-4.43h8.6c.57,0,1.13,.04,1.67,.11,2.93,.37,5.55,1.72,7.53,3.71,2.36,2.35,3.81,5.61,3.81,9.21Z"/>
    <path class="cls-5" d="M94.53,42.45v8.68c0,4.79-3.89,8.68-8.68,8.68v7.37c-1.97-.56-4.04-.86-6.15-.86-.89,0-1.74,.17-2.53,.48v-15.67c-1.2,0-2.28-.49-3.07-1.27-.78-.79-1.27-1.87-1.27-3.07s.49-2.28,1.27-3.07c.79-.78,1.87-1.27,3.07-1.27,0-1.2,.49-2.28,1.27-3.07,.79-.78,1.87-1.27,3.07-1.27h8.68c2.4,0,4.34,1.94,4.34,4.34Z"/>
    <path class="cls-2" d="M77.17,66.8h0c-.88,.35-1.67,.87-2.33,1.53-.79,.79-1.39,1.77-1.71,2.86l-1.26,.54c-1.86,1.09-3.88,1.94-6.01,2.49l-1.7,5.11h-8.68l-1.7-5.11c-2.13-.56-4.15-1.4-6.01-2.49l-4.83,2.41-6.14-6.14,2.41-4.83c-1.09-1.86-1.94-3.88-2.49-6.01l-5.11-1.7v-8.68l5.11-1.7c.56-2.13,1.4-4.15,2.49-6.01l-2.41-4.83,6.14-6.14,4.83,2.41c1.86-1.09,3.88-1.94,6.01-2.49l1.7-5.11h8.68l1.7,5.11c1.43,.37,2.8,.87,4.11,1.49-2.21,1.97-3.91,4.5-4.88,7.36-1.64-.61-3.42-.94-5.28-.94-8.39,0-15.19,6.8-15.19,15.19s6.8,15.19,15.19,15.19c5.95,0,11.1-3.42,13.59-8.4,.13,.07,.25,.14,.39,.2l3.38,1.69v6.99Z"/>
    <path class="cls-7" d="M131.42,137.93c0,.6-.24,1.14-.63,1.54-.39,.39-.94,.63-1.54,.63h-13.02c-1.2,0-2.17-.97-2.17-2.17v-2.17c0-2.4,1.94-4.34,4.34-4.34h6.51c.76,0,1.49,.13,2.17,.37,2.53,.9,4.34,3.31,4.34,6.14Z"/>
    <path class="cls-8" d="M109.72,109.72l-22.81,4.15c-.71,.13-1.42,.19-2.14,.19-.29,0-.58-.01-.87-.03-2.95-.21-5.61-1.49-7.58-3.47-2.16-2.16-3.5-5.15-3.5-8.44v-1.08c4.31,0,8.6-.38,12.82-1.12,4.22-.75,8.38-1.86,12.43-3.33l7.62-2.77,1.57-.57c1.62-.59,3.32-.89,5.04-.89,.81,0,1.6,.07,2.37,.19,3.13,.5,5.92,1.99,8.06,4.13,2.67,2.67,4.32,6.36,4.32,10.43v24.67c-.68-.24-1.41-.37-2.17-.37h-6.51c-2.4,0-4.34,1.94-4.34,4.34v2.17l-4.34-28.21Z"/>
    <path class="cls-9" d="M118.4,66.04c0,.19-.01,.38-.04,.57l-3.67,25.95c-.77-.12-1.56-.19-2.37-.19-1.72,0-3.43,.3-5.04,.89l-1.57,.57,.18-1.46,1.36-10.85,2.46-19.53h4.62c2.24,0,4.05,1.81,4.05,4.05h0Z"/>
  </g>
  <path class="cls-4" d="M129.25,130.41v-23.3c0-7.67-5.13-14.16-12.13-16.23l3.39-23.98c.04-.29,.06-.58,.06-.87,0-3.43-2.79-6.22-6.22-6.22h-6.54l-2.46,19.53h-2.88l-.1-.24c-2.75-6.42-8.01-11.23-14.35-13.5v-3.83c4.95-1.01,8.68-5.39,8.68-10.63v-6.51h2.17c3.59,0,6.51-2.92,6.51-6.51,0-7.41-5.33-13.59-12.36-14.92-8.28-9.83-20.33-15.46-33.2-15.46-23.93,0-43.4,19.47-43.4,43.4v1.42c0,10.82,4.01,21.19,11.29,29.19l10.41,11.45v18.69h-2.17c-3.59,0-6.51,2.92-6.51,6.51s2.92,6.51,6.51,6.51h2.29c1.08,9.75,9.37,17.36,19.41,17.36h4.34c10.03,0,18.32-7.61,19.41-17.36h2.29c3.59,0,6.51-2.92,6.51-6.51,0-1-.23-1.96-.64-2.81l18.36-3.34,3.99,25.92c.13,2.28,2.02,4.09,4.33,4.09h13.02c2.39,0,4.34-1.95,4.34-4.34,0-3.21-1.75-6.01-4.34-7.51h0Zm-14.9-66.26c1.04,0,1.88,.85,1.88,1.88,0,.09,0,.18-.02,.26l-3.38,23.9c-.17,0-.34-.01-.51-.01-1.36,0-2.71,.17-4.03,.49l3.34-26.53h2.71Zm-73.26-2.06c-1-1.71-1.77-3.55-2.26-5.46l-.3-1.14-4.75-1.58v-5.55l4.75-1.58,.3-1.14c.5-1.91,1.26-3.75,2.26-5.46l.6-1.02-2.24-4.48,3.93-3.93,4.48,2.24,1.02-.6c1.71-1,3.55-1.77,5.46-2.27l1.14-.3,1.58-4.74h5.55l1.58,4.74,1.14,.3c.3,.08,.6,.17,.9,.26-.93,1.18-1.74,2.47-2.38,3.85-1.31-.31-2.65-.47-4.01-.47-9.57,0-17.36,7.79-17.36,17.36s7.79,17.36,17.36,17.36c5.88,0,11.24-2.91,14.44-7.71l.75,.38v4.32c-1.57,.96-2.83,2.39-3.58,4.09l-.54,.23-.12,.07c-1.71,1-3.55,1.77-5.46,2.27l-1.14,.3-1.58,4.74h-5.55l-1.58-4.74-1.14-.3c-1.91-.5-3.75-1.26-5.46-2.27l-1.02-.6-4.48,2.24-3.93-3.93,2.24-4.48-.6-1.02Zm29.36-3.43c-2.42,3.43-6.34,5.49-10.63,5.49-7.18,0-13.02-5.84-13.02-13.02s5.84-13.02,13.02-13.02c.89,0,1.76,.09,2.62,.27-.29,1.34-.45,2.73-.45,4.15,0,6.54,3.18,12.5,8.46,16.13Zm.22,40.21v3.25c0,3.79,1.51,7.23,3.95,9.77h-8.29v-22.53l4.34-2.17v11.68Zm4.34-14.93l.42,.59c4.47,6.26,11.73,10,19.42,10h2.56l-.06,.02c-7.2,2.62-14.71,4.05-22.34,4.28v-14.89h0Zm22.68-4.6h-4.42l-2.81-2.81c-2.39-2.39-5.56-3.7-8.94-3.7v4.34c2.22,0,4.31,.86,5.87,2.43l1.91,1.91-2.81,2.81,3.07,3.07,3.7-3.7h11.54l-.82,6.51h-9.13c-6.29,0-12.23-3.06-15.89-8.18l-2.04-2.86c-1.25-1.75-1.91-3.81-1.91-5.96,0-2.59,2.11-4.7,4.7-4.7,7.6,0,14.49,4.21,17.98,10.85h0Zm-5.32-28.21c0,3.59-2.92,6.51-6.51,6.51h-2.17v6.84c-1.3-.21-2.63-.33-3.98-.33-.12,0-.24,0-.36,0v-15.2h-2.17c-1.2,0-2.17-.97-2.17-2.17s.97-2.17,2.17-2.17h2.17v-2.17c0-1.2,.97-2.17,2.17-2.17h8.68c1.2,0,2.17,.97,2.17,2.17v8.68Zm8.68-13.02c0,1.2-.97,2.17-2.17,2.17h-2.54c-.9-2.53-3.31-4.34-6.14-4.34h-8.68c-2.93,0-5.42,1.95-6.23,4.62-2.67,.81-4.62,3.3-4.62,6.23s1.81,5.24,4.34,6.14v3.37l-.24-.12c-5.2-2.6-8.44-7.83-8.44-13.65,0-8.42,6.85-15.26,15.26-15.26h8.6c5.98,0,10.85,4.87,10.85,10.85ZM30.91,78.82c-6.55-7.21-10.16-16.54-10.16-26.27v-1.42c0-21.54,17.52-39.06,39.06-39.06,10.17,0,19.78,3.91,27.01,10.85h-5.24c-4.5,0-8.65,1.53-11.96,4.09-.68-.28-1.37-.53-2.07-.75l-1.84-5.51h-11.81l-1.84,5.51c-1.51,.47-2.97,1.07-4.37,1.81l-5.2-2.6-8.35,8.35,2.6,5.2c-.74,1.4-1.34,2.86-1.81,4.37l-5.51,1.84v11.81l5.51,1.84c.47,1.51,1.07,2.97,1.81,4.37l-2.6,5.2,8.35,8.35,5.2-2.6c1.4,.74,2.86,1.34,4.37,1.81l1.84,5.51h11.81l1.84-5.51c1.06-.33,2.1-.73,3.11-1.19v7.53l-8.68,4.34v25.21h-4.34v-25.21l-14.22-7.11-1.94,3.88,11.82,5.91v22.53h-10.85v-20.37l-11.54-12.7Zm31.07,59.1h-4.34c-7.64,0-13.98-5.67-15.03-13.02h34.4c-1.06,7.35-7.39,13.02-15.03,13.02Zm21.7-17.36H35.94c-1.2,0-2.17-.97-2.17-2.17s.97-2.17,2.17-2.17h47.74c1.2,0,2.17,.97,2.17,2.17s-.97,2.17-2.17,2.17Zm31.38,9.6l-3.12-20.26,2-6.01-4.12-1.37-1.76,5.29-21.54,3.92c-.58,.1-1.16,.16-1.75,.16-5.03,0-9.18-3.82-9.72-8.71,8.12-.24,16.11-1.76,23.77-4.55l9.19-3.34c1.38-.5,2.83-.76,4.3-.76,6.94,0,12.59,5.65,12.59,12.59v22.13h-6.51c-1.22,0-2.36,.34-3.34,.92h0Zm14.19,7.76h-13.02v-2.17c0-1.2,.97-2.17,2.17-2.17h6.51c2.39,0,4.34,1.95,4.34,4.34h0Z"/>
</svg>