<?xml version="1.0" encoding="UTF-8"?>
<svg id="new" xmlns="http://www.w3.org/2000/svg" viewBox="0 0 150 150">
  <defs>
    <style>
      .cls-1 {
        fill: #f6e540;
      }

      .cls-2 {
        fill: #f6e548;
      }

      .cls-3 {
        fill: #958a72;
      }

      .cls-4 {
        fill: #f5e781;
      }

      .cls-5 {
        fill: #f7e415;
      }
    </style>
  </defs>
  <g>
    <path class="cls-2" d="M125.01,122.98l-2.04,2.04c-.74,.74-1.61,1.32-2.56,1.71-.95,.39-1.97,.6-3.01,.6-2.09,0-4.09-.83-5.57-2.31l-2.04-2.04,2.04-2.04c.74-.74,1.61-1.32,2.56-1.71,.95-.39,1.97-.6,3.01-.6,2.09,0,4.09,.83,5.57,2.31l2.04,2.04Z"/>
    <path class="cls-2" d="M138.06,105.58l-2.04,2.04c-.74,.74-1.61,1.32-2.56,1.71-.95,.39-1.97,.6-3.01,.6-2.09,0-4.09-.83-5.57-2.31l-2.01-2.01s.04-.08,.06-.11l1.95-1.95c.74-.74,1.61-1.32,2.56-1.71,.26-.11,.53-.2,2.26-.56,.25-.02,.5-.04,.75-.04,2.09,0,4.09,.83,5.57,2.31l2.04,2.04Z"/>
    <path class="cls-2" d="M133.71,114.28l-2.04,2.04c-.74,.74-1.61,1.32-2.56,1.71-.95,.39-1.97,.6-3.01,.6-2.09,0-4.09-.83-5.57-2.31l-2.04-2.04,2.04-2.04c.74-.74,1.61-1.32,2.56-1.71,.95-.39,1.97-.6,3.01-.6,2.09,0,4.09,.83,5.57,2.31l2.04,2.04Z"/>
    <path class="cls-2" d="M116.45,129.6l2.04,2.04-2.04,2.04c-.74,.74-1.61,1.32-2.56,1.71-.95,.39-1.97,.6-3.01,.6-2.09,0-4.09-.83-5.57-2.31l-2.04-2.04,2.04-2.04c.74-.74,1.61-1.31,2.56-1.71,.95-.39,1.97-.6,3.01-.6,2.09,0,4.09,.83,5.57,2.3Z"/>
    <path class="cls-2" d="M111.95,112.95c.12,2.08-.59,4.13-1.98,5.69l-1.92,2.16-2.16-1.92c-.78-.69-1.41-1.53-1.85-2.45s-.71-1.93-.77-2.97c-.12-2.08,.59-4.13,1.98-5.69l1.92-2.16,2.16,1.92c.23,.21,.45,.43,.66,.66,.48,.54,.88,1.14,1.2,1.79,.26,.54,.46,1.11,.59,1.7,.1,.42,.15,.85,.18,1.28Z"/>
    <path class="cls-2" d="M105.43,121.62c.12,2.08-.59,4.13-1.98,5.69l-.72,.8s0,0,0,0l-1.2,1.35-.35-.31-1.81-1.61c-.78-.7-1.41-1.53-1.85-2.45s-.71-1.93-.77-2.97c-.12-2.08,.59-4.13,1.98-5.69l1.92-2.16,2.16,1.92c.78,.69,1.41,1.53,1.85,2.45s.71,1.93,.77,2.97h0Z"/>
    <path class="cls-2" d="M125,95.56c.12,2.08-.59,4.13-1.98,5.69l-1.92,2.16-2.16-1.92c-.78-.69-1.41-1.53-1.85-2.45s-.71-1.93-.77-2.97c-.12-2.08,.59-4.13,1.98-5.69l1.92-2.16,2.16,1.92c.78,.7,1.41,1.53,1.85,2.45s.71,1.93,.77,2.97Z"/>
    <path class="cls-2" d="M118.48,106.4c.12,2.08-.59,4.13-1.98,5.69l-1.92,2.16-2.16-1.92c-.23-.21-.45-.43-.66-.66-.13-.59-.33-1.16-.59-1.7-.31-.65-.71-1.25-1.2-1.79-.1-.42-.15-.85-.18-1.28-.12-2.08,.59-4.13,1.98-5.69l1.92-2.16,2.16,1.92c.78,.69,1.41,1.53,1.85,2.45s.71,1.93,.77,2.97Z"/>
    <path class="cls-2" d="M44.69,129.6l2.04,2.04-2.04,2.04c-1.48,1.48-3.48,2.31-5.57,2.31-1.04,0-2.07-.21-3.01-.6-.95-.39-1.82-.97-2.56-1.71l-2.04-2.04,2.04-2.04c1.48-1.48,3.48-2.3,5.57-2.3,1.04,0,2.07,.21,3.01,.6,.95,.39,1.82,.97,2.56,1.71Z"/>
    <path class="cls-2" d="M44.75,107.76c1.39,1.56,2.1,3.61,1.98,5.69-.06,1.04-.33,2.05-.77,2.97-.45,.92-1.07,1.76-1.85,2.45l-2.16,1.92-1.92-2.16c-1.39-1.56-2.1-3.61-1.98-5.69,.02-.43,.08-.86,.18-1.28,.13-.59,.33-1.16,.59-1.7,.31-.65,.71-1.25,1.2-1.79,.2-.23,.42-.45,.66-.66l2.16-1.92,1.92,2.16Z"/>
    <path class="cls-2" d="M40.21,122.98l-2.04,2.04c-1.48,1.48-3.48,2.31-5.57,2.31-1.04,0-2.07-.21-3.01-.6-.95-.39-1.82-.97-2.56-1.71l-2.04-2.04,2.04-2.04c1.48-1.48,3.48-2.31,5.57-2.31,1.04,0,2.07,.21,3.01,.6,.95,.39,1.82,.97,2.56,1.71l2.04,2.04Z"/>
    <path class="cls-2" d="M51.27,116.44c1.39,1.56,2.1,3.61,1.98,5.69-.06,1.04-.33,2.05-.77,2.97s-1.07,1.76-1.85,2.45l-1.81,1.61-.35,.31-1.2-1.35s0,0,0,0l-.72-.8c-1.39-1.56-2.1-3.61-1.98-5.69,.06-1.04,.33-2.05,.77-2.97,.45-.92,1.07-1.76,1.85-2.45l2.16-1.92,1.92,2.16Z"/>
    <path class="cls-2" d="M31.51,114.28l-2.04,2.04c-1.48,1.48-3.48,2.31-5.57,2.31-1.04,0-2.07-.21-3.01-.6-.95-.39-1.82-.97-2.56-1.71l-2.04-2.04,2.04-2.04c1.48-1.48,3.48-2.31,5.57-2.31,1.04,0,2.07,.21,3.01,.6,.95,.39,1.82,.97,2.56,1.71l2.04,2.04Z"/>
    <path class="cls-2" d="M38.22,101.22c1.39,1.56,2.1,3.61,1.98,5.69-.02,.43-.08,.86-.18,1.28-.48,.54-.88,1.14-1.2,1.79-.26,.54-.46,1.11-.59,1.7-.2,.23-.42,.45-.66,.66l-2.16,1.92-1.92-2.16c-1.39-1.56-2.1-3.61-1.98-5.69,.06-1.04,.33-2.05,.77-2.97s1.07-1.76,1.85-2.45l2.16-1.92,1.92,2.16Z"/>
    <path class="cls-2" d="M31.71,90.37c1.39,1.56,2.1,3.61,1.98,5.69-.06,1.04-.33,2.05-.77,2.97s-1.07,1.76-1.85,2.45l-2.16,1.92-1.92-2.16c-1.39-1.56-2.1-3.61-1.98-5.69,.06-1.04,.33-2.05,.77-2.97s1.07-1.76,1.85-2.45l2.16-1.92,1.92,2.16Z"/>
    <path class="cls-2" d="M27.08,105.49s.04,.08,.06,.11l-2.01,2.01c-1.48,1.48-3.48,2.31-5.57,2.31-1.04,0-2.07-.21-3.01-.6-.95-.39-1.82-.97-2.56-1.71l-2.04-2.04,2.04-2.04c1.48-1.48,3.48-2.31,5.57-2.31,.25,0,.5,.01,.75,.04,1.73,.36,2,.45,2.26,.56,.95,.39,1.82,.97,2.56,1.71l1.95,1.95Z"/>
    <path class="cls-5" d="M138.06,88.19l-.96,5.78c-.64,3.8-3.67,6.68-7.4,7.19-.39,.05-.78,.08-1.18,.08h-3.5v-3.5c0-4.25,3.07-7.88,7.27-8.58l5.78-.96Z"/>
    <path class="cls-5" d="M24.99,97.73v3.5h-3.5c-.4,0-.79-.03-1.18-.08-3.73-.51-6.77-3.39-7.4-7.19l-.96-5.78,5.78,.96c4.19,.7,7.27,4.33,7.27,8.58Z"/>
    <path class="cls-1" d="M84.94,104.03l.93,1.55h-21.74l.93-1.55c3.66-6.1,5.59-13.08,5.59-20.19h8.7c0,7.11,1.93,14.1,5.59,20.19Z"/>
    <path class="cls-4" d="M83.7,75.14v6.52c0,1.2-.97,2.17-2.17,2.17h-13.05c-1.2,0-2.17-.97-2.17-2.17v-8.01c2.72,.96,5.65,1.48,8.7,1.48s5.98-.52,8.7-1.48v1.48Z"/>
    <path class="cls-4" d="M109.79,12.08v4.35c0,1.2-.97,2.17-2.17,2.17H42.38c-1.2,0-2.17-.97-2.17-2.17v-4.35c0-1.2,.97-2.17,2.17-2.17H107.62c1.2,0,2.17,.97,2.17,2.17Z"/>
    <path class="cls-1" d="M44.56,18.61h60.88c-2.83,4.25-4.35,9.25-4.35,14.36v16.08c0,3.05-.52,5.98-1.48,8.7-2.62,7.41-8.5,13.29-15.91,15.91-2.72,.96-5.65,1.48-8.7,1.48s-5.98-.52-8.7-1.48c-3.71-1.31-7.03-3.44-9.75-6.16-2.72-2.72-4.85-6.04-6.16-9.75-.96-2.72-1.48-5.65-1.48-8.7v-16.08c0-5.11-1.51-10.11-4.35-14.36h0Z"/>
  </g>
  <g>
    <path class="cls-3" d="M75,55.57c-2.4,0-4.35-1.95-4.35-4.35h-4.35c0,4.05,2.78,7.45,6.52,8.42v4.62h4.35v-4.35h6.52v-8.7c0-4.8-3.9-8.7-8.7-8.7-2.4,0-4.35-1.95-4.35-4.35v-4.35h4.35c2.4,0,4.35,1.95,4.35,4.35h4.35c0-4.05-2.78-7.45-6.52-8.42v-4.62h-4.35v4.35h-6.52v8.7c0,4.8,3.9,8.7,8.7,8.7,2.4,0,4.35,1.95,4.35,4.35v4.35h-4.35Z"/>
    <path class="cls-3" d="M30.08,29.02l.46,.23,1.95-3.89-.46-.23c-1.66-.83-2.69-2.5-2.69-4.35,0-2.4,1.95-4.35,4.35-4.35s4.35,1.95,4.35,4.35v28.27c0,14.85,11.52,27.07,26.09,28.18v4.43c0,2.37,1.91,4.31,4.28,4.35-.35,5.96-2.13,11.77-5.22,16.9l-.3,.49h-11.82v4.35h47.84v-4.35h-11.82l-.3-.49c-3.08-5.14-4.87-10.94-5.22-16.9,2.37-.04,4.28-1.97,4.28-4.35v-4.43c14.57-1.11,26.09-13.33,26.09-28.18V20.78c0-2.4,1.95-4.35,4.35-4.35s4.35,1.95,4.35,4.35c0,1.85-1.03,3.52-2.69,4.35l-.46,.23,1.95,3.89,.46-.23c3.14-1.57,5.09-4.73,5.09-8.24,0-4.8-3.9-8.7-8.7-8.7-1.58,0-3.07,.43-4.35,1.17v-1.17c0-2.4-1.95-4.35-4.35-4.35H42.38c-2.4,0-4.35,1.95-4.35,4.35v1.17c-1.28-.74-2.76-1.17-4.35-1.17-4.8,0-8.7,3.9-8.7,8.7,0,3.51,1.95,6.67,5.09,8.24Zm14.92,30.9h3.91c1.89,4.52,4.92,8.45,8.74,11.42-5.48-2.13-9.98-6.23-12.64-11.42h0Zm62.61-10.87c0,2.26-.32,4.45-.9,6.52h-4.21c.5-2.09,.76-4.28,.76-6.52v-16.08c0-4.32,1.17-8.5,3.37-12.19h.97v28.27h0Zm-8.7-16.08v16.08c0,13.19-10.73,23.92-23.92,23.92s-23.92-10.73-23.92-23.92v-16.08c0-4.25-.96-8.4-2.79-12.19h53.41c-1.83,3.79-2.79,7.94-2.79,12.19h0Zm-30.44,48.69v-5.11c2.09,.5,4.28,.76,6.52,.76s4.43-.26,6.52-.76v5.11h-13.05Zm-.57,21.74c2.88-5.37,4.54-11.31,4.86-17.39h4.47c.32,6.08,1.98,12.02,4.86,17.39h-14.19Zm24.45-32.06c3.81-2.97,6.84-6.9,8.74-11.42h3.91c-2.66,5.19-7.17,9.29-12.64,11.42ZM42.38,12.08H107.62v4.35s0,0,0,0H42.38v-4.35Zm.97,8.7c2.21,3.68,3.37,7.87,3.37,12.19v16.08c0,2.24,.26,4.43,.76,6.52h-4.21c-.59-2.07-.9-4.26-.9-6.52V20.78h.97Z"/>
    <path class="cls-3" d="M64.13,116.45h4.35v4.35h-4.35v-4.35Z"/>
    <path class="cls-3" d="M72.83,116.45h4.35v4.35h-4.35v-4.35Z"/>
    <path class="cls-3" d="M81.52,116.45h4.35v4.35h-4.35v-4.35Z"/>
    <path class="cls-3" d="M52.44,128.84c1.79-1.75,2.84-4.07,2.99-6.59,.15-2.68-.74-5.26-2.53-7.26l-3.37-3.78-.68,.61c-.24-2.03-1.09-3.94-2.47-5.5l-3.37-3.78-1.07,.95c-.42-1.36-1.13-2.62-2.1-3.72l-3.37-3.78-.65,.58c.01-.13,.02-.25,.03-.38,.15-2.68-.74-5.26-2.53-7.26l-3.37-3.78-3.78,3.37c-.67,.6-1.25,1.28-1.74,2.01-1.6-1.81-3.81-3.09-6.37-3.52l-8.78-1.46,1.46,8.78c.42,2.51,1.66,4.69,3.43,6.29-.62,.39-1.21,.86-1.74,1.39l-3.58,3.58,3.58,3.58c1.03,1.03,2.25,1.81,3.58,2.31l-2.81,2.81,3.58,3.58c1.9,1.9,4.42,2.94,7.11,2.94,.06,0,.13,0,.19,0l-2.18,2.18,3.58,3.58c1.46,1.46,3.28,2.41,5.26,2.77l-2.32,2.32,3.58,3.58c1.9,1.9,4.42,2.94,7.11,2.94s5.21-1.05,7.11-2.94l3.15-3.15c.63,.38,1.27,.76,1.91,1.12l16.13,9.07,2.13-3.79-16.13-9.07c-.33-.18-.66-.37-.98-.57h0Zm-2.79-10.96c1.01,1.14,1.52,2.6,1.43,4.12-.09,1.52-.76,2.91-1.9,3.93l-.53,.47-.48-.53c-1.01-1.14-1.52-2.6-1.43-4.12,.09-1.52,.76-2.91,1.9-3.93l.53-.47,.47,.53Zm-6.52-8.67c1.01,1.14,1.52,2.6,1.43,4.12-.09,1.52-.76,2.91-1.9,3.93l-.53,.47-.47-.53c-1.01-1.14-1.52-2.6-1.43-4.12s.76-2.91,1.9-3.93l.53-.47,.48,.53Zm-6.54-6.55c1.01,1.14,1.52,2.6,1.43,4.12,0,.15-.02,.3-.04,.45-.78,1-1.36,2.13-1.71,3.34-.05,.04-.09,.09-.14,.13l-.53,.47-.48-.53c-1.01-1.14-1.52-2.6-1.43-4.12,.09-1.52,.76-2.91,1.9-3.93l.53-.47,.47,.53Zm-9.42-6.98c.09-1.52,.76-2.91,1.9-3.93l.53-.47,.48,.53c1.01,1.14,1.52,2.6,1.43,4.12-.09,1.52-.76,2.91-1.9,3.93l-.53,.47-.47-.53c-1.01-1.14-1.52-2.6-1.43-4.12Zm-9.81-4.39c3.16,.53,5.45,3.23,5.45,6.43v1.33h-1.33c-3.2,0-5.91-2.29-6.43-5.45l-.46-2.78,2.78,.46Zm-2.35,14.29l.5-.5c1.08-1.08,2.51-1.67,4.03-1.67s2.95,.59,4.03,1.67l.5,.5-.5,.5c-1.08,1.08-2.51,1.67-4.03,1.67s-2.95-.59-4.03-1.67l-.5-.5Zm4.85,9.2l-.5-.5,.5-.5c1.08-1.08,2.51-1.67,4.03-1.67s2.95,.59,4.03,1.67l.5,.5-.5,.5c-1.08,1.08-2.51,1.67-4.03,1.67s-2.95-.59-4.03-1.67Zm8.19,8.19l.5-.5c1.08-1.08,2.51-1.67,4.03-1.67s2.95,.59,4.03,1.67l.5,.5-.5,.5c-1.08,1.08-2.51,1.67-4.03,1.67s-2.95-.59-4.03-1.67l-.5-.5Zm15.09,9.18c-1.08,1.08-2.51,1.67-4.03,1.67s-2.95-.59-4.03-1.67l-.5-.5,.5-.5c1.08-1.08,2.51-1.67,4.03-1.67s2.95,.59,4.03,1.67l.5,.5-.51,.5Z"/>
    <path class="cls-3" d="M141.13,105.58l-3.58-3.58c-.53-.53-1.12-1-1.74-1.39,1.77-1.6,3.01-3.78,3.43-6.29l1.46-8.78-8.78,1.46c-2.55,.43-4.76,1.71-6.37,3.52-.48-.74-1.06-1.41-1.74-2.01l-3.78-3.37-3.37,3.78c-1.79,2-2.68,4.58-2.53,7.26,0,.13,.02,.25,.03,.38l-.65-.58-3.37,3.78c-.97,1.09-1.68,2.36-2.1,3.72l-1.07-.95-3.37,3.78c-1.39,1.56-2.24,3.47-2.47,5.5l-.68-.61-3.37,3.78c-1.79,2-2.68,4.58-2.53,7.26,.15,2.52,1.2,4.84,2.99,6.59-.33,.19-.65,.38-.98,.57l-16.13,9.07,2.13,3.79,16.13-9.07c.64-.36,1.28-.73,1.91-1.12l3.15,3.15c1.9,1.9,4.42,2.94,7.11,2.94s5.21-1.05,7.11-2.94l3.58-3.58-2.32-2.32c1.98-.37,3.81-1.32,5.26-2.77l3.58-3.58-2.18-2.18c.06,0,.13,0,.19,0,2.68,0,5.21-1.05,7.11-2.94l3.58-3.58-2.81-2.81c1.33-.5,2.55-1.27,3.58-2.31l3.58-3.58Zm-8.5-14.29l2.78-.46-.46,2.78c-.53,3.16-3.23,5.45-6.43,5.45h-1.33v-1.33c0-3.2,2.29-5.91,5.45-6.43h0Zm-12.72,.52l.48-.53,.53,.47c1.14,1.01,1.81,2.41,1.9,3.93s-.42,2.98-1.43,4.12l-.48,.53-.53-.47c-1.14-1.01-1.81-2.41-1.9-3.93-.09-1.52,.42-2.98,1.43-4.12Zm-6.51,10.85l.48-.53,.53,.47c1.14,1.01,1.81,2.41,1.9,3.93,.09,1.52-.42,2.98-1.43,4.12l-.48,.53-.53-.48s-.09-.09-.14-.13c-.35-1.21-.93-2.34-1.71-3.34-.02-.15-.04-.3-.04-.45-.09-1.52,.42-2.98,1.43-4.12h0Zm-6.53,6.55l.48-.53,.53,.47c1.14,1.01,1.81,2.41,1.9,3.93s-.42,2.98-1.43,4.12l-.48,.53-.53-.47c-1.14-1.01-1.81-2.41-1.9-3.93-.09-1.52,.42-2.98,1.43-4.12Zm-6.52,8.67l.48-.53,.53,.47c1.14,1.01,1.81,2.41,1.9,3.93,.09,1.52-.42,2.98-1.43,4.12l-.48,.53-.53-.47c-1.14-1.01-1.81-2.41-1.9-3.93s.42-2.98,1.43-4.12Zm14.56,14.27c-1.08,1.08-2.51,1.67-4.03,1.67s-2.95-.59-4.03-1.67l-.5-.5,.5-.5c1.08-1.08,2.51-1.67,4.03-1.67s2.95,.59,4.03,1.67l.5,.5-.51,.5Zm6.52-8.67c-1.08,1.08-2.51,1.67-4.03,1.67s-2.95-.59-4.03-1.67l-.5-.5,.5-.5c1.08-1.08,2.51-1.67,4.03-1.67s2.95,.59,4.03,1.67l.5,.5-.5,.5Zm8.7-8.7c-1.08,1.08-2.51,1.67-4.03,1.67s-2.95-.59-4.03-1.67l-.5-.5,.5-.5c1.08-1.08,2.51-1.67,4.03-1.67s2.95,.59,4.03,1.67l.5,.5-.5,.5Zm4.35-8.7c-1.08,1.08-2.51,1.67-4.03,1.67s-2.95-.59-4.03-1.67l-.5-.5,.5-.5c1.08-1.08,2.51-1.67,4.03-1.67s2.95,.59,4.03,1.67l.5,.5-.5,.5Z"/>
  </g>
</svg>