<?xml version="1.0" encoding="UTF-8"?>
<svg id="new" xmlns="http://www.w3.org/2000/svg" viewBox="0 0 150 150">
  <defs>
    <style>
      .cls-1 {
        fill: #f6e540;
      }

      .cls-2 {
        fill: #f6e548;
      }

      .cls-3 {
        fill: #958a72;
      }

      .cls-4 {
        fill: #eeaf1a;
      }

      .cls-5 {
        fill: #f1edcf;
      }

      .cls-6 {
        fill: #f4e99a;
      }

      .cls-7 {
        fill: #f5e781;
      }

      .cls-8 {
        fill: #f2da98;
      }

      .cls-9 {
        fill: #f7e415;
      }

      .cls-10 {
        fill: #eba35d;
      }

      .cls-11 {
        fill: #f2edc8;
      }

      .cls-12 {
        fill: #f2ecbf;
      }
    </style>
  </defs>
  <g>
    <path class="cls-11" d="M76.47,125.82l1.91,13.4h-8.56l1.91-13.4,2.38-1.58,2.38,1.58Z"/>
    <path class="cls-2" d="M80.51,128.51l4.11-10.23c5.27,1.5,9.44,5.44,11.32,10.49,.49,1.31,.83,2.7,.98,4.13l.71,6.31h-19.26l-1.91-13.4,4.05,2.7Z"/>
    <path class="cls-2" d="M63.56,118.28l4.11,10.23,4.05-2.7-1.91,13.4h-19.26l.71-6.31c.15-1.43,.49-2.83,.98-4.13,.81-2.18,2.05-4.15,3.62-5.82,2.08-2.18,4.71-3.81,7.71-4.67h0Z"/>
    <path class="cls-9" d="M82.65,117.81c.66,.11,1.33,.26,1.97,.47l-4.11,10.23-4.05-2.7-2.38-1.58-2.38,1.58-4.05,2.7-4.11-10.23c.64-.21,1.31-.36,1.97-.47l8.56,4.28,8.56-4.28Z"/>
    <path class="cls-6" d="M74.09,113.53l6.83-.92,1.73,5.2-8.56,4.28-8.56-4.28,1.73-5.2c2.16,.6,4.45,.92,6.83,.92Z"/>
    <path class="cls-1" d="M84.62,118.28c-.64-.21-1.31-.36-1.97-.47l-1.73-5.2c4.37-1.2,8.24-3.49,11.34-6.59,3.68-3.68,6.25-8.5,7.15-13.89h2.5c1.78,0,3.38-.73,4.54-1.88s1.88-2.76,1.88-4.54c0-2.61-1.54-4.84-3.77-5.84l2.35-7.02c.94-2.83,1.41-5.78,1.41-8.75,0-7.88-3.9-14.83-9.87-19.05h19.03c.54,0,1.07-.15,1.5-.43l.04-.02,.36-.24,7.17,12.37-4.77,2.76c-1.88,1.09-2.8,3.32-2.25,5.42,.02,.04,.02,.06,.02,.09,.58,2.12,2.48,3.6,4.67,3.6h5.5v17.12h-5.5c-2.18,0-4.09,1.48-4.67,3.6,0,.02,0,.04-.02,.09-.56,2.1,.36,4.32,2.25,5.42l4.77,2.76-8.56,14.81-4.77-2.74c-1.91-1.11-4.28-.77-5.84,.77,0,.02-.02,.04-.04,.04-1.54,1.56-1.88,3.94-.77,5.84l2.74,4.77-13.36,7.71h-.02c-1.88-5.05-6.06-8.99-11.32-10.49h0Z"/>
    <path class="cls-1" d="M39.84,49.31l4.28-4.28h5.59c-2.98,2.1-5.46,4.9-7.17,8.16-1.71,3.25-2.7,6.96-2.7,10.9,0,2.98,.47,5.93,1.41,8.75l2.35,7.02c-2.23,1.01-3.77,3.23-3.77,5.84,0,1.78,.73,3.38,1.88,4.54s2.76,1.88,4.54,1.88h2.5c1.65,9.89,8.97,17.87,18.49,20.48l-1.73,5.2c-.66,.11-1.33,.26-1.97,.47-3,.86-5.63,2.48-7.71,4.67-1.56,1.67-2.8,3.64-3.62,5.82h-.02l-13.36-7.71,2.74-4.77c1.11-1.91,.77-4.28-.77-5.84-.02,0-.04-.02-.04-.04-1.56-1.54-3.94-1.88-5.84-.77l-4.77,2.74-8.56-14.81,4.77-2.76c1.88-1.09,2.8-3.32,2.25-5.42-.02-.04-.02-.06-.02-.09-.58-2.12-2.48-3.6-4.67-3.6h-5.5v-17.12h5.5c2.18,0,4.09-1.48,4.67-3.6,0-.02,0-.04,.02-.09,.3-1.11,.17-2.27-.3-3.28,.92,.34,1.91,.54,2.95,.54,2.35,0,4.5-.96,6.06-2.5,1.54-1.56,2.5-3.7,2.5-6.06v-4.28Z"/>
    <path class="cls-10" d="M52.69,28.96c0-3.53-1.01-6.83-2.74-9.61H117.5c.54,0,1.07,.15,1.5,.43l.04,.02v12.39H52.41c.19-1.07,.28-2.14,.28-3.23Z"/>
    <path class="cls-5" d="M119.04,32.19v12.39l-.04,.02c-.43,.28-.96,.43-1.5,.43H44.12l3.23-3.23c2.65-2.65,4.39-6.01,5.05-9.61H119.04Z"/>
    <path class="cls-8" d="M138.31,32.19l-10.7,6.87v-13.74l10.7,6.87Z"/>
    <path class="cls-12" d="M119.41,44.33v.02l-.36,.24V19.8l8.56,5.52v13.74l-8.2,5.27Z"/>
    <path class="cls-6" d="M104.57,79.86c2.23,1.01,3.77,3.23,3.77,5.84,0,1.78-.73,3.38-1.88,4.54s-2.76,1.88-4.54,1.88h-2.5c.24-1.39,.36-2.83,.36-4.28v-8.56h2.14c.94,0,1.84,.21,2.65,.58Z"/>
    <path class="cls-6" d="M99.78,79.28v8.56c0,1.46-.13,2.89-.36,4.28-.9,5.39-3.47,10.21-7.15,13.89-3.1,3.1-6.98,5.39-11.34,6.59l-6.83,.92c-2.38,0-4.67-.32-6.83-.92-9.53-2.61-16.85-10.6-18.49-20.48-.24-1.39-.36-2.83-.36-4.28v-12.89c0-2.57,1.54-4.9,3.9-5.91l8.22-3.53c3.15,3.25,7.53,5.2,12.27,5.2h16.29c2.16,0,4.09-1.07,5.24-2.72l1.91,.94c2.18,1.09,3.55,3.32,3.55,5.74v4.6Z"/>
    <path class="cls-6" d="M48.77,92.12h-2.5c-1.78,0-3.38-.73-4.54-1.88s-1.88-2.76-1.88-4.54c0-2.61,1.54-4.84,3.77-5.84,.81-.36,1.71-.58,2.65-.58h2.14v8.56c0,1.46,.13,2.89,.36,4.28Z"/>
    <path class="cls-4" d="M43.61,79.86l-2.35-7.02c-.94-2.83-1.41-5.78-1.41-8.75,0-3.94,.98-7.64,2.7-10.9,1.71-3.25,4.2-6.06,7.17-8.16h48.76c5.97,4.22,9.87,11.17,9.87,19.05,0,2.98-.47,5.93-1.41,8.75l-2.35,7.02c-.81-.36-1.71-.58-2.65-.58h-2.14v-4.6c0-2.42-1.37-4.64-3.55-5.74l-1.91-.94c-1.16,1.65-3.08,2.72-5.24,2.72h-16.29c-4.73,0-9.12-1.95-12.27-5.2l-8.22,3.53c-2.35,1.01-3.9,3.34-3.9,5.91v4.32h-2.14c-.94,0-1.84,.21-2.65,.58Z"/>
    <path class="cls-12" d="M39.84,49.31v4.28c0,2.35-.96,4.5-2.5,6.06-1.56,1.54-3.7,2.5-6.06,2.5-1.05,0-2.03-.19-2.95-.54-3.28-1.2-5.61-4.35-5.61-8.03v-4.28h17.12Z"/>
    <path class="cls-7" d="M49.95,19.35c-3.21-5.14-8.93-8.56-15.43-8.56h-6.46c-10.04,0-18.17,8.13-18.17,18.17,0,2.42,.47,4.77,1.37,6.94,.92,2.18,2.25,4.2,3.96,5.91l7.51,7.51h17.12l4.28-4.28,3.23-3.23c2.65-2.65,4.39-6.01,5.05-9.61,.19-1.07,.28-2.14,.28-3.23,0-3.53-1.01-6.83-2.74-9.61Z"/>
    <path class="cls-1" d="M42.86,24.89c.79,.77,1.26,1.84,1.26,3.02,0,2.35-1.93,4.28-4.28,4.28h-4.28v-4.28c0-1.18,.47-2.25,1.26-3.02,.77-.79,1.84-1.26,3.02-1.26s2.25,.47,3.02,1.26Z"/>
    <path class="cls-1" d="M27,27.91v4.28h-4.28c-1.18,0-2.25-.47-3.02-1.26-.79-.77-1.26-1.84-1.26-3.02s.47-2.25,1.26-3.02c.77-.79,1.84-1.26,3.02-1.26,2.35,0,4.28,1.93,4.28,4.28Z"/>
  </g>
  <g>
    <path class="cls-3" d="M72.32,98.55h-4.65v4.28h4.65c4.48,0,8.68-1.74,11.85-4.91l-3.03-3.03c-2.36,2.36-5.49,3.65-8.82,3.65Z"/>
    <path class="cls-3" d="M69.36,80.69l.22-.45-3.83-1.92-.22,.45c-.82,1.63-2.46,2.65-4.28,2.65s-3.47-1.01-4.28-2.65l-.22-.45-3.83,1.92,.22,.45c1.55,3.09,4.65,5.01,8.11,5.01s6.57-1.92,8.11-5.01h0Z"/>
    <path class="cls-3" d="M95.05,80.69l.22-.45-3.83-1.92-.22,.45c-.82,1.63-2.46,2.65-4.28,2.65s-3.47-1.01-4.28-2.65l-.22-.45-3.83,1.92,.22,.45c1.55,3.09,4.65,5.01,8.11,5.01s6.57-1.92,8.11-5.01h0Z"/>
    <path class="cls-3" d="M121.63,64.35c-.31-1.18,.19-2.41,1.24-3.02l6.62-3.82-7.21-12.48,19.98-12.84-22.11-14.22c-.78-.5-1.7-.77-2.66-.77H51.06c-3.68-5.17-9.71-8.56-16.53-8.56h-6.49c-11.2,0-20.3,9.11-20.3,20.3,0,5.42,2.11,10.52,5.95,14.36l6.9,6.9v3.39c0,4.2,2.45,7.8,5.98,9.55,.07,.41,.09,.83-.03,1.29-.31,1.18-1.38,2-2.59,2h-7.64v21.41h7.64c1.21,0,2.27,.82,2.61,2.08,.31,1.18-.19,2.41-1.24,3.02l-6.62,3.82,10.7,18.54,6.63-3.83c1.04-.61,2.38-.43,3.29,.49,.86,.86,1.04,2.19,.44,3.24l-3.83,6.63,13.75,7.94c-.25,.94-.44,1.89-.55,2.88l-.97,8.7h51.87l-.97-8.7c-.11-.98-.3-1.94-.55-2.88l13.75-7.94-3.83-6.63c-.6-1.05-.42-2.38,.49-3.29,.86-.86,2.19-1.04,3.24-.44l6.63,3.83,10.7-18.54-6.62-3.82c-1.04-.6-1.55-1.85-1.22-3.1,.31-1.18,1.38-2,2.59-2h7.64v-21.41h-7.64c-1.21,0-2.27-.82-2.61-2.08h0Zm-15.44-.27c0,2.75-.44,5.47-1.31,8.08l-1.7,5.11c-.42-.06-.83-.13-1.27-.13v-2.45c0-3.26-1.81-6.2-4.73-7.66h-.03c.29-.87,.48-1.78,.48-2.73,0-4.72-3.84-8.56-8.56-8.56h-.31c-3.26,0-6.2,1.81-7.66,4.73l-.37,.73,3.83,1.92,.37-.73c.73-1.46,2.2-2.37,3.83-2.37h.31c2.36,0,4.28,1.92,4.28,4.28s-1.92,4.28-4.28,4.28h-16.3c-6.12,0-11.55-3.67-13.82-9.36l-3.97,1.59c.56,1.39,1.3,2.66,2.13,3.85l-5.66,2.43c-3.15,1.35-5.19,4.44-5.19,7.87v2.19c-.43,0-.85,.07-1.27,.13l-1.7-5.11c-.87-2.61-1.31-5.33-1.31-8.08,0-6.65,3.17-12.92,8.47-16.91h47.28c5.3,4,8.47,10.26,8.47,16.91h0Zm-4.28,23.76v-6.42c2.36,0,4.28,1.92,4.28,4.28s-1.92,4.28-4.28,4.28h-.11c.06-.71,.11-1.42,.11-2.14Zm-30.25,35.43l-2.99,1.99-1.74-4.36,4.74,2.37Zm2.42,3.53l.38,.25,1.43,10.02h-3.63l1.43-10.02,.38-.25Zm2.42-3.53l4.74-2.37-1.74,4.36-2.99-1.99Zm3.52-6.55l-5.94,2.97-5.94-2.97,.53-1.59c1.75,.35,3.56,.54,5.41,.54s3.66-.19,5.41-.54l.53,1.59Zm-5.94-5.34c-12.98,0-23.55-10.56-23.55-23.55v-12.89c0-1.71,1.02-3.26,2.59-3.93l6.94-2.97c3.42,3.04,7.89,4.81,12.7,4.81h16.3c2.21,0,4.2-.86,5.72-2.24l.48,.24c1.46,.73,2.37,2.2,2.37,3.83v13.16c0,12.98-10.56,23.55-23.55,23.55h0Zm-27.83-29.97v6.42c0,.72,.05,1.43,.11,2.14h-.11c-2.36,0-4.28-1.92-4.28-4.28s1.92-4.28,4.28-4.28ZM24.86,30.05h-2.14c-1.18,0-2.14-.96-2.14-2.14s.96-2.14,2.14-2.14,2.14,.96,2.14,2.14v2.14Zm8.56,17.12h-4.28v-12.84h4.28v12.84Zm15.83-4.28c2.32-2.45,3.96-5.38,4.84-8.56h62.81v8.56H49.25ZM121.18,23.73l4.28,2.75v11.42l-4.28,2.75V23.73Zm8.56,11.42v-5.92l4.6,2.96-4.6,2.96Zm-12.84-13.66v8.56H54.77c.02-.37,.05-.73,.05-1.1,0-2.64-.52-5.15-1.44-7.46h63.51ZM16.71,40.28c-3.02-3.03-4.69-7.05-4.69-11.33,0-8.83,7.19-16.02,16.02-16.02h6.48c8.84,0,16.02,7.19,16.02,16.02,0,4.28-1.67,8.3-4.69,11.33l-6.9,6.9h-1.25v-12.84h2.14c3.54,0,6.42-2.88,6.42-6.42s-2.88-6.42-6.42-6.42-6.42,2.88-6.42,6.42v2.14h-4.28v-2.14c0-3.54-2.88-6.42-6.42-6.42s-6.42,2.88-6.42,6.42,2.88,6.42,6.42,6.42h2.14v12.84h-1.25l-6.9-6.9Zm20.99-10.23v-2.14c0-1.18,.96-2.14,2.14-2.14s2.14,.96,2.14,2.14-.96,2.14-2.14,2.14h-2.14Zm-12.84,21.41h12.84v2.14c0,3.54-2.88,6.42-6.42,6.42s-6.42-2.88-6.42-6.42v-2.14Zm16.91,68.82l1.69-2.92c1.57-2.72,1.11-6.18-1.17-8.46-2.23-2.23-5.69-2.69-8.41-1.12l-2.92,1.69-6.42-11.12,2.91-1.68c2.72-1.57,4.05-4.79,3.22-7.91-.81-3.05-3.58-5.19-6.73-5.19h-3.36v-12.84h3.36c3.15,0,5.91-2.13,6.74-5.26,.1-.4,.18-.8,.21-1.2,.13,0,.25,.04,.39,.04,2.48,0,4.73-.88,6.55-2.3-.06,.69-.13,1.38-.13,2.09,0,3.21,.52,6.39,1.53,9.43l1.82,5.44c-2.02,1.57-3.35,3.99-3.35,6.74,0,4.72,3.84,8.56,8.56,8.56h.78c2.17,9.13,8.83,16.51,17.52,19.69l-.67,2.01c-5.49,1.31-10.01,4.98-12.58,9.82l-9.53-5.51Zm11.6,12.86c.6-5.42,4.14-9.98,8.99-12.11l4.3,10.74,2.27-1.51-.97,6.83h-15.02l.44-3.95Zm26.85,3.95l-.98-6.83,2.27,1.51,4.3-10.74c4.85,2.13,8.39,6.68,8.99,12.11l.44,3.95h-15.02Zm47.38-53.51h-3.36c-3.15,0-5.91,2.13-6.74,5.26-.81,3.04,.52,6.26,3.24,7.83l2.91,1.68-6.42,11.12-2.92-1.69c-2.72-1.57-6.18-1.11-8.46,1.17-2.23,2.23-2.69,5.69-1.12,8.41l1.69,2.92-9.53,5.5c-2.58-4.84-7.1-8.51-12.58-9.82l-.67-2.01c8.69-3.18,15.35-10.56,17.52-19.69h.78c4.72,0,8.56-3.84,8.56-8.56,0-2.75-1.32-5.17-3.35-6.74l1.82-5.44c1.01-3.05,1.53-6.22,1.53-9.43,0-6.29-2.35-12.29-6.45-16.91h13.47c.34,0,.67-.07,1-.14l5.15,8.91-2.91,1.68c-2.72,1.57-4.05,4.79-3.22,7.91,.81,3.05,3.57,5.19,6.72,5.19h3.36v12.84Z"/>
    <circle class="cls-3" cx="27" cy="77.14" r="2.14"/>
    <circle class="cls-3" cx="33.42" cy="100.69" r="2.14"/>
    <circle class="cls-3" cx="50.55" cy="117.81" r="2.14"/>
    <circle class="cls-3" cx="121.18" cy="77.14" r="2.14"/>
    <circle class="cls-3" cx="114.76" cy="100.69" r="2.14"/>
    <circle class="cls-3" cx="97.64" cy="117.81" r="2.14"/>
    <circle class="cls-3" cx="114.76" cy="53.59" r="2.14"/>
  </g>
</svg>