<?xml version="1.0" encoding="UTF-8"?>
<svg id="new" xmlns="http://www.w3.org/2000/svg" viewBox="0 0 150 150">
  <defs>
    <style>
      .cls-1 {
        fill: #f3eaad;
      }

      .cls-2 {
        fill: #f4e484;
      }

      .cls-3 {
        fill: #f6e540;
      }

      .cls-4 {
        fill: #958a72;
      }

      .cls-5 {
        fill: #f5e882;
      }

      .cls-6 {
        fill: #f5e781;
      }

      .cls-7 {
        fill: #e89678;
      }

      .cls-8 {
        fill: #f2da98;
      }

      .cls-9 {
        fill: #f2edc8;
      }

      .cls-10 {
        fill: #f2ecbf;
      }
    </style>
  </defs>
  <g>
    <path class="cls-1" d="M33.77,122.74h34.72c0,4.8-1.94,9.14-5.08,12.28-3.14,3.14-7.48,5.08-12.28,5.08-9.59,0-17.36-7.77-17.36-17.36Z"/>
    <path class="cls-10" d="M70.66,114.06c2.4,0,4.34,1.94,4.34,4.34,0,1.2-.49,2.28-1.27,3.07-.79,.78-1.87,1.27-3.07,1.27H31.6c-2.4,0-4.34-1.94-4.34-4.34,0-1.2,.49-2.28,1.27-3.07,.79-.78,1.87-1.27,3.07-1.27h39.06Z"/>
    <path class="cls-10" d="M70.66,105.38c2.4,0,4.34,1.94,4.34,4.34,0,1.2-.49,2.28-1.27,3.07-.79,.78-1.87,1.27-3.07,1.27H31.6c-2.4,0-4.34-1.94-4.34-4.34,0-1.2,.49-2.28,1.27-3.07,.79-.78,1.87-1.27,3.07-1.27h39.06Z"/>
    <path class="cls-6" d="M42.45,105.38h-8.68v-12.94c0-2.78-1.33-5.39-3.57-7.02l-3.72-2.7c-10.42-7.58-16.58-19.68-16.58-32.56,0-11.12,4.51-21.18,11.79-28.47,7.29-7.29,17.35-11.79,28.47-11.79h1.94c15.54,0,29.02,8.8,35.73,21.7h-8.49v8.68h-4.34c0-4.05-2.77-7.45-6.51-8.41,0-.09,0-.18,0-.27,0-4.79-3.89-8.68-8.68-8.68s-8.68,3.89-8.68,8.68c0-4.79-3.89-8.68-8.68-8.68s-8.68,3.89-8.68,8.68c0,.09,0,.18,0,.27-3.75,.96-6.51,4.36-6.51,8.41,0,.38,.03,.75,.07,1.12-2.63,1.49-4.41,4.32-4.41,7.56s1.78,6.07,4.41,7.56c-.05,.37-.07,.74-.07,1.12,0,4.79,3.89,8.68,8.68,8.68,0,.2,0,.41,.02,.62,.29,4.24,3.71,7.7,7.95,8.04,2.88,.23,5.49-.95,7.22-2.92,1.59,1.8,3.92,2.94,6.51,2.94,4.79,0,8.68-3.89,8.68-8.68,1.2,0,2.28-.49,3.07-1.27,.78-.79,1.27-1.87,1.27-3.07v8.68c0,2.4,1.94,4.34,4.34,4.34h8.78c-2.27,2.9-4.96,5.5-8,7.72l-3.72,2.7c-2.25,1.63-3.57,4.24-3.57,7.02v12.94h-26.04Z"/>
    <path class="cls-2" d="M68.49,31.87c0-.09,0-.18,0-.27,0-4.79-3.89-8.68-8.68-8.68s-8.68,3.89-8.68,8.68c0-4.79-3.89-8.68-8.68-8.68s-8.68,3.89-8.68,8.68c0,.09,0,.18,0,.27-3.75,.96-6.51,4.36-6.51,8.41,0,.38,.03,.75,.07,1.12-2.63,1.49-4.41,4.32-4.41,7.56s1.78,6.07,4.41,7.56c-.05,.37-.07,.74-.07,1.12,0,4.79,3.89,8.68,8.68,8.68,0,.2,0,.41,.02,.62,.29,4.24,3.71,7.7,7.95,8.04,2.88,.23,5.49-.95,7.22-2.92,1.59,1.8,3.92,2.94,6.51,2.94,4.79,0,8.68-3.89,8.68-8.68,1.2,0,2.28-.49,3.07-1.27,.78-.79,1.27-1.87,1.27-3.07v-21.7h4.34c0-4.05-2.77-7.45-6.51-8.41h0Z"/>
    <path class="cls-8" d="M111.89,131.42l-3.37,6.74c-.3,.6-.75,1.08-1.29,1.42-.55,.34-1.18,.52-1.85,.52-1.33,0-2.55-.75-3.14-1.94l-3.37-6.74h13.02Z"/>
    <path class="cls-10" d="M118.4,118.4l-6.51,13.02h-13.02l-6.51-13.02h26.04Z"/>
    <path class="cls-5" d="M118.4,75v43.4h-8.68v-36.38c1.33-1.19,2.17-2.92,2.17-4.85v-2.17h6.51Z"/>
    <path class="cls-5" d="M101.04,82.02v36.38h-8.68v-43.4h6.51v2.17c0,1.8,.73,3.42,1.91,4.6,.09,.08,.17,.17,.26,.25Z"/>
    <path class="cls-7" d="M109.72,82.02v36.38h-8.68v-36.38c1.15,1.03,2.67,1.66,4.34,1.66s3.19-.63,4.34-1.66Z"/>
    <path class="cls-1" d="M140.1,40.28v30.38c0,2.4-1.94,4.34-4.34,4.34h-23.87v2.17c0,1.93-.84,3.66-2.17,4.85-1.15,1.03-2.67,1.66-4.34,1.66s-3.19-.63-4.34-1.66c-.09-.08-.18-.16-.26-.25-1.18-1.18-1.91-2.81-1.91-4.6v-2.17h-23.87c-2.4,0-4.34-1.94-4.34-4.34v-30.38h8.68v26.04h52.08v-26.04h8.68Z"/>
    <path class="cls-9" d="M109.72,31.6c-2.4,0-4.34,1.94-4.34,4.34,0-2.4-1.94-4.34-4.34-4.34h-21.7v34.72h52.08V31.6h-21.7Z"/>
    <path class="cls-3" d="M114.06,40.28h8.68v8.68h-8.68v-8.68Z"/>
  </g>
  <g>
    <path class="cls-4" d="M133.59,38.11v-8.68h-23.87c-1.67,0-3.19,.63-4.34,1.66-1.15-1.03-2.67-1.66-4.34-1.66h-11.91c-7.52-13.42-21.58-21.7-37.02-21.7h-1.94C26.77,7.73,7.73,26.77,7.73,50.16c0,13.53,6.53,26.35,17.47,34.31l3.72,2.7c1.68,1.22,2.68,3.19,2.68,5.26v10.77c-3.59,0-6.51,2.92-6.51,6.51,0,1.67,.63,3.19,1.66,4.34-1.03,1.15-1.66,2.67-1.66,4.34,0,3.59,2.92,6.51,6.51,6.51h.12c1.08,9.75,9.37,17.36,19.41,17.36s18.32-7.61,19.41-17.36h.12c3.59,0,6.51-2.92,6.51-6.51,0-1.67-.63-3.19-1.66-4.34,1.03-1.15,1.66-2.67,1.66-4.34,0-3.59-2.92-6.51-6.51-6.51v-10.77c0-2.08,1-4.04,2.68-5.26l3.72-2.7c2.89-2.1,5.49-4.56,7.76-7.3h5.37v41.74l10.11,20.22c.97,1.94,2.92,3.14,5.08,3.14s4.11-1.2,5.08-3.14l10.11-20.22v-41.74h15.19c3.59,0,6.51-2.92,6.51-6.51V38.11h-8.68Zm-23.87-4.34h19.53v30.38h-21.7v-28.21c0-1.2,.97-2.17,2.17-2.17Zm-6.51,2.17v28.21h-21.7v-30.38h19.53c1.2,0,2.17,.97,2.17,2.17Zm-52.08,101.98c-7.64,0-13.98-5.67-15.03-13.02h30.06c-1.06,7.35-7.39,13.02-15.03,13.02Zm19.53-17.36H31.6c-1.2,0-2.17-.97-2.17-2.17s.97-2.17,2.17-2.17h39.06c1.2,0,2.17,.97,2.17,2.17s-.97,2.17-2.17,2.17Zm2.17-10.85c0,1.2-.97,2.17-2.17,2.17H31.6c-1.2,0-2.17-.97-2.17-2.17s.97-2.17,2.17-2.17h39.06c1.2,0,2.17,.97,2.17,2.17Zm1.67-28.75l-3.72,2.7c-2.8,2.03-4.47,5.31-4.47,8.77v10.77h-4.34v-19.53h-4.34v19.53h-4.34v-23.87h-4.34v23.87h-4.34v-19.53h-4.34v19.53h-4.34v-10.77c0-3.46-1.67-6.74-4.47-8.77l-3.72-2.7c-9.82-7.14-15.69-18.66-15.69-30.8C12.07,29.16,29.16,12.07,50.16,12.07h1.94c13.03,0,24.97,6.57,31.96,17.36h-6.89v8.68h-.22c-.72-3.52-3.14-6.42-6.37-7.81-.64-5.37-5.23-9.55-10.77-9.55-3.55,0-6.7,1.71-8.68,4.35-1.98-2.64-5.13-4.35-8.68-4.35-5.54,0-10.13,4.18-10.77,9.55-3.87,1.66-6.59,5.51-6.59,9.98h0c-2.71,2.04-4.34,5.25-4.34,8.68s1.63,6.64,4.34,8.68h0c0,5.31,3.83,9.73,8.86,10.67,.88,4.74,4.89,8.44,9.78,8.83,.3,.02,.6,.04,.89,.04,2.38,0,4.64-.76,6.5-2.17,1.86,1.4,4.14,2.17,6.51,2.17,5.35,0,9.81-3.89,10.69-9,.05-.02,.1-.04,.16-.06v2.55c0,3.59,2.92,6.51,6.51,6.51h3.95c-1.38,1.37-2.86,2.64-4.44,3.79h0Zm-6.01-18.98c0,1.2-.97,2.17-2.17,2.17h-2.17v2.17c0,3.59-2.92,6.51-6.51,6.51-1.61,0-3.15-.6-4.34-1.66v-24.38c0-2.39,1.95-4.34,4.34-4.34v-4.34c-1.58,0-3.06,.43-4.34,1.17v-7.68c0-3.59,2.92-6.51,6.51-6.51,2.83,0,5.25,1.82,6.14,4.35-1.76,.06-3.49,.54-5.01,1.41l2.15,3.77c.98-.56,2.09-.85,3.23-.85,2.83,0,5.24,1.81,6.14,4.34h-3.97v23.87Zm-31.8-3.06c-1.32,1.42-2.22,3.12-2.64,4.95-2.67-.81-4.62-3.3-4.62-6.23,0-.27,.02-.55,.06-.84l.19-1.45-1.27-.72c-2.04-1.16-3.31-3.33-3.31-5.67,0-2.12,1.04-4.1,2.75-5.31l1.02,.12c3.31,.4,6.13,2.71,7.19,5.87l4.12-1.37c-1.57-4.72-5.76-8.16-10.69-8.79,.4-3.21,3.14-5.71,6.46-5.71,1.13,0,2.25,.3,3.23,.85l2.15-3.77c-1.52-.87-3.25-1.35-5.01-1.41,.89-2.53,3.31-4.35,6.14-4.35,3.59,0,6.51,2.92,6.51,6.51v39.57c-1.32,1.19-3.06,1.78-4.88,1.64-3.18-.25-5.74-2.84-5.96-6.02-.13-1.83,.49-3.57,1.73-4.91,1.25-1.33,2.94-2.07,4.76-2.07v-4.34c-3,0-5.89,1.26-7.93,3.45h0Zm60.01,18.25c0,2.2,.82,4.2,2.17,5.73v33.33s-4.34,0-4.34,0v-39.06h2.17Zm-.83,43.4h19.02l-4.34,8.68h-10.34l-4.34-8.68Zm11.68-4.34h-4.34v-30.65c.69,.18,1.42,.27,2.17,.27s1.48-.1,2.17-.27v30.65Zm-2.17,21.7c-.51,0-.97-.28-1.2-.74l-1.8-3.6h6l-1.8,3.6c-.23,.46-.69,.74-1.2,.74Zm10.85-21.7h-4.34v-33.33c1.35-1.53,2.17-3.54,2.17-5.73h2.17v39.06Zm21.7-45.57c0,1.2-.97,2.17-2.17,2.17h-26.04v4.34c0,2.39-1.95,4.34-4.34,4.34s-4.34-1.95-4.34-4.34v-4.34h-26.04c-1.2,0-2.17-.97-2.17-2.17v-28.21h4.34v26.04h56.42v-26.04h4.34v28.21Z"/>
    <path class="cls-4" d="M85.85,38.11h13.02v4.34h-13.02v-4.34Z"/>
    <path class="cls-4" d="M85.85,46.79h13.02v4.34h-13.02v-4.34Z"/>
    <path class="cls-4" d="M85.85,55.47h13.02v4.34h-13.02v-4.34Z"/>
    <path class="cls-4" d="M124.91,38.11h-13.02v13.02h13.02v-13.02Zm-4.34,8.68h-4.34v-4.34h4.34v4.34Z"/>
    <path class="cls-4" d="M111.89,55.47h13.02v4.34h-13.02v-4.34Z"/>
  </g>
</svg>