<?xml version="1.0" encoding="UTF-8"?>
<svg id="new" xmlns="http://www.w3.org/2000/svg" viewBox="0 0 150 150">
  <defs>
    <style>
      .cls-1 {
        fill: #f3eaad;
      }

      .cls-2 {
        fill: #f6e540;
      }

      .cls-3 {
        fill: #e99138;
      }

      .cls-4 {
        fill: #f6e548;
      }

      .cls-5 {
        fill: #958a72;
      }

      .cls-6 {
        fill: #f1edcf;
      }

      .cls-7 {
        fill: #f4e99a;
      }

      .cls-8 {
        fill: #f2da98;
      }

      .cls-9 {
        fill: #eba35d;
      }

      .cls-10 {
        fill: #f2cb4a;
      }

      .cls-11 {
        fill: #f2ecbf;
      }

      .cls-12 {
        fill: #edb773;
      }
    </style>
  </defs>
  <g>
    <path class="cls-1" d="M140.1,131.42v8.68H9.9v-8.68H140.1Z"/>
    <path class="cls-2" d="M140.1,29.43v13.02l-3.47,1.24c-.33,.93-.72,1.84-1.15,2.73l1.61,3.32-9.22,9.22-5.12-3.49v-7.07c3.93-2.73,6.51-7.29,6.51-12.45,0-8.4-6.79-15.19-15.19-15.19s-15.19,6.79-15.19,15.19c0,5.16,2.58,9.72,6.51,12.45v7.07l-5.12,3.49-9.22-9.22,1.61-3.32c-.43-.89-.82-1.8-1.15-2.73l-3.47-1.24v-13.02l3.47-1.24c.33-.93,.72-1.84,1.15-2.73l-1.61-3.32,9.22-9.22,3.32,1.61c.89-.43,1.8-.82,2.73-1.15l1.24-3.47h13.02l1.24,3.47c.93,.33,1.84,.72,2.73,1.15l3.32-1.61,9.22,9.22-1.61,3.32c.43,.89,.82,1.8,1.15,2.73l3.47,1.24Z"/>
    <path class="cls-6" d="M114.06,42.45v88.96h-8.68V42.45h8.68Z"/>
    <path class="cls-9" d="M122.74,55.47v75.94h-8.68V42.45h8.68v13.02Z"/>
    <path class="cls-9" d="M79.34,75h8.68v56.42h-8.68v-56.42Z"/>
    <path class="cls-2" d="M88.02,75h8.68v56.42h-8.68v-56.42Z"/>
    <path class="cls-2" d="M53.3,88.02h8.68v43.4h-8.68v-43.4Z"/>
    <path class="cls-4" d="M61.98,88.02h8.68v43.4h-8.68v-43.4Z"/>
    <path class="cls-11" d="M117.2,31.36l5.53,11.09h-17.36l5.53-11.09c.61-1.17,1.82-1.93,3.15-1.93s2.54,.76,3.15,1.93Z"/>
    <path class="cls-11" d="M91.17,63.91l5.53,11.09h-17.36l5.53-11.09c.61-1.17,1.82-1.93,3.15-1.93s2.54,.76,3.15,1.93Z"/>
    <path class="cls-11" d="M65.13,76.93l5.53,11.09h-17.36l5.53-11.09c.61-1.17,1.82-1.93,3.15-1.93s2.54,.76,3.15,1.93Z"/>
    <path class="cls-12" d="M20.88,55.08c-2.32,.91-4.4,2.3-6.08,4.06l-.02-.02c-2.97-2.39-4.88-6.05-4.88-10.15V31.6c0-5.99,2.43-11.41,6.36-15.34,3.93-3.93,9.35-6.36,15.34-6.36,11.98,0,21.7,9.72,21.7,21.7v17.36c0,4.1-1.91,7.77-4.88,10.15l-.02,.02c-1.67-1.76-3.75-3.15-6.08-4.06-.69-.3-1.43-.52-2.17-.72l-4.21-1.06v-2.99c0-.82,.46-1.58,1.19-1.95l1.5-.74c3.67-1.84,5.99-5.6,5.99-9.7v-6.31c0-1.19-.48-2.28-1.28-3.06-.78-.8-1.87-1.28-3.06-1.28-3.99,0-7.83-1.32-10.96-3.71l-3.3,.48c-4.27,.61-7.44,4.27-7.44,8.59v5.29c0,4.1,2.32,7.85,5.99,9.7l1.5,.74c.74,.37,1.19,1.13,1.19,1.95v2.99l-4.21,1.06c-.74,.2-1.48,.41-2.17,.72Z"/>
    <path class="cls-8" d="M44.62,94.53v30.49l-.02,.02s-.02-.04-.04-.07c-1.37-1.39-3.28-2.23-5.36-2.23-4.19,0-7.59,3.41-7.59,7.59,0-2.08-.85-3.99-2.23-5.36-1.37-1.39-3.28-2.23-5.36-2.23s-4.06,.87-5.4,2.3l-.02-.02v-37h26.04v6.51Z"/>
    <path class="cls-10" d="M44.56,124.97s.04,.04,.04,.07c1.37,1.37,2.19,3.23,2.19,5.29v1.08h-15.19v-1.08c0-4.19,3.41-7.59,7.59-7.59,2.08,0,3.99,.85,5.36,2.23h0Z"/>
    <path class="cls-10" d="M31.6,130.33v1.08h-15.19v-1.08c0-2.06,.82-3.93,2.19-5.29,1.35-1.43,3.28-2.3,5.4-2.3s3.99,.85,5.36,2.23c1.39,1.37,2.23,3.28,2.23,5.36Z"/>
    <path class="cls-9" d="M18.58,83.68H9.9v-12.48c0-4.64,1.84-8.92,4.9-12.06,1.67-1.76,3.75-3.15,6.08-4.06l4.21,11.24,6.51-6.51,6.51,6.51,4.21-11.24c2.32,.91,4.4,2.3,6.08,4.06,3.06,3.15,4.9,7.42,4.9,12.06v12.48h-8.68v4.34H18.58v-4.34Z"/>
    <path class="cls-3" d="M42.32,55.08l-4.21,11.24-6.51-6.51,4.34-6.51,4.21,1.06c.74,.2,1.48,.41,2.17,.72Z"/>
    <path class="cls-3" d="M27.26,53.3l4.34,6.51-6.51,6.51-4.21-11.24c.69-.3,1.43-.52,2.17-.72l4.21-1.06Z"/>
    <path class="cls-7" d="M53.3,83.68v4.34c0,3.6-2.91,6.51-6.51,6.51h-2.17v-10.85h8.68Z"/>
    <path class="cls-7" d="M18.58,88.02v6.51h-2.17c-3.6,0-6.51-2.91-6.51-6.51v-4.34h8.68v4.34Z"/>
    <path class="cls-7" d="M44.62,31.6v6.31c0,4.1-2.32,7.85-5.99,9.7l-1.5,.74c-.74,.37-1.19,1.13-1.19,1.95v2.99l-4.34,6.51-4.34-6.51v-2.99c0-.82-.46-1.58-1.19-1.95l-1.5-.74c-3.67-1.84-5.99-5.6-5.99-9.7v-5.29c0-4.32,3.17-7.99,7.44-8.59l3.3-.48c3.12,2.39,6.97,3.71,10.96,3.71,1.19,0,2.28,.48,3.06,1.28,.8,.78,1.28,1.87,1.28,3.06h0Z"/>
  </g>
  <path class="cls-5" d="M142.27,43.99V27.9l-3.96-1.4c-.13-.34-.28-.68-.43-1.02l1.81-3.8-11.38-11.37-3.79,1.81c-.34-.15-.68-.29-1.02-.43l-1.4-3.96h-16.09l-1.4,3.96c-.34,.13-.68,.28-1.02,.43l-3.79-1.81-11.38,11.37,1.81,3.8c-.15,.34-.29,.68-.43,1.02l-3.96,1.4v16.09l3.96,1.4c.13,.34,.28,.68,.43,1.02l-1.81,3.8,11.56,11.56,3.22-2.19v69.68h-4.34v-54.76l-5.77-11.53c-.97-1.94-2.92-3.14-5.08-3.14s-4.11,1.2-5.08,3.14l-5.77,11.54v54.76h-4.34v-41.74l-5.77-11.53c-.97-1.94-2.92-3.14-5.08-3.14s-4.11,1.2-5.08,3.14l-1.43,2.86v-7.63c0-4.45-1.5-8.6-4.06-11.92,2.59-2.79,4.06-6.44,4.06-10.31V31.6c0-13.16-10.71-23.87-23.87-23.87S7.73,18.44,7.73,31.6v17.36c0,3.88,1.47,7.52,4.06,10.31-2.56,3.33-4.06,7.48-4.06,11.92v16.83c0,4.79,3.89,8.68,8.68,8.68v27.57c-1.12,1.4-1.85,3.1-2.06,4.98H7.73v13.02H142.27v-13.02h-17.36V59.57l3.22,2.19,11.56-11.56-1.81-3.8c.15-.34,.29-.68,.43-1.02l3.96-1.4Zm-33.38-3.71l3.97-7.94c.46-.92,1.94-.92,2.4,0l3.97,7.94h-10.34Zm10.25-9.88c-.97-1.94-2.92-3.14-5.08-3.14s-4.11,1.2-5.08,3.14l-5.77,11.54v1.18c-1.39-2.1-2.17-4.59-2.17-7.17,0-7.18,5.84-13.02,13.02-13.02s13.02,5.84,13.02,13.02c0,2.59-.78,5.07-2.17,7.17v-1.18l-5.77-11.54Zm-11.59,14.22h4.34v84.62h-4.34V44.62Zm-17.36,84.62v-52.08h4.34v52.08h-4.34Zm-3.37-64.35c.46-.92,1.94-.92,2.4,0l3.97,7.94h-10.34l3.97-7.94Zm-5.31,12.28h4.34v52.08h-4.34v-52.08Zm-17.36,52.08v-39.06h4.34v39.06h-4.34Zm-15.3,0c-.21-1.87-.94-3.58-2.06-4.98v-27.57c1.59,0,3.06-.46,4.34-1.21v33.75h-2.28ZM19.69,58.08l4.56,12.16,5.19-5.19v16.46h4.34v-16.46l5.19,5.19,4.56-12.16c4.61,2.66,7.61,7.57,7.61,13.11v10.32h-4.34v-13.02h-4.34v17.36H20.75v-17.36h-4.34v13.02h-4.34v-10.32c0-5.54,3-10.45,7.61-13.11h0Zm6.66-31.9l2.45-.35c3.34,2.31,7.31,3.61,11.49,3.61,1.2,0,2.17,.97,2.17,2.17v6.31c0,3.31-1.84,6.28-4.8,7.77l-1.48,.74c-1.48,.74-2.4,2.22-2.4,3.88v2.34l-2.17,3.25-2.17-3.25v-2.34c0-1.66-.92-3.14-2.4-3.88l-1.48-.74c-2.96-1.48-4.8-4.46-4.8-7.77v-5.29c0-3.22,2.4-5.99,5.59-6.44Zm10.56,29.6l2.6,.65-2.24,5.97-2.87-2.87,2.5-3.76Zm-10.59,0l2.51,3.76-2.87,2.87-2.24-5.97,2.6-.65Zm24.83,31.73v.51c0,2.39-1.95,4.34-4.34,4.34v-6.51h4.34v1.66Zm-30.38,2.68h21.7v30.98c-1.02-.36-2.11-.6-3.25-.6-2.01,0-3.87,.61-5.42,1.65v-20.28l3.7-3.7-3.07-3.07-2.47,2.47-2.87-4.31-3.61,2.41,3.98,5.96v20.52c-1.55-1.04-3.42-1.65-5.42-1.65-1.15,0-2.23,.23-3.25,.6v-30.98Zm18.44,34.72c2.62,0,4.81,1.87,5.32,4.34h-10.63c.51-2.47,2.69-4.34,5.32-4.34Zm16.27-34.72h4.34v39.06h-4.34v-39.06Zm5.31-12.28c.46-.92,1.94-.92,2.4,0l3.97,7.94h-10.34l3.97-7.94ZM12.07,31.6c0-10.77,8.76-19.53,19.53-19.53s19.53,8.76,19.53,19.53v17.36c0,2.69-.99,5.22-2.74,7.19-2.19-1.81-4.8-3.18-7.71-3.9l-2.57-.64v-1.31l1.49-.74c4.44-2.22,7.2-6.69,7.2-11.65v-6.31c0-3.59-2.92-6.51-6.51-6.51-4.85,0-9.38-2.17-12.41-5.96l-3.26-4.07-3.39,2.71,3.26,4.07c.08,.1,.17,.18,.25,.28-4.8,1.16-8.32,5.48-8.32,10.5v5.29c0,4.96,2.76,9.43,7.2,11.65l1.48,.74v1.31l-2.57,.64c-2.91,.73-5.51,2.09-7.71,3.9-1.75-1.97-2.74-4.5-2.74-7.19V31.6Zm0,56.42v-2.17h4.34v6.51c-2.39,0-4.34-1.95-4.34-4.34Zm11.93,36.89c2.62,0,4.81,1.87,5.32,4.34h-10.63c.51-2.47,2.69-4.34,5.32-4.34Zm113.92,13.02H12.07v-4.34h125.85v4.34Zm-21.7-8.68V44.62h4.34v84.62h-4.34Zm21.7-88.33l-3.02,1.07-.34,.99c-.29,.84-.63,1.67-1.04,2.49l-.46,.95,1.38,2.9-6.85,6.85-2.69-1.83v-4.87c4.08-3.29,6.51-8.24,6.51-13.51,0-9.57-7.79-17.36-17.36-17.36s-17.36,7.79-17.36,17.36c0,5.27,2.43,10.23,6.51,13.51v4.87l-2.69,1.83-6.85-6.85,1.38-2.9-.46-.95c-.4-.81-.75-1.65-1.04-2.49l-.34-.99-3.02-1.07v-9.95l3.02-1.07,.34-.99c.29-.84,.63-1.67,1.04-2.49l.46-.95-1.38-2.9,7.03-7.03,2.89,1.39,.94-.46c.83-.41,1.66-.75,2.49-1.04l.99-.34,1.07-3.02h9.95l1.07,3.02,.99,.34c.82,.28,1.66,.63,2.49,1.04l.94,.46,2.89-1.39,7.03,7.03-1.38,2.9,.46,.95c.4,.81,.75,1.65,1.04,2.49l.34,.99,3.02,1.06v9.95Z"/>
</svg>