<?xml version="1.0" encoding="UTF-8"?>
<svg id="new" xmlns="http://www.w3.org/2000/svg" viewBox="0 0 150 150">
  <defs>
    <style>
      .cls-1 {
        fill: #f4e484;
      }

      .cls-2 {
        fill: #f6e540;
      }

      .cls-3 {
        fill: #f6e548;
      }

      .cls-4 {
        fill: #958a72;
      }

      .cls-5 {
        fill: #f4e99a;
      }

      .cls-6 {
        fill: #e89678;
      }

      .cls-7 {
        fill: #f2da98;
      }

      .cls-8 {
        fill: #f2ecbf;
      }
    </style>
  </defs>
  <g>
    <path class="cls-3" d="M92.36,76.03v33.69h-13.02v-31.12h0c1.36,.48,2.82,.74,4.34,.74,3.33,0,6.37-1.25,8.68-3.32h0Z"/>
    <path class="cls-3" d="M70.66,78.6v31.12h-13.02v-33.69h0c2.3,2.06,5.34,3.31,8.68,3.31,1.52,0,2.98-.26,4.34-.74h0Z"/>
    <path class="cls-6" d="M79.34,78.6v31.12h-8.68v-31.12h0c1.62-.57,3.09-1.45,4.34-2.57,1.25,1.12,2.72,2,4.34,2.57h0Z"/>
    <path class="cls-8" d="M92.36,109.72l-10.85,21.7h-13.02l-10.85-21.7h34.72Z"/>
    <path class="cls-7" d="M81.51,131.42l-3.37,6.74c-.3,.6-.75,1.08-1.29,1.42-.55,.34-1.18,.52-1.85,.52-1.33,0-2.55-.75-3.14-1.94l-3.37-6.74h13.02Z"/>
    <path class="cls-2" d="M140.1,122.35l-6.7,5.12,2.56,8.29-6.7-5.12-6.7,5.12,2.56-8.29-6.7-5.12h8.29l2.56-8.29,2.56,8.29h8.29Z"/>
    <path class="cls-2" d="M135.76,91.97l-6.7,5.12,2.56,8.29-6.7-5.12-6.7,5.12,2.56-8.29-6.7-5.12h8.29l2.56-8.29,2.56,8.29h8.29Z"/>
    <path class="cls-2" d="M35.94,91.97l-6.7,5.12,2.56,8.29-6.7-5.12-6.7,5.12,2.56-8.29-6.7-5.12h8.29l2.56-8.29,2.56,8.29h8.29Z"/>
    <path class="cls-2" d="M31.6,122.35l-6.7,5.12,2.56,8.29-6.7-5.12-6.7,5.12,2.56-8.29-6.7-5.12h8.29l2.56-8.29,2.56,8.29h8.29Z"/>
    <path class="cls-5" d="M123.2,49.04l3.88-17.44h-4.34c-1.2,0-2.28-.49-3.07-1.27-.78-.79-1.27-1.87-1.27-3.07,0-4.79,3.89-8.68,8.68-8.68h4.34c4.79,0,8.68,3.89,8.68,8.68v29.35c0,3.88-1.57,7.39-4.11,9.93-2.54,2.54-6.05,4.11-9.93,4.11-2.18,0-4.33-.51-6.28-1.48l-1.38-.69s-.69,.34-1.52,.76c-.92,.46-1.9,.82-2.9,1.05-1,.24-2.03,.36-3.07,.36-2.86,0-5.62-.92-7.9-2.58,4.05-2.73,6.71-7.36,6.71-12.6,0-4.23-1.73-8.05-4.52-10.81,2.23,.17,4.36,.85,6.24,1.96,1.89,1.1,3.53,2.63,4.78,4.51l.46-.23c2.04-1.02,4.25-1.65,6.51-1.86h0Z"/>
    <path class="cls-5" d="M26.8,49.04c2.26,.21,4.47,.84,6.51,1.86l.46,.23c1.25-1.88,2.89-3.41,4.78-4.51,1.89-1.1,4.02-1.78,6.25-1.96-2.79,2.75-4.52,6.58-4.52,10.81,0,5.25,2.66,9.88,6.71,12.6-2.28,1.67-5.04,2.59-7.9,2.59-1.04,0-2.07-.12-3.07-.36-1-.24-1.98-.59-2.9-1.05-.83-.41-1.52-.76-1.52-.76l-1.38,.69c-1.95,.98-4.1,1.48-6.28,1.48-3.88,0-7.39-1.57-9.93-4.11-2.54-2.54-4.11-6.05-4.11-9.93V27.26c0-4.79,3.89-8.68,8.68-8.68h4.34c4.79,0,8.68,3.89,8.68,8.68,0,1.2-.49,2.28-1.27,3.07-.79,.78-1.87,1.27-3.07,1.27h-4.34l3.88,17.44Z"/>
    <path class="cls-1" d="M105.2,44.67s-.03-.03-.04-.04c2.81-2.76,4.56-6.6,4.56-10.85,0-7.9-6.03-14.39-13.74-15.12-1.77-5.09-6.61-8.75-12.3-8.75-3.33,0-6.38,1.25-8.68,3.31-2.3-2.06-5.35-3.31-8.68-3.31-5.69,0-10.53,3.66-12.3,8.75-7.71,.73-13.74,7.22-13.74,15.12,0,4.25,1.75,8.09,4.56,10.85l-.04,.04c-2.79,2.75-4.52,6.58-4.52,10.81,0,5.25,2.66,9.88,6.71,12.6,2.04,1.38,4.44,2.27,7.02,2.52,.73,2.11,1.99,3.98,3.63,5.43,2.3,2.06,5.34,3.32,8.68,3.32,1.52,0,2.98-.26,4.34-.74,1.62-.57,3.09-1.45,4.34-2.57,1.25,1.12,2.72,2,4.34,2.57,1.36,.48,2.82,.74,4.34,.74,3.33,0,6.37-1.25,8.68-3.32,1.63-1.45,2.89-3.32,3.63-5.43,2.59-.25,4.99-1.14,7.03-2.52,4.05-2.73,6.71-7.36,6.71-12.6,0-4.23-1.73-8.05-4.52-10.81h0Z"/>
  </g>
  <g>
    <path class="cls-4" d="M131.42,16.41h-4.34c-5.98,0-10.85,4.87-10.85,10.85,0,3.59,2.92,6.51,6.51,6.51h1.63l-2.96,13.32c-1.55,.27-3.06,.71-4.51,1.32-2.07-2.46-4.77-4.25-7.81-5.19,1.82-2.79,2.8-6.04,2.8-9.45,0-4.35-1.62-8.51-4.55-11.71-2.61-2.85-6.06-4.73-9.82-5.38-2.39-5.27-7.69-8.94-13.84-8.94-3.12,0-6.14,.96-8.68,2.73-2.53-1.77-5.55-2.73-8.68-2.73-6.15,0-11.45,3.67-13.84,8.94-3.77,.65-7.21,2.53-9.82,5.38-2.93,3.21-4.55,7.37-4.55,11.71,0,3.42,1.03,6.68,2.82,9.44-3.05,.94-5.76,2.73-7.83,5.2-1.45-.61-2.96-1.06-4.51-1.32l-2.96-13.32h1.63c3.59,0,6.51-2.92,6.51-6.51,0-5.98-4.87-10.85-10.85-10.85h-4.34c-5.98,0-10.85,4.87-10.85,10.85v29.35c0,8.94,7.27,16.21,16.21,16.21,2.5,0,5.01-.59,7.25-1.71l.4-.2,.55,.28c2.14,1.07,4.54,1.64,6.94,1.64,2.83,0,5.54-.75,7.94-2.19,1.69,.94,3.53,1.59,5.45,1.92,.74,1.63,1.75,3.11,2.99,4.37v33.29l14.45,28.9c.97,1.94,2.92,3.14,5.08,3.14s4.11-1.2,5.08-3.14l14.45-28.9v-33.29c1.24-1.26,2.25-2.74,2.99-4.37,1.92-.33,3.76-.98,5.45-1.92,2.4,1.43,5.11,2.19,7.94,2.19,2.4,0,4.8-.57,6.94-1.64l.55-.28,.4,.2c2.24,1.12,4.75,1.71,7.25,1.71,8.94,0,16.21-7.27,16.21-16.21V27.26c0-5.98-4.87-10.85-10.85-10.85h0ZM61.15,111.89h27.7l-8.68,17.36h-10.34l-8.68-17.36Zm5.17-30.38c.73,0,1.46-.05,2.17-.16v26.19h-8.68v-27.51c1.97,.94,4.18,1.47,6.51,1.47Zm8.68-2.73c.69,.48,1.42,.9,2.17,1.26v27.51h-4.34v-27.51c.75-.36,1.48-.78,2.17-1.26Zm6.51,28.77v-26.19c.71,.1,1.44,.16,2.17,.16,2.33,0,4.54-.53,6.51-1.47v27.51h-8.68Zm-6.51-94.33h0s0,0,0,0h0Zm-40.9,54.09l-2.49-1.25-2.34,1.17c-1.64,.82-3.48,1.25-5.31,1.25-6.55,0-11.87-5.33-11.87-11.87V27.26c0-3.59,2.92-6.51,6.51-6.51h4.34c3.59,0,6.51,2.92,6.51,6.51,0,1.2-.97,2.17-2.17,2.17h-4.34c-1.2,0-2.17-.97-2.17-2.17v-2.17h-4.34v2.17c0,2.97,1.99,5.47,4.71,6.26l3.72,16.74c.16,.74,.25,1.5,.25,2.25,0,1.6-.38,3.21-1.1,4.64l-.85,1.69,3.88,1.94,.85-1.69c1.02-2.03,1.55-4.31,1.55-6.58,0-.26,0-.53-.02-.79,1.01,.28,1.99,.65,2.93,1.12l2.17,1.09,1.06-1.59c1.05-1.57,2.4-2.85,3.97-3.79-.94,2.15-1.43,4.5-1.43,6.92,0,4.35,1.62,8.51,4.55,11.71,.17,.18,.34,.36,.51,.54-1.29,.51-2.67,.77-4.08,.77-1.73,0-3.45-.41-5-1.18h0Zm8.36-11.84c0-2.86,.92-5.58,2.61-7.82,1.61,1.22,3.45,2.17,5.45,2.76l1.24-4.16c-5.47-1.63-9.3-6.76-9.3-12.48s3.6-10.55,8.75-12.31c-.05,.48-.07,.97-.07,1.46,0,2.67,.7,5.3,2.03,7.6l3.76-2.17c-.73-1.26-1.19-2.65-1.37-4.09,1.33,.55,2.77,.84,4.26,.84v-4.34c-1.37,0-2.69-.41-3.82-1.16,1.41-4.36,5.5-7.52,10.32-7.52,2.36,0,4.64,.77,6.51,2.17v60.75c-1.87,1.4-4.15,2.17-6.51,2.17-4.82,0-8.92-3.16-10.32-7.52,1.12-.75,2.44-1.16,3.82-1.16v-4.34c-1.48,0-2.92,.29-4.26,.84,.18-1.44,.64-2.83,1.37-4.09l-3.76-2.17c-1.33,2.3-2.03,4.93-2.03,7.6,0,.49,.03,.98,.07,1.46-5.15-1.76-8.75-6.62-8.75-12.31h0Zm32.55,82.45c-.51,0-.97-.28-1.2-.74l-1.8-3.6h6l-1.8,3.6c-.23,.46-.69,.74-1.2,.74Zm21.84-79.2l-3.76,2.17c.73,1.26,1.19,2.65,1.37,4.09-1.33-.55-2.77-.84-4.26-.84v4.34c1.37,0,2.69,.41,3.82,1.16-1.41,4.36-5.5,7.52-10.32,7.52-2.36,0-4.64-.77-6.51-2.17V14.25c1.87-1.4,4.15-2.17,6.51-2.17,4.82,0,8.92,3.16,10.32,7.52-1.12,.75-2.44,1.16-3.82,1.16v4.34c1.48,0,2.92-.29,4.26-.84-.18,1.44-.64,2.83-1.37,4.09l3.76,2.17c1.33-2.3,2.03-4.93,2.03-7.6,0-.49-.03-.98-.07-1.46,5.15,1.76,8.75,6.62,8.75,12.31,0,2.86-.92,5.58-2.61,7.82-1.61-1.22-3.45-2.17-5.45-2.76l-1.24,4.16c5.47,1.63,9.3,6.76,9.3,12.48s-3.6,10.55-8.75,12.31c.05-.48,.07-.97,.07-1.46,0-2.67-.7-5.3-2.03-7.6h0Zm41.09-2.11c0,6.55-5.33,11.87-11.87,11.87-1.83,0-3.67-.43-5.31-1.25l-2.34-1.17-2.49,1.25c-1.54,.77-3.27,1.18-5,1.18-1.42,0-2.79-.26-4.08-.77,.17-.17,.35-.35,.51-.54,2.93-3.21,4.55-7.37,4.55-11.71,0-2.44-.52-4.79-1.47-6.94,1.58,.94,2.95,2.23,4.01,3.81l1.06,1.59,2.17-1.09c.94-.47,1.93-.85,2.93-1.12-.01,.26-.02,.53-.02,.79,0,2.27,.54,4.55,1.55,6.58l.85,1.69,3.88-1.94-.85-1.69c-.72-1.43-1.1-3.04-1.1-4.64,0-.76,.08-1.51,.25-2.25l3.72-16.74c2.72-.78,4.71-3.29,4.71-6.26v-2.17h-4.34v2.17c0,1.2-.97,2.17-2.17,2.17h-4.34c-1.2,0-2.17-.97-2.17-2.17,0-3.59,2.92-6.51,6.51-6.51h4.34c3.59,0,6.51,2.92,6.51,6.51v29.35Z"/>
    <path class="cls-4" d="M31.6,120.18h-6.69l-2.09-6.76c-.28-.91-1.12-1.53-2.07-1.53s-1.79,.62-2.07,1.53l-2.09,6.76h-6.69c-.93,0-1.76,.59-2.06,1.47-.3,.88,0,1.85,.74,2.42l5.5,4.2-2.11,6.84c-.28,.9,.06,1.88,.83,2.42,.77,.54,1.81,.52,2.56-.06l5.39-4.12,5.39,4.12c.39,.3,.85,.45,1.32,.45,.43,0,.87-.13,1.24-.39,.77-.54,1.11-1.52,.83-2.42l-2.11-6.84,5.5-4.2c.74-.56,1.04-1.54,.74-2.42-.3-.88-1.13-1.47-2.06-1.47Zm-8.02,5.57c-.72,.55-1.02,1.5-.76,2.37l.56,1.8-1.31-1c-.39-.3-.85-.45-1.32-.45s-.93,.15-1.32,.45l-1.31,1,.56-1.8c.27-.87-.03-1.81-.76-2.37l-1.61-1.23h1.87c.95,0,1.79-.62,2.07-1.53l.49-1.58,.49,1.58c.28,.91,1.12,1.53,2.07,1.53h1.87l-1.61,1.23Z"/>
    <path class="cls-4" d="M31.76,97.9l5.5-4.2c.74-.56,1.04-1.54,.74-2.42-.3-.88-1.12-1.47-2.06-1.47h-6.69l-2.09-6.76c-.28-.91-1.12-1.53-2.07-1.53s-1.79,.62-2.07,1.53l-2.09,6.76h-6.69c-.93,0-1.76,.59-2.06,1.47-.3,.88,0,1.85,.74,2.42l5.5,4.2-2.11,6.84c-.28,.9,.06,1.88,.83,2.42,.77,.54,1.81,.52,2.56-.06l5.39-4.12,5.39,4.12c.39,.3,.85,.45,1.32,.45,.43,0,.87-.13,1.24-.39,.77-.54,1.11-1.52,.83-2.42l-2.11-6.84Zm-3.84-2.53c-.72,.55-1.02,1.5-.76,2.37l.56,1.8-1.31-1c-.39-.3-.85-.45-1.32-.45s-.93,.15-1.32,.45l-1.31,1,.56-1.8c.27-.87-.03-1.81-.76-2.37l-1.61-1.23h1.87c.95,0,1.79-.62,2.07-1.53l.49-1.58,.49,1.58c.28,.91,1.12,1.53,2.07,1.53h1.87l-1.61,1.23Z"/>
    <path class="cls-4" d="M38.11,124.91v4.34c9.01,0,17.48,3.97,23.25,10.89l1.13,1.35,3.33-2.78-1.13-1.35c-6.59-7.91-16.28-12.45-26.58-12.45h0Z"/>
    <path class="cls-4" d="M51.36,121.54l3.88-1.94-1.02-2.04c-3.75-7.49-8.65-14.3-14.58-20.22l-3.07,3.07c5.59,5.59,10.22,12.02,13.76,19.09l1.02,2.04Z"/>
    <path class="cls-4" d="M140.1,120.18h-6.69l-2.09-6.76c-.28-.91-1.12-1.53-2.07-1.53s-1.79,.62-2.07,1.53l-2.09,6.76h-6.69c-.93,0-1.76,.59-2.06,1.47-.3,.88,0,1.85,.74,2.42l5.5,4.2-2.11,6.84c-.28,.9,.06,1.88,.83,2.42,.77,.54,1.81,.52,2.56-.06l5.39-4.12,5.39,4.12c.39,.3,.85,.45,1.32,.45,.43,0,.87-.13,1.24-.39,.77-.54,1.11-1.52,.83-2.42l-2.11-6.84,5.5-4.2c.74-.56,1.04-1.54,.74-2.42-.3-.88-1.13-1.47-2.06-1.47h0Zm-8.02,5.57c-.72,.55-1.02,1.5-.76,2.37l.56,1.8-1.31-1c-.39-.3-.85-.45-1.32-.45s-.93,.15-1.32,.45l-1.31,1,.56-1.8c.27-.87-.03-1.81-.76-2.37l-1.61-1.23h1.87c.95,0,1.79-.62,2.07-1.53l.49-1.58,.49,1.58c.28,.91,1.12,1.53,2.07,1.53h1.87l-1.61,1.23Z"/>
    <path class="cls-4" d="M116.96,107.16c.77,.54,1.81,.52,2.56-.06l5.39-4.12,5.39,4.12c.39,.3,.85,.45,1.32,.45,.43,0,.87-.13,1.24-.39,.77-.54,1.11-1.52,.83-2.42l-2.11-6.84,5.5-4.2c.74-.56,1.04-1.54,.74-2.42-.3-.88-1.12-1.47-2.06-1.47h-6.69l-2.09-6.76c-.28-.91-1.12-1.53-2.07-1.53s-1.79,.62-2.07,1.53l-2.09,6.76h-6.69c-.93,0-1.76,.59-2.06,1.47-.3,.88,0,1.85,.74,2.42l5.5,4.2-2.11,6.84c-.28,.9,.06,1.88,.83,2.42h0Zm5.39-13.02c.95,0,1.79-.62,2.07-1.53l.49-1.58,.49,1.58c.28,.91,1.12,1.53,2.07,1.53h1.87l-1.61,1.23c-.72,.55-1.02,1.5-.76,2.37l.56,1.8-1.31-1c-.39-.3-.85-.45-1.32-.45s-.93,.15-1.32,.45l-1.31,1,.56-1.8c.27-.87-.03-1.81-.76-2.37l-1.61-1.23h1.87Z"/>
    <path class="cls-4" d="M85.31,137.36l-1.13,1.35,3.33,2.78,1.13-1.35c5.77-6.92,14.24-10.89,23.25-10.89v-4.34c-10.3,0-19.99,4.54-26.58,12.45Z"/>
    <path class="cls-4" d="M95.78,117.56l-1.02,2.04,3.88,1.94,1.02-2.04c3.54-7.08,8.17-13.5,13.76-19.09l-3.07-3.07c-5.92,5.92-10.83,12.73-14.58,20.22Z"/>
  </g>
</svg>