<?xml version="1.0" encoding="UTF-8"?>
<svg id="Layer_1_copy" data-name="Layer 1 copy" xmlns="http://www.w3.org/2000/svg" viewBox="0 0 150 150">
  <defs>
    <style>
      .cls-1 {
        fill: #f15f34;
      }

      .cls-2 {
        fill: #494223;
      }

      .cls-3 {
        fill: #ffdf00;
      }

      .cls-4 {
        fill: #ffe63e;
      }

      .cls-5 {
        fill: #84a591;
      }

      .cls-6 {
        fill: #6e8b82;
      }

      .cls-7 {
        fill: #ffca39;
      }

      .cls-8 {
        fill: #f36d49;
      }
    </style>
  </defs>
  <path class="cls-5" d="m107.79,48.94c-.48,0-.91-.3-1.07-.76-.16-.45-.02-.96.36-1.26l11.11-9.05-14.91,8.61c-.52.3-1.19.14-1.52-.36-.33-.5-.21-1.18.27-1.54l7.08-5.23-9.82,5.67c-.53.3-1.19.13-1.52-.38-.32-.51-.19-1.19.3-1.54l3.04-2.14-5.17,2.98c-.53.3-1.2.14-1.53-.37s-.2-1.19.3-1.54l4.18-2.96-6.71,3.87c-.52.3-1.19.14-1.52-.36-.33-.5-.21-1.17.27-1.54l8.33-6.24-12.27,7.08c-.52.3-1.17.14-1.51-.35-.33-.49-.23-1.16.23-1.53l11.2-8.86-16.93,9.78c-.53.31-1.2.14-1.53-.37-.33-.52-.19-1.2.32-1.55l4.43-3.08-8.1,4.68c-.53.28-1.18.11-1.5-.39-.32-.5-.2-1.17.29-1.52l6.29-4.38-10.74,6.2c-.52.3-1.19.13-1.52-.37-.33-.51-.2-1.18.28-1.53l10.76-7.69-17.42,10.06c-.52.31-1.2.14-1.53-.37-.33-.51-.2-1.19.29-1.54l14.29-10.27-24.49,14.13c-.52.3-1.19.13-1.52-.38-.32-.51-.2-1.18.29-1.53l18.6-13.12-36.11,20.84c-.54.33-1.24.16-1.57-.38s-.16-1.24.37-1.57l18.7-12.21-20.43,11.8c-.53.29-1.2.11-1.51-.41s-.17-1.19.34-1.53l9.83-6.28-10.99,6.35c-.53.29-1.19.12-1.51-.39-.32-.51-.19-1.18.31-1.53l23.32-15.75-25.68,14.83c-.53.29-1.19.11-1.51-.41-.32-.51-.17-1.18.32-1.53l14.29-9.32-15.78,9.11c-.52.3-1.19.14-1.52-.36-.33-.51-.21-1.18.28-1.54l16.05-11.78-18.53,10.71c-.49.28-1.11.16-1.46-.29-.35-.45-.32-1.08.07-1.49l5.69-5.89-8.06,4.65c-.38.22-.85.2-1.22-.05s-.55-.69-.48-1.12l.16-.94-.64.37c-.35.22-.8.24-1.16.03-.36-.2-.59-.59-.58-1.01s.24-.8.61-.99l2.72-1.57c.38-.22.85-.21,1.22.05.36.25.55.69.47,1.12l-.15.94,13.01-7.51c.49-.28,1.12-.16,1.47.29.35.45.32,1.08-.08,1.49l-5.69,5.89,29.5-17.04c.52-.29,1.18-.13,1.51.37.33.5.21,1.17-.27,1.53l-16.05,11.77L71.17,7.28c.53-.3,1.21-.12,1.52.4.32.52.17,1.2-.34,1.54l-14.31,9.33,17.01-9.83c.53-.29,1.19-.12,1.51.39s.19,1.18-.31,1.53l-23.33,15.76,27.31-15.77c.53-.29,1.2-.11,1.51.41.32.52.17,1.19-.34,1.53l-9.82,6.28,12.06-6.97c.53-.31,1.22-.14,1.54.39.32.53.17,1.21-.35,1.55l-18.69,12.2,21.76-12.56c.52-.29,1.19-.13,1.52.38s.2,1.18-.29,1.53l-18.59,13.13,22.66-13.08c.52-.3,1.2-.14,1.53.37.33.51.2,1.19-.29,1.54l-14.29,10.27,17.97-10.37c.53-.31,1.2-.15,1.53.37.33.51.2,1.19-.3,1.55l-10.77,7.69,13.86-8c.53-.3,1.2-.14,1.53.38.33.51.19,1.19-.31,1.54l-6.29,4.37,8.62-4.98c.53-.31,1.21-.14,1.53.37.33.52.19,1.2-.32,1.55l-4.43,3.07,6.53-3.77c.52-.3,1.18-.15,1.51.34s.23,1.17-.24,1.53l-11.21,8.87,15.22-8.78c.52-.3,1.19-.14,1.52.36s.21,1.18-.27,1.54l-8.33,6.24,11.36-6.56c.53-.3,1.2-.14,1.53.37s.2,1.19-.3,1.54l-4.19,2.96,6.31-3.64c.53-.3,1.19-.13,1.52.38.32.51.19,1.19-.3,1.54l-3.03,2.13,4.98-2.87c.52-.3,1.19-.14,1.52.36.33.5.21,1.18-.27,1.54l-7.09,5.23,9.82-5.67c.51-.29,1.16-.14,1.5.34.34.49.24,1.15-.21,1.52l-14.07,11.45c.16.1.29.23.38.4.31.54.13,1.24-.41,1.55l-8.2,4.74c-.17.1-.37.15-.57.15Z"/>
  <path class="cls-6" d="m108.49,76.58c-.33,0-.65-.15-.86-.4-.22-.25-.31-.59-.26-.92l.19-1.21-1.53.88c-.44.25-1,.18-1.36-.17s-.45-.91-.21-1.35l1.69-3.14-4.74,2.74c-.48.28-1.09.16-1.45-.27-.35-.43-.34-1.05.02-1.47l3.64-4.13-7.27,4.2c-.51.29-1.16.15-1.5-.33s-.25-1.14.19-1.52l3.33-2.8-6.14,3.55c-.52.29-1.17.13-1.5-.36s-.23-1.15.23-1.52l4.59-3.61-7.85,4.55c-.52.29-1.18.13-1.51-.37s-.2-1.17.28-1.53l3.64-2.63-6.68,3.87c-.52.3-1.18.14-1.51-.36-.33-.5-.21-1.17.27-1.53l10.05-7.46-15.1,8.71c-.53.3-1.2.13-1.53-.39-.32-.52-.18-1.2.32-1.54l3.02-2.05-6.55,3.78c-.52.3-1.2.14-1.53-.37-.33-.51-.2-1.19.29-1.54l11.4-8.19-17.9,10.34c-.52.29-1.18.13-1.51-.37-.33-.5-.21-1.17.27-1.53l15.22-11.11-25,14.41c-.53.3-1.21.12-1.52-.4s-.17-1.2.34-1.54l3.24-2.1-10.79,6.23c-.53.29-1.2.12-1.52-.4-.32-.52-.17-1.19.33-1.54l9.24-6.02-20.54,11.86c-.53.3-1.21.13-1.53-.39-.32-.52-.17-1.2.34-1.54l18.7-12.28-17.52,10.11c-.53.28-1.18.11-1.5-.4-.32-.51-.19-1.17.3-1.53l18.37-12.4-17.16,9.91c-.53.31-1.21.14-1.54-.39-.32-.52-.17-1.21.34-1.55l8.71-5.77-7.52,4.34c-.52.3-1.19.15-1.52-.36-.33-.5-.21-1.18.27-1.54l14.84-11.06-13.6,7.85c-.52.3-1.2.14-1.53-.37-.33-.51-.2-1.19.29-1.54l4.55-3.27-3.32,1.92c-.47.27-1.06.17-1.42-.23s-.39-1-.07-1.43l3.12-4.27-1.64.95c-.54.28-1.21.09-1.51-.44-.31-.53-.14-1.2.37-1.53l6.33-3.65c.47-.27,1.05-.17,1.41.23s.39.99.07,1.43l-3.13,4.27,18.43-10.63c.52-.3,1.2-.14,1.53.37.33.51.2,1.19-.29,1.54l-4.55,3.27,10.64-6.14c.52-.3,1.19-.15,1.52.36s.21,1.18-.27,1.54l-14.85,11.07,23.03-13.3c.53-.31,1.22-.14,1.54.39.32.52.17,1.21-.34,1.55l-8.7,5.76,12.94-7.47c.53-.28,1.18-.11,1.5.4.32.51.19,1.17-.3,1.52l-18.37,12.4,23.59-13.62c.53-.3,1.21-.13,1.53.39.32.52.17,1.2-.34,1.54l-18.71,12.28,22.97-13.26c.53-.29,1.2-.12,1.52.4s.17,1.19-.33,1.53l-9.24,6.02,12.12-6.99c.53-.31,1.22-.14,1.54.39.32.53.17,1.21-.35,1.55l-3.24,2.1,5.42-3.13c.52-.29,1.18-.13,1.51.37.33.5.21,1.17-.27,1.53l-15.23,11.12,19.32-11.15c.52-.3,1.2-.14,1.53.37.33.51.2,1.19-.29,1.54l-11.39,8.19,14.37-8.29c.53-.29,1.19-.12,1.51.39.32.51.19,1.18-.31,1.53l-3.05,2.06,4.55-2.63c.52-.3,1.18-.14,1.51.36.33.5.21,1.17-.27,1.53l-10.02,7.44,9.13-5.27c.52-.29,1.18-.13,1.51.37s.2,1.17-.28,1.53l-3.66,2.64,2.43-1.4c.52-.29,1.17-.13,1.5.36.33.49.23,1.15-.23,1.52l-4.59,3.59,3.32-1.92c.51-.29,1.16-.15,1.5.34s.25,1.14-.2,1.52l-3.33,2.8,2.04-1.17c.48-.28,1.09-.16,1.45.27s.34,1.05-.02,1.47l-3.64,4.12,2.21-1.28c.44-.25.99-.18,1.36.17.36.35.45.9.21,1.35l-1.69,3.14.12-.07c.38-.22.85-.2,1.21.05.36.25.55.68.48,1.12l-.36,2.22c.08.08.16.17.22.27.15.26.19.57.12.86-.08.29-.27.54-.53.69l-.58.33c-.17.1-.36.16-.56.17Z"/>
  <path class="cls-7" d="m126.88,76.97c-.47,0-.89-.28-1.06-.72-.17-.43-.06-.93.28-1.25l3.46-3.25-7.84,4.52c-.52.29-1.17.14-1.5-.35-.33-.49-.23-1.15.23-1.52l3.38-2.67-3.64,2.1c-.51.3-1.17.15-1.5-.34-.34-.49-.24-1.15.21-1.53l5.74-4.72-4.02,2.32c-.51.29-1.16.14-1.5-.34-.34-.49-.24-1.15.21-1.52l2.22-1.82-.26.15c-.45.26-1.02.18-1.38-.19s-.43-.94-.16-1.39l2.28-3.73h-.02c-.51,0-.97-.35-1.1-.84-.13-.5.08-1.02.53-1.28l3.16-1.82c.45-.26,1.02-.18,1.38.19.36.37.43.94.16,1.39l-2.12,3.47,8.68-5c.51-.3,1.17-.15,1.51.34.34.49.24,1.16-.22,1.53l-2.22,1.82,3.61-2.08c.51-.3,1.17-.15,1.5.34.34.49.25,1.15-.21,1.53l-5.75,4.74,5.42-3.13c.52-.3,1.17-.14,1.51.35.33.49.23,1.16-.23,1.53l-3.38,2.67,2.68-1.55c.5-.31,1.15-.18,1.5.29.35.47.28,1.13-.16,1.52l-3.46,3.25,2.78-1.59c.44-.26.99-.2,1.36.15.37.35.46.9.23,1.35l-1.57,3.09c.55-.31,1.24-.13,1.56.42.31.55.13,1.24-.42,1.56l-3.3,1.9c-.44.26-.99.2-1.36-.15-.37-.35-.46-.9-.23-1.35l1.57-3.09-7.97,4.55c-.17.1-.37.16-.57.16Z"/>
  <path class="cls-3" d="m24.7,117.91c-.51,0-.97-.35-1.1-.84-.13-.5.08-1.02.53-1.28l.43-.25c.19-.11.41-.17.64-.15l3.82.23,54.63-31.53c.53-.29,1.2-.11,1.52.41.32.52.17,1.2-.34,1.54l-8.67,5.57,13-7.51c.53-.29,1.2-.12,1.52.4.32.52.17,1.19-.33,1.53l-13.74,8.97,18.9-10.92c.53-.29,1.2-.1,1.51.42.31.52.16,1.19-.34,1.53l-1.7,1.08,5.23-3.02c.53-.29,1.2-.12,1.52.4.32.51.18,1.19-.32,1.53l-16.08,10.6,21.7-12.51c.53-.3,1.2-.12,1.52.39.32.52.18,1.19-.32,1.54l-18.33,12.23,24.52-14.16c.53-.29,1.19-.12,1.52.39.32.51.19,1.18-.31,1.53l-21.65,14.79,28.96-16.71c.53-.3,1.21-.13,1.53.4.32.52.17,1.21-.35,1.55l-9.55,6.14,13.62-7.85c.35-.21.78-.22,1.14-.02s.58.57.59.97-.2.79-.55,1l-1.98,1.25,4.03-2.34c.53-.3,1.2-.13,1.52.39.32.51.18,1.19-.31,1.54l-19.81,13.5,22.37-12.91c.53-.29,1.19-.11,1.51.4.32.51.18,1.18-.31,1.53l-10.65,7.03,11.47-6.62c.53-.31,1.21-.14,1.53.38s.18,1.2-.32,1.55l-12.89,8.8,13.34-7.7c.52-.3,1.19-.14,1.52.36.33.5.21,1.18-.27,1.54l-14.52,10.72,14.43-8.33c.52-.29,1.19-.13,1.51.37s.2,1.17-.28,1.53l-7.29,5.25,6.25-3.61c.52-.29,1.18-.13,1.51.37s.2,1.17-.28,1.53l-2.39,1.73.8-.46c.5-.29,1.13-.16,1.47.3s.3,1.1-.11,1.5l-5.35,5.24.84-.48c.35-.22.8-.24,1.16-.03.37.2.59.59.58,1.01,0,.42-.24.8-.61.99l-8.6,4.97c-.5.29-1.13.16-1.47-.3-.35-.46-.3-1.1.11-1.5l5.35-5.23-12.56,7.23c-.52.29-1.18.13-1.51-.37s-.2-1.17.28-1.53l2.41-1.73-6.31,3.64c-.52.29-1.18.13-1.51-.37s-.2-1.17.28-1.53l7.28-5.25-12.39,7.15c-.52.3-1.19.14-1.52-.36-.33-.5-.21-1.18.27-1.54l14.53-10.72-21.86,12.62c-.53.29-1.19.12-1.52-.39s-.19-1.18.31-1.53l12.88-8.8-18.57,10.72c-.53.29-1.2.12-1.52-.4-.32-.51-.18-1.19.32-1.53l10.66-7.03-15.53,8.96c-.53.29-1.19.12-1.52-.39s-.19-1.18.31-1.53l19.79-13.5-26.71,15.42c-.54.29-1.21.11-1.52-.41-.32-.52-.16-1.2.34-1.54l1.98-1.25-5.54,3.2c-.53.29-1.2.12-1.52-.4s-.17-1.2.34-1.54l9.55-6.14-14.01,8.08c-.53.29-1.19.12-1.52-.39s-.19-1.18.31-1.53l21.65-14.79-28.96,16.71c-.53.3-1.2.12-1.52-.39-.32-.52-.18-1.19.32-1.54l18.33-12.23-24.52,14.16c-.53.29-1.2.12-1.52-.4-.32-.51-.18-1.19.32-1.53l16.07-10.58-21.7,12.51c-.53.29-1.21.11-1.52-.41-.32-.52-.16-1.2.35-1.54l1.7-1.08-5.23,3.02c-.53.29-1.2.12-1.52-.4-.32-.52-.17-1.19.33-1.53l13.75-8.97-18.9,10.92c-.53.29-1.2.11-1.52-.41-.32-.52-.17-1.2.34-1.53l8.69-5.58-13.03,7.51c-.19.12-.41.17-.63.15l-3.82-.23-.13.07c-.17.1-.37.16-.57.16Z"/>
  <path class="cls-3" d="m33.61,111.52c-.5,0-.95-.33-1.09-.82-.14-.48.05-1,.47-1.28l2.52-1.63c-.43.06-.86-.14-1.09-.51-.33-.51-.2-1.19.29-1.54l11.76-8.47-9.59,5.54c-.52.3-1.19.15-1.52-.36s-.21-1.18.27-1.54l7.18-5.38-6.14,3.55c-.5.3-1.14.18-1.49-.29-.35-.46-.3-1.12.13-1.52l6.82-6.57-6.74,3.89c-.5.28-1.12.15-1.47-.3-.35-.45-.3-1.09.1-1.5l2.32-2.27-2.48,1.43c-.47.27-1.07.17-1.43-.25-.36-.42-.36-1.02-.02-1.45l.91-1.14-1.22.7c-.41.24-.93.2-1.3-.11s-.51-.81-.34-1.26l.31-.87-.74.43c-.31.18-.68.2-1.01.06l-4.28-1.78c-.55.13-1.11-.16-1.33-.68-.21-.52,0-1.12.48-1.41l.24-.14c.31-.18.68-.2,1-.07l4.24,1.75,2.93-1.69c.41-.24.93-.19,1.3.11.37.31.5.8.34,1.25l-.31.87,3.87-2.23c.47-.27,1.07-.17,1.43.25.36.42.36,1.02.02,1.45l-.91,1.14,4.89-2.83c.49-.28,1.12-.15,1.47.3.34.45.3,1.09-.1,1.5l-2.32,2.27,7.05-4.07c.5-.3,1.14-.18,1.49.29.35.46.29,1.12-.13,1.52l-6.82,6.57,14.52-8.37c.52-.29,1.18-.13,1.51.36.33.5.22,1.17-.26,1.53l-7.18,5.38,12.61-7.28c.52-.29,1.18-.13,1.51.37.33.5.21,1.17-.28,1.53l-11.75,8.47,17.97-10.38c.53-.3,1.21-.12,1.53.4.32.52.17,1.2-.34,1.54l-.98.63,4.45-2.57c.35-.22.8-.24,1.16-.03.36.2.59.59.58,1.01,0,.42-.24.8-.61.99l-43.85,25.31c-.17.1-.37.15-.57.15Z"/>
  <path class="cls-4" d="m25.39,117.49c-.46,0-.87-.28-1.05-.71-.17-.43-.07-.92.25-1.24l3.57-3.53-8.76,5.06c-.52.31-1.18.16-1.52-.34s-.23-1.17.24-1.54l5.29-4.21-7.39,4.27c-.52.29-1.18.14-1.51-.36-.33-.5-.22-1.17.26-1.53l5.08-3.79-6.18,3.57c-.52.3-1.19.14-1.52-.36-.33-.5-.21-1.18.27-1.53l6.09-4.49-6.57,3.79c-.52.31-1.2.15-1.53-.36s-.21-1.19.29-1.54l5.69-4.13-5.64,3.25c-.52.29-1.17.14-1.5-.35-.33-.49-.24-1.15.23-1.53l9.71-7.7-9.33,5.38c-.53.3-1.2.14-1.53-.37-.33-.51-.2-1.19.3-1.54l1.07-.76c-.52.24-1.13.06-1.44-.43-.3-.48-.2-1.12.24-1.48l6.34-5.17-4.14,2.4c-.5.28-1.12.15-1.47-.3-.34-.45-.3-1.09.1-1.5l4.28-4.22c-.33-.06-.62-.26-.79-.55-.31-.54-.13-1.24.42-1.55l6.18-3.57c.5-.28,1.12-.15,1.47.3s.3,1.09-.1,1.49l-3.53,3.48,8.7-5c.51-.29,1.17-.14,1.5.34.34.49.24,1.15-.21,1.52l-6.34,5.16,8.67-5c.53-.3,1.2-.14,1.53.37s.2,1.19-.3,1.54l-1.03.73,1.67-.96c.52-.3,1.17-.14,1.51.35.33.49.23,1.16-.23,1.53l-9.71,7.7,10.77-6.22c.52-.31,1.2-.15,1.53.36s.2,1.19-.29,1.54l-5.67,4.13,5.49-3.17c.52-.3,1.19-.14,1.52.36.33.5.21,1.18-.27,1.54l-6.08,4.49,5.46-3.15c.52-.29,1.18-.13,1.51.36s.21,1.17-.26,1.53l-5.08,3.79,3.89-2.25c.52-.31,1.18-.16,1.52.34.34.5.23,1.17-.24,1.54l-5.29,4.21,3.16-1.82c.49-.28,1.12-.15,1.46.3.34.45.3,1.09-.1,1.49l-4.3,4.25c.47.08.84.45.93.92.09.47-.13.95-.55,1.19l-6.17,3.56c-.17.1-.37.15-.57.15Z"/>
  <path class="cls-1" d="m86.09,144.04c-.4,0-.78-.21-.98-.56-.21-.35-.21-.78-.01-1.13l.19-.34-2.13,1.23c-.48.28-1.1.17-1.45-.27-.35-.43-.34-1.06.03-1.48l.19-.21-2.28,1.31c-.35.22-.8.24-1.16.03-.36-.2-.59-.59-.58-1.01,0-.42.24-.8.61-.99l8.42-4.86c.48-.28,1.1-.17,1.45.27.35.43.34,1.06-.03,1.47l-.31.35c.44-.09.88.08,1.15.44.26.36.29.84.08,1.23l-.46.81c.33.06.61.26.78.55.15.26.19.57.11.87-.08.29-.27.54-.53.69l-2.52,1.45c-.17.1-.36.15-.55.15Z"/>
  <path class="cls-1" d="m70.55,140.87c-.49,0-.94-.3-1.09-.77-.16-.47,0-.98.39-1.28l4.22-3.29-4.75,2.75c-.51.29-1.15.16-1.5-.32-.34-.48-.27-1.13.18-1.52l8.72-7.65-7.75,4.48c-.51.3-1.17.16-1.51-.33-.34-.49-.25-1.15.21-1.53l6.46-5.4-5.46,3.15c-.51.29-1.16.14-1.5-.34-.34-.49-.24-1.15.21-1.52l2.87-2.34-1.82,1.05c-.5.29-1.14.15-1.48-.31s-.28-1.11.14-1.51l1.36-1.27-.24.14c-.37.22-.84.2-1.2-.04-.36-.24-.55-.67-.49-1.1l.48-3.28c-.29-.08-.53-.27-.68-.52-.31-.54-.13-1.24.41-1.55l1.1-.63c.38-.22.85-.2,1.21.04.36.24.55.67.49,1.1l-.42,2.84,6.95-4.02c.5-.29,1.14-.16,1.49.31.34.47.28,1.12-.14,1.51l-1.37,1.27,5.38-3.1c.51-.29,1.17-.14,1.5.34.34.49.24,1.15-.21,1.52l-2.88,2.34,4.55-2.62c.51-.3,1.17-.16,1.51.33.34.49.25,1.15-.21,1.53l-6.45,5.39,6.37-3.68c.51-.29,1.15-.15,1.49.32.34.47.27,1.13-.17,1.51l-8.72,7.64,8.9-5.13c.52-.29,1.17-.14,1.5.35.33.49.23,1.16-.24,1.53l-12.79,9.98c.09.48-.12.96-.55,1.2l-3.9,2.25c-.17.1-.37.16-.57.15Z"/>
  <path class="cls-8" d="m61.1,117.91c-.51,0-.97-.35-1.1-.84-.13-.5.08-1.02.53-1.28l.42-.25c.19-.11.4-.16.62-.15l5.07.23,28.14-16.25c.51-.3,1.17-.16,1.51.34.34.49.24,1.16-.23,1.53l-9.01,7.28,7.22-4.17c.51-.29,1.15-.14,1.49.33.34.47.26,1.13-.17,1.51l-4.2,3.64.53-.31c.35-.22.8-.24,1.16-.03.36.2.59.59.58,1.01,0,.42-.24.8-.61.99l-10.83,6.26c-.51.29-1.15.14-1.49-.33-.34-.47-.26-1.13.17-1.51l4.2-3.64-9.5,5.48c-.51.29-1.17.15-1.5-.34-.34-.49-.24-1.15.22-1.53l9.01-7.28-15.84,9.15c-.18.12-.4.17-.62.15l-5.08-.23-.14.08c-.17.1-.37.16-.58.15Z"/>
  <path class="cls-8" d="m68.05,114.04c-.5,0-.94-.32-1.09-.79-.15-.47.02-.99.43-1.27l5.58-3.94-.97.56c-.51.29-1.17.14-1.5-.34s-.24-1.15.22-1.53l9.45-7.64-6.92,4c-.51.29-1.14.15-1.48-.32-.34-.47-.27-1.12.16-1.51l8.03-7.13-7,4.04c-.52.29-1.17.14-1.5-.35-.33-.49-.23-1.16.24-1.53l1.06-.83-.54.31c-.47.27-1.08.17-1.43-.25-.36-.42-.37-1.03-.02-1.45l4-4.94-4.61,2.66c-.46.27-1.06.18-1.42-.23-.36-.4-.39-1-.07-1.43l1-1.37-1.42.82c-.27.16-.6.19-.9.1-.3-.09-.55-.31-.69-.59l-1.16-2.42-.83.48c-.29.17-.64.2-.96.08l-2.51-.93c-.55.15-1.13-.13-1.35-.65-.22-.53-.02-1.14.48-1.43l.24-.14c.29-.17.64-.2.96-.08l2.47.91,1.43-.83c.28-.16.61-.19.91-.1.3.09.55.31.68.59l1.16,2.42,5.05-2.9c.47-.27,1.05-.17,1.41.23.36.4.39,1,.07,1.43l-1,1.37,5.23-3.02c.47-.27,1.07-.17,1.43.25.36.42.36,1.02.02,1.45l-4,4.93,9.59-5.54c.52-.29,1.17-.14,1.5.35.33.49.23,1.16-.24,1.53l-1.06.82,2.3-1.33c.51-.29,1.15-.16,1.49.32.34.47.27,1.13-.17,1.52l-8.02,7.13,9.84-5.69c.51-.29,1.16-.14,1.5.35s.24,1.15-.21,1.52l-9.45,7.64,10.12-5.84c.53-.29,1.19-.13,1.52.38s.2,1.18-.29,1.53l-5.59,3.94,5.23-3.02c.35-.22.8-.24,1.16-.03.37.2.59.59.58,1.01,0,.42-.24.8-.61.99l-26.95,15.57c-.17.1-.37.15-.57.15Z"/>
  <g>
    <path class="cls-2" d="m30.26,49.24c.14.1.3.17.47.2-.25.52-.44,1.06-.58,1.62-1.89,7.38,0,17.63,0,25.25,0,.94,2.33.18,2.66,0,21.11-12.3,53.86-12.17,75.01.33.79.46,2.96-.16,2.96-1.21v-26.85l19.45-15.56v23.95c-1.55-.12-3.1.04-4.6.46-4.78,1.62-4.7,9.26-5.4,13.43-1.07,6.38,4.78,5.75,9.26,5.75s13.48,1.31,13.06-5.51l-1.33-6.93c-.41-2.14-.46-5.14-2.44-6.49-1.64-.77-3.48-1.02-5.27-.73v-26.97s-.03-.03-.03-.05c-.02-.05-.04-.1-.09-.13-.02-.02-.04-.04-.06-.05-.05-.04-.07-.08-.15-.11l-32.89-12.15-22.02-8.13c-2.18-.81-5.14-2.58-7.55-2.58-2.45,0-5.51,1.89-7.72,2.71l-20.85,7.75L8.41,29.76c-.31.12-1.47.81-.89,1.28l22.75,18.2Zm3.19,24.79v-15.6c0-8.49-1.95-9.28,5.5-12.3,16.7-6.54,35.01-7.74,52.43-3.44.38.1.75.21,1.14.32.98.27,1.95.55,2.91.86s1.9.66,2.83,1.01c.46.17.89.32,1.33.49,1.37.55,2.7,1.14,4.02,1.77l.13.06c1.29.63,2.53,1.3,3.75,2.01v24.31c-21.53-11.08-52.68-10.57-74.05.51h0Zm102.25-15.21c1.93,1.16,2.01,5.03,2.38,6.95l1.19,6.2c.26,4.36-2.7,3.22-5.8,3.22-2.31.18-4.64.18-6.95,0-5.54-.93-2.11-10.24-1.3-13.91.18-.8.29-2.47.99-2.88.49-.29,2.1,0,2.61,0,.46,0,.97-.03,1.54-.07.68.22,1.42.18,2.08-.11,1.12-.09,2.24.11,3.25.59h0ZM36.14,21.22l29.44-10.94c1.23-.46,2.73-1.29,4.13-1.71-.76.54,4.01,1.62,5.27,2.09l54.68,20.2c-6.37,4.94-14.28,9.66-19.48,15.61-.26.28-.56.51-.9.7l-.41-.18c-.3-.16-.61-.33-.91-.49-2.76-1.95-5.89-3.3-9.2-3.96-13.85-4.38-28.56-5.31-42.84-2.7l-.52.09c-1.48.26-2.94.56-4.38.88-.58.13-1.17.25-1.75.39-1.55.38-3.07.79-4.58,1.24-.21.06-.42.11-.63.17-.28.09-.58.21-.87.32-.85.28-1.71.54-2.54.84-2.96.72-5.78,1.94-8.33,3.62-.23-.21-.5-.49-.87-.91-1.9-1.81-3.96-3.45-6.14-4.91-3.69-2.96-7.26-6.33-11.19-8.95-1.01-.64-1.97-1.34-2.88-2.11l.25-.13c7.4-4.11,16.76-6.24,24.66-9.17Z"/>
    <path class="cls-2" d="m142.63,100.48c-.98-11.37-7.96-16.56-18.61-16.72-11.41-.18-22.84,0-34.26,0H22.83c-.56.02-1.08.29-1.42.74-8.23,1.33-14.21,8.54-14.01,16.87,0,8.19,5.73,15.66,13.81,16.09.15.36.56.64,1.35.64h43.04c.23,3.03.46,6.06.68,9.09.17,2.25.33,4.5.49,6.75-.14,1.84.09,3.69.68,5.43,2.37,3.91,6.79-.07,8.84-1.94,1.43-1.31,2.27-2.53,3.66-2.55,2.08.19,4.15.57,6.16,1.14h.06c.24.05.49.06.73.03,5.73-.47,4.34-4.67,2.98-8.62-1.06-3.11-2.13-6.22-3.21-9.33h3.9c16.98,0,49.95,7.32,52.07-17.29,0-.08-.02-.15-.04-.23,0-.03.02-.06.02-.09Zm-64.07,15.12h-13.53c10.89-5.93,12.44-23.41,1.84-29.36h16.5c6.82,1.82,10.08,8.35,10.46,15.12-.36,6.14-2.96,12.3-8.92,14.24h-6.35Zm-67.87-15.12c-.01-2.93.71-5.81,2.11-8.39,2.03-3.29,5.48-5.46,9.33-5.86,8.92,1.05,13.42,10.28,12.23,18.14-.04.24-.08.48-.13.72-.91,5.51-5.34,9.76-10.89,10.43-2.01.24-4.04-.21-5.75-1.28-4.44-3.16-7.02-8.31-6.89-13.76Zm23.2,11.27c2.52-3.23,3.95-7.18,4.09-11.27-.11-2.33-.63-4.61-1.52-6.77-1.16-3.08-3.28-5.7-6.04-7.47h30.39c12.19,3.83,14.33,25.5,1.86,29.36H29.7c1.62-1.02,3.04-2.33,4.21-3.85h0Zm50.11,9.04c.63,1.83,1.26,3.66,1.89,5.5.39,1.14,2.87,6.97,1.66,7.73-2.77-.6-6.37-1.88-9.07-1.03-1.38.62-2.61,1.52-3.61,2.66-1.46,1.33-3.61,4.71-4.51,1.63-.63-3.67-.9-7.38-.81-11.1-.2-2.69-.4-5.38-.61-8.08h14.12c.27.91.58,1.81.94,2.69h0Zm30.77-5.19h-27.36c5.39-2.29,9.23-6.71,9.72-15.12-.46-7.83-3.88-12.03-8.74-14.24h25.33c11.79,0,24.04-1.39,25.58,14.87-1.43,16.13-13.24,14.49-24.51,14.49h0Z"/>
    <path class="cls-2" d="m23.76,93.42c-.74-.07-3.77,1.22-2.13,1.38,4.07.4,4.5,6.97,3.38,9.74-2.19,5.44-5.09-1.22-5.22-4.05-.03-.6-3.34-.06-3.29.88.12,2.73,1.26,6.32,4.34,6.98,1.9.28,3.84-.25,5.33-1.46,4.1-3.31,3.77-12.88-2.41-13.48Z"/>
    <path class="cls-2" d="m101.01,53.26c-19.56-7.64-41.3-7.58-60.81.17-2.12.83-.23,2.35,1.4,1.71,18.49-7.22,39.03-7.17,57.47.17,1.25.5,3.84-1.29,1.95-2.05Z"/>
  </g>
</svg>