<?xml version="1.0" encoding="UTF-8"?>
<svg id="Layer_1_copy" data-name="Layer 1 copy" xmlns="http://www.w3.org/2000/svg" viewBox="0 0 150 150">
  <defs>
    <style>
      .cls-1 {
        fill: #fbb615;
      }

      .cls-2 {
        fill: #dfd9ad;
      }

      .cls-3 {
        fill: #494223;
      }

      .cls-4 {
        fill: #f4edbb;
      }

      .cls-5 {
        fill: #dc9828;
      }

      .cls-6 {
        fill: #e7a323;
      }

      .cls-7 {
        fill: #fff9c3;
      }

      .cls-8 {
        fill: #fffbcb;
      }
    </style>
  </defs>
  <path class="cls-4" d="m54.05,22.06c-.63,0-1.14-.51-1.14-1.13,0-.34.15-.66.41-.88l6.3-5.31-11.32,6.53c-.55.31-1.24.12-1.55-.42-.27-.47-.17-1.06.23-1.42l6.13-5.4-4.81,2.78c-.55.3-1.24.09-1.54-.46-.24-.45-.15-1,.21-1.36l1.32-1.18c-.55.31-1.24.11-1.55-.44-.23-.4-.18-.9.11-1.27l1.21-1.51c-.27-.08-.5-.27-.64-.51-.31-.54-.13-1.24.41-1.56l3.7-2.15c.54-.31,1.24-.13,1.56.42.24.41.2.92-.1,1.28l-.57.71,4.22-2.43c.54-.31,1.24-.13,1.55.42.27.47.17,1.06-.23,1.42l-1.32,1.18,5.22-3.01c.55-.31,1.24-.12,1.55.42.27.47.17,1.06-.23,1.42l-6.13,5.39,12.54-7.23c.55-.31,1.24-.12,1.55.42.27.48.17,1.08-.25,1.43l-6.3,5.3,12.43-7.16c.54-.31,1.24-.13,1.56.42.27.47.17,1.06-.23,1.42l-6.91,6.11,13.79-7.94c.54-.32,1.24-.13,1.56.41.3.51.16,1.15-.32,1.5l-1.56,1.14,5.26-3.04c.54-.31,1.24-.13,1.56.42.29.5.16,1.13-.29,1.47l-3.76,2.87,8.25-4.76c.55-.31,1.24-.12,1.55.43.27.47.17,1.07-.25,1.43l-6.34,5.37,9.62-5.56c.54-.32,1.24-.13,1.56.41.26.45.19,1.03-.19,1.39l-5.69,5.58,5.49-3.17c.54-.31,1.24-.13,1.56.42.24.42.19.94-.12,1.31l-2.21,2.58.81-.46c.54-.31,1.24-.13,1.56.42.16.27.19.59.11.89l-.53,1.82c.19.1.35.25.46.43.31.54.13,1.24-.42,1.56l-1.14.66c-.55.31-1.24.13-1.55-.42-.15-.27-.19-.59-.11-.89l.31-1.07-4.12,2.36c-.54.32-1.24.13-1.56-.41-.24-.42-.2-.95.12-1.32l2.21-2.58-7.49,4.32c-.54.31-1.24.13-1.56-.42-.26-.45-.18-1.02.19-1.38l5.69-5.58-12.8,7.39c-.54.32-1.24.13-1.56-.41-.28-.48-.17-1.08.25-1.44l6.35-5.38-12.55,7.24c-.54.31-1.24.13-1.56-.42-.29-.5-.16-1.13.29-1.47l3.76-2.88-8.27,4.78c-.55.31-1.24.12-1.55-.43-.28-.5-.15-1.13.31-1.47l1.55-1.14-5.28,3.04c-.54.31-1.24.13-1.56-.42-.27-.47-.17-1.06.23-1.42l6.9-6.11-13.79,7.96c-.17.1-.37.16-.57.16h0Z"/>
  <path class="cls-7" d="m43.24,28.89c-.63,0-1.14-.5-1.15-1.12,0-.36.16-.71.46-.92l1.22-.94-.03.02c-.54.32-1.24.15-1.56-.39-.28-.47-.19-1.06.21-1.43l1.88-1.76-.53.31c-.54.32-1.24.13-1.56-.41-.24-.42-.2-.94.11-1.31l1.08-1.29c-.22-.1-.41-.26-.52-.47-.31-.54-.13-1.24.41-1.56l3.7-2.13c.54-.32,1.24-.13,1.56.41.24.42.2.94-.11,1.31l-.2.23,3.44-1.97c.54-.32,1.24-.15,1.56.39.28.47.19,1.06-.21,1.43l-1.88,1.76,6.21-3.59c.54-.32,1.24-.14,1.56.41.29.5.17,1.13-.29,1.48l-1.21.94,4.89-2.82c.55-.31,1.24-.12,1.55.43.28.49.16,1.1-.28,1.45l-2.2,1.75,6.28-3.62c.54-.31,1.24-.13,1.56.42.25.44.19.99-.17,1.36l-5.28,5.46,12.54-7.24c.54-.32,1.24-.14,1.56.41.29.5.17,1.13-.29,1.48l-1.14.87,4.78-2.76c.54-.31,1.24-.13,1.56.42.27.47.17,1.06-.23,1.42l-4.33,3.84,9.84-5.67c.54-.31,1.24-.13,1.56.42.25.44.19.99-.16,1.36l-5.3,5.57,12.73-7.34c.54-.32,1.24-.13,1.56.41.28.48.17,1.1-.26,1.45l-3.14,2.57,7.39-4.27c.54-.31,1.24-.13,1.56.42.25.44.19.99-.16,1.35l-5.13,5.46,7.22-4.17c.54-.32,1.24-.13,1.56.41.28.47.18,1.08-.24,1.43l-.62.54c.62-.12,1.22.28,1.34.89.05.26.01.54-.12.77l-1.14,2.07c.62-.09,1.2.33,1.3.95.07.46-.15.92-.56,1.16l-3.06,1.77c-.54.31-1.24.13-1.56-.42-.2-.34-.2-.77-.01-1.12l1.06-1.94-6.02,3.48c-.54.32-1.24.13-1.56-.41-.28-.47-.18-1.08.24-1.43l.38-.33-3.78,2.18c-.54.31-1.24.13-1.56-.42-.25-.44-.19-.99.16-1.35l5.13-5.46-12.53,7.24c-.54.32-1.24.14-1.56-.4-.29-.49-.17-1.11.26-1.46l3.12-2.58-7.71,4.45c-.54.32-1.24.14-1.56-.41-.26-.44-.19-.99.16-1.36l5.31-5.58-12.74,7.35c-.54.31-1.24.13-1.56-.42-.27-.47-.17-1.06.23-1.42l4.33-3.84-9.84,5.68c-.54.32-1.24.14-1.56-.41-.29-.5-.17-1.13.29-1.48l1.14-.87-4.78,2.76c-.54.31-1.24.13-1.56-.42-.25-.44-.19-.99.17-1.36l5.29-5.46-12.56,7.25c-.54.32-1.24.15-1.56-.39-.3-.49-.17-1.13.28-1.49l2.2-1.75-6.28,3.63c-.18.1-.38.16-.58.16h0Z"/>
  <path class="cls-7" d="m43.24,28.89c-.63,0-1.14-.5-1.15-1.12,0-.36.16-.71.46-.92l1.22-.94-.03.02c-.54.32-1.24.15-1.56-.39-.28-.47-.19-1.06.21-1.43l1.88-1.76-.53.31c-.54.32-1.24.13-1.56-.41-.24-.42-.2-.94.11-1.31l1.08-1.29c-.22-.1-.41-.26-.52-.47-.31-.54-.13-1.24.41-1.56l3.7-2.13c.54-.32,1.24-.13,1.56.41.24.42.2.94-.11,1.31l-.2.23,3.44-1.97c.54-.32,1.24-.15,1.56.39.28.47.19,1.06-.21,1.43l-1.88,1.76,6.21-3.59c.54-.32,1.24-.14,1.56.41.29.5.17,1.13-.29,1.48l-1.21.94,4.89-2.82c.55-.31,1.24-.12,1.55.43.28.49.16,1.1-.28,1.45l-2.2,1.75,6.28-3.62c.54-.31,1.24-.13,1.56.42.25.44.19.99-.17,1.36l-5.28,5.46,12.54-7.24c.54-.32,1.24-.14,1.56.41.29.5.17,1.13-.29,1.48l-1.14.87,4.78-2.76c.54-.31,1.24-.13,1.56.42.27.47.17,1.06-.23,1.42l-4.33,3.84,9.84-5.67c.54-.31,1.24-.13,1.56.42.25.44.19.99-.16,1.36l-5.3,5.57,12.73-7.34c.54-.32,1.24-.13,1.56.41.28.48.17,1.1-.26,1.45l-3.14,2.57,7.39-4.27c.54-.31,1.24-.13,1.56.42.25.44.19.99-.16,1.35l-5.13,5.46,7.22-4.17c.54-.32,1.24-.13,1.56.41.28.47.18,1.08-.24,1.43l-.62.54c.62-.12,1.22.28,1.34.89.05.26.01.54-.12.77l-1.14,2.07c.62-.09,1.2.33,1.3.95.07.46-.15.92-.56,1.16l-3.06,1.77c-.54.31-1.24.13-1.56-.42-.2-.34-.2-.77-.01-1.12l1.06-1.94-6.02,3.48c-.54.32-1.24.13-1.56-.41-.28-.47-.18-1.08.24-1.43l.38-.33-3.78,2.18c-.54.31-1.24.13-1.56-.42-.25-.44-.19-.99.16-1.35l5.13-5.46-12.53,7.24c-.54.32-1.24.14-1.56-.4-.29-.49-.17-1.11.26-1.46l3.12-2.58-7.71,4.45c-.54.32-1.24.14-1.56-.41-.26-.44-.19-.99.16-1.36l5.31-5.58-12.74,7.35c-.54.31-1.24.13-1.56-.42-.27-.47-.17-1.06.23-1.42l4.33-3.84-9.84,5.68c-.54.32-1.24.14-1.56-.41-.29-.5-.17-1.13.29-1.48l1.14-.87-4.78,2.76c-.54.31-1.24.13-1.56-.42-.25-.44-.19-.99.17-1.36l5.29-5.46-12.56,7.25c-.54.32-1.24.15-1.56-.39-.3-.49-.17-1.13.28-1.49l2.2-1.75-6.28,3.63c-.18.1-.38.16-.58.16h0Z"/>
  <path class="cls-2" d="m41.46,49.38c-.63,0-1.13-.52-1.13-1.15,0-.35.17-.69.46-.9l13.92-10.16-15.53,8.95c-.55.31-1.24.12-1.55-.42-.29-.51-.15-1.16.34-1.5l4.88-3.36-3.67,2.12c-.54.32-1.24.14-1.56-.4-.31-.52-.16-1.18.34-1.52l2.05-1.43-.83.48c-.55.31-1.24.12-1.55-.43-.28-.49-.15-1.12.3-1.47l3.64-2.78-2.39,1.38c-.54.32-1.24.13-1.56-.41-.27-.46-.18-1.05.21-1.41l3.63-3.35-2.28,1.32c-.54.31-1.24.13-1.55-.42-.22-.38-.2-.85.05-1.21l1.69-2.45c-.43.01-.83-.2-1.06-.57-.31-.54-.13-1.24.41-1.56l3.72-2.15c.54-.32,1.24-.13,1.56.41.22.38.2.86-.05,1.22l-1.53,2.23,6.73-3.89c.54-.32,1.24-.13,1.56.41.27.46.18,1.05-.21,1.41l-3.63,3.35,8.96-5.17c.55-.31,1.24-.12,1.55.43.28.49.15,1.11-.29,1.46l-3.64,2.78,8.09-4.67c.55-.31,1.24-.12,1.55.43.29.51.15,1.15-.33,1.49l-2.05,1.44,5.81-3.35c.55-.3,1.24-.1,1.55.45.28.5.14,1.14-.33,1.47l-4.87,3.36,9.14-5.28c.54-.32,1.24-.13,1.56.41.3.51.16,1.15-.32,1.5l-13.91,10.16,20.89-12.06c.55-.31,1.24-.12,1.55.43.29.52.14,1.17-.35,1.51l-5.08,3.4,9.23-5.33c.55-.31,1.24-.12,1.55.42.29.5.15,1.14-.31,1.48l-14.49,10.7,21.86-12.62c.55-.31,1.24-.12,1.55.42.29.51.15,1.16-.33,1.5l-10.65,7.43,16.17-9.34c.55-.31,1.24-.12,1.55.42.29.51.15,1.16-.34,1.5l-9.2,6.33,13.99-8.08c.54-.32,1.24-.13,1.56.41.29.5.16,1.14-.31,1.49l-14.52,10.81,16.77-9.69c.54-.32,1.24-.14,1.56.4.31.52.16,1.18-.34,1.52l-5.95,4.15,5.09-2.94c.54-.32,1.24-.13,1.56.41.28.49.17,1.11-.28,1.46l-8.63,6.9,7.37-4.25c.54-.32,1.24-.15,1.56.39.28.46.19,1.05-.2,1.42l-5.55,5.34,4.2-2.43c.55-.31,1.24-.11,1.55.44.18.31.19.69.04,1.02l-1.75,3.82.16-.09c.55-.31,1.24-.12,1.55.43.31.54.12,1.23-.41,1.54l-3.25,1.88c-.54.31-1.24.13-1.56-.42-.18-.32-.2-.71-.05-1.04l1.75-3.82-9.16,5.29c-.54.32-1.24.15-1.56-.39-.28-.46-.19-1.05.2-1.42l5.57-5.34-12.41,7.16c-.54.32-1.24.14-1.56-.4-.29-.49-.17-1.13.28-1.48l8.63-6.9-15.21,8.78c-.54.33-1.24.16-1.56-.38-.32-.52-.17-1.2.34-1.54l5.96-4.15-10.52,6.08c-.54.32-1.24.13-1.56-.41-.29-.5-.16-1.14.31-1.49l14.53-10.82-22.04,12.72c-.55.31-1.24.12-1.55-.42-.29-.51-.15-1.16.34-1.5l9.2-6.33-14.31,8.26c-.55.31-1.24.12-1.55-.42-.29-.51-.15-1.16.33-1.5l10.64-7.42-16.19,9.34c-.55.31-1.24.12-1.55-.42-.29-.5-.15-1.14.31-1.48l14.49-10.7-21.86,12.62c-.54.32-1.24.14-1.56-.4-.31-.53-.15-1.2.36-1.54l5.08-3.4-9.24,5.33c-.17.1-.37.15-.57.15h0Z"/>
  <path class="cls-4" d="m41.46,49.38c-.63,0-1.13-.52-1.13-1.15,0-.35.17-.69.46-.9l13.92-10.16-15.53,8.95c-.55.31-1.24.12-1.55-.42-.29-.51-.15-1.16.34-1.5l4.88-3.36-3.67,2.12c-.54.32-1.24.14-1.56-.4-.31-.52-.16-1.18.34-1.52l2.05-1.43-.83.48c-.55.31-1.24.12-1.55-.43-.28-.49-.15-1.12.3-1.47l3.64-2.78-2.39,1.38c-.54.32-1.24.13-1.56-.41-.27-.46-.18-1.05.21-1.41l3.63-3.35-2.28,1.32c-.54.31-1.24.13-1.55-.42-.22-.38-.2-.85.05-1.21l1.69-2.45c-.43.01-.83-.2-1.06-.57-.31-.54-.13-1.24.41-1.56l3.72-2.15c.54-.32,1.24-.13,1.56.41.22.38.2.86-.05,1.22l-1.53,2.23,6.73-3.89c.54-.32,1.24-.13,1.56.41.27.46.18,1.05-.21,1.41l-3.63,3.35,8.96-5.17c.55-.31,1.24-.12,1.55.43.28.49.15,1.11-.29,1.46l-3.64,2.78,8.09-4.67c.55-.31,1.24-.12,1.55.43.29.51.15,1.15-.33,1.49l-2.05,1.44,5.81-3.35c.55-.3,1.24-.1,1.55.45.28.5.14,1.14-.33,1.47l-4.87,3.36,9.14-5.28c.54-.32,1.24-.13,1.56.41.3.51.16,1.15-.32,1.5l-13.91,10.16,20.89-12.06c.55-.31,1.24-.12,1.55.43.29.52.14,1.17-.35,1.51l-5.08,3.4,9.23-5.33c.55-.31,1.24-.12,1.55.42.29.5.15,1.14-.31,1.48l-14.49,10.7,21.86-12.62c.55-.31,1.24-.12,1.55.42.29.51.15,1.16-.33,1.5l-10.65,7.43,16.17-9.34c.55-.31,1.24-.12,1.55.42.29.51.15,1.16-.34,1.5l-9.2,6.33,13.99-8.08c.54-.32,1.24-.13,1.56.41.29.5.16,1.14-.31,1.49l-14.52,10.81,16.77-9.69c.54-.32,1.24-.14,1.56.4.31.52.16,1.18-.34,1.52l-5.95,4.15,5.09-2.94c.54-.32,1.24-.13,1.56.41.28.49.17,1.11-.28,1.46l-8.63,6.9,7.37-4.25c.54-.32,1.24-.15,1.56.39.28.46.19,1.05-.2,1.42l-5.55,5.34,4.2-2.43c.55-.31,1.24-.11,1.55.44.18.31.19.69.04,1.02l-1.75,3.82.16-.09c.55-.31,1.24-.12,1.55.43.31.54.12,1.23-.41,1.54l-3.25,1.88c-.54.31-1.24.13-1.56-.42-.18-.32-.2-.71-.05-1.04l1.75-3.82-9.16,5.29c-.54.32-1.24.15-1.56-.39-.28-.46-.19-1.05.2-1.42l5.57-5.34-12.41,7.16c-.54.32-1.24.14-1.56-.4-.29-.49-.17-1.13.28-1.48l8.63-6.9-15.21,8.78c-.54.33-1.24.16-1.56-.38-.32-.52-.17-1.2.34-1.54l5.96-4.15-10.52,6.08c-.54.32-1.24.13-1.56-.41-.29-.5-.16-1.14.31-1.49l14.53-10.82-22.04,12.72c-.55.31-1.24.12-1.55-.42-.29-.51-.15-1.16.34-1.5l9.2-6.33-14.31,8.26c-.55.31-1.24.12-1.55-.42-.29-.51-.15-1.16.33-1.5l10.64-7.42-16.19,9.34c-.55.31-1.24.12-1.55-.42-.29-.5-.15-1.14.31-1.48l14.49-10.7-21.86,12.62c-.54.32-1.24.14-1.56-.4-.31-.53-.15-1.2.36-1.54l5.08-3.4-9.24,5.33c-.17.1-.37.15-.57.15h0Z"/>
  <path class="cls-6" d="m16.07,110.85c-.63,0-1.14-.51-1.14-1.14,0-.39.2-.75.52-.96l15.45-9.9-19.2,11.08c-.55.31-1.24.12-1.55-.42-.3-.53-.14-1.2.37-1.52l10.07-6.39-9.47,5.47c-.55.31-1.24.12-1.55-.43-.3-.52-.14-1.18.36-1.51l16.83-11.06-16.36,9.45c-.54.32-1.24.13-1.56-.41-.3-.52-.15-1.18.34-1.51l17.56-11.96-17.15,9.9c-.55.31-1.24.11-1.55-.44-.28-.5-.15-1.13.32-1.47l16.62-11.98-10.57,6.1c-.55.31-1.24.12-1.55-.42-.28-.48-.16-1.1.27-1.45l10.3-8.38-3.94,2.28c-.55.3-1.24.1-1.55-.45-.22-.4-.18-.89.11-1.25l5.12-6.21c-.1-.09-.19-.19-.26-.31-.31-.54-.13-1.24.41-1.56l2.78-1.61c.54-.31,1.24-.13,1.56.42.24.41.2.93-.11,1.29l-3.77,4.56,10.88-6.27c.55-.31,1.24-.12,1.55.42.28.48.16,1.1-.27,1.45l-10.29,8.36,17.73-10.25c.54-.32,1.24-.13,1.56.41.29.51.15,1.16-.32,1.5l-16.63,12,24.06-13.89c.54-.32,1.24-.13,1.56.41.3.52.15,1.18-.34,1.51l-17.55,11.96,24.05-13.89c.54-.32,1.24-.15,1.56.39.32.53.15,1.22-.37,1.55l-16.83,11.04,22.51-12.98c.55-.3,1.24-.1,1.55.45.29.52.13,1.17-.37,1.5l-10.09,6.4,14.46-8.35c.54-.32,1.24-.14,1.56.41.31.53.15,1.21-.37,1.54l-15.44,9.9,20.52-11.84c.54-.31,1.24-.13,1.56.42.31.53.14,1.21-.38,1.53l-3.21,2.01,6.86-3.96c.54-.33,1.24-.15,1.56.39.33.54.15,1.24-.39,1.56l-11.47,7.29,15.99-9.24c.54-.32,1.24-.14,1.56.41.31.53.15,1.21-.37,1.54l-16.09,10.32,21.26-12.27c.54-.31,1.24-.13,1.56.42.31.53.14,1.21-.38,1.53l-3.06,1.91,6.69-3.87c.54-.32,1.24-.14,1.56.41.31.53.15,1.21-.37,1.54l-16.21,10.41,21.4-12.36c.55-.31,1.24-.12,1.55.43.3.52.14,1.18-.36,1.51l-22.63,14.89,29.15-16.83c.54-.32,1.24-.15,1.56.39.32.53.15,1.22-.37,1.55l-21.77,14.27,28.07-16.2c.53-.33,1.24-.17,1.57.36s.17,1.24-.36,1.57l-26.28,17.65,29.47-17.01c.54-.32,1.24-.13,1.56.41.3.52.15,1.19-.36,1.52l-20.49,13.61,21.35-12.32c.55-.31,1.24-.12,1.55.43.29.51.15,1.15-.33,1.49l-21.9,15.26,23.12-13.35c.54-.32,1.24-.13,1.56.41.3.52.15,1.18-.35,1.52l-12.01,8.07,12.56-7.24c.55-.31,1.24-.12,1.55.42.29.5.15,1.14-.31,1.48l-16,11.78,17.16-9.91c.54-.31,1.24-.13,1.56.42.29.5.16,1.13-.29,1.47l-12.34,9.42,13.37-7.72c.55-.31,1.24-.12,1.55.43.29.51.14,1.15-.34,1.49l-.94.65,1-.58c.54-.31,1.24-.13,1.56.42.27.48.17,1.08-.25,1.43l-7.67,6.58,8.33-4.81c.55-.3,1.24-.1,1.55.45.25.45.16,1.02-.21,1.37l-4.2,3.83,1.98-1.14c.55-.31,1.24-.12,1.55.42.2.35.2.77,0,1.12l-1.8,3.18c.62.08,1.07.64.99,1.27-.04.35-.25.67-.56.85l-2.69,1.54c-.55.31-1.24.12-1.55-.42-.2-.35-.2-.77,0-1.12l1.58-2.78-7.51,4.33c-.55.31-1.24.11-1.55-.44-.25-.45-.17-1.02.21-1.38l4.2-3.82-9.79,5.65c-.55.31-1.24.12-1.55-.43-.27-.47-.17-1.06.24-1.42l7.67-6.58-14.61,8.43c-.55.31-1.24.12-1.55-.43-.29-.51-.14-1.15.34-1.49l.94-.65-4.46,2.58c-.54.31-1.24.13-1.56-.42-.29-.5-.16-1.13.29-1.47l12.34-9.42-19.61,11.32c-.55.31-1.24.12-1.55-.42-.29-.5-.15-1.14.31-1.48l16.02-11.77-23.71,13.69c-.54.32-1.24.13-1.56-.41-.3-.52-.15-1.18.35-1.52l12-8.06-17.32,10c-.55.31-1.24.12-1.55-.42-.29-.51-.15-1.16.33-1.5l21.9-15.27-29.78,17.19c-.53.33-1.24.17-1.57-.37s-.17-1.24.37-1.57h0l20.49-13.6-26.92,15.54c-.54.32-1.24.13-1.56-.41-.3-.52-.15-1.18.35-1.52l26.3-17.66-33.93,19.58c-.54.32-1.24.15-1.56-.39-.32-.53-.15-1.22.37-1.55l21.79-14.28-28.11,16.23c-.54.32-1.24.15-1.56-.39-.32-.53-.15-1.22.37-1.55l22.6-14.87-29.12,16.82c-.54.33-1.24.16-1.57-.38-.33-.54-.16-1.24.38-1.57l16.22-10.42-21.4,12.36c-.55.3-1.24.1-1.55-.45-.29-.52-.12-1.18.38-1.5l3.06-1.92-6.7,3.87c-.54.33-1.24.16-1.57-.38s-.16-1.24.38-1.57l16.09-10.34-21.28,12.28c-.55.31-1.24.12-1.55-.42-.3-.53-.14-1.2.37-1.52l11.48-7.29-15.99,9.24c-.54.31-1.24.13-1.56-.42-.31-.53-.14-1.21.38-1.53l3.22-2.01-6.87,3.96c-.18.1-.38.16-.58.15h0Z"/>
  <path class="cls-5" d="m29.72,110.86c-.63,0-1.14-.51-1.14-1.14,0-.38.19-.74.51-.95l25.05-16.69-28.62,16.52c-.54.32-1.24.13-1.56-.41-.3-.52-.15-1.19.36-1.52l20.74-13.73-19.54,11.28c-.55.31-1.24.11-1.55-.43-.29-.51-.14-1.16.34-1.49l18.31-12.45-17.1,9.87c-.55.3-1.24.1-1.55-.45-.27-.5-.14-1.13.32-1.47l14.94-10.47-13.71,7.92c-.55.3-1.24.1-1.54-.45-.27-.5-.14-1.12.32-1.46l9.28-6.56-8.06,4.65c-.55.31-1.24.12-1.55-.43-.27-.48-.16-1.1.27-1.45l9.6-7.68-8.33,4.81c-.55.31-1.24.11-1.55-.43-.28-.49-.15-1.11.29-1.45l2.4-1.85-1.14.66c-.55.31-1.24.12-1.55-.42-.22-.39-.2-.88.08-1.25l3.62-4.8-2.14,1.23c-.54.31-1.24.13-1.55-.42-.18-.31-.2-.69-.06-1.02l.65-1.48c-.25-.09-.46-.27-.59-.5-.31-.54-.13-1.24.41-1.56l1.78-1.03c.54-.31,1.24-.13,1.56.42.18.31.2.7.06,1.03l-.39.84,3.98-2.28c.54-.31,1.24-.13,1.55.42.23.4.2.89-.08,1.25l-3.62,4.79,11.2-6.47c.55-.31,1.24-.12,1.55.42.28.49.16,1.12-.29,1.47l-2.42,1.86,6.49-3.74c.55-.31,1.24-.12,1.55.43.27.48.16,1.1-.27,1.45l-9.6,7.68,16.54-9.55c.55-.31,1.24-.11,1.55.43.28.5.14,1.14-.33,1.48l-9.27,6.55,14.67-8.47c.53-.34,1.23-.18,1.57.35s.18,1.23-.35,1.57l-14.93,10.46,21.44-12.38c.54-.32,1.24-.14,1.56.4.31.52.15,1.19-.35,1.53l-18.32,12.46,24.91-14.38c.54-.32,1.24-.13,1.56.41.3.52.15,1.19-.36,1.52l-20.74,13.73,27.13-15.67c.55-.31,1.24-.12,1.55.43.29.52.14,1.17-.35,1.51l-25.05,16.69,32.25-18.62c.54-.33,1.24-.17,1.57.37.33.54.17,1.24-.37,1.57h0l-22.85,15.04,29.42-16.99c.54-.31,1.24-.13,1.56.42.31.53.14,1.21-.38,1.53l-.05.03,3.43-1.98c.55-.31,1.24-.12,1.55.43.29.51.14,1.17-.35,1.5l-26.92,18.17,34.81-20.09c.54-.31,1.24-.13,1.56.42.31.53.14,1.21-.38,1.53l-3.33,2.08,6.99-4.03c.55-.31,1.24-.11,1.55.44.29.52.13,1.19-.37,1.51l-7.21,4.54,11.12-6.42c.55-.31,1.24-.12,1.55.43.29.52.14,1.17-.35,1.51l-24.94,16.62,24.71-14.26c.55-.31,1.24-.12,1.55.43.29.51.14,1.17-.35,1.5l-20.54,13.87,19.36-11.16c.55-.31,1.24-.11,1.55.44.29.51.14,1.16-.35,1.49l-12.56,8.43,11.36-6.56c.54-.32,1.24-.15,1.56.39.32.53.15,1.22-.37,1.55l-3.24,2.13,2.05-1.18c.55-.31,1.24-.12,1.55.43.29.52.14,1.17-.35,1.51l-.86.57c.47-.09.95.11,1.2.51.33.52.18,1.2-.33,1.55l-.89.6c.61-.14,1.22.24,1.37.85.1.43-.06.87-.4,1.15l-7.61,6.13,6.33-3.66c.54-.31,1.24-.13,1.56.42.27.47.17,1.06-.23,1.42l-4.12,3.69,2.8-1.62c.55-.31,1.24-.12,1.55.43.24.43.18.97-.15,1.33l-1.4,1.5h.01c.54-.31,1.24-.13,1.56.42.16.27.19.59.11.89l-.55,1.86c.55.3.76.99.46,1.54-.1.19-.25.34-.43.45l-1.14.66c-.55.31-1.24.13-1.55-.42-.15-.27-.19-.59-.11-.89l.33-1.12-4.22,2.39c-.55.31-1.24.12-1.55-.43-.24-.43-.18-.97.15-1.33l1.4-1.5-5.65,3.26c-.56.29-1.24.08-1.54-.47-.24-.45-.15-1,.21-1.35l4.12-3.69-9.56,5.53c-.55.31-1.24.12-1.55-.43-.27-.48-.16-1.09.27-1.44l7.61-6.13-13.87,8c-.55.31-1.24.12-1.55-.43-.29-.51-.14-1.17.35-1.5l.3-.2-3.7,2.13c-.56.29-1.25.07-1.53-.49-.26-.5-.11-1.11.34-1.44l.14-.09-3.52,2.03c-.55.31-1.24.11-1.55-.44-.29-.52-.13-1.17.35-1.5l3.22-2.12-7.03,4.06c-.55.31-1.24.11-1.55-.44-.29-.51-.14-1.16.35-1.49l12.57-8.43-17.95,10.36c-.55.31-1.24.12-1.55-.43-.29-.51-.14-1.17.35-1.5l20.54-13.87-27.38,15.81c-.54.32-1.24.14-1.56-.4-.31-.53-.15-1.2.36-1.54l24.93-16.62-32.14,18.56c-.55.31-1.24.11-1.55-.44-.29-.52-.13-1.19.37-1.51l7.25-4.55-11.28,6.51c-.54.31-1.24.13-1.56-.42-.31-.53-.14-1.21.38-1.53l3.27-2.05-6.93,4c-.55.3-1.24.11-1.55-.44-.28-.51-.13-1.15.34-1.48l26.92-18.17-34.82,20.1c-.54.32-1.24.15-1.56-.39-.32-.54-.15-1.24.39-1.56l.06-.03-3.45,1.99c-.54.32-1.24.15-1.56-.39-.32-.53-.15-1.22.37-1.55l22.85-15.05-29.43,16.99c-.17.1-.37.15-.57.15h0Z"/>
  <path class="cls-7" d="m34.55,133.63c-.63,0-1.14-.51-1.14-1.14,0-.4.21-.77.55-.97l3.42-2.09-2.76,1.59c-.55.3-1.24.1-1.55-.45-.29-.52-.13-1.17.37-1.5l35.17-22.29-33.98,19.62c-.55.3-1.24.09-1.54-.47-.28-.52-.11-1.16.37-1.48l21.63-13.43-20.46,11.81c-.55.3-1.24.1-1.55-.45-.29-.52-.12-1.18.38-1.5l25.54-15.94-24.36,14.07c-.56.29-1.24.08-1.54-.48-.27-.51-.11-1.15.37-1.47l26.6-16.62-25.43,14.68c-.55.3-1.24.09-1.54-.46-.28-.52-.12-1.16.37-1.49l28.69-17.99-27.52,15.9c-.55.31-1.24.11-1.55-.44-.29-.52-.13-1.18.37-1.51l39.71-25.41-38.53,22.24c-.54.32-1.24.14-1.56-.4-.32-.54-.14-1.24.4-1.56h0l8.27-5.06-7.1,4.1c-.55.3-1.24.09-1.54-.47-.27-.51-.12-1.15.36-1.48l40.41-25.9-39.23,22.65c-.55.3-1.24.09-1.54-.47-.27-.51-.12-1.15.36-1.48l39.23-25.07-38.05,21.97c-.55.3-1.24.09-1.54-.47-.27-.51-.12-1.15.36-1.48l39.48-25.26-38.3,22.12c-.54.33-1.24.16-1.56-.38-.33-.54-.16-1.24.38-1.56l37.03-23.64-35.85,20.7c-.55.3-1.24.09-1.54-.47-.28-.52-.11-1.16.37-1.48l13.26-8.21-12.1,6.99c-.55.3-1.24.09-1.54-.46-.28-.52-.12-1.16.37-1.49l18.75-11.8-17.59,10.16c-.54.32-1.24.14-1.56-.41-.31-.53-.14-1.21.37-1.54l23.65-15.26-22.47,12.98c-.55.3-1.24.1-1.55-.45-.29-.52-.12-1.18.38-1.5l1.69-1.05-.52.3c-.55.31-1.24.11-1.55-.44-.29-.51-.14-1.16.35-1.49l21.81-14.62-20.61,11.9c-.54.32-1.24.14-1.56-.41-.31-.53-.15-1.21.37-1.54l5.06-3.25-3.87,2.24c-.54.33-1.24.16-1.57-.38-.33-.54-.16-1.24.38-1.57l3.34-2.17-2.15,1.24c-.55.31-1.24.12-1.55-.43-.29-.51-.14-1.15.34-1.49l10.21-7.06-8.82,5.09c-.55.31-1.24.12-1.55-.42-.28-.49-.16-1.12.29-1.47l11.3-8.71-1.35.78c-.55.31-1.24.13-1.55-.42-.28-.48-.17-1.09.26-1.44l6.46-5.38c-.26-.54-.06-1.19.46-1.49l4.43-2.55c.55-.31,1.24-.13,1.55.42.28.48.17,1.09-.26,1.44l-.96.8,4.61-2.66c.55-.31,1.24-.12,1.55.42.28.49.16,1.12-.29,1.47l-11.29,8.7,18.35-10.59c.55-.31,1.24-.12,1.55.43.29.51.14,1.15-.34,1.49l-10.21,7.06,15.55-8.98c.55-.31,1.24-.11,1.55.44.29.52.13,1.17-.36,1.5l-3.34,2.17,7.12-4.11c.55-.3,1.24-.1,1.55.45.28.52.13,1.16-.36,1.49l-5.06,3.26,9.01-5.2c.55-.31,1.24-.11,1.55.44.29.51.14,1.16-.35,1.49l-21.8,14.62,28.67-16.55c.54-.32,1.24-.15,1.56.39s.15,1.24-.39,1.56l-1.69,1.06,5.21-3.01c.54-.33,1.24-.16,1.57.38s.16,1.24-.38,1.57l-23.66,15.26,29.78-17.2c.54-.32,1.24-.15,1.56.39.32.54.15,1.24-.39,1.56l-18.76,11.79,23.8-13.74c.55-.3,1.24-.09,1.54.46.28.52.12,1.17-.38,1.5l-13.25,8.2,15.83-9.14c.55-.31,1.24-.11,1.55.44.29.52.13,1.18-.37,1.51l-37.04,23.64,37.68-21.76c.54-.33,1.24-.16,1.56.38.33.54.16,1.24-.38,1.56l-39.48,25.25,38.31-22.12c.54-.33,1.24-.16,1.56.38s.16,1.24-.38,1.56l-39.24,25.07,38.06-21.97c.55-.31,1.24-.11,1.55.44.29.52.13,1.18-.37,1.51l-40.4,25.9,39.23-22.65c.54-.32,1.24-.14,1.56.4s.14,1.24-.4,1.56l-8.24,5.05,7.08-4.09c.54-.33,1.24-.16,1.56.38s.16,1.24-.38,1.56h0l-39.71,25.39,38.53-22.24c.54-.31,1.24-.13,1.56.42.31.53.14,1.21-.38,1.53l-28.69,17.99,27.52-15.89c.55-.3,1.24-.1,1.55.45.29.52.12,1.18-.38,1.5l-26.6,16.62,25.43-14.69c.54-.32,1.24-.15,1.56.39.32.54.15,1.24-.39,1.56l-25.52,15.94,24.35-14.06c.54-.32,1.24-.15,1.56.39.32.54.15,1.24-.39,1.56h0l-21.63,13.43,20.46-11.81c.55-.31,1.24-.12,1.55.42.3.53.14,1.2-.37,1.52l-35.19,22.29,34.02-19.64c.54-.32,1.24-.14,1.56.4s.14,1.24-.4,1.56l-3.39,2.07,2.22-1.28c.55-.3,1.24-.09,1.54.46.28.52.12,1.16-.36,1.49l-27.78,17.61,26.59-15.35c.54-.33,1.24-.15,1.56.39.33.54.15,1.24-.39,1.56h0l-18.62,11.75,17.45-10.07c.54-.32,1.24-.15,1.56.39.32.54.15,1.24-.39,1.56l-8.17,5.11,7.01-4.03c.54-.33,1.24-.16,1.57.38s.16,1.24-.38,1.57l-15.71,10.08,14.53-8.38c.55-.31,1.24-.11,1.55.44.29.52.13,1.17-.36,1.5l-12.45,8.06,11.26-6.5c.54-.33,1.24-.16,1.57.38s.16,1.24-.38,1.57l-4.37,2.8,3.19-1.84c.54-.32,1.24-.14,1.56.4.31.53.15,1.2-.36,1.54l-9.84,6.57,8.65-4.99c.54-.33,1.24-.16,1.57.37s.16,1.24-.37,1.57l-.88.57c.47-.1.96.1,1.22.5.33.52.19,1.2-.31,1.54l-5.99,4.15,4.78-2.76c.55-.31,1.24-.11,1.55.44.28.5.15,1.13-.32,1.47l-4.74,3.41,3.5-2.02c.55-.31,1.24-.11,1.55.43.27.47.16,1.07-.25,1.42l-5.87,4.94,4.57-2.64c.55-.31,1.24-.12,1.55.43.25.44.18.99-.17,1.35l-3.15,3.25,1.77-1.02c.54-.31,1.24-.13,1.56.42.22.39.2.87-.06,1.23l-.85,1.19c.63.04,1.11.58,1.07,1.21-.02.38-.24.73-.57.92l-3.67,2.12c-.54.31-1.24.13-1.55-.42-.22-.39-.2-.87.06-1.23l.59-.82-4.28,2.47c-.55.31-1.24.12-1.55-.43-.25-.44-.18-.99.17-1.35l3.15-3.26-8.71,5.03c-.55.31-1.24.12-1.55-.42-.27-.48-.17-1.08.25-1.43l5.88-4.94-11.78,6.8c-.55.31-1.24.11-1.55-.44-.28-.5-.15-1.13.32-1.47l4.72-3.4-9.21,5.32c-.54.32-1.24.13-1.56-.41-.3-.51-.15-1.17.34-1.51l5.98-4.14-10.52,6.07c-.54.33-1.24.16-1.57-.37s-.16-1.24.37-1.57h0l.14-.09-3.52,2.03c-.54.32-1.24.14-1.56-.4-.31-.53-.15-1.2.36-1.54l9.83-6.56-14.71,8.49c-.54.33-1.24.16-1.57-.38s-.16-1.24.38-1.57h0l4.38-2.81-8.24,4.76c-.55.31-1.24.12-1.55-.43-.3-.52-.14-1.19.37-1.52l12.48-8.08-17.36,10.02c-.54.32-1.24.14-1.56-.41-.31-.53-.15-1.21.37-1.54l15.68-10.06-20.81,12.02c-.54.32-1.24.15-1.56-.39-.32-.54-.15-1.24.39-1.56l8.16-5.11-12.23,7.06c-.54.33-1.24.15-1.56-.39-.33-.54-.15-1.24.39-1.56l18.64-11.76-23.74,13.72c-.55.3-1.24.1-1.55-.45-.29-.52-.13-1.17.37-1.5l27.76-17.6-33.87,19.56c-.17.1-.37.15-.58.15h0Z"/>
  <path class="cls-1" d="m99.34,106.47c-.63,0-1.14-.51-1.14-1.14,0-.25.08-.49.23-.68l2.19-2.96c-.62-.08-1.06-.65-.98-1.28.05-.35.25-.66.56-.84l3.68-2.12c.54-.32,1.24-.13,1.56.41.23.39.2.89-.07,1.25l-1.84,2.49,7.29-4.2c.53-.34,1.23-.18,1.57.35.34.53.18,1.23-.35,1.57-.03.02-.05.03-.08.05l-12.02,6.94c-.18.11-.38.16-.58.16h0Z"/>
  <path class="cls-1" d="m52.1,140.4c-.63,0-1.14-.51-1.14-1.14,0-.39.2-.76.54-.97l5.92-3.68-9.76,5.62c-.55.3-1.24.1-1.54-.45-.27-.5-.13-1.13.33-1.47l22.86-15.8-30.68,17.72c-.55.3-1.24.1-1.55-.45-.28-.5-.14-1.14.33-1.47l22.3-15.32-29.88,17.25c-.55.3-1.24.1-1.55-.45-.28-.5-.14-1.14.33-1.47l22.2-15.24-29.73,17.16c-.55.3-1.24.09-1.54-.46-.27-.51-.12-1.14.35-1.47l16.17-10.67-21.83,12.6c-.55.3-1.24.1-1.55-.45-.28-.51-.13-1.16.36-1.49l13.94-9.11-16.23,9.38c-.55.31-1.24.12-1.55-.43-.3-.52-.14-1.18.36-1.51l13.02-8.57-12.98,7.5c-.53.33-1.24.17-1.57-.36-.33-.53-.17-1.24.36-1.57l13.28-8.86-12.07,6.97c-.54.32-1.24.13-1.56-.41-.31-.53-.14-1.2.37-1.53l6.69-4.39-5.52,3.19c-.55.31-1.24.11-1.55-.43-.29-.51-.14-1.16.34-1.49l14.82-10.1-13.6,7.85c-.55.31-1.24.12-1.55-.42-.29-.51-.15-1.16.33-1.5l14.09-9.83-12.87,7.43c-.55.31-1.24.12-1.55-.42-.29-.5-.15-1.15.32-1.49l10.75-7.78-9.51,5.49c-.55.31-1.24.12-1.55-.43-.28-.49-.16-1.11.28-1.46l8.31-6.49-7.04,4.06c-.5.29-1.14.16-1.48-.31-.35-.47-.28-1.12.14-1.51l5.74-5.3-4.39,2.53c-.55.3-1.24.1-1.54-.46-.24-.45-.16-1.01.21-1.36l.85-.77c-.28.02-.55-.06-.77-.23-.36-.27-.53-.73-.43-1.17l.68-2.9c-.23-.1-.43-.27-.55-.49-.31-.54-.13-1.24.42-1.56l1.14-.66c.54-.32,1.24-.13,1.56.41.15.25.19.55.12.84l-.55,2.3,6.15-3.55c.55-.3,1.24-.1,1.54.46.24.45.16,1.01-.21,1.36l-.47.43,3.91-2.25c.54-.32,1.24-.13,1.56.41.27.46.18,1.05-.21,1.41l-5.74,5.31,12.36-7.12c.54-.32,1.24-.13,1.56.41.28.49.16,1.12-.29,1.47l-8.31,6.49,14.51-8.37c.55-.31,1.24-.12,1.55.42.29.5.15,1.15-.32,1.49l-10.74,7.77,16.78-9.68c.55-.3,1.24-.11,1.55.44.28.5.14,1.13-.33,1.47l-14.07,9.82,16.95-9.79c.55-.31,1.24-.11,1.55.43.29.51.14,1.16-.34,1.49l-14.82,10.1,14.74-8.51c.54-.32,1.24-.13,1.56.41.31.53.14,1.2-.37,1.53l-6.7,4.38,6.88-3.97c.54-.32,1.24-.14,1.56.4.31.53.15,1.2-.36,1.54l-13.28,8.86,16.46-9.5c.55-.31,1.24-.11,1.55.44.29.52.13,1.17-.35,1.5l-13.04,8.58,18.22-10.51c.55-.31,1.24-.12,1.55.43.3.52.14,1.18-.36,1.51l-13.94,9.11,19.13-11.04c.55-.3,1.24-.09,1.54.46.27.51.12,1.14-.35,1.47l-16.17,10.67,21.83-12.6c.55-.3,1.24-.1,1.55.45.28.5.14,1.14-.33,1.47l-22.2,15.24,29.73-17.16c.55-.31,1.24-.12,1.55.43.29.51.14,1.15-.34,1.49l-22.3,15.32,29.88-17.25c.55-.3,1.24-.1,1.54.45.27.5.13,1.13-.33,1.47l-22.86,15.79,46.51-26.85c.55-.3,1.24-.09,1.54.47.28.52.11,1.16-.37,1.48l-5.92,3.68,9.76-5.64c.55-.31,1.24-.11,1.55.44.29.52.13,1.18-.37,1.51l-21.56,13.79,27.27-15.75c.54-.32,1.24-.13,1.56.41.3.52.15,1.19-.36,1.52l-30.02,19.79,37.66-21.74c.55-.31,1.24-.11,1.55.44.29.52.13,1.18-.37,1.51l-21.89,14,23-13.28c.54-.32,1.24-.13,1.56.41.3.52.15,1.19-.36,1.52l-26.87,17.79,25.67-14.81c.55-.31,1.24-.11,1.55.44.29.52.13,1.17-.36,1.5l-14.99,9.74,13.81-7.97c.54-.32,1.24-.13,1.56.41.31.53.14,1.2-.37,1.53l-10.95,7.15,9.76-5.63c.55-.31,1.24-.11,1.55.44.28.51.14,1.15-.34,1.48l-13.59,9.29,12.37-7.14c.55-.31,1.24-.12,1.55.43.28.5.15,1.13-.31,1.47l-13.11,9.58,11.87-6.85c.55-.31,1.24-.11,1.55.44.28.49.15,1.11-.3,1.46l-8.25,6.21,7-4.04c.55-.31,1.24-.11,1.55.44.27.49.15,1.1-.28,1.44l-4.17,3.24,2.9-1.67c.54-.33,1.24-.16,1.56.38.29.47.2,1.07-.21,1.44l-3.49,3.31,2.14-1.23c.55-.31,1.24-.12,1.55.42.22.39.2.87-.06,1.23l-1.51,2.09c.37.03.71.24.89.56.31.54.13,1.24-.41,1.56l-3.68,2.12c-.54.32-1.24.13-1.56-.41-.23-.39-.2-.88.06-1.24l1.23-1.69-5.85,3.37c-.53.33-1.24.17-1.57-.37-.29-.47-.2-1.09.21-1.45l3.49-3.3-8.87,5.13c-.55.31-1.24.12-1.55-.43-.28-.49-.16-1.11.28-1.46l4.17-3.25-8.88,5.13c-.55.31-1.24.12-1.55-.42-.28-.5-.16-1.13.3-1.47l8.23-6.19-14.02,8.09c-.55.31-1.24.12-1.55-.43-.28-.5-.15-1.13.31-1.47l13.12-9.58-19.89,11.49c-.55.31-1.24.11-1.55-.44-.28-.51-.14-1.15.34-1.48l13.58-9.29-19.42,11.21c-.55.3-1.24.1-1.55-.45-.28-.51-.13-1.16.36-1.49l10.95-7.16-15.76,9.11c-.55.3-1.24.09-1.54-.46-.27-.51-.12-1.14.35-1.47l14.99-9.74-20.23,11.67c-.55.3-1.24.1-1.55-.45-.28-.51-.13-1.15.35-1.49l26.87-17.8-34.18,19.73c-.55.3-1.24.1-1.55-.45-.28-.52-.13-1.16.36-1.49l21.9-14-27.64,15.94c-.55.3-1.24.1-1.55-.45-.28-.51-.13-1.15.35-1.49l30.02-19.79-37.64,21.72c-.55.3-1.24.1-1.55-.45-.28-.52-.13-1.16.36-1.49l21.58-13.79-27.26,15.74c-.17.1-.37.16-.57.16h0Z"/>
  <path class="cls-5" d="m69.29,129.01c-.63,0-1.14-.51-1.14-1.14,0-.31.12-.6.35-.82l2.68-2.61-7.66,4.41c-.55.31-1.24.13-1.55-.42-.23-.4-.2-.89.08-1.25l3.4-4.47-10.55,6.09c-.54.32-1.24.14-1.56-.41-.26-.44-.19-.99.16-1.36l3.08-3.26-5.24,3.02c-.55.31-1.24.13-1.55-.42-.19-.34-.2-.75-.02-1.09l1.79-3.42-.31.18c-.56.29-1.25.08-1.54-.48-.27-.52-.1-1.17.4-1.49l3.7-2.14c.54-.32,1.24-.13,1.56.41.2.34.2.75.02,1.1l-1.79,3.42,8.59-4.94c.55-.31,1.24-.12,1.55.42.25.43.18.98-.16,1.34l-3.08,3.26,8.71-5.03c.55-.31,1.24-.12,1.55.43.22.39.19.88-.08,1.25l-3.4,4.47,10.64-6.15c.54-.32,1.24-.13,1.56.41.26.45.19,1.03-.19,1.39l-2.68,2.61,7.64-4.41c.54-.32,1.24-.13,1.56.41.23.39.2.88-.06,1.24l-3.38,4.63,10.89-6.28c.54-.31,1.24-.13,1.56.42.25.44.19.99-.16,1.35l-3.12,3.3,6.4-3.7c.44-.25,1-.18,1.37.18.36.36.44.92.19,1.37l-2.25,3.96,1.78-1.02c.56-.29,1.25-.08,1.54.48.27.52.1,1.17-.4,1.49l-5.39,3.11c-.44.25-1,.18-1.37-.18-.36-.36-.44-.92-.19-1.37l2.24-3.97-9.55,5.51c-.55.31-1.24.12-1.55-.42-.25-.43-.18-.98.16-1.34l3.12-3.3-8.78,5.07c-.55.31-1.24.13-1.55-.42-.22-.39-.2-.87.07-1.24l3.37-4.63-10.89,6.28c-.17.1-.36.16-.56.16h0Z"/>
  <path class="cls-8" d="m40.95,53.87c-.63,0-1.14-.51-1.14-1.14,0-.34.15-.66.41-.87l1.12-.94-4.85,2.79c-.54.32-1.24.14-1.56-.4-.28-.48-.17-1.1.26-1.46l6.33-5.24c-.63.06-1.18-.4-1.24-1.02-.04-.36.1-.71.37-.96l7.93-7.17c-.12-.49.1-1,.54-1.25l2.45-1.41c.55-.3,1.24-.1,1.54.46.24.45.16,1.01-.21,1.36l-2.76,2.5,1.43-.83c.54-.31,1.24-.13,1.56.42.28.48.17,1.09-.26,1.45l-5.87,4.87,4.57-2.64c.54-.32,1.24-.14,1.56.41.28.48.17,1.1-.26,1.45l-1.17.97c.58-.25,1.25.02,1.49.6.18.41.09.89-.21,1.22l-1.28,1.43c.63-.04,1.17.44,1.21,1.07.03.43-.19.84-.57,1.06l-5.43,3.12c-.54.31-1.24.13-1.56-.42-.25-.43-.19-.96.14-1.33l1.02-1.14-4.99,2.89c-.17.1-.37.16-.57.16h0Z"/>
  <g>
    <path class="cls-3" d="m7.29,119.83v12.33c0,3-.17,6.15,3.14,7.62,2.81,1.26,7.18.53,10.13.53h80.24c11.61,0,23.26.32,34.86,0,3.52.26,6.62-2.32,7.01-5.83.16-2.71,0-5.48,0-8.2v-28.13s-.02-.04-.02-.06c0-.11-.03-.22-.08-.31,0-.05-.03-.11-.06-.15l-8.13-12.78-5.26-8.27c-.64-1.26-1.46-2.42-2.44-3.43-.06-.11-.16-.19-.28-.22-.37-.26-.79-.45-1.24-.54-1.42-.16-2.84-.18-4.26-.07h-3.28v-16.2c0-5.69.33-11.48,0-17.16.02-2.57-1.98-4.71-4.55-4.86,0-3.96.28-8.56-4.55-9.18.02-3.04.64-6.89-2.55-8.58-.62-.31-1.3-.5-2-.55.02-2.5.55-5.69-1.34-7.63-1.26-1.13-2.93-1.68-4.61-1.51-4.29-.04-8.59,0-12.88,0-10.4,0-20.83-.19-31.23,0-2.2-.1-4.37.57-6.13,1.89-2.21,1.91-1.84,4.98-1.78,7.67-.59.16-1.15.39-1.68.68-3.27,1.82-2.92,5.22-2.87,8.45-.69.2-1.36.49-1.98.85-3.53,2.19-2.56,7.06-2.56,10.61v11.78l-.48.48c-1.26,1.09-2.37,2.33-3.31,3.71-.23.18-.33.38-.28.54-.29.63-.45,1.31-.48,2-.26,5.58-.14,11.21-.05,16.82-1.97-.03-3.95-.08-5.92.02-.62.02-1.23.17-1.79.44-.55.08-1.03.43-1.28.93-.73.81-1.37,1.7-1.91,2.65l-10.75,16.9-3.27,5.13c-.11.17-.14.38-.08.57v21.1Zm129.77,18.51c-.88.09-1.76.09-2.64,0H26.92c-4.03,0-8.14.23-12.17,0-2.3,0-4.16-1.88-4.15-4.18,0-.05,0-.09,0-.14-.15-3.06,0-6.17,0-9.24v-25.48h13.1c.61.29,1.33.29,1.94,0h11.05c3.12,0,10.02-1.29,11.36,2.58.51,1.49.21,2.98,1.23,4.34,1.12,1.38,2.8,2.18,4.57,2.18.89.05,1.79,0,2.68,0h32.83c3.19,0,7.29.6,9.98-1.44,1.26-.95,2.09-2.36,2.3-3.92.33-1.69.41-3.36,2.53-3.75,1.38-.12,2.77-.12,4.15,0h31.03v31.65c0,2.25.66,6.73-2.3,7.38h0Zm-.61-44.13l2,3.14h-11.72v-18.42l9.72,15.27Zm-17.67-19.94c1.42-.08,2.84-.08,4.26,0,.13.02.26.06.38.12v22.97h-5.81v-23.09h1.16Zm-4.46-34.7c.32,4.41,0,8.95,0,13.37v44.42h-1.05c-3.19,0-7.24-.62-10.37.34-1.41.41-2.66,1.27-3.54,2.45-1.2,1.67-.48,4.26-2,5.67-1.04.97-2.66.66-3.94.66h-32.83c-1.59,0-3.24.1-4.85,0-.21,0-.42.03-.63,0-3.18-.36-3.09-2.75-3.68-5.11-1.14-4.59-6.19-4-9.81-4h-5.98v-39.68c-.09-1.39-.04-2.79.16-4.18h10.52c3.49,0,7.46-1.77,7.53-5.74.04-2.08,0-4.16,0-6.24v-6.27c.31-.03.62-.04.93-.04h45.73c4.16,0,13.36-1.77,13.8,4.35ZM50.16,8.81c.89-1.19,1.59-.94,2.9-.94h41.68c1.43-.21,2.89.07,4.14.8,2.13,1.56,1.9,4.57,1.8,7.06h-50.69c-.23,0-.46.01-.68.02-.03-2.15-.5-5.16.85-6.94h0Zm-3.53,8.2c.12-.03.24-.05.36-.06.11,0,.23-.03.36-.05.7-.03,1.55.11,2.1.11h48.91c.95-.05,1.91-.05,2.86,0,4.22.47,4.08,4.53,4.01,7.83-.42,0-.83.02-1.25.02h-50.26c-2.56,0-5.9-.37-8.98-.14-.05-2.27-.64-6.82,1.88-7.72h0Zm-6.43,12.61c.24-3.13,1.66-3.51,4.09-3.51h55.08c2.01,0,4.1-.17,6.09,0,4.49.37,4.39,4.33,4.33,7.76-1.21,0-2.41.07-3.47.07h-48.16c-1.7-.1-3.4-.02-5.08.26-.11.03-.21.07-.32.1-.85.08-1.88.43-2.12.93-1.76,1.27-3.38,2.74-4.8,4.37l-5.67,5.66c-.09-5.21-.36-10.51.03-15.68h0Zm-3.33,21.66c.85-1,1.75-1.95,2.7-2.85.37-.17.63-.37.63-.61,1.07-1.02,2.17-2.03,3.19-3.05l7.18-7.17v10.38c.06.91-.11,1.83-.49,2.66-.29.62-.77,1.13-1.37,1.46l-.03.02h-.01c-.08,0-.17,0-.25,0-2.23.03-4.45,0-6.68,0h-5.4c.15-.3.34-.58.55-.84h0Zm-7.21,23.19h2.65c.01,1.21.03,2.41.03,3.62v19.28h-5.79v-22.93c.18.02.36.04.47.04h2.64Zm-6.45,4.1v18.8h-11.97l6.97-10.95,5-7.85Z"/>
    <path class="cls-3" d="m98.12,118.31c-2.32-.43-4.69-.52-7.03-.27h-28.07c-2.57,0-5.16-.09-7.74,0-2.06-.02-4.04.77-5.53,2.19-1.94,1.95-1.93,5.1.02,7.04.06.06.12.11.18.17,2.01,1.75,5.13,1.31,7.62,1.31h37.22c2.78.07,5.34-1.49,6.56-3.98.93-2.59-.42-5.45-3.01-6.38-.07-.03-.15-.05-.22-.07h0Zm-1.97,8.84h-38.73c-.7.04-1.4.04-2.09,0-2.28-.23-3.95-2.27-3.72-4.55.02-.15.04-.31.07-.46.7-3.19,3.48-2.5,5.88-2.5h34.84c.77-.05,1.54-.05,2.3,0,1.4.16,2.62,1.01,3.23,2.28.72,1.5.54,5.07-1.78,5.24h0Z"/>
    <path class="cls-3" d="m52.06,65.36h45.54c1.86,0,2.55-2.36.31-2.36h-45.54c-1.86,0-2.55,2.36-.31,2.36h0Z"/>
    <path class="cls-3" d="m98.36,72.23h-2.28c-.45-.02-.89.07-1.3.24-.19.08-.36.19-.51.32-.14.1-.26.23-.35.39-.16.24-.14.56.03.79.24.24.57.38.91.38h2.28c.45.01.89-.07,1.3-.24.19-.08.36-.19.51-.32.14-.1.26-.23.35-.39.16-.24.14-.56-.03-.79-.24-.24-.57-.38-.91-.38Z"/>
    <path class="cls-3" d="m51.13,73.92h34.16c.82.03,1.64-.19,2.33-.63.42-.34.56-.63-.17-.63h-34.16c-.82-.03-1.64.19-2.33.63-.42.33-.56.63.17.63h0Z"/>
    <path class="cls-3" d="m98.36,81.36h-34.16c-.7,0-1.84.21-2.17.94-.3.68.26,1.14.94,1.14h34.16c.7,0,1.84-.21,2.17-.94.3-.68-.26-1.14-.94-1.14h0Z"/>
    <path class="cls-3" d="m52.08,83.69h2.28c.23,0,.46-.06.66-.15.21-.06.41-.17.57-.31.16-.11.29-.26.38-.44.11-.14.17-.31.18-.49.02-.35-.13-.69-.42-.89-.34-.22-.74-.32-1.14-.3h-2.28c-.23,0-.46.06-.66.15-.21.06-.41.17-.57.31-.16.11-.29.26-.38.44-.11.14-.17.31-.18.49-.02.35.13.69.42.89.34.22.74.32,1.14.3Z"/>
    <path class="cls-3" d="m77.94,90.73h-25.05c-.61,0-1.87.24-2.2.83s.3.71.82.71h25.05c.61,0,1.87-.24,2.2-.83s-.29-.71-.82-.71Z"/>
  </g>
</svg>