<?xml version="1.0" encoding="UTF-8"?>
<svg id="Layer_1_copy" data-name="Layer 1 copy" xmlns="http://www.w3.org/2000/svg" viewBox="0 0 150 150">
  <defs>
    <style>
      .cls-1 {
        fill: #9acb45;
      }

      .cls-2 {
        fill: #fffbce;
      }

      .cls-3 {
        fill: #494223;
      }

      .cls-4 {
        fill: #fcf7bf;
      }

      .cls-5 {
        fill: #aed24f;
      }

      .cls-6 {
        fill: #f15d45;
      }
    </style>
  </defs>
  <path class="cls-6" d="m66.39,140.01c-.63,0-1.14-.51-1.14-1.13,0-.39.2-.76.53-.97l13.69-8.73-17.76,10.25c-.55.3-1.24.1-1.54-.46-.28-.51-.12-1.15.36-1.48l25.05-16.15-29.6,17.08c-.54.31-1.24.13-1.56-.42-.31-.53-.14-1.21.38-1.53l13.24-8.25-15.92,9.19c-.55.31-1.24.12-1.55-.42-.3-.53-.14-1.2.37-1.52l30.66-19.49-34.26,19.79c-.54.32-1.24.15-1.56-.4-.32-.54-.15-1.24.4-1.56l6.58-4.03-8.26,4.77c-.55.3-1.24.09-1.54-.46-.28-.52-.12-1.16.37-1.49l27.53-17.19-30.01,17.32c-.55.3-1.24.1-1.55-.45-.29-.53-.12-1.19.38-1.51l8.92-5.44-10.29,5.92c-.54.32-1.24.14-1.56-.4-.32-.54-.14-1.24.4-1.56h0l12.52-7.65-13.85,7.99c-.55.31-1.24.12-1.55-.42-.3-.53-.14-1.2.37-1.52l45.02-28.52-47.74,27.55c-.55.3-1.24.09-1.54-.47-.27-.51-.12-1.15.37-1.48l44.93-28.31-47.2,27.25c-.55.3-1.24.09-1.54-.46-.28-.52-.12-1.17.38-1.5l30.84-19.03-32.11,18.54c-.54.32-1.24.15-1.56-.39-.32-.54-.15-1.24.39-1.56l44.45-27.88-46.08,26.61c-.54.32-1.24.14-1.56-.4s-.14-1.24.4-1.56l5.75-3.49-6.12,3.53c-.55.3-1.24.1-1.55-.45-.29-.52-.12-1.18.38-1.5l37.36-23.23-38.32,22.12c-.55.31-1.24.11-1.55-.44-.29-.52-.13-1.19.37-1.51l42.35-26.53-43.29,25c-.54.32-1.24.15-1.56-.39s-.15-1.24.39-1.56l30.86-19.06-31.25,18.04c-.55.3-1.24.09-1.54-.47-.28-.52-.11-1.17.38-1.49l9.56-5.82-9.46,5.47c-.54.33-1.24.15-1.56-.39-.33-.54-.15-1.24.39-1.56l44.96-28.4-45.39,26.21c-.56.28-1.25.05-1.53-.51-.25-.5-.1-1.1.35-1.43l37.17-23.23-37.15,21.43c-.54.31-1.24.13-1.56-.42-.31-.53-.14-1.21.38-1.53l34.24-21.36-33.97,19.61c-.56.28-1.25.06-1.53-.5-.26-.51-.1-1.12.36-1.45l39.51-24.94-39.06,22.55c-.55.31-1.24.11-1.55-.43-.3-.53-.13-1.2.38-1.52l19.9-12.27-19.06,11c-.55.3-1.24.09-1.54-.47-.28-.52-.11-1.16.37-1.48l23.85-14.8-22.84,13.19c-.54.32-1.24.14-1.56-.4-.32-.54-.14-1.24.4-1.56h0l4.43-2.71-3.24,1.87c-.55.31-1.24.11-1.55-.44-.29-.52-.13-1.19.37-1.51l27.42-17.18-25.98,15c-.56.29-1.25.07-1.53-.49-.26-.51-.11-1.13.36-1.46l36.51-23.42-34.52,19.93c-.55.3-1.24.09-1.54-.47-.27-.51-.12-1.15.37-1.48l23.96-15.13-21.68,12.52c-.55.31-1.24.11-1.55-.44-.29-.52-.13-1.17.36-1.5l27.57-17.83-24.47,14.13c-.55.31-1.24.11-1.55-.44-.29-.52-.13-1.19.37-1.51l5.8-3.63-2.94,1.7c-.55.31-1.24.11-1.55-.44-.29-.51-.14-1.16.35-1.49l21.22-14.19-16.17,9.34c-.54.33-1.24.17-1.57-.37s-.17-1.24.37-1.57h0l4.83-3.15c-.58.24-1.25-.04-1.48-.62-.2-.48-.04-1.04.38-1.35l9.7-7.12c-.6-.2-.92-.84-.72-1.44.09-.26.27-.49.51-.62l14.15-8.17c.55-.31,1.24-.12,1.55.43.28.5.15,1.13-.31,1.47l-6.89,5.06,18.14-10.47c.54-.32,1.24-.13,1.56.41.31.53.14,1.2-.37,1.53l-4.7,3.06,9.89-5.71c.55-.31,1.24-.11,1.55.44.29.51.14,1.16-.35,1.49l-21.2,14.17,27.75-16.02c.55-.31,1.24-.11,1.55.44.29.52.13,1.19-.37,1.51l-5.78,3.62,8.83-5.1c.55-.31,1.24-.11,1.55.44.29.52.13,1.17-.36,1.5l-27.6,17.84,32.24-18.61c.54-.33,1.24-.15,1.56.39s.15,1.24-.39,1.56l-23.93,15.11,26.95-15.56c.55-.3,1.24-.09,1.54.47.27.51.12,1.15-.36,1.48l-36.53,23.43,38.5-22.22c.54-.31,1.24-.13,1.56.42.31.53.14,1.21-.38,1.53l-27.41,17.17,28.76-16.6c.55-.3,1.24-.1,1.55.45.29.53.12,1.19-.38,1.51l-4.42,2.7,5.01-2.9c.54-.32,1.24-.15,1.56.39s.15,1.24-.39,1.56l-23.89,14.82,25.05-14.46c.55-.31,1.24-.11,1.55.43.3.53.13,1.2-.38,1.52l-19.9,12.26,20.89-12.07c.54-.33,1.24-.15,1.56.39.33.54.15,1.24-.39,1.56l-39.55,24.96,41.38-23.89c.55-.3,1.24-.1,1.55.45.29.52.12,1.18-.38,1.5l-34.18,21.33,35.69-20.6c.54-.31,1.24-.13,1.56.42.31.53.14,1.21-.38,1.53l-37.19,23.25,38.82-22.41c.55-.3,1.24-.09,1.54.47.27.51.12,1.15-.37,1.48l-44.95,28.39,46.98-27.12c.55-.3,1.24-.09,1.54.47.28.52.11,1.17-.38,1.49l-9.56,5.82,10.26-5.92c.54-.32,1.24-.15,1.56.39.32.54.15,1.24-.39,1.56l-30.85,19.05,32.14-18.55c.55-.3,1.24-.09,1.54.46.28.52.12,1.16-.37,1.49l-42.38,26.54,44.18-25.5c.54-.32,1.24-.15,1.56.39.32.54.15,1.24-.39,1.56l-37.37,23.23,38.91-22.46c.56-.29,1.24-.08,1.54.48.27.52.11,1.16-.38,1.48l-5.76,3.49,6.38-3.69c.55-.31,1.24-.11,1.55.44.29.52.13,1.19-.37,1.51l-44.44,27.88,45.77-26.43c.54-.32,1.24-.15,1.56.39.32.54.15,1.24-.39,1.56l-30.81,19.02,30.55-17.64c.55-.3,1.24-.1,1.55.45.29.52.13,1.17-.37,1.5l-44.95,28.33,44.68-25.8c.55-.3,1.24-.09,1.54.46.28.52.12,1.16-.36,1.49l-45,28.51,44.36-25.61c.55-.3,1.24-.09,1.54.47.28.52.11,1.17-.38,1.49l-12.56,7.68,11.53-6.66c.54-.32,1.24-.14,1.56.4.32.54.14,1.24-.4,1.56h0l-8.88,5.43,7.72-4.46c.55-.3,1.24-.09,1.54.46.28.52.12,1.16-.37,1.49l-27.55,17.19,26.15-15.09c.55-.3,1.24-.1,1.55.45.29.53.12,1.19-.38,1.51l-6.59,4.03,5.06-2.92c.54-.33,1.24-.16,1.56.38s.16,1.24-.38,1.56l-30.66,19.5,28.53-16.47c.54-.31,1.24-.13,1.56.42.31.53.14,1.21-.38,1.53l-13.21,8.22,11-6.35c.55-.31,1.24-.11,1.55.44.29.52.13,1.17-.36,1.5l-25.05,16.17,21.88-12.64c.54-.33,1.24-.16,1.57.38s.16,1.24-.38,1.57l-13.66,8.72,10.2-5.89c.55-.31,1.24-.12,1.55.42.3.53.14,1.2-.37,1.52l-3.34,2.12c.61-.15,1.23.22,1.38.83.11.46-.06.94-.45,1.21l-15.96,11.24,8.22-4.74c.56-.29,1.25-.08,1.54.48.27.52.1,1.17-.4,1.49l-30.08,17.37c-.54.32-1.24.13-1.56-.41-.3-.51-.15-1.17.33-1.51l15.94-11.23-25.26,14.57c-.55.31-1.24.12-1.55-.42-.3-.53-.14-1.2.37-1.52l2.48-1.57-6.1,3.54c-.17.1-.37.15-.57.15h0Z"/>
  <path class="cls-2" d="m69.57,128.65c-.63,0-1.14-.51-1.14-1.14,0-.37.18-.72.49-.93l20.43-14.15-27.02,15.6c-.55.31-1.24.11-1.55-.44-.29-.52-.13-1.17.36-1.5l16.56-10.78-20.33,11.73c-.55.3-1.24.1-1.55-.45-.28-.51-.13-1.16.36-1.49l24.56-16.06-28.43,16.42c-.54.33-1.24.16-1.57-.38s-.16-1.24.38-1.57h0l23.8-15.27-26.76,15.44c-.55.3-1.24.1-1.54-.46-.28-.51-.12-1.15.36-1.48l30.84-19.95-33.86,19.55c-.54.31-1.22.13-1.54-.4-.32-.53-.16-1.22.36-1.55l24.67-15.6-26.66,15.4c-.55.31-1.24.12-1.55-.42-.3-.53-.14-1.2.37-1.52l30.31-19.28-32.31,18.66c-.54.32-1.24.15-1.56-.39s-.15-1.24.39-1.56l15.92-9.87-16.95,9.79c-.55.3-1.24.1-1.55-.45-.29-.52-.12-1.18.38-1.5l19.96-12.41-20.92,12.08c-.55.3-1.24.1-1.55-.45-.28-.52-.13-1.16.36-1.49l37.44-23.95-38.98,22.5c-.55.3-1.24.09-1.54-.47-.28-.52-.11-1.17.38-1.49l.88-.54-1.03.6c-.55.3-1.24.09-1.54-.46-.28-.52-.12-1.16.37-1.49l24.72-15.43-25.27,14.59c-.55.3-1.24.09-1.54-.47-.27-.51-.12-1.15.37-1.48l31.11-19.62-31.63,18.26c-.55.3-1.24.09-1.54-.46-.28-.52-.12-1.16.36-1.49l33.81-21.48-34.18,19.73c-.56.28-1.25.05-1.52-.52-.25-.5-.1-1.1.35-1.43l24.48-15.34-24.36,14.07c-.55.3-1.24.09-1.54-.46-.28-.52-.12-1.17.38-1.5l6.63-4.06-6.1,3.52c-.55.3-1.24.1-1.55-.45-.29-.53-.12-1.19.38-1.51l5.39-3.31-4.74,2.73c-.55.3-1.24.09-1.54-.47-.28-.52-.11-1.16.37-1.48l11.61-7.19-10.85,6.26c-.54.31-1.24.13-1.56-.42-.31-.53-.14-1.21.38-1.53l17.95-11.22-17.03,9.82c-.54.32-1.24.15-1.56-.39-.32-.54-.15-1.24.39-1.56l17.17-10.76-16.01,9.24c-.55.31-1.24.12-1.55-.43-.3-.52-.14-1.19.37-1.52l26.36-16.96-24.82,14.33c-.55.31-1.24.11-1.55-.44-.29-.52-.13-1.18.37-1.51l19.07-12.18-17.15,9.9c-.55.3-1.24.09-1.54-.46-.28-.52-.12-1.16.36-1.49l13.62-8.69-11.34,6.55c-.55.3-1.24.1-1.55-.45-.28-.51-.13-1.15.35-1.49l18.72-12.37-15.44,8.91c-.54.31-1.24.13-1.56-.42-.29-.51-.15-1.16.33-1.5l19.02-13.44-13.45,7.76c-.54.31-1.24.13-1.55-.42-.28-.49-.16-1.11.28-1.46l9.94-7.79c-.42,0-.81-.21-1.03-.57-.31-.54-.13-1.24.41-1.56l12.66-7.3c.55-.31,1.24-.12,1.55.43.27.49.16,1.1-.28,1.45l-9.19,7.22,21.03-12.14c.55-.3,1.24-.1,1.54.45.27.5.14,1.12-.32,1.46l-19.02,13.43,26.52-15.31c.55-.31,1.24-.11,1.55.44.29.52.13,1.17-.35,1.5l-18.72,12.38,23.23-13.41c.55-.31,1.24-.11,1.55.44.29.52.13,1.18-.37,1.51l-13.59,8.67,16.5-9.53c.54-.32,1.24-.14,1.56.41.31.53.15,1.21-.37,1.54l-19.09,12.19,21.93-12.66c.55-.3,1.24-.1,1.55.45.28.52.13,1.16-.36,1.49l-26.35,16.95,29.29-16.91c.55-.31,1.24-.11,1.55.44.29.52.13,1.19-.37,1.51l-17.21,10.79,19.03-10.99c.54-.31,1.24-.13,1.56.42.31.53.14,1.21-.38,1.53l-17.92,11.2,19.05-11c.55-.3,1.24-.09,1.54.46.28.52.12,1.17-.38,1.5l-11.64,7.2,12.44-7.18c.55-.3,1.24-.09,1.54.46.28.52.12,1.17-.38,1.5l-5.36,3.29,5.98-3.45c.55-.3,1.24-.09,1.54.46.28.52.12,1.17-.38,1.5l-6.66,4.1,7.32-4.22c.55-.3,1.24-.09,1.54.46.28.52.12,1.16-.37,1.49l-24.45,15.31,25.7-14.84c.54-.33,1.24-.16,1.56.38s.16,1.24-.38,1.56l-33.84,21.5,35.56-20.53c.54-.33,1.24-.15,1.56.39.33.54.15,1.24-.39,1.56l-31.11,19.62,32.25-18.62c.54-.31,1.24-.13,1.56.42.31.53.14,1.21-.38,1.53l-24.7,15.41,25.11-14.5c.55-.3,1.24-.1,1.55.45.29.53.12,1.19-.38,1.51l-.91.56.74-.43c.55-.3,1.24-.09,1.54.47.27.51.12,1.15-.36,1.48l-37.44,23.95,37.82-21.84c.54-.32,1.24-.15,1.56.39.32.54.15,1.24-.39,1.56l-19.94,12.4,19.68-11.36c.55-.3,1.24-.09,1.54.47.28.52.11,1.16-.37,1.48l-15.94,9.88,15.45-8.92c.55-.3,1.24-.09,1.54.46.28.52.12,1.16-.36,1.49l-30.29,19.26,29.75-17.17c.54-.33,1.24-.15,1.56.39.33.54.15,1.24-.39,1.56l-24.7,15.61,23.78-13.73c.55-.31,1.24-.11,1.55.44.29.52.13,1.17-.36,1.5l-30.83,19.94,29.55-17.06c.54-.33,1.24-.16,1.57.38s.16,1.24-.38,1.57h0l-23.81,15.28,22.1-12.75c.55-.3,1.24-.1,1.55.45.28.51.13,1.16-.36,1.49l-24.55,16.05,22.2-12.82c.55-.31,1.24-.11,1.55.44.29.52.13,1.17-.36,1.5l-16.56,10.77,13.74-7.93c.55-.31,1.24-.12,1.55.43.29.51.14,1.15-.34,1.49l-20.43,14.15,15.7-9.07c.54-.31,1.24-.13,1.56.42.29.51.15,1.16-.33,1.5l-11.05,7.84,4.51-2.6c.53-.34,1.23-.18,1.57.35.34.53.18,1.23-.35,1.57-.03.02-.05.03-.08.05l-25.61,14.78c-.55.31-1.24.11-1.55-.44-.28-.5-.14-1.13.32-1.47l11.05-7.83-18.65,10.76c-.17.1-.37.15-.57.15h0Z"/>
  <path class="cls-6" d="m67.97,117.28c-.63,0-1.14-.51-1.14-1.14,0-.36.18-.71.47-.92l17.47-12.66-23.7,13.68c-.54.32-1.24.14-1.56-.4-.31-.53-.15-1.2.36-1.54l15-10.02-18.37,10.6c-.55.31-1.24.11-1.55-.44-.29-.51-.14-1.16.35-1.49l19.58-13.06-22.65,13.08c-.55.31-1.24.11-1.55-.44-.29-.52-.13-1.17.36-1.5l14.6-9.42-16.51,9.53c-.54.31-1.24.13-1.56-.42-.31-.53-.14-1.21.38-1.53l2.21-1.38-3.16,1.82c-.55.3-1.24.1-1.55-.45-.29-.52-.13-1.17.37-1.5l8.63-5.45-9.65,5.56c-.54.31-1.24.13-1.56-.42-.31-.53-.14-1.21.38-1.53l2.5-1.57-3.12,1.8c-.54.33-1.24.16-1.57-.37-.33-.54-.16-1.24.37-1.57l24.74-16.14-26.15,15.11c-.55.3-1.24.1-1.55-.45-.29-.52-.13-1.17.37-1.5l14.19-8.99-14.74,8.51c-.55.31-1.24.11-1.55-.43-.3-.53-.13-1.2.38-1.52l.63-.39-.66.38c-.55.3-1.24.09-1.54-.46-.28-.52-.12-1.16.37-1.49l5.14-3.21-5.12,2.96c-.55.31-1.24.12-1.55-.43-.3-.52-.14-1.19.37-1.52l22.09-14.28-22.32,12.88c-.54.33-1.24.15-1.56-.39s-.15-1.24.39-1.56l11.84-7.49-11.55,6.67c-.54.32-1.24.14-1.56-.4-.31-.53-.15-1.2.36-1.54l27.27-18.15-27,15.6c-.55.3-1.24.1-1.55-.45-.28-.51-.13-1.15.35-1.49l24.2-16.06-23.35,13.48c-.54.32-1.24.13-1.56-.41-.31-.53-.14-1.2.37-1.53l16.55-10.79-15.22,8.78c-.54.32-1.24.13-1.56-.41-.3-.52-.15-1.18.35-1.52l18.16-12.13-16.22,9.36c-.55.31-1.24.12-1.55-.42-.29-.51-.15-1.16.33-1.5l18.22-12.68-15.15,8.73c-.55.31-1.24.12-1.55-.42-.29-.51-.15-1.15.32-1.49l11.9-8.46-7.44,4.29c-.55.31-1.24.11-1.55-.43-.27-.48-.16-1.1.28-1.44l7.49-5.92c-.3-.07-.56-.27-.71-.53-.31-.54-.13-1.24.42-1.56l10.97-6.33c.55-.31,1.24-.12,1.55.42.28.49.16,1.11-.28,1.46l-5.74,4.54,14.76-8.52c.55-.31,1.24-.12,1.55.42.29.51.15,1.15-.32,1.49l-11.91,8.47,17.53-10.12c.54-.32,1.24-.14,1.56.4.31.52.16,1.18-.34,1.52l-18.22,12.68,23.01-13.28c.54-.32,1.24-.14,1.56.4.31.53.15,1.2-.36,1.54l-18.14,12.13,21.37-12.34c.54-.33,1.24-.16,1.57.37.33.54.16,1.24-.37,1.57l-16.55,10.79,18.85-10.88c.55-.3,1.24-.1,1.55.45.28.51.13,1.15-.35,1.49l-24.2,16.06,26.38-15.23c.55-.3,1.24-.1,1.54.45.28.51.13,1.14-.34,1.48l-27.28,18.15,29.27-16.89c.54-.33,1.24-.15,1.56.38.33.54.15,1.24-.38,1.56l-11.84,7.49,12.75-7.36c.54-.33,1.24-.16,1.57.38s.16,1.24-.38,1.57l-22.09,14.28,23.55-13.59c.55-.3,1.24-.1,1.55.45.29.52.12,1.18-.38,1.5l-5.07,3.17,5.24-3.03c.55-.31,1.24-.11,1.55.43.3.53.13,1.2-.38,1.52l-.66.41.58-.35c.54-.33,1.24-.15,1.56.39.33.54.15,1.24-.39,1.56l-14.18,8.98,14.22-8.21c.54-.32,1.24-.13,1.56.41.31.53.14,1.2-.37,1.53l-24.74,16.15,24.86-14.35c.55-.3,1.24-.09,1.54.46.28.52.12,1.16-.37,1.49l-2.48,1.55,1.91-1.1c.55-.3,1.24-.1,1.55.45.29.52.13,1.17-.37,1.5l-8.63,5.44,7.93-4.57c.54-.32,1.24-.15,1.56.39.32.54.15,1.24-.39,1.56l-2.23,1.39,1.29-.74c.55-.31,1.24-.11,1.55.44.29.52.13,1.17-.36,1.5l-14.58,9.42,13.43-7.74c.55-.31,1.24-.11,1.55.44.29.51.14,1.16-.35,1.49l-19.6,13.07,17.91-10.34c.54-.32,1.24-.13,1.56.41.3.52.15,1.18-.35,1.52l-15,10.02,12.67-7.33c.55-.31,1.24-.12,1.55.42.29.5.15,1.15-.32,1.49l-17.47,12.65,13.25-7.65c.55-.31,1.24-.12,1.55.42.28.48.16,1.1-.27,1.45l-9.79,7.92,1.46-.84c.55-.31,1.24-.12,1.55.43.31.54.12,1.23-.41,1.55l-14.03,8.1c-.55.31-1.24.12-1.55-.42-.28-.48-.16-1.1.27-1.45l9.79-7.91-19.71,11.39c-.18.1-.38.15-.58.15h0Z"/>
  <path class="cls-2" d="m65.5,105.71c-.63,0-1.14-.51-1.14-1.14,0-.37.18-.71.47-.92l9.01-6.49-12.67,7.31c-.54.32-1.24.15-1.56-.39-.31-.51-.17-1.18.33-1.52l15.1-10.95-18.54,10.7c-.55.31-1.24.11-1.55-.43-.29-.51-.14-1.16.34-1.49l11.51-7.82-13.3,7.69c-.55.3-1.24.1-1.54-.45-.28-.51-.13-1.14.34-1.48l9.93-6.61-11.09,6.4c-.55.3-1.24.11-1.55-.44-.28-.51-.13-1.15.34-1.48l13.81-9.34-14.86,8.58c-.54.32-1.24.13-1.56-.41-.3-.52-.15-1.18.34-1.51l16.33-11.16-17.11,9.88c-.55.31-1.24.12-1.55-.43-.29-.52-.14-1.17.35-1.51l11.51-7.69-11.58,6.69c-.54.32-1.24.13-1.56-.41-.3-.52-.15-1.18.34-1.51l14.44-9.86-14.22,8.21c-.55.3-1.24.09-1.54-.46-.27-.5-.13-1.12.33-1.46l15.18-10.55-14.43,8.35c-.54.32-1.24.13-1.56-.41-.3-.52-.15-1.18.35-1.52l7.61-5.12-6.29,3.64c-.55.31-1.24.12-1.55-.43-.29-.51-.15-1.15.33-1.49l9.76-6.87-7.69,4.44c-.54.31-1.24.13-1.56-.42-.29-.51-.15-1.16.33-1.5l5.5-3.9-2.58,1.49c-.55.31-1.24.12-1.55-.43-.27-.47-.17-1.07.25-1.42l6.15-5.25c-.63-.06-1.08-.62-1.02-1.25.04-.36.25-.69.56-.87l9.17-5.3c.54-.32,1.24-.13,1.56.41.28.48.17,1.08-.25,1.44l-5.24,4.47,12.91-7.45c.54-.31,1.24-.13,1.56.42.29.51.15,1.16-.33,1.5l-5.5,3.9,8.88-5.13c.55-.31,1.24-.12,1.55.43.29.51.15,1.15-.33,1.49l-9.77,6.86,12.71-7.33c.55-.3,1.24-.11,1.55.44.28.51.13,1.15-.34,1.48l-7.58,5.11,9.31-5.37c.55-.31,1.24-.11,1.55.44.28.51.14,1.14-.33,1.48l-15.18,10.55,16.75-9.67c.55-.31,1.24-.11,1.55.44.28.51.14,1.15-.34,1.48l-14.44,9.86,15.86-9.15c.55-.31,1.24-.12,1.55.43.29.52.14,1.17-.35,1.51l-11.54,7.71,12.66-7.31c.55-.31,1.24-.12,1.55.42.29.51.15,1.16-.34,1.5l-16.33,11.16,17.08-9.86c.55-.3,1.24-.09,1.54.47.27.5.13,1.13-.34,1.46l-13.82,9.32,13.81-7.97c.55-.31,1.24-.12,1.55.43.29.52.14,1.17-.35,1.51l-9.92,6.6,9.41-5.43c.54-.32,1.24-.14,1.56.4.31.52.15,1.19-.35,1.53l-11.5,7.82,10.58-6.12c.55-.31,1.24-.12,1.55.42.29.5.15,1.15-.32,1.49l-15.1,10.94,13.35-7.7c.54-.32,1.24-.13,1.56.41.29.51.15,1.16-.32,1.5l-9.02,6.49,6.33-3.64c.55-.31,1.24-.11,1.55.44.27.49.15,1.1-.29,1.45l-5.94,4.59,1.22-.7c.53-.34,1.23-.18,1.57.35.34.53.18,1.23-.35,1.57-.03.02-.05.03-.08.05l-15.91,9.19c-.55.31-1.24.12-1.55-.42-.28-.49-.16-1.11.29-1.46l5.94-4.59-11.34,6.55c-.17.1-.37.16-.57.15h0Z"/>
  <path class="cls-6" d="m69.07,94.5c-.63,0-1.14-.51-1.14-1.14,0-.32.13-.62.36-.83l5.59-5.19-10.22,5.9c-.55.31-1.24.11-1.55-.43-.27-.48-.16-1.1.28-1.44l6.38-5.01-8.4,4.84c-.55.31-1.24.12-1.55-.43-.28-.5-.15-1.13.31-1.47l4.26-3.11-5.03,2.9c-.55.31-1.24.12-1.55-.43-.28-.49-.15-1.12.3-1.47l6.76-5.13-7.21,4.16c-.55.31-1.24.11-1.55-.44-.27-.48-.15-1.09.27-1.43l8.13-6.48-7.89,4.55c-.55.31-1.24.12-1.55-.42-.27-.48-.17-1.08.25-1.44l7.45-6.24-5.89,3.39c-.55.3-1.24.1-1.54-.46-.24-.44-.16-.97.18-1.33l4.31-4.33c-.44.03-.87-.19-1.1-.56-.31-.54-.13-1.24.42-1.56l6.69-3.87c.54-.31,1.24-.13,1.56.42.26.44.18,1.01-.18,1.37l-4.04,4.06,9.76-5.64c.54-.32,1.24-.13,1.56.41.28.48.17,1.09-.25,1.45l-7.45,6.24,9.77-5.64c.54-.32,1.24-.13,1.56.41.28.49.17,1.11-.28,1.46l-8.13,6.48,9.64-5.55c.54-.32,1.24-.13,1.56.41.29.5.16,1.13-.3,1.48l-6.77,5.14,7.71-4.45c.55-.31,1.24-.12,1.55.43.28.5.15,1.13-.31,1.47l-4.25,3.11,3.84-2.22c.55-.31,1.24-.11,1.55.43.27.48.16,1.1-.28,1.44l-6.36,5.01,5.2-3c.54-.32,1.24-.14,1.56.4.27.46.18,1.06-.21,1.42l-5.59,5.19,2.22-1.28c.53-.34,1.23-.18,1.57.35.34.53.18,1.23-.35,1.57-.03.02-.05.03-.08.05l-10.93,6.31c-.17.1-.37.16-.57.16h0Z"/>
  <path class="cls-4" d="m71.2,80.71c-.63,0-1.14-.51-1.14-1.14,0-.36.17-.7.46-.91l2.71-2.07-3.62,2.09c-.55.31-1.24.12-1.55-.43-.28-.5-.15-1.13.31-1.47l3.84-2.82-3.19,1.84c-.55.31-1.24.12-1.55-.42-.29-.5-.15-1.14.31-1.48l4.78-3.52c-.62-.09-1.05-.67-.95-1.3.04-.25.16-.48.35-.66l10.04-9.34c-.08-.47.14-.94.55-1.17l1.98-1.14c.54-.32,1.24-.13,1.56.41.27.46.18,1.05-.21,1.41l-5.05,4.72,6.52-3.76c.55-.31,1.24-.12,1.55.42.29.5.15,1.14-.31,1.48l-2.99,2.2,3.72-2.15c.55-.31,1.24-.12,1.55.43.28.5.15,1.13-.31,1.47l-3.85,2.82.54-.31c.54-.31,1.24-.13,1.56.42.29.5.16,1.13-.29,1.47l-7.35,5.63c.1.08.18.19.25.3.31.54.13,1.24-.41,1.56l-9.21,5.32c-.18.09-.37.13-.57.12h0Z"/>
  <path class="cls-1" d="m126.18,62.64c-.63,0-1.13-.52-1.13-1.15,0-.33.15-.65.4-.86l4.92-4.16-8.2,4.73c-.52.35-1.23.22-1.58-.3s-.22-1.23.3-1.58l6.35-4.92-8.68,5.01c-.54.32-1.24.13-1.56-.41-.28-.48-.17-1.1.26-1.45l10.52-8.63-14.03,8.11c-.54.31-1.24.13-1.56-.42-.29-.5-.16-1.14.31-1.49l7.09-5.21-9.32,5.38c-.53.34-1.23.19-1.58-.33-.34-.53-.19-1.23.33-1.58l8.43-6.21-10.86,6.27c-.54.33-1.24.16-1.57-.38-.32-.53-.17-1.21.35-1.55l1.72-1.17-2.39,1.38c-.55.31-1.24.12-1.55-.43-.28-.49-.15-1.12.3-1.47l10.91-8.24-12.56,7.24c-.55.31-1.24.12-1.55-.43-.28-.49-.15-1.11.29-1.46l11.28-8.58-13,7.51c-.55.31-1.24.11-1.55-.44-.28-.49-.15-1.11.3-1.46l9.77-7.24-11.02,6.38c-.55.31-1.24.12-1.55-.43-.28-.49-.15-1.12.3-1.47l10.76-8.13-11.26,6.5c-.55.31-1.24.12-1.55-.42-.29-.5-.15-1.14.31-1.48l8.43-6.23-8.73,5.04c-.55.31-1.24.12-1.55-.42-.28-.49-.16-1.12.29-1.47l9.71-7.46-10.18,5.87c-.54.32-1.24.14-1.56-.41-.29-.5-.17-1.13.29-1.48l8.84-6.81-9.24,5.31c-.55.31-1.24.12-1.55-.42-.28-.5-.16-1.13.3-1.47l6.73-5.07-6.94,4.01c-.54.32-1.24.13-1.56-.41-.29-.49-.16-1.13.29-1.47l7.35-5.69-6.87,3.96c-.55.31-1.24.11-1.55-.44-.27-.48-.15-1.08.27-1.43l6.47-5.19-2.94,1.7c-.54.32-1.24.13-1.56-.41-.28-.49-.17-1.11.27-1.46l6.29-5.11c-.31-.54-.13-1.24.41-1.55l5.29-3.06c.55-.31,1.24-.11,1.55.44.27.48.16,1.08-.26,1.43l-.72.59,3.47-2c.55-.31,1.24-.12,1.55.43.27.48.16,1.09-.27,1.44l-6.46,5.18,8.37-4.83c.54-.32,1.24-.14,1.56.41.29.5.17,1.13-.29,1.48l-7.35,5.69,8.67-5.01c.55-.31,1.24-.12,1.55.42.28.5.16,1.13-.3,1.47l-6.73,5.08,7.88-4.55c.54-.32,1.24-.14,1.56.41.29.5.17,1.13-.29,1.48l-8.85,6.82,10.32-5.96c.55-.31,1.24-.12,1.55.42.28.49.16,1.12-.29,1.47l-9.7,7.45,11.27-6.51c.55-.31,1.24-.12,1.55.42.29.5.15,1.14-.31,1.48l-8.43,6.23,9.71-5.61c.55-.31,1.24-.11,1.55.44.27.49.15,1.11-.29,1.45l-10.76,8.14,12.38-7.15c.55-.31,1.24-.12,1.55.43.28.5.15,1.13-.3,1.47l-9.77,7.24,11.19-6.47c.55-.31,1.24-.12,1.55.43.28.49.15,1.11-.29,1.46l-11.28,8.58,13-7.5c.55-.31,1.24-.11,1.55.44.27.49.15,1.11-.29,1.45l-10.92,8.25,12.56-7.25c.54-.32,1.24-.13,1.56.41.3.52.15,1.18-.34,1.51l-1.71,1.17,2.28-1.31c.55-.31,1.24-.12,1.55.42.29.5.15,1.14-.31,1.48l-8.41,6.21,9.69-5.58c.54-.31,1.24-.13,1.56.42.29.5.16,1.14-.31,1.49l-7.1,5.23,8.2-4.73c.54-.32,1.24-.13,1.56.41.28.48.17,1.1-.26,1.45l-10.52,8.63,11.16-6.44c.55-.31,1.24-.12,1.55.42.28.49.16,1.11-.29,1.46l-6.35,4.92,4.65-2.68c.54-.32,1.24-.14,1.56.4.28.48.18,1.1-.25,1.46l-7.23,6.12c.19.1.35.25.46.43.31.54.13,1.24-.41,1.55l-7.58,4.36c-.17.1-.37.15-.57.15h0Z"/>
  <path class="cls-5" d="m89.02,67.92c-.63,0-1.14-.51-1.14-1.14,0-.34.15-.66.41-.87l2.96-2.48-3.92,2.28c-.55.31-1.24.12-1.55-.42-.29-.5-.15-1.15.32-1.49l5.47-3.96-6.41,3.69c-.55.31-1.24.12-1.55-.42-.29-.51-.15-1.16.34-1.5l11.04-7.6-12.27,7.08c-.55.3-1.24.1-1.55-.45-.28-.52-.13-1.16.36-1.49l1.46-.93-1.01.58c-.55.3-1.24.09-1.54-.47-.27-.51-.12-1.15.36-1.48l10.93-7.01-2.93,1.69c-.56.29-1.24.08-1.54-.47-.27-.51-.11-1.14.36-1.47l7.13-4.52c-.63-.05-1.09-.6-1.04-1.23.03-.34.21-.65.5-.85l16.29-11.03-5.03,2.91c-.55.31-1.24.11-1.55-.44-.28-.51-.14-1.14.33-1.48l9.53-6.64c-.62.11-1.21-.31-1.31-.93-.07-.39.07-.79.37-1.05l11.75-10.29s-.08-.1-.11-.16c-.31-.54-.13-1.24.42-1.56l4.94-2.85c.55-.31,1.24-.12,1.55.42.27.47.17,1.06-.24,1.42l-8.08,7.08,12.23-7.06c.55-.3,1.24-.09,1.54.46.27.5.13,1.12-.33,1.46l-8.84,6.15,9.32-5.38c.54-.32,1.24-.14,1.56.4.31.52.15,1.19-.35,1.53l-16.31,11.05,15.13-8.74c.55-.3,1.24-.09,1.54.46.28.52.12,1.16-.36,1.49l-4.84,3.07c.44-.06.88.15,1.11.54.33.53.17,1.23-.35,1.56l-10.89,6.99,1.85-1.07c.54-.32,1.24-.14,1.56.41.31.53.15,1.21-.37,1.54l-6.82,4.36c.3.06.57.25.73.51.32.52.18,1.2-.32,1.54l-11.05,7.58.7-.41c.55-.31,1.24-.12,1.55.42.29.5.15,1.15-.32,1.49l-8.43,6.1c.6.19.93.83.74,1.43-.07.21-.19.39-.36.53l-7.76,6.53.03.04c.31.54.13,1.24-.42,1.56l-4.94,2.85c-.17.1-.37.15-.57.15h0Z"/>
  <path class="cls-3" d="m139.21,19.37c1.34-3.94-.77-8.22-4.71-9.56-.42-.14-.85-.25-1.29-.32-6.64-1.06-10.14,4.92-14.4,8.74-6.13-5.92-13.29-16.7-22.68-9.83-3.83,3.93-9.72,7.58-10.9,13.21C10.11,2.85-24.77,108.24,47.73,136.75c45.06,17.58,94.41-28.64,79.01-74.72,5.59-.6,9.29-5.76,13-9.47,9.47-8.7-4.19-16.78-9.66-23.04,2.99-3.41,7.1-6.04,9.13-10.15h0Zm-47.45-4.12c11.26-14.84,15.21-3.72,24.94,5.09l-20,20c-2.64-7.8-13.35-17.77-4.94-25.09Zm-13.91,72.92c-10.05,12.9-28.29-4.78-18.74-16.6,3.03-4.22,8.6-5.72,13.34-3.61-2.73,2.86-7.97,6.48-4.73,10.8-5.89,4.58-1.67,6.54,2.16,1.57,3.95,1.59,7.62-1.11,10.05-4.02,1.25,4.06.48,8.47-2.07,11.87h0Zm1.75-14.45c-2.54,1.82-5.43,8.08-8.64,4.03-3.52-6.6,7.38-11,10.53-15.89,1.58,1.72,3.4,3.3,5.05,4.93l-6.94,6.94Zm.11-14.78c.04.47.2.92.46,1.32-1.98,1.98-3.98,3.95-5.97,5.92-18.03-6.2-30.46,20.49-11.04,27.38,11.61,3.99,25.01-8.07,19.41-19.9l5.79-5.77c.12.04.23.07.35.09,10.09,16.46-4.88,39.85-24.3,35.38-34.29-8.55-17.42-60.94,15.31-44.42Zm1.63-3.23c-.23.23-.44.47-.64.71-33.61-15.26-56.41,35.63-20.57,48.27,21.63,7.37,43.52-17.18,31.92-37.47,2.16-1.73,4.18-3.63,6.03-5.69,24.56,45.24-42.48,78.31-62.23,30.05-11.59-30.56,23.47-60.47,51.19-41.57-1.89,1.9-3.81,3.79-5.7,5.7h0Zm7.59-7.59C40.69,21.78,3.43,95.35,56.4,115.26c32.67,10.7,63.81-26.74,44.06-56.11l5.39-5.39,1.19.59c34.48,60-55.14,105.49-81.95,40.96C9.9,55.03,56.38,15.83,92.9,40.24c.43.87.87,1.73,1.3,2.6-1.76,1.76-3.52,3.52-5.28,5.28h0Zm20.85,72.22c-27.77,30.32-82.01,18.36-95.13-20.4C-2.85,57.02,41.27,9.43,85.36,24.52c1.64,4.02,3.5,7.95,5.57,11.77C27.86,8.61-13.1,101.08,52.66,126.04c40.47,13.74,80.57-30.84,59.73-69.01,3.58,1.59,6.97,3.99,10.78,4.91,6.57,20.45,1.43,42.85-13.4,58.39h0Zm25-81.9c4.34,3.19,7.06,9.26,2.78,13.68-3.47,2.85-6.38,8.58-11.17,8.79-.45-.66-1.3-.91-2.03-.59-5.61-2.69-11.16-5.56-16.73-8.31l20.36-20.36,6.8,6.8Zm-.62-16.21c-14.42,14.73-29.31,29.17-43.79,43.78-.05,0-.1,0-.15.01-11.4-9.43-6.29-9.3,2-17.93,11.72-11.68,23.37-23.45,35.11-35.11,5.88-5.39,12.4,4.72,6.84,9.24h0Z"/>
</svg>