<?xml version="1.0" encoding="UTF-8"?>
<svg id="Layer_1_copy" data-name="Layer 1 copy" xmlns="http://www.w3.org/2000/svg" viewBox="0 0 150 150">
  <defs>
    <style>
      .cls-1 {
        fill: #bd7d37;
      }

      .cls-2 {
        fill: #66728e;
      }

      .cls-3 {
        fill: #fffbce;
      }

      .cls-4 {
        fill: gold;
      }

      .cls-5 {
        fill: #494223;
      }
    </style>
  </defs>
  <path class="cls-1" d="m131.62,141.05c-.63,0-1.14-.51-1.14-1.14,0-.29.11-.56.3-.77l4.55-4.94-8.11,4.68c-.55.31-1.24.12-1.55-.42-.28-.49-.16-1.11.28-1.46l1.39-1.09-1.96,1.14c-.55.31-1.24.11-1.55-.44-.26-.47-.16-1.06.25-1.42l3.81-3.21-4.8,2.77c-.55.3-1.24.1-1.55-.45-.25-.45-.16-1.02.21-1.37l5.24-4.75-6.67,3.84c-.55.31-1.24.12-1.55-.43-.27-.49-.16-1.1.28-1.45l1.33-1.04-1.89,1.09c-.55.3-1.24.1-1.55-.45-.25-.45-.16-1.02.21-1.37l5.29-4.8-6.72,3.87c-.54.32-1.24.14-1.56-.4-.29-.49-.17-1.13.28-1.48l2.26-1.82-2.96,1.71c-.54.32-1.24.15-1.56-.39-.28-.47-.19-1.06.21-1.43l5.75-5.38-7.36,4.25c-.55.31-1.24.12-1.55-.43-.27-.47-.17-1.06.24-1.42l4.29-3.67-5.41,3.12c-.55.31-1.24.12-1.55-.43-.25-.45-.18-1.01.19-1.37l10.41-10.25c-.13-.5.09-1.02.53-1.28l1.97-1.14c.55-.31,1.24-.12,1.55.43.25.45.18,1.01-.19,1.37l-6.33,6.24,8.24-4.76c.55-.31,1.24-.12,1.55.43.27.47.17,1.06-.24,1.42l-4.29,3.69,5.4-3.12c.54-.32,1.24-.15,1.56.39.28.47.19,1.06-.21,1.43l-5.75,5.38,7.36-4.25c.55-.31,1.24-.12,1.55.43.27.48.16,1.1-.27,1.45l-2.26,1.81,2.96-1.7c.55-.3,1.24-.1,1.55.45.25.45.16,1.02-.21,1.37l-5.29,4.8,6.71-3.87c.55-.31,1.24-.12,1.55.43.27.49.16,1.1-.28,1.45l-1.34,1.05,1.9-1.09c.55-.3,1.24-.1,1.55.45.25.45.16,1.02-.21,1.37l-5.25,4.75,6.66-3.84c.55-.31,1.24-.12,1.55.42.27.48.17,1.08-.25,1.43l-3.8,3.2,4.58-2.64c.55-.31,1.24-.11,1.55.43.27.48.16,1.1-.28,1.44l-1.39,1.09.84-.48c.54-.32,1.24-.13,1.56.41.25.43.19.98-.15,1.34l-5.4,5.86c.6.19.93.83.74,1.43-.09.27-.27.5-.51.64l-4.7,2.72c-.17.11-.38.17-.58.17h0Z"/>
  <path class="cls-3" d="m69.06,131.93c-.63,0-1.14-.51-1.14-1.14,0-.38.19-.74.51-.95l25.09-16.45-30.85,17.81c-.54.32-1.24.15-1.56-.39s-.15-1.24.39-1.56h0l2.08-1.28-4.55,2.63c-.55.3-1.24.09-1.54-.47-.27-.51-.12-1.15.36-1.48l30.7-19.68-35.04,20.23c-.55.3-1.24.09-1.54-.46-.28-.52-.12-1.16.36-1.49l35.05-22.35-38.97,22.5c-.55.31-1.24.12-1.55-.42-.3-.53-.14-1.2.37-1.52l39.59-25.19-43.23,24.95c-.54.33-1.24.15-1.56-.39s-.15-1.24.39-1.56l38.33-24.1-41.22,23.8c-.54.31-1.24.13-1.56-.42-.31-.53-.14-1.21.38-1.53l37.99-23.76-40.43,23.34c-.54.32-1.24.15-1.56-.39-.32-.54-.15-1.24.39-1.56h0l44.5-27.96-46.99,27.13c-.55.3-1.24.09-1.54-.46-.28-.52-.12-1.16.37-1.49l43.23-27.01-45.25,26.11c-.55.3-1.24.1-1.54-.46-.29-.52-.12-1.18.39-1.5l5.96-3.61-6.59,3.8c-.55.3-1.24.1-1.55-.45-.29-.52-.12-1.18.38-1.5l42.19-26.21-43.69,25.23c-.55.3-1.24.09-1.54-.46-.28-.52-.12-1.16.37-1.49l49.81-31.22-51.41,29.68c-.56.29-1.25.07-1.54-.48-.27-.51-.11-1.14.37-1.47l39.83-24.63-40.76,23.53c-.55.3-1.24.1-1.54-.46-.29-.52-.12-1.18.39-1.5l14.68-8.9-14.91,8.61c-.55.3-1.24.1-1.55-.45-.29-.53-.12-1.19.38-1.51l30.59-18.74-30.97,17.89c-.54.32-1.24.15-1.56-.39-.32-.54-.15-1.24.39-1.56l50.31-31.51-51.05,29.46c-.55.3-1.24.1-1.54-.46-.29-.52-.12-1.18.39-1.5l12.66-7.67-12.48,7.2c-.54.32-1.24.15-1.56-.4s-.15-1.24.4-1.56l33.98-20.92-33.96,19.6c-.55.31-1.24.11-1.55-.43-.3-.53-.13-1.2.38-1.52l36.94-22.83-36.77,21.23c-.55.3-1.24.09-1.54-.46-.28-.52-.12-1.17.38-1.5l27.63-16.96-27.2,15.69c-.56.29-1.24.08-1.54-.48-.27-.51-.11-1.15.37-1.47l41.82-26.12-41.31,23.85c-.55.31-1.24.12-1.55-.43-.3-.53-.13-1.21.39-1.53l8.16-4.96-7.27,4.2c-.55.31-1.24.12-1.55-.43-.3-.53-.13-1.21.39-1.53l8.38-5.1-7.38,4.26c-.55.3-1.24.1-1.55-.45-.29-.52-.13-1.17.37-1.5l40.49-25.54-39.29,22.68c-.54.33-1.24.16-1.56-.38-.33-.54-.16-1.24.38-1.56l41.35-26.38L10.44,62.23c-.54.31-1.24.13-1.56-.42-.31-.53-.14-1.21.38-1.53l26.12-16.36-24.23,13.99c-.55.3-1.24.1-1.55-.45-.29-.52-.12-1.18.38-1.5l16.19-10.06-14.06,8.12c-.55.31-1.24.12-1.55-.43-.3-.52-.14-1.19.37-1.52l28.28-18.16-25.29,14.6c-.55.3-1.24.1-1.55-.45-.29-.52-.13-1.17.37-1.5l13.01-8.2-9.96,5.74c-.55.31-1.24.12-1.55-.43-.3-.52-.14-1.18.36-1.51l19.79-12.98-15.27,8.83c-.55.3-1.24.1-1.55-.45-.28-.51-.13-1.16.36-1.49l9.37-6.14-4.21,2.43c-.55.31-1.24.12-1.55-.42-.28-.5-.16-1.13.3-1.47l11.26-8.47c-.63-.02-1.12-.55-1.1-1.18.01-.39.23-.75.57-.95l14.44-8.34c.55-.31,1.24-.12,1.55.42.28.5.16,1.13-.3,1.47l-10.12,7.61,23.21-13.4c.55-.3,1.24-.1,1.55.45.28.51.13,1.16-.36,1.49l-9.38,6.15,15.01-8.67c.55-.31,1.24-.12,1.55.43.3.52.14,1.18-.36,1.51l-19.81,12.98,25.55-14.75c.55-.31,1.24-.11,1.55.44.29.52.13,1.19-.37,1.51l-13.03,8.22,16.64-9.61c.54-.33,1.24-.16,1.57.38.33.54.16,1.24-.38,1.57l-28.26,18.14,32.75-18.9c.55-.31,1.24-.11,1.55.43.3.53.13,1.2-.38,1.52l-16.19,10.05,18.84-10.88c.54-.32,1.24-.15,1.56.39.32.54.15,1.24-.39,1.56l-26.12,16.35,29.06-16.78c.55-.31,1.24-.12,1.55.42.3.53.14,1.2-.37,1.52l-41.35,26.38,45.1-26.03c.55-.3,1.24-.1,1.55.45.29.52.13,1.17-.37,1.5l-40.46,25.52,43.46-25.09c.55-.3,1.24-.09,1.54.47.28.52.11,1.17-.38,1.49l-8.49,5.16,9.68-5.58c.55-.31,1.24-.12,1.55.43.3.53.13,1.21-.39,1.53l-8.2,4.99,9.26-5.34c.56-.29,1.24-.08,1.54.48.27.51.11,1.15-.37,1.47l-41.8,26.11,43.94-25.36c.54-.32,1.24-.15,1.56.4s.15,1.24-.4,1.56h0l-27.59,16.93,28.86-16.66c.55-.31,1.24-.11,1.55.43.3.53.13,1.2-.38,1.52l-36.93,22.83,38.34-22.14c.55-.3,1.24-.09,1.54.46.28.52.12,1.17-.38,1.5l-33.97,20.92,35.07-20.25c.54-.32,1.24-.14,1.56.4.32.54.14,1.24-.4,1.56h0l-12.67,7.68,13.13-7.58c.55-.31,1.24-.11,1.55.44.29.52.13,1.19-.37,1.51l-50.31,31.52,51.64-29.82c.54-.32,1.24-.15,1.56.4.32.54.15,1.24-.4,1.56l-30.6,18.75,31.1-17.95c.55-.3,1.24-.1,1.54.46.29.52.12,1.18-.39,1.5l-14.63,8.86,14.73-8.5c.55-.3,1.24-.09,1.54.47.28.52.11,1.16-.37,1.48l-39.83,24.63,40.25-23.24c.54-.32,1.24-.15,1.56.39.32.54.15,1.24-.39,1.56l-49.82,31.23,50.29-29.04c.55-.3,1.24-.1,1.55.45.29.52.12,1.18-.38,1.5l-42.18,26.21,42.21-24.37c.55-.3,1.24-.1,1.54.46.29.52.12,1.18-.39,1.5l-5.99,3.62,5.47-3.15c.55-.3,1.24-.1,1.55.45.29.52.12,1.18-.38,1.5l-43.23,27,42.9-24.76c.55-.3,1.24-.09,1.54.46.28.52.12,1.16-.37,1.49l-44.52,27.98,43.93-25.36c.55-.3,1.24-.09,1.54.46.28.52.12,1.16-.37,1.49l-37.99,23.75,37.05-21.39c.54-.33,1.24-.15,1.56.39.33.54.15,1.24-.39,1.56h0l-38.31,24.1,37.06-21.4c.55-.31,1.24-.12,1.55.42.3.53.14,1.2-.37,1.52l-39.61,25.2,37.9-21.88c.55-.31,1.24-.11,1.55.44.29.52.13,1.18-.37,1.51l-35.03,22.35,32.86-18.97c.55-.3,1.24-.09,1.54.47.27.51.12,1.15-.36,1.48l-30.71,19.69,27.98-16.15c.54-.32,1.24-.15,1.56.39s.15,1.24-.39,1.56l-2.32,1.43c.58-.25,1.25.01,1.5.59.22.51.04,1.1-.42,1.41l-25.08,16.43,20.95-12.09c.55-.31,1.24-.12,1.55.43.29.52.14,1.17-.35,1.51l-17.49,11.59,12.23-7.06c.55-.31,1.24-.12,1.55.42.28.5.16,1.13-.3,1.47l-14.6,10.98,3.27-1.89c.53-.34,1.23-.18,1.57.35.34.53.18,1.23-.35,1.57-.03.02-.05.03-.08.05l-19.52,11.28c-.55.31-1.24.12-1.55-.42-.28-.5-.16-1.13.3-1.47l14.6-10.98-27.83,16.07c-.55.31-1.24.12-1.55-.43-.29-.52-.14-1.17.35-1.51l17.48-11.59-23.85,13.77c-.17.1-.37.15-.57.15h0Z"/>
  <path class="cls-2" d="m74.57,122.71c-.63,0-1.14-.51-1.14-1.14,0-.37.18-.72.49-.93l20.3-14.01-27.5,15.88c-.55.3-1.24.1-1.55-.45-.29-.52-.13-1.17.37-1.5l7.5-4.76-10.65,6.15c-.55.3-1.24.1-1.55-.45-.28-.51-.13-1.16.36-1.49l23.5-15.27-27.7,15.99c-.55.3-1.24.1-1.55-.45-.28-.52-.13-1.16.36-1.49l24.86-15.94-28.3,16.34c-.55.31-1.24.11-1.55-.44-.29-.52-.13-1.18.37-1.51l29.43-18.85-32.65,18.85c-.55.3-1.24.09-1.54-.46-.28-.52-.12-1.17.38-1.5l2.68-1.64-3.97,2.29c-.54.33-1.24.15-1.56-.39-.33-.54-.15-1.24.39-1.56l28.66-18.08-30.94,17.86c-.54.33-1.24.15-1.56-.39s-.15-1.24.39-1.56l33.35-21.09-35.59,20.55c-.55.3-1.24.1-1.55-.45-.29-.52-.12-1.18.38-1.5l22-13.64-23.32,13.46c-.55.3-1.24.09-1.54-.47-.28-.52-.11-1.17.38-1.49l10.25-6.27-11.03,6.38c-.55.3-1.24.1-1.55-.45-.29-.53-.12-1.19.38-1.51l11.04-6.76-11.73,6.77c-.54.32-1.24.15-1.56-.4-.32-.54-.15-1.24.4-1.56l22.07-13.63-22.9,13.21c-.55.3-1.24.09-1.54-.47-.27-.51-.12-1.15.37-1.48l37.4-23.53-38.57,22.27c-.55.3-1.24.09-1.54-.46-.28-.52-.12-1.17.38-1.5l17.94-11.02-18.31,10.57c-.55.31-1.24.12-1.55-.43-.3-.53-.13-1.21.39-1.53l9.09-5.54-9.18,5.3c-.54.32-1.24.14-1.56-.4-.32-.54-.14-1.24.4-1.56l13.71-8.39-13.77,7.95c-.56.29-1.24.08-1.54-.48-.27-.51-.11-1.15.37-1.47l32.07-20.01-32.32,18.65c-.55.3-1.24.09-1.54-.47-.28-.52-.11-1.16.37-1.48l24.46-15.15-24.38,14.07c-.55.3-1.24.09-1.54-.46-.28-.52-.12-1.17.38-1.5l14.71-9.03-14.35,8.28c-.55.3-1.24.1-1.55-.45-.29-.52-.12-1.18.38-1.5l26.7-16.62-26.28,15.18c-.55.3-1.24.09-1.54-.47-.27-.51-.12-1.15.37-1.48l31.33-19.7-30.74,17.76c-.55.3-1.24.1-1.55-.45-.29-.52-.13-1.17.37-1.5l30-18.9-29.15,16.8c-.54.32-1.24.14-1.56-.41-.31-.53-.14-1.21.37-1.54l33.37-21.32-32.16,18.57c-.55.3-1.24.1-1.54-.46-.28-.51-.12-1.15.36-1.48l32.19-20.75-30.49,17.6c-.55.3-1.24.1-1.55-.45-.28-.51-.13-1.16.36-1.49l31.09-20.34-28.71,16.59c-.54.32-1.24.14-1.56-.4-.31-.53-.15-1.2.36-1.54l28.04-18.69-24.69,14.25c-.55.3-1.24.1-1.54-.46-.28-.51-.13-1.15.35-1.48l15.44-10.11-11.72,6.77c-.54.32-1.24.13-1.56-.41-.3-.52-.15-1.19.36-1.52l10.05-6.68-5.36,3.1c-.55.31-1.24.12-1.55-.43-.28-.49-.16-1.11.28-1.46l10.67-8.27c-.43.02-.84-.19-1.07-.57-.31-.54-.13-1.24.41-1.56l13.23-7.65c.55-.31,1.24-.11,1.55.44.27.49.15,1.1-.28,1.44l-10.02,7.78,22.64-13.06c.55-.3,1.24-.1,1.55.45.28.51.13,1.15-.35,1.49l-10.08,6.68,15.34-8.86c.55-.31,1.24-.12,1.55.43.3.52.14,1.18-.36,1.51l-15.44,10.11,20.08-11.6c.55-.3,1.24-.1,1.54.45.28.51.13,1.14-.34,1.48l-28.03,18.69,33.45-19.31c.56-.3,1.24-.08,1.54.47.27.51.12,1.13-.35,1.46l-31.08,20.34,35.42-20.45c.56-.29,1.24-.08,1.54.47.27.51.12,1.14-.35,1.47l-32.23,20.77,35.7-20.61c.55-.31,1.24-.11,1.55.44.29.52.13,1.18-.37,1.51l-33.33,21.3,36.24-20.93c.54-.33,1.24-.15,1.56.39.33.54.15,1.24-.39,1.56l-30,18.9,32.15-18.56c.55-.3,1.24-.1,1.55.45.29.52.13,1.17-.37,1.5l-31.36,19.72,33.25-19.2c.54-.31,1.24-.13,1.56.42.31.53.14,1.21-.38,1.53l-26.66,16.6,28.05-16.19c.55-.3,1.24-.09,1.54.46.28.52.12,1.17-.38,1.5l-14.75,9.06,15.54-8.97c.55-.3,1.24-.09,1.54.47.28.52.11,1.16-.37,1.48l-24.45,15.13,25.37-14.64c.56-.29,1.24-.08,1.54.48.27.51.11,1.15-.37,1.47l-32.06,20.02,33.03-19.07c.54-.32,1.24-.14,1.56.4.32.54.14,1.24-.4,1.56l-13.66,8.36,13.98-8.07c.55-.3,1.24-.1,1.55.45.29.53.12,1.19-.38,1.51l-9.13,5.57,9.26-5.34c.56-.29,1.24-.08,1.54.48.27.52.11,1.15-.37,1.48l-17.99,11.05,18.13-10.47c.55-.3,1.24-.09,1.54.47.27.51.12,1.15-.37,1.48l-37.39,23.54,37.8-21.83c.54-.32,1.24-.15,1.56.39.32.54.15,1.24-.39,1.56l-22.04,13.61,21.92-12.65c.55-.3,1.24-.1,1.55.45.29.53.12,1.19-.38,1.51l-11.08,6.78,10.68-6.17c.55-.3,1.24-.1,1.55.45.29.53.12,1.19-.38,1.51l-10.29,6.3,9.78-5.64c.55-.3,1.24-.1,1.55.45.29.52.12,1.18-.38,1.5l-21.95,13.61,21.37-12.34c.54-.33,1.24-.15,1.56.39.33.54.15,1.24-.39,1.56h0l-33.35,21.09,32.62-18.83c.55-.3,1.24-.1,1.55.45.29.52.13,1.17-.37,1.5l-28.66,18.08,27.62-15.94c.55-.3,1.24-.09,1.54.46.28.52.12,1.17-.38,1.5l-2.68,1.64,1.41-.82c.55-.31,1.24-.11,1.55.44.29.52.13,1.18-.37,1.51l-29.44,18.85,27.76-16.02c.54-.32,1.24-.14,1.56.41.31.53.15,1.21-.37,1.54l-24.86,15.94,22.71-13.11c.55-.3,1.24-.1,1.55.45.28.51.13,1.16-.36,1.49l-23.5,15.28,20.69-11.94c.55-.31,1.24-.12,1.55.42.3.53.14,1.2-.37,1.52l-7.51,4.76,4.62-2.67c.55-.31,1.24-.11,1.55.44.28.51.14,1.14-.33,1.48l-20.3,14.01,14.91-8.61c.54-.32,1.24-.14,1.56.41.3.51.16,1.17-.33,1.51l-10.37,7.41,2.68-1.53c.55-.31,1.24-.12,1.55.43.31.54.12,1.23-.41,1.55l-23,13.27c-.54.32-1.24.14-1.56-.41-.3-.51-.16-1.17.33-1.51l10.36-7.4-19.07,11.01c-.17.09-.36.14-.56.14h0Z"/>
  <path class="cls-4" d="m70.14,113.75c-.63,0-1.14-.51-1.14-1.14,0-.38.19-.74.51-.95l6.56-4.3-10.22,5.9c-.55.31-1.24.12-1.55-.43-.29-.51-.14-1.17.35-1.5l20.81-14.08-25.64,14.8c-.54.33-1.24.16-1.57-.38s-.16-1.24.38-1.57l13.71-8.8-16.42,9.47c-.55.3-1.24.1-1.55-.45-.29-.52-.13-1.17.37-1.5l7.3-4.59-9.12,5.27c-.54.33-1.24.16-1.57-.37-.33-.54-.16-1.24.37-1.57h0l26.97-17.62-29.96,17.31c-.55.31-1.24.12-1.55-.42-.3-.53-.14-1.2.37-1.52l17.61-11.13-19.31,11.16c-.54.32-1.24.15-1.56-.39s-.15-1.24.39-1.56l5.04-3.12-5.96,3.43c-.55.3-1.24.1-1.55-.45-.29-.52-.12-1.18.38-1.5l10.89-6.78-11.84,6.83c-.54.32-1.24.15-1.56-.39-.32-.54-.15-1.24.39-1.56h0l18.75-11.77-19.83,11.45c-.54.32-1.24.14-1.56-.41-.31-.53-.14-1.21.37-1.54l30.82-19.77-32.23,18.61c-.55.31-1.24.12-1.55-.42-.3-.53-.14-1.2.37-1.52l28.35-18.05-29.31,16.92c-.55.31-1.24.11-1.55-.44-.29-.52-.13-1.18.37-1.51l27.68-17.58-28.3,16.33c-.54.33-1.24.15-1.56-.39s-.15-1.24.39-1.56l22.32-14.05-22.54,13.02c-.55.31-1.24.11-1.55-.44-.29-.52-.13-1.19.37-1.51l18.72-11.73-18.64,10.76c-.55.31-1.24.11-1.55-.44-.29-.52-.13-1.18.37-1.51l29.17-18.69-29.1,16.8c-.55.31-1.24.11-1.55-.44-.29-.52-.13-1.19.37-1.51l16.25-10.19-15.68,9.05c-.55.3-1.24.09-1.54-.46-.28-.52-.12-1.17.38-1.5l.74-.46c-.57.26-1.25,0-1.5-.58-.23-.52-.04-1.13.44-1.43l13.16-8.25-12.18,7.02c-.55.31-1.24.11-1.55-.44-.29-.52-.13-1.19.37-1.51l8.55-5.35-7.37,4.25c-.55.3-1.24.1-1.55-.45-.29-.52-.13-1.17.37-1.5l9.6-6.03-8.17,4.71c-.55.31-1.24.12-1.55-.43-.3-.52-.14-1.18.36-1.51l22.05-14.47-20.01,11.55c-.55.31-1.24.11-1.55-.44-.29-.51-.14-1.16.35-1.49l20.83-13.96-17.88,10.32c-.54.33-1.24.16-1.57-.38s-.16-1.24.38-1.57h0l2.81-1.8c-.55.3-1.24.1-1.55-.45-.29-.52-.13-1.17.37-1.5l6.56-4.4-2.52,1.46c-.55.31-1.24.12-1.55-.43-.28-.49-.16-1.1.28-1.45l9.21-7.3c-.63,0-1.14-.51-1.13-1.14,0-.41.22-.78.57-.98l12.01-6.93c.55-.31,1.24-.12,1.55.43.28.49.16,1.1-.28,1.45l-8.38,6.64,19.42-11.21c.54-.32,1.24-.14,1.56.4.31.53.15,1.2-.36,1.54l-6.57,4.39,10.99-6.35c.55-.31,1.24-.12,1.55.43.3.52.14,1.19-.37,1.52l-2.8,1.8,5.69-3.29c.55-.31,1.24-.11,1.55.44.29.51.14,1.16-.35,1.49l-20.8,13.96,25.3-14.61c.55-.31,1.24-.12,1.55.43.3.52.14,1.18-.36,1.51l-22.07,14.48,25.52-14.73c.55-.3,1.24-.1,1.55.45.29.52.13,1.17-.37,1.5l-9.55,6.01,11.33-6.54c.55-.31,1.24-.11,1.55.44.29.52.13,1.19-.37,1.51l-8.54,5.34,10.02-5.78c.55-.31,1.24-.11,1.55.44.29.52.13,1.19-.37,1.51l-13.18,8.27,14.64-8.45c.54-.32,1.24-.15,1.56.39.32.54.15,1.24-.39,1.56h0l-.49.3,1.29-.74c.54-.32,1.24-.15,1.56.39.32.54.15,1.24-.39,1.56l-16.26,10.2,17.44-10.07c.55-.31,1.24-.11,1.55.44.29.52.13,1.18-.37,1.51l-29.16,18.69,30.77-17.76c.54-.32,1.24-.15,1.56.39.32.54.15,1.24-.39,1.56l-18.75,11.75,19.55-11.28c.55-.3,1.24-.09,1.54.47.27.51.12,1.15-.37,1.48l-22.32,14.05,23.05-13.31c.55-.31,1.24-.12,1.55.42.3.53.14,1.2-.37,1.52l-27.66,17.57,28.32-16.35c.55-.31,1.24-.11,1.55.44.29.52.13,1.18-.37,1.51l-28.36,18.06,28.81-16.62c.54-.32,1.24-.14,1.56.41.31.53.15,1.21-.37,1.54l-30.82,19.76,31.03-17.91c.54-.32,1.24-.15,1.56.39.32.54.15,1.24-.39,1.56l-18.75,11.77,18.44-10.65c.55-.3,1.24-.1,1.55.45.29.52.12,1.18-.38,1.5l-10.89,6.77,10.28-5.93c.54-.32,1.24-.15,1.56.39.32.54.15,1.24-.39,1.56h0l-5.05,3.13,4.24-2.45c.55-.31,1.24-.12,1.55.42.3.53.14,1.2-.37,1.52l-17.61,11.13,16.65-9.61c.54-.32,1.24-.13,1.56.41.31.53.14,1.2-.37,1.53l-26.94,17.61,25.62-14.79c.55-.3,1.24-.09,1.54.47.27.51.12,1.15-.37,1.48l-7.34,4.62,5.78-3.34c.55-.3,1.24-.1,1.55.45.28.52.13,1.16-.36,1.49l-13.71,8.81,11.68-6.75c.55-.31,1.24-.11,1.55.43.29.51.14,1.16-.34,1.49l-20.81,14.08,17.65-10.19c.55-.31,1.24-.12,1.55.43.3.52.14,1.18-.36,1.51l-6.53,4.28,3.21-1.85c.54-.32,1.24-.13,1.56.41.29.51.15,1.16-.32,1.5l-11.16,8,4.98-2.88c.53-.34,1.23-.18,1.57.35.34.53.18,1.23-.35,1.57-.03.02-.05.03-.08.05l-24.88,14.37c-.54.32-1.24.13-1.56-.41-.29-.51-.15-1.16.32-1.5l11.14-8-18.39,10.63c-.17.1-.37.15-.57.14h0Z"/>
  <g>
    <path class="cls-5" d="m83.4,130.34c8.38-1.79,16.32-5.24,23.34-10.15,9.11,6.09,18.52,28.08,30.76,17.29,15.3-11.23-9.52-22.44-15.77-31.81C168.28,40.05,73.98-30.3,22.21,29.81c-38.33,44.13,4.57,113.81,61.19,100.54h0Zm54.5-4.26c4.63,4.9-1.21,9.83-4.89,12.99-9.65-1.93-15.74-14.71-23.8-20.64,3.95-3.04,7.53-6.52,10.67-10.38,6.02,5.98,12.22,11.84,18.01,18.03ZM19.61,37.62c30.49-52.12,111.83-27.08,110.95,32.26-8.42,103.46-156.91,58.81-110.95-32.26Z"/>
    <path class="cls-5" d="m36.12,41.55c-45.93,67.23,72.09,107.12,79.53,27.43.84-40.86-54.67-58.87-79.53-27.43Zm76.23,28.32c-5.56,72.17-109.22,40.52-77.26-22.6,20.47-36.62,78.53-18.41,77.26,22.6Z"/>
    <path class="cls-5" d="m89.65,119.19c48.67-17.11,44.89-89.81-5.45-101.54-1.04-.26-3.87,1.31-2.02,1.78,43.04,9.39,53.31,71.53,15.23,93.95C21.11,153.07-15.67,24.95,70.1,17.98c1.23,0,3.5-1.87,1.29-1.86-21.12.02-40.38,12.08-49.63,31.06C.56,89.12,46.71,137.11,89.65,119.19h0Z"/>
    <path class="cls-5" d="m67.34,34.52c-2.3,3.17,4.8,2.02,6.42,1.87,3.47-3.06-4.85-2.86-6.42-1.87Z"/>
    <path class="cls-5" d="m51.85,41.55c1.36-.61,2.67-1.33,3.92-2.14l-.17.09c6.74-4.33-10.71,2.86-3.75,2.05h0Z"/>
    <path class="cls-5" d="m38.75,55.09c2.89.78,4.46-3.3,5.15-5.29-2.6-1.32-5.6,3.46-5.15,5.29Z"/>
    <path class="cls-5" d="m37.96,66.35c-3.55-1.38-3.93,4.8-2.32,6.26,3.52.72,2.91-4.29,2.32-6.26Z"/>
    <path class="cls-5" d="m41.73,84.05c-1.16-.66-2.63-.26-3.3.88.9,1.37,1.4,3.52,2.88,4.26,4.41.16,1.49-2.94.42-5.15h0Z"/>
    <path class="cls-5" d="m52.99,96.88c-6.3-.74-.38,4.33,2.5,4.35,4.48-1.16-.88-3.21-2.5-4.35Z"/>
    <path class="cls-5" d="m73.23,102.56c-2.05.41-4.74-.81-6.31.89-.9,2.72,12.12.28,6.31-.89Z"/>
    <path class="cls-5" d="m85.15,101c1.53.03,8.89-3.76,4.82-4.1-1.04.38-8.16,3.47-4.82,4.1Z"/>
    <path class="cls-5" d="m98.53,89.61c3.46.46,6.76-9.65,1.28-5.29-.29,1.6-4.03,4.58-1.28,5.29Z"/>
    <path class="cls-5" d="m103.76,72.47c3.3.77,3.59-4.77,2.09-6.09-.91-.03-2.45.2-2.69,1.21.49,1.43-.76,4.24.6,4.88h0Z"/>
    <path class="cls-5" d="m99.73,54.8c1.16.6,2.59.22,3.3-.89-1.14-2.1-2.31-5.74-5.21-3.61-.88,1.18,1.63,3.03,1.91,4.49h0Z"/>
    <path class="cls-5" d="m84.46,39.47c1.89.93,5.82,4.13,6.83.99-1.47-1.27-7.04-4.15-6.83-.99Z"/>
    <path class="cls-5" d="m72.38,43.94c-1.01-.6-4.16.36-3.3,2.39-14.47,1.44-14.98,22.91,0,23.68v21.16c-4.79-1.4-8.08-5.79-8.09-10.78-9.17-.43,2.48,14.01,8.09,12.41v2.13c1.01.6,4.16-.36,3.3-2.39,14.47-1.44,14.98-22.91,0-23.68v-21.16c4.79,1.4,8.08,5.79,8.09,10.78,9.17.43-2.48-14.01-8.09-12.41v-2.13Zm-10.14,8.56c1.29-2.72,3.86-4.62,6.84-5.06v20.89c-5.95-1.77-9.35-8.03-7.58-13.99.19-.63.43-1.25.73-1.84Zm16.99,33.86c-1.29,2.72-3.86,4.62-6.84,5.06v-20.89c5.95,1.77,9.35,8.03,7.58,13.99-.19.63-.43,1.25-.73,1.84Z"/>
  </g>
</svg>