<?xml version="1.0" encoding="UTF-8"?>
<svg id="Layer_1_copy" data-name="Layer 1 copy" xmlns="http://www.w3.org/2000/svg" viewBox="0 0 150 150">
  <defs>
    <style>
      .cls-1 {
        fill: #fffac6;
      }

      .cls-2 {
        fill: #494223;
      }

      .cls-3 {
        fill: #eb5b24;
      }

      .cls-4 {
        fill: #ffcf00;
      }

      .cls-5 {
        fill: #fcf7bf;
      }

      .cls-6 {
        fill: #f15f22;
      }
    </style>
  </defs>
  <path class="cls-5" d="m50.94,140.64c-.63,0-1.14-.51-1.14-1.14,0-.39.2-.76.54-.97l4.03-2.53-7.76,4.47c-.55.3-1.24.1-1.54-.46-.28-.51-.13-1.15.35-1.48l25.37-16.64-32.17,18.57c-.55.3-1.24.1-1.54-.46-.28-.51-.12-1.15.36-1.48l24.94-16.1-31.25,18.04c-.55.3-1.24.1-1.54-.46-.28-.51-.12-1.15.36-1.48l28.18-18.19-30.81,17.79c-.55.3-1.24.09-1.54-.47-.28-.52-.11-1.16.37-1.48l6.13-3.8-5.51,3.17c-.55.3-1.24.09-1.54-.46-.27-.51-.12-1.14.35-1.47l28.38-18.75-27.18,15.69c-.55.31-1.24.12-1.55-.43-.3-.52-.14-1.19.37-1.52l15.22-9.83-14.03,8.1c-.55.31-1.24.12-1.55-.42-.29-.51-.15-1.16.34-1.5l21.35-14.71-19.69,11.36c-.53.33-1.24.17-1.57-.36-.33-.53-.17-1.24.36-1.57l9.5-6.35-7.34,4.25c-.55.31-1.24.12-1.55-.43-.28-.49-.15-1.12.3-1.47l14.01-10.62-9.7,5.6c-.55.31-1.24.12-1.55-.42-.27-.48-.16-1.09.26-1.44l7.15-5.84c-.62-.08-1.06-.65-.98-1.28.05-.35.25-.66.56-.84l10.3-5.94c.55-.31,1.24-.11,1.55.44.27.48.16,1.08-.26,1.43l-5.98,4.88,13.24-7.64c.55-.31,1.24-.12,1.55.43.28.49.15,1.12-.3,1.47l-14.01,10.62,21.69-12.51c.53-.33,1.24-.17,1.57.36s.17,1.24-.36,1.57h0l-9.51,6.35,14.35-8.29c.54-.32,1.24-.14,1.56.4.31.52.16,1.19-.34,1.53l-21.35,14.7,28.81-16.62c.55-.31,1.24-.12,1.55.43.3.52.14,1.19-.37,1.52l-15.2,9.82,20.37-11.76c.55-.31,1.24-.11,1.55.44.29.52.13,1.17-.35,1.5l-28.39,18.75,35.22-20.34c.54-.32,1.24-.15,1.56.39s.15,1.24-.39,1.56h0l-6.05,3.75,8.03-4.63c.54-.33,1.24-.16,1.57.38s.16,1.24-.38,1.57l-28.21,18.22,31.26-18.05c.55-.3,1.24-.1,1.54.46.28.51.12,1.15-.36,1.48l-24.93,16.09,27.17-15.69c.54-.32,1.24-.15,1.56.39.32.53.15,1.22-.37,1.55l-25.38,16.64,27.32-15.77c.54-.32,1.24-.15,1.56.39.32.54.15,1.24-.39,1.56l-4.02,2.52,4.53-2.61c.55-.31,1.24-.11,1.55.44.29.52.13,1.17-.36,1.5l-15.45,10.02,16.22-9.37c.55-.3,1.24-.1,1.54.45.28.51.13,1.14-.34,1.48l-17.47,11.64,18.13-10.47c.55-.31,1.24-.12,1.55.43.29.51.14,1.15-.34,1.49l-17.47,12.04,17.86-10.31c.54-.33,1.24-.16,1.57.38s.16,1.24-.38,1.57l-.87.58.43-.25c.55-.3,1.24-.1,1.54.45.28.51.13,1.14-.34,1.48l-4.19,2.78,3.6-2.08c.54-.32,1.24-.13,1.56.41.29.5.16,1.13-.3,1.48l-11.58,8.81,10.86-6.27c.55-.31,1.24-.12,1.55.43.27.48.16,1.08-.26,1.43l-7.92,6.51,6.68-3.86c.54-.31,1.24-.13,1.56.42.25.43.19.96-.14,1.33l-4.88,5.43,3.45-1.99c.55-.31,1.24-.13,1.55.42.23.4.19.91-.09,1.27l-1.25,1.57c.61.16.97.79.81,1.39-.08.29-.27.54-.53.69l-3.78,2.18c-.55.31-1.24.13-1.55-.42-.23-.4-.19-.91.09-1.27l.68-.87-4.43,2.56c-.55.31-1.24.12-1.55-.42-.24-.42-.19-.96.14-1.32l4.87-5.42-12.42,7.17c-.55.31-1.24.11-1.55-.44-.27-.48-.16-1.07.26-1.42l7.91-6.51-14.51,8.37c-.54.32-1.24.13-1.56-.41-.29-.5-.16-1.13.3-1.48l11.59-8.81-18.54,10.7c-.55.31-1.24.11-1.55-.44-.29-.51-.14-1.16.35-1.49l4.17-2.78-8.17,4.71c-.55.3-1.24.1-1.54-.46-.28-.51-.12-1.15.36-1.48l.86-.56-4.33,2.5c-.55.3-1.24.1-1.55-.45-.28-.5-.14-1.14.33-1.47l17.47-12.04-24.18,13.95c-.55.3-1.24.1-1.54-.45-.28-.51-.13-1.14.34-1.48l17.49-11.65-23.53,13.58c-.55.31-1.24.11-1.55-.44-.29-.52-.13-1.17.36-1.5l15.45-10.02-20.72,11.96c-.18.1-.38.16-.58.16h0Z"/>
  <path class="cls-1" d="m81.52,114.41c-.63,0-1.14-.51-1.14-1.14,0-.28.1-.55.29-.75l.23-.25-1.31.76c-.54.31-1.24.13-1.56-.42-.25-.44-.19-.99.17-1.36l5.16-5.35-7.99,4.61c-.55.31-1.24.12-1.55-.43-.27-.47-.17-1.06.24-1.42l7.97-6.88-21.18,12.23c-.55.31-1.24.12-1.55-.42-.28-.49-.16-1.11.28-1.46l11.63-9.19-12.87,7.43c-.54.32-1.24.13-1.56-.41-.28-.48-.17-1.1.26-1.45l7.97-6.56-8.45,4.88c-.55.31-1.24.12-1.55-.42-.28-.49-.16-1.1.28-1.45l2.64-2.09-2.59,1.5c-.55.31-1.24.12-1.55-.42-.27-.47-.17-1.06.24-1.42l1.82-1.59-1.72.99c-.55.31-1.24.12-1.55-.42-.25-.44-.18-.99.16-1.35l1-1.05-.79.46c-.35.2-.79.2-1.14,0-.35-.2-.57-.58-.57-.99v-1.99c-.59.22-1.24-.09-1.46-.68-.19-.51.02-1.09.49-1.37l1.55-.89c.54-.31,1.24-.13,1.56.42.1.17.15.37.15.57v1.98l6.03-3.46c.55-.31,1.24-.12,1.55.42.25.44.18.99-.16,1.35l-1,1.05,4.88-2.82c.55-.31,1.24-.12,1.55.42.27.47.17,1.06-.24,1.42l-1.82,1.59,5.94-3.43c.55-.31,1.24-.11,1.55.44.27.48.15,1.09-.27,1.44l-2.63,2.09,6.87-3.97c.55-.31,1.24-.12,1.55.43.27.48.16,1.08-.26,1.43l-7.97,6.57,14.6-8.43c.55-.31,1.24-.12,1.55.42.28.49.16,1.11-.28,1.46l-11.64,9.19,18.01-10.4c.55-.31,1.24-.12,1.55.43.27.47.17,1.06-.24,1.42l-7.97,6.88,4.55-2.63c.54-.31,1.24-.13,1.56.42.25.44.19,1-.17,1.36l-5.16,5.34.31-.18c.54-.32,1.24-.13,1.56.41.25.42.19.96-.13,1.32l-1.94,2.2c.45.44.46,1.16.02,1.61-.07.07-.16.14-.25.19l-2.94,1.69c-.17.1-.36.15-.56.14h0Z"/>
  <path class="cls-4" d="m70.48,106.94c-.63,0-1.14-.51-1.14-1.14,0-.29.11-.57.31-.78l3.16-3.36-3.73,2.15c-.54.31-1.24.13-1.55-.42-.27-.47-.17-1.07.24-1.43l3.01-2.58-3.36,1.94c-.54.32-1.24.13-1.56-.41-.27-.46-.18-1.05.21-1.41l1.77-1.64-1.98,1.14c-.54.32-1.24.13-1.56-.41-.21-.37-.21-.82.02-1.18l1.46-2.34-1.84,1.06c-.37.22-.84.21-1.2-.04-.36-.24-.55-.66-.5-1.09l.17-1.4c-.62-.12-1.02-.72-.9-1.34.06-.32.26-.6.55-.77l1.14-.66c.38-.21.84-.2,1.2.04.36.24.55.66.5,1.09l-.13,1.06,3.81-2.2c.54-.32,1.24-.13,1.56.41.21.37.21.82-.02,1.18l-1.46,2.34,6.85-3.95c.54-.32,1.24-.13,1.56.41.27.46.18,1.05-.21,1.41l-1.77,1.63,5.06-2.92c.55-.31,1.24-.12,1.55.43.27.47.17,1.06-.24,1.42l-3.05,2.62c.58-.24,1.25.04,1.48.63.17.41.08.87-.21,1.2l-4.6,4.93c.53.34.68,1.05.34,1.57-.1.15-.23.28-.39.37l-3.98,2.3c-.17.1-.37.15-.57.15h0Z"/>
  <path class="cls-3" d="m68.57,140.71c-.63,0-1.14-.51-1.14-1.14,0-.29.11-.58.31-.79l4.19-4.4-8.41,4.86c-.55.3-1.24.09-1.54-.46-.24-.45-.15-1,.21-1.36l6.1-5.47-3.44,1.99c-.54.32-1.24.14-1.56-.4-.29-.49-.17-1.11.26-1.46l1.88-1.54c-.44.1-.91-.07-1.18-.43-.34-.46-.29-1.11.14-1.51l2.22-2.08c-.58.25-1.25-.03-1.49-.6-.17-.41-.09-.89.21-1.22l1.32-1.4c-.6-.18-.95-.81-.77-1.42.08-.28.27-.52.52-.66l4.98-2.88c.55-.31,1.24-.12,1.55.42.25.43.18.98-.16,1.34l-.48.51,1.7-.98c.54-.32,1.24-.15,1.56.39.28.47.19,1.06-.21,1.43l-2.19,2.05,2.8-1.62c.55-.31,1.24-.12,1.55.43.27.48.16,1.08-.26,1.43l-1.66,1.37,1.04-.6c.55-.3,1.24-.09,1.54.46.24.45.15,1-.21,1.36l-6.09,5.47,5.77-3.33c.54-.31,1.24-.13,1.56.42.25.44.19.99-.16,1.36l-4.18,4.38,3.81-2.2c.54-.31,1.24-.13,1.56.42.2.35.2.78,0,1.13l-1.4,2.5.76-.44c.55-.31,1.24-.12,1.55.43.31.54.12,1.23-.41,1.55l-4.35,2.5c-.54.31-1.24.13-1.56-.42-.2-.35-.2-.78,0-1.13l1.4-2.49-7.06,4.07c-.17.1-.37.16-.57.16h0Z"/>
  <path class="cls-1" d="m69.61,97.24c-.63,0-1.14-.51-1.14-1.14,0-.36.17-.7.46-.91l6.13-4.68-9.27,5.35c-.55.31-1.24.12-1.55-.42-.28-.5-.16-1.13.3-1.47l8.38-6.3-10.47,6.05c-.55.3-1.24.1-1.55-.45-.27-.5-.14-1.12.31-1.46l6.37-4.67-7.27,4.19c-.55.31-1.24.12-1.55-.43-.28-.49-.15-1.12.3-1.47l7.58-5.73-7.71,4.45c-.54.32-1.24.14-1.56-.4-.27-.46-.18-1.06.21-1.42l7.31-6.85-9.17,5.29c-.54.32-1.24.15-1.56-.39-.28-.46-.19-1.05.2-1.42l3.91-3.75-4.15,2.39c-.54.31-1.24.13-1.56-.42-.23-.41-.2-.92.1-1.28l4.33-5.35c-.14-.5.08-1.03.53-1.29l1.14-.66c.47-.27,1.08-.17,1.43.24.36.42.37,1.03.02,1.46l-1.82,2.26,6.9-3.98c.54-.32,1.24-.15,1.56.39.28.46.19,1.05-.2,1.42l-3.9,3.76,9.67-5.58c.54-.32,1.24-.15,1.56.39.28.47.19,1.06-.21,1.43l-7.33,6.84,15.06-8.7c.55-.31,1.24-.12,1.55.43.28.49.15,1.12-.3,1.47l-7.57,5.73,9.67-5.58c.55-.31,1.24-.12,1.55.43.28.5.15,1.13-.31,1.47l-6.39,4.67,8.43-4.86c.55-.31,1.24-.11,1.55.44.28.49.15,1.11-.3,1.46l-8.38,6.3,8.33-4.81c.54-.31,1.24-.13,1.56.42.29.5.16,1.13-.29,1.47l-6.13,4.68.05-.03c.55-.31,1.24-.11,1.55.44.25.45.17,1.02-.21,1.38l-2.94,2.68c.59.22.89.87.68,1.46-.09.25-.26.46-.49.59l-6.79,3.93c-.55.31-1.24.11-1.55-.44-.25-.45-.17-1.02.21-1.38l1.55-1.41-6.26,3.6c-.17.1-.36.15-.56.15h0Z"/>
  <path class="cls-5" d="m72.41,97.34c-.63,0-1.14-.51-1.14-1.14,0-.3.12-.58.32-.79l5.24-5.39-10.51,6.07c-.55.31-1.24.12-1.55-.42-.28-.49-.16-1.1.28-1.45l.77-.61-2.03,1.17c-.55.31-1.24.11-1.55-.43-.25-.44-.17-1,.18-1.36l2.65-2.62-3.82,2.2c-.54.32-1.24.14-1.56-.41-.19-.33-.21-.74-.04-1.08l1.59-3.22-2.08,1.2c-.54.32-1.24.13-1.56-.41-.14-.24-.19-.52-.13-.8l.23-1.14c-.59-.22-.89-.88-.67-1.47.09-.25.27-.45.49-.58l1.1-.64c.54-.31,1.24-.13,1.55.42.14.24.18.52.13.79l-.12.61,3.16-1.82c.54-.32,1.24-.13,1.56.41.19.33.21.74.04,1.08l-1.59,3.22,8.2-4.74c.55-.31,1.24-.11,1.55.43.25.44.17,1-.18,1.36l-2.64,2.62,7.67-4.43c.55-.31,1.24-.12,1.55.42.28.49.16,1.1-.28,1.45l-.77.61,4.34-2.5c.54-.32,1.24-.13,1.56.41.26.44.19,1.01-.17,1.37l-5.24,5.39,4.6-2.66c.56-.29,1.25-.08,1.54.48.27.52.1,1.17-.4,1.49l-11.72,6.77c-.18.1-.38.16-.58.15h0Z"/>
  <path class="cls-4" d="m65.97,76.89c-.63,0-1.14-.51-1.14-1.14,0-.38.19-.74.51-.95l4.16-2.76-8.13,4.69c-.55.31-1.24.11-1.55-.44-.29-.52-.13-1.17.36-1.5l2.6-1.68-5.77,3.33c-.55.3-1.24.1-1.54-.46-.27-.5-.13-1.13.33-1.47l21.35-14.53-22.94,13.24c-.55.3-1.24.09-1.54-.46-.28-.52-.12-1.16.36-1.49l3.87-2.46-2.96,1.71c-.54.33-1.24.15-1.56-.39s-.15-1.24.39-1.56l1.82-1.14-1.22.7c-.55.3-1.24.1-1.55-.45-.29-.52-.13-1.17.37-1.5l1.61-1.02-1.43.83c-.55.31-1.24.12-1.55-.42-.3-.53-.14-1.2.37-1.52l7.29-4.65-7.74,4.47c-.53.31-1.21.14-1.53-.38-.33-.52-.18-1.2.33-1.55l24.93-16.86-26.81,15.48c-.55.31-1.24.12-1.55-.43-.3-.52-.14-1.19.37-1.52l15.68-10.16-16.42,9.48c-.54.32-1.24.13-1.56-.41-.31-.53-.14-1.2.37-1.53l17.96-11.71-18.53,10.7c-.55.31-1.24.11-1.55-.44-.29-.52-.13-1.17.35-1.5l20.68-13.63-21.01,12.13c-.55.3-1.24.11-1.55-.44-.28-.51-.13-1.15.34-1.48l24.28-16.4-24.34,14.05c-.54.32-1.24.13-1.56-.41-.31-.53-.14-1.2.37-1.53l14.8-9.65-14.16,8.18c-.55.31-1.24.12-1.55-.42-.3-.53-.14-1.2.37-1.52l4.7-2.99-3.71,2.14c-.55.3-1.24.09-1.54-.46-.27-.51-.12-1.14.35-1.47l8.73-5.68-7.45,4.3c-.55.3-1.24.09-1.54-.47-.27-.5-.12-1.13.34-1.46l11.37-7.56-9.61,5.55c-.54.32-1.24.13-1.56-.41-.3-.52-.15-1.19.36-1.52l6.71-4.46-4.47,2.58c-.54.32-1.24.13-1.56-.41-.29-.5-.16-1.13.3-1.48l13.77-10.47-8.94,5.18c-.55.31-1.24.11-1.55-.44-.27-.49-.15-1.1.28-1.44l5.95-4.62c-.2-.1-.36-.26-.47-.46-.31-.54-.13-1.24.42-1.56l10.33-5.97c.55-.31,1.24-.11,1.55.44.27.49.15,1.1-.28,1.44l-2.94,2.28,10.14-5.83c.55-.31,1.24-.12,1.55.43.28.49.15,1.12-.3,1.47l-13.76,10.47,20.49-11.84c.55-.31,1.24-.12,1.55.43.29.52.14,1.17-.35,1.51l-6.71,4.46,9.35-5.4c.55-.3,1.24-.1,1.55.45.28.51.13,1.15-.35,1.49l-11.39,7.56,13.89-8.02c.55-.31,1.24-.11,1.55.44.29.52.13,1.17-.36,1.5l-8.71,5.65,10.44-6.03c.55-.31,1.24-.11,1.55.44.29.52.13,1.18-.37,1.51l-4.73,3.02,5.88-3.4c.54-.32,1.24-.13,1.56.41.31.53.14,1.2-.37,1.53l-14.8,9.64,16.27-9.38c.55-.31,1.24-.12,1.55.43.29.51.14,1.17-.35,1.5l-24.26,16.37,26.11-15.07c.54-.32,1.24-.13,1.56.41.3.52.15,1.19-.36,1.52l-20.69,13.64,21.71-12.52c.54-.32,1.24-.13,1.56.41.31.53.14,1.2-.37,1.53l-17.96,11.71,18.48-10.67c.55-.3,1.24-.1,1.54.46.28.51.12,1.15-.36,1.48l-15.68,10.15,15.78-9.11c.54-.32,1.24-.14,1.56.4.31.52.15,1.19-.35,1.53l-24.91,16.85,25-14.43c.55-.3,1.24-.09,1.54.46.28.52.12,1.16-.36,1.49l-7.29,4.65,6.6-3.81c.54-.33,1.24-.15,1.56.39.33.54.15,1.24-.39,1.56l-1.63,1.03.66-.38c.55-.3,1.24-.1,1.55.45.29.52.13,1.17-.37,1.5l-1.82,1.15.66-.38c.55-.31,1.24-.12,1.55.42.3.53.14,1.2-.37,1.52l-3.87,2.46,2.45-1.41c.55-.3,1.24-.1,1.54.46.27.5.13,1.13-.33,1.47l-21.34,14.53,18.86-10.89c.55-.31,1.24-.11,1.55.44.29.52.13,1.17-.36,1.5l-2.6,1.68c.55-.3,1.24-.1,1.55.45.28.52.13,1.16-.36,1.49l-4.16,2.76.43-.24c.54-.31,1.24-.13,1.56.42.29.51.15,1.16-.33,1.5l-6.59,4.65c.42-.05.84.13,1.1.47.34.48.26,1.14-.19,1.52l-4.37,3.74.89-.51c.54-.31,1.24-.13,1.56.42.22.38.2.86-.05,1.22l-1.88,2.71c.44-.03.85.19,1.07.57.31.54.13,1.24-.41,1.55l-3.77,2.17c-.55.31-1.24.13-1.55-.42-.22-.38-.2-.85.05-1.21l1.73-2.5-7.18,4.14c-.55.31-1.24.12-1.55-.43-.27-.47-.17-1.06.24-1.42l4.37-3.74-9.68,5.59c-.55.31-1.24.11-1.55-.44-.28-.5-.14-1.13.32-1.47l5.86-4.15-10.5,6.06c-.17.1-.37.16-.56.16h0Z"/>
  <path class="cls-6" d="m70.57,122.45c-.63,0-1.14-.51-1.14-1.14,0-.27.1-.54.28-.75l3.67-4.22-6.58,3.8c-.54.31-1.24.13-1.56-.42-.25-.44-.19-.99.17-1.36l3.36-3.49-3.42,1.97c-.55.31-1.24.12-1.55-.42-.25-.44-.18-.98.16-1.35l1.91-1.99-1.72,1c-.55.31-1.24.12-1.55-.43-.31-.54-.12-1.23.41-1.55l8.66-4.99c.55-.31,1.24-.12,1.55.42.25.44.18.98-.16,1.35l-1.91,1.99,3.47-2c.55-.31,1.24-.12,1.55.42.25.44.18.99-.16,1.35l-3.37,3.49,5.5-3.19c.55-.31,1.24-.13,1.55.42.24.42.19.95-.13,1.31l-3.67,4.21,1.57-.91c.55-.31,1.24-.12,1.55.43.31.54.12,1.23-.41,1.55l-7.47,4.33c-.17.1-.37.16-.57.16h0Z"/>
  <g>
    <path class="cls-2" d="m48.96,94.81c-18.71,4.18-27.16,24.47-24.25,42.09,6.99,7.9,26.1,1.59,36.48,3.5.69.47,1.61.47,2.3,0h15.86c.73.59,1.77.59,2.49,0,9.91-2.41,35.66,6.53,37.02-7.25,2.15-16.91-6.99-34.93-24.46-38.9-3.96-.86-8.02-1.22-12.07-1.05,2.49-1.8,4.14-4.55,4.55-7.6,4.74-1.21,6.71-7.85,1.64-10.19,5.35-3.73,1.91-10.93,9.13-15.77,16.55-18.54,3.71-50.33-20.98-52.58-24.82-3.79-47.16,23.16-35.5,46.37,2.53,6.41,9.79,9.81,10.54,16.93.16,2.28.53,4.66,2.94,5.6-2.55,1.33-3.55,4.48-2.22,7.03.79,1.51,2.26,2.54,3.95,2.76.16,2.93,1.54,5.66,3.82,7.51-2.77.09-5.54.38-8.27.86-.6-.92-2.55-.37-2.97.66h0Zm-13.03,43.95c-3.82,0-8.06.54-8.16-4.84-1.46-15.68,4.87-33.23,21.4-37.84,4.2,5.35,5.1,18.36,13.08,18.28,1.05,2.44,2.1,4.88,3.15,7.32l-4.27,17.09h-25.21Zm35.56-43.17c-5.62-.21-10.4-4.15-11.69-9.63h23.83c-.74,5.99-6.15,10.27-12.14,9.63Zm.3,1.38c2.27-.13,4.5-.63,6.6-1.49-2.16,3.23-4.31,6.46-6.46,9.7l-5.92-8.88c1.88.54,3.83.77,5.78.68h0Zm-.37,12.3l6.64,3.99-2.97,6.91h-6.64c-1.04-2.41-2.07-4.82-3.12-7.23l6.09-3.67Zm-3.19,14.21l.23-.91h6.31c1.35,5.4,2.7,10.79,4.05,16.19h-14.41l3.82-15.28Zm47.34,4.31c-.34,3.24.84,7.01-.75,9.96-9.96,2.73-21.87.16-32.48,1.01l-4.39-17.53,2.94-6.83c7.89-.22,8.88-12.65,12.95-18.05,13.4,4.53,22.23,17.31,21.72,31.44h0Zm-25.79-32.47c.37.06.73.15,1.1.23-2.71,5.33-5.32,10.79-8.02,16.06-3.11.83-6.31-3.42-9.35-4.52l8.16-12.23c2.71-.09,5.43.07,8.11.46h0Zm-34.8-26.26c-4.55-10.7-15.68-18.77-13.47-32.09.94-15.37,13.72-28.94,29.49-28.77,17.14.51,30.8,14.5,30.9,31.65.44,10.86-6.26,18.66-12.52,26.58-1.35,2.45-.35,7.02-2.82,8.48-7.96-2.31-31.74,5.37-31.58-5.85h0Zm.99,8.62c6.48-2.16,14.44-.17,21.39-.82,3.2.39,7.17-1.07,9.83,1.14,5.69,11.01-22.1,4.18-28.01,5.9-2.12.11-3.92-1.51-4.04-3.63-.05-.93.24-1.85.83-2.59h0Zm5.2,17.19l8.45,12.66c-2.87.85-6.48,6.03-9.18,3.57-2.64-5.24-5.24-10.53-7.88-15.78,2.85-.38,5.73-.53,8.61-.45h0Z"/>
    <path class="cls-2" d="m73.2,16.64c-7.05-3.42-18.77,4.33-22.77,11.33-.77,1.31,2.52.98,3.07.05,3.94-7.94,12.19-9.61,19.7-11.39Z"/>
    <path class="cls-2" d="m50.09,36.49c-.91.1-2.25.23-2.73,1.06.1.75-.65,2.5.46,2.45.9-.1,2.28-.23,2.73-1.06-.22-.76.65-2.5-.46-2.45Z"/>
  </g>
</svg>