<?xml version="1.0" encoding="UTF-8"?>
<svg id="Layer_1_copy" data-name="Layer 1 copy" xmlns="http://www.w3.org/2000/svg" viewBox="0 0 150 150">
  <defs>
    <style>
      .cls-1 {
        fill: #7fc342;
      }

      .cls-2 {
        fill: #ffd400;
      }

      .cls-3 {
        fill: #494223;
      }

      .cls-4 {
        fill: #f4bc18;
      }

      .cls-5 {
        fill: #f04d2b;
      }

      .cls-6 {
        fill: #fffac4;
      }

      .cls-7 {
        fill: #df9527;
      }
    </style>
  </defs>
  <path class="cls-5" d="m127.12,55.54c-.63,0-1.14-.51-1.14-1.14,0-.33.14-.64.39-.86l5.33-4.68-6.9,3.98c-.54.32-1.24.14-1.56-.4-.29-.49-.17-1.13.28-1.48l4.5-3.54-5.48,3.16c-.55.31-1.24.11-1.55-.44-.28-.49-.15-1.11.3-1.46l1.63-1.2-2.21,1.27c-.55.31-1.24.12-1.55-.42-.28-.49-.16-1.11.29-1.46l4.35-3.35-5.28,3.04c-.55.31-1.24.11-1.55-.44-.28-.49-.15-1.11.3-1.46l2.96-2.22-3.68,2.12c-.54.31-1.24.13-1.56-.42-.28-.48-.17-1.09.26-1.45l7-5.82-8.5,4.91c-.55.31-1.24.12-1.55-.43-.27-.48-.16-1.08.26-1.43l6.74-5.55-8.16,4.71c-.55.31-1.24.12-1.55-.43-.28-.49-.15-1.11.29-1.46l3.69-2.81-4.52,2.61c-.55.31-1.24.12-1.55-.43-.27-.48-.16-1.1.27-1.45l5.92-4.75-7.14,4.11c-.55.31-1.24.12-1.55-.43-.27-.47-.17-1.07.25-1.43l7.47-6.34-9.11,5.26c-.55.31-1.24.11-1.55-.44-.26-.47-.16-1.06.24-1.41l7.51-6.38-9.14,5.28c-.55.31-1.24.11-1.55-.44-.27-.48-.15-1.09.27-1.43l5.69-4.54-6.88,3.97c-.54.32-1.24.13-1.56-.41-.28-.48-.17-1.09.25-1.44l7.43-6.29-8.53,4.93c-.54.31-1.24.13-1.55-.42-.28-.49-.16-1.11.28-1.46l4.37-3.42-3.3,1.9c-.54.32-1.24.14-1.56-.41-.28-.48-.17-1.1.26-1.45l7.66-6.38-.03-.04c-.31-.54-.13-1.24.42-1.56l5.05-2.93c.55-.31,1.24-.12,1.55.42.27.48.17,1.08-.25,1.44l-2.76,2.3,5.76-3.33c.54-.32,1.24-.14,1.56.4.29.5.17,1.13-.29,1.48l-4.37,3.42,5.58-3.22c.54-.32,1.24-.13,1.56.41.28.48.17,1.09-.25,1.44l-7.43,6.29,9.05-5.22c.55-.31,1.24-.11,1.55.44.27.48.15,1.09-.27,1.43l-5.69,4.54,6.87-3.96c.55-.31,1.24-.11,1.55.44.26.47.16,1.06-.24,1.41l-7.51,6.38,9.15-5.28c.55-.31,1.24-.12,1.55.43.27.47.17,1.07-.25,1.43l-7.46,6.33,9.11-5.25c.55-.31,1.24-.12,1.55.43.27.48.16,1.09-.27,1.44l-5.92,4.75,7.13-4.12c.54-.32,1.24-.13,1.56.41.29.5.16,1.13-.3,1.48l-3.7,2.81,4.53-2.61c.54-.32,1.24-.13,1.56.41.28.48.17,1.1-.26,1.45l-6.74,5.55,8.16-4.71c.55-.31,1.24-.13,1.55.42.28.48.17,1.09-.26,1.44l-7.01,5.83,8.5-4.91c.54-.31,1.24-.13,1.56.42.29.5.16,1.13-.3,1.48l-2.94,2.2,3.67-2.12c.55-.31,1.24-.12,1.55.42.28.49.16,1.11-.29,1.46l-4.35,3.35,5.16-2.97c.55-.31,1.24-.12,1.55.42.29.5.15,1.14-.31,1.48l-1.62,1.2,1.43-.82c.55-.31,1.24-.12,1.55.42.28.49.16,1.11-.28,1.46l-4.51,3.55,3.2-1.85c.54-.32,1.24-.13,1.56.41.27.47.18,1.07-.24,1.43l-7.04,6.18c.58.24.86.91.62,1.49-.1.23-.27.42-.48.55l-7.25,4.19c-.17.1-.37.15-.57.15h0Z"/>
  <path class="cls-7" d="m14.71,140.78c-.63,0-1.14-.51-1.14-1.14,0-.37.18-.72.49-.93l4.94-3.45-7.29,4.2c-.55.31-1.24.12-1.55-.42-.29-.51-.15-1.16.34-1.5l5.01-3.45-5.31,3.08c-.54.32-1.24.13-1.56-.41-.3-.51-.16-1.15.32-1.5l11.43-8.34-10.21,5.9c-.55.31-1.24.12-1.55-.43-.29-.51-.14-1.15.34-1.49l4.24-2.93-2.82,1.63c-.54.32-1.24.13-1.56-.41-.29-.5-.16-1.14.31-1.49l8.22-6.12-6.7,3.87c-.54.31-1.24.13-1.56-.42-.29-.5-.16-1.14.31-1.49l4.08-3-2.62,1.51c-.55.31-1.24.12-1.55-.43-.28-.5-.15-1.13.31-1.47l1.19-.87c-.6.18-1.24-.16-1.42-.77-.13-.45.02-.94.4-1.23l1.3-.99c-.59.23-1.25-.06-1.48-.64-.16-.41-.07-.89.24-1.21l5.19-5.39-3.47,2c-.55.31-1.24.13-1.55-.42-.22-.38-.2-.86.05-1.22l3.02-4.3-1.15.66c-.54.31-1.24.13-1.56-.42-.21-.37-.2-.82.02-1.18l1.52-2.44c-.06-.06-.11-.13-.15-.2-.31-.54-.13-1.24.42-1.55l1.55-.9c.54-.32,1.24-.13,1.56.41.21.37.21.82-.02,1.18l-.52.84,1.65-.95c.54-.31,1.24-.13,1.56.42.22.38.2.86-.05,1.22l-3.02,4.3,5.99-3.46c.54-.31,1.24-.13,1.56.42.25.44.19.99-.16,1.36l-5.2,5.39,8.2-4.73c.55-.31,1.24-.12,1.55.43.28.49.15,1.11-.29,1.46l-1.21.92,2.47-1.43c.55-.31,1.24-.12,1.55.43.28.5.15,1.13-.31,1.47l-.96.71,2.17-1.25c.54-.31,1.24-.13,1.56.42.29.5.16,1.14-.31,1.49l-4.08,3,5.72-3.3c.54-.32,1.24-.13,1.56.41.29.5.16,1.14-.31,1.49l-8.22,6.13,10.18-5.87c.54-.32,1.24-.13,1.56.41.3.51.15,1.17-.34,1.51l-4.23,2.92,4.33-2.5c.54-.32,1.24-.13,1.56.41.3.51.16,1.15-.32,1.5l-11.43,8.35,12.03-6.94c.55-.31,1.24-.12,1.55.42.29.51.15,1.16-.34,1.5l-5.01,3.43,5.12-2.96c.55-.31,1.24-.12,1.55.42.29.51.15,1.16-.33,1.5l-4.93,3.45,5.08-2.93c.55-.31,1.24-.12,1.55.42.29.5.15,1.14-.31,1.48l-5.09,3.76,5.3-3.06c.54-.31,1.24-.13,1.56.42.26.45.18,1.02-.19,1.38l-6.28,6.15,7.07-4.08c.55-.31,1.24-.12,1.55.42.24.42.19.95-.13,1.32l-2.47,2.77,2.7-1.56c.54-.32,1.24-.13,1.56.41.22.38.2.86-.05,1.23l-.33.47c.53-.34,1.23-.18,1.57.35.34.53.18,1.23-.35,1.57-.03.02-.05.03-.08.05l-4.47,2.58c-.55.31-1.24.13-1.55-.42-.22-.38-.2-.86.05-1.22l.33-.47-4.38,2.53c-.54.31-1.24.13-1.56-.42-.25-.43-.19-.96.14-1.33l2.47-2.77-8.71,5.03c-.54.31-1.24.13-1.56-.42-.26-.45-.18-1.02.19-1.38l6.28-6.15-14.95,8.63c-.55.31-1.24.12-1.55-.42-.29-.5-.15-1.14.31-1.48l5.08-3.76-10.59,6.11c-.17.1-.37.15-.57.15h0Z"/>
  <path class="cls-2" d="m49,135.95c-.63,0-1.14-.51-1.14-1.14,0-.32.13-.62.37-.84l2.55-2.35-3.42,1.97c-.55.31-1.24.12-1.55-.43-.28-.5-.15-1.13.3-1.47l4.3-3.19-5.16,2.98c-.55.31-1.24.12-1.55-.42-.29-.5-.15-1.15.32-1.49l16.34-11.84-18.3,10.56c-.55.3-1.24.09-1.54-.46-.27-.51-.12-1.14.35-1.47l9.6-6.26-10.54,6.08c-.55.31-1.24.12-1.55-.42-.3-.53-.14-1.2.37-1.52l11.19-7.13-12.1,6.99c-.54.33-1.24.15-1.57-.39-.33-.54-.15-1.24.39-1.57l9.64-6.03-10.43,6.02c-.55.3-1.24.1-1.55-.45-.28-.52-.13-1.16.36-1.49l38.71-24.89-40.81,23.56c-.54.32-1.24.15-1.56-.39-.32-.54-.15-1.24.39-1.56l19.05-11.75-20.04,11.57c-.55.3-1.24.1-1.55-.45-.29-.53-.12-1.19.38-1.51l6.64-4.05-7.29,4.2c-.55.3-1.24.09-1.54-.46-.28-.52-.12-1.16.37-1.49l30.21-18.86-31.6,18.25c-.55.3-1.24.1-1.55-.45-.29-.52-.12-1.18.38-1.5l24.22-15.01-25.37,14.65c-.55.31-1.24.11-1.55-.44-.29-.52-.13-1.19.37-1.51l35.18-22.13-36.83,21.25c-.55.3-1.24.09-1.54-.46-.28-.52-.12-1.16.36-1.49l39.51-25.07-41.43,23.92c-.54.33-1.24.16-1.56-.38-.33-.54-.16-1.24.38-1.56l41.26-26.27-43.31,25c-.54.32-1.24.15-1.56-.39-.32-.54-.15-1.24.39-1.56l32.48-20.34-22.38,12.93c-.54.33-1.24.15-1.56-.39s-.15-1.24.39-1.56h0l26.07-16.47-15.33,8.85c-.55.3-1.24.1-1.54-.46-.28-.51-.13-1.15.35-1.48l28.46-18.67-15.77,9.11c-.54.33-1.24.16-1.57-.38-.33-.54-.16-1.24.38-1.57l10.25-6.62-1.16.67c-.55.31-1.24.12-1.55-.42-.29-.51-.15-1.15.32-1.49l17.82-12.7-4.67,2.69c-.55.31-1.24.12-1.55-.43-.29-.51-.15-1.15.33-1.49l7.02-4.92c-.16-.08-.3-.2-.41-.35-.34-.47-.28-1.12.15-1.51l9.46-8.7c-.12-.5.1-1.02.55-1.27l2.32-1.34c.55-.31,1.24-.11,1.55.44.25.45.17,1.02-.21,1.38l-4.53,4.16,7.59-4.38c.55-.31,1.24-.12,1.55.43.29.51.15,1.15-.33,1.49l-2.27,1.59,2.89-1.66c.55-.31,1.24-.12,1.55.42.29.51.15,1.15-.32,1.49l-17.83,12.71,19.79-11.43c.55-.31,1.24-.12,1.55.43.3.52.14,1.19-.37,1.52l-10.25,6.62,11.19-6.45c.55-.31,1.24-.12,1.55.43.3.52.14,1.18-.36,1.51l-28.48,18.67,30.37-17.53c.55-.3,1.24-.1,1.55.45.29.52.13,1.17-.37,1.5l-26.08,16.48,27.46-15.85c.55-.31,1.24-.11,1.55.44.29.52.13,1.19-.37,1.51l-32.48,20.34,33.98-19.62c.55-.31,1.24-.12,1.55.42.3.53.14,1.2-.37,1.52l-41.25,26.27,43.3-24.99c.55-.31,1.24-.12,1.55.42.3.53.14,1.2-.37,1.52l-39.5,25.05,41.41-23.91c.55-.3,1.24-.1,1.55.45.29.52.13,1.17-.37,1.5l-35.2,22.16,36.85-21.27c.55-.3,1.24-.09,1.54.47.28.52.11,1.16-.37,1.48l-24.19,14.99,25.33-14.63c.55-.3,1.24-.09,1.54.46.28.52.12,1.16-.37,1.49l-30.23,18.87,31.37-18.1c.55-.3,1.24-.1,1.55.45.29.53.12,1.19-.38,1.51l-6.66,4.06,6.19-3.58c.54-.32,1.24-.15,1.56.4.32.54.15,1.24-.4,1.56l-19.05,11.76,14.7-8.5c.54-.33,1.24-.16,1.57.38s.16,1.24-.38,1.57h0l-38.71,24.9,25.33-14.62c.55-.3,1.24-.1,1.55.45.29.52.12,1.18-.38,1.5l-9.62,6.01,1.16-.67c.55-.31,1.24-.11,1.55.44.29.52.13,1.18-.37,1.51l-11.23,7.15,2.27-1.31c.54-.32,1.24-.13,1.56.41.31.53.14,1.2-.37,1.53l-9.61,6.26.55-.32c.55-.31,1.24-.12,1.55.42.29.5.15,1.15-.32,1.49l-16.34,11.84,3.25-1.88c.55-.31,1.24-.12,1.55.43.28.5.15,1.13-.3,1.47l-8,5.92c.15.08.29.19.39.33.34.47.28,1.12-.15,1.51l-7.83,7.2c.06.46-.16.91-.56,1.14l-1.97,1.14c-.17.11-.37.16-.57.17h0Z"/>
  <path class="cls-6" d="m117.29,67.66c-.63,0-1.14-.51-1.14-1.14,0-.32.13-.63.37-.84l1.59-1.45-2.24,1.29c-.55.31-1.24.12-1.55-.43-.26-.45-.18-1.02.2-1.38l5.24-5.01-6.8,3.93c-.54.31-1.24.13-1.55-.42-.27-.47-.17-1.07.24-1.43l3.52-3.04-4.49,2.6c-.54.31-1.24.13-1.56-.42-.26-.46-.18-1.03.2-1.39l5.17-4.91-6.68,3.87c-.54.31-1.24.13-1.55-.42-.27-.47-.17-1.07.24-1.43l3.55-3.06-4.54,2.62c-.54.31-1.24.13-1.55-.42-.27-.47-.17-1.07.24-1.43l3.58-3.08-4.57,2.62c-.55.31-1.24.12-1.55-.43-.27-.47-.17-1.07.25-1.42l3.31-2.81-4.24,2.45c-.55.31-1.24.11-1.55-.44-.25-.45-.17-1.02.21-1.38l4.61-4.21-5.91,3.42c-.53.34-1.24.18-1.57-.36-.3-.47-.21-1.1.22-1.47l5.18-4.92-6.7,3.87c-.55.31-1.24.11-1.55-.44-.27-.48-.15-1.09.28-1.44l.51-.4-.97.56c-.54.31-1.24.13-1.55-.42-.27-.47-.17-1.07.24-1.43l3.47-2.98-4.44,2.56c-.55.3-1.24.09-1.54-.46-.24-.45-.15-1,.21-1.36l4.44-4.01-5.68,3.27c-.55.31-1.24.12-1.55-.42-.27-.48-.17-1.08.25-1.43l2.91-2.44-3.75,2.16c-.55.31-1.24.12-1.55-.43-.27-.48-.16-1.09.27-1.44l1.7-1.37-2.32,1.34c-.55.31-1.24.12-1.55-.43-.27-.48-.16-1.1.27-1.45l1.37-1.09-1.93,1.11c-.55.31-1.24.11-1.55-.43-.25-.44-.17-1,.18-1.36l9.64-9.52c-.13-.5.08-1.02.53-1.28l1.97-1.14c.55-.31,1.24-.11,1.55.43.25.44.17,1-.18,1.36l-5.62,5.52,7.35-4.24c.54-.31,1.24-.13,1.56.42.28.49.17,1.11-.27,1.46l-1.37,1.09,1.93-1.11c.55-.31,1.24-.12,1.55.43.27.48.16,1.09-.27,1.44l-1.7,1.37,2.33-1.33c.55-.31,1.24-.11,1.55.43.27.47.16,1.07-.25,1.42l-2.91,2.44,3.75-2.16c.55-.3,1.24-.1,1.54.46.24.45.16,1.01-.21,1.36l-4.44,4.01,5.67-3.27c.55-.31,1.24-.12,1.55.43.27.47.17,1.06-.24,1.42l-3.47,2.98,4.44-2.56c.55-.31,1.24-.12,1.55.43.27.49.16,1.1-.28,1.45l-.51.4.97-.56c.5-.38,1.22-.27,1.59.23.38.5.27,1.21-.23,1.59l-5.18,4.92,6.69-3.87c.55-.31,1.24-.11,1.55.44.25.45.17,1.02-.21,1.38l-4.62,4.21,5.92-3.42c.55-.31,1.24-.12,1.55.43.27.47.17,1.07-.25,1.42l-3.3,2.81,4.21-2.44c.54-.31,1.24-.13,1.55.42.27.47.17,1.07-.24,1.43l-3.58,3.08,4.57-2.63c.55-.31,1.24-.12,1.55.43.27.47.17,1.06-.24,1.42l-3.55,3.06,4.53-2.61c.53-.34,1.24-.18,1.57.36.3.47.21,1.1-.22,1.47l-5.17,4.9,6.68-3.86c.55-.31,1.24-.12,1.55.43.27.47.17,1.06-.24,1.42l-3.52,3.03,4.5-2.6c.55-.31,1.24-.12,1.55.43.26.45.18,1.02-.2,1.38l-5.24,5.01,3.05-1.76c.55-.31,1.24-.11,1.55.44.25.45.17,1.02-.21,1.38l-6.95,6.38c.06.46-.16.91-.56,1.14l-1.95,1.14c-.18.1-.38.15-.59.14h0Z"/>
  <path class="cls-4" d="m36.53,123.49c-.63,0-1.14-.51-1.14-1.14,0-.33.15-.65.4-.87l4.81-4.13-6.03,3.47c-.54.31-1.24.13-1.56-.42-.29-.5-.16-1.13.3-1.48l12.45-9.31-14.21,8.2c-.54.32-1.24.13-1.56-.41-.3-.52-.15-1.19.36-1.52l6.5-4.29-7.32,4.23c-.55.31-1.24.12-1.55-.42-.3-.53-.14-1.2.37-1.52l1.17-.74-1.71.99c-.55.31-1.24.11-1.55-.44-.29-.52-.13-1.17.36-1.5l21.63-14.05-18.03,10.4c-.55.31-1.24.12-1.55-.43-.3-.52-.14-1.18.36-1.51l32.99-21.53-19.69,11.37c-.55.3-1.24.1-1.55-.45-.29-.52-.12-1.18.38-1.5l7.02-4.36c-.63-.03-1.11-.56-1.08-1.19.02-.36.21-.7.51-.9l21.72-14.25-10.28,5.93c-.55.3-1.24.1-1.55-.45-.28-.52-.13-1.16.36-1.49l6.65-4.25c-.61-.15-.98-.77-.83-1.38.07-.26.22-.49.44-.65l14.51-10.32-2.45,1.41c-.54.32-1.24.14-1.56-.41-.3-.51-.16-1.17.33-1.51l7.03-5.01c-.54-.31-.73-1.01-.42-1.56.06-.1.13-.19.21-.27l9.45-8.78c-.08-.47.14-.93.55-1.17l1.97-1.14c.54-.32,1.24-.13,1.56.41.27.46.18,1.05-.21,1.41l-4.39,4.08,5.69-3.28c.54-.32,1.24-.14,1.56.41.3.51.16,1.17-.33,1.51l-2.23,1.59,2.87-1.65c.55-.31,1.24-.12,1.55.42.29.51.15,1.15-.32,1.49l-14.51,10.33,16.2-9.35c.54-.32,1.24-.14,1.56.41.31.53.15,1.21-.37,1.54l-.63.4,1.14-.66c.54-.32,1.24-.15,1.56.39.32.53.15,1.22-.37,1.55l-21.72,14.25,21.07-12.17c.54-.32,1.24-.15,1.56.39.32.54.15,1.24-.39,1.56h0l-6.99,4.34c.63.03,1.12.56,1.09,1.18-.01.37-.21.71-.52.91l-33.02,21.55,19.76-11.41c.55-.3,1.24-.1,1.55.45.28.51.13,1.16-.36,1.49l-21.61,14.03,10.56-6.1c.55-.31,1.24-.11,1.55.44.29.52.13,1.18-.37,1.51l-6.75,4.29c.31.06.58.25.75.52.32.52.17,1.21-.34,1.55l-8.17,5.39c.41-.04.81.16,1.02.51.33.5.22,1.18-.27,1.54l-12.44,9.3c.55-.31,1.24-.12,1.55.43.27.47.17,1.06-.24,1.42l-9.13,7.84s.03.05.05.07c.31.54.13,1.24-.42,1.56l-4.77,2.74c-.17.1-.37.15-.57.15h0Z"/>
  <path class="cls-1" d="m115.61,140.53c-.63,0-1.14-.51-1.14-1.14,0-.35.16-.68.43-.89l10.93-8.55-17.9,10.33c-.55.31-1.24.12-1.55-.43-.29-.51-.14-1.17.35-1.5l6.7-4.53-9.59,5.54c-.54.32-1.24.13-1.56-.41-.3-.52-.15-1.18.34-1.51l13.32-9.11-16.31,9.42c-.54.32-1.24.13-1.56-.41-.3-.52-.15-1.19.36-1.52l11.56-7.66-13.55,7.82c-.54.32-1.24.14-1.56-.4-.31-.52-.15-1.19.35-1.53l18.73-12.69-20.93,12.08c-.55.31-1.24.12-1.55-.42-.29-.51-.15-1.16.34-1.5l22.12-15.09-24.01,13.87c-.54.33-1.24.16-1.57-.38s-.16-1.24.38-1.57l5.88-3.75-6.3,3.64c-.55.3-1.24.1-1.54-.46-.28-.51-.12-1.15.36-1.48l12.07-7.81-12.51,7.22c-.54.32-1.24.13-1.56-.41-.3-.52-.15-1.19.36-1.52l17.33-11.43-17.7,10.21c-.55.31-1.24.12-1.55-.42-.3-.53-.14-1.2.37-1.52l2.08-1.31-1.73,1c-.54.33-1.24.16-1.57-.37s-.16-1.24.37-1.57l12.72-8.29-12.36,7.13c-.53.33-1.24.17-1.57-.36s-.17-1.24.36-1.57l18.19-12.26-17.55,10.13c-.55.31-1.24.11-1.55-.44-.29-.51-.14-1.16.35-1.49l13.51-9.01-12.31,7.1c-.54.32-1.24.13-1.56-.41-.3-.52-.15-1.18.34-1.51l13.23-9.01-11.43,6.6c-.55.31-1.24.11-1.55-.44-.28-.49-.15-1.11.3-1.46l15.44-11.47-12.02,6.94c-.54.32-1.24.13-1.56-.41-.3-.51-.15-1.17.34-1.51l3.03-2.09c-.63,0-1.14-.51-1.14-1.14,0-.36.17-.7.46-.91l4.84-3.67c-.49-.39-.58-1.11-.19-1.6.09-.11.2-.21.32-.28l9.96-5.75c.55-.31,1.24-.12,1.55.43.28.49.15,1.12-.3,1.47l-.23.18,6.13-3.53c.55-.3,1.24-.1,1.54.45.27.5.13,1.13-.33,1.47l-1.43.99,5.01-2.9c.55-.31,1.24-.12,1.55.43.28.5.15,1.13-.3,1.47l-15.43,11.47,20.84-12.03c.55-.31,1.24-.11,1.55.43.29.51.14,1.16-.34,1.49l-13.23,9.01,16.09-9.29c.54-.32,1.24-.14,1.56.4.31.53.15,1.2-.36,1.54l-13.5,9.01,15.6-9.02c.55-.31,1.24-.12,1.55.43.29.51.14,1.17-.35,1.5l-18.18,12.25,20.19-11.65c.54-.33,1.24-.16,1.57.37s.16,1.24-.37,1.57l-12.72,8.3,13.8-7.97c.54-.33,1.24-.15,1.56.38s.15,1.24-.38,1.56h0l-2.08,1.33,2.46-1.42c.55-.3,1.24-.1,1.55.45.28.51.13,1.15-.35,1.49l-17.32,11.43,18.09-10.44c.55-.31,1.24-.11,1.55.44.29.52.13,1.17-.36,1.5l-12.08,7.82,12.28-7.08c.55-.3,1.24-.09,1.54.46.28.52.12,1.16-.36,1.49l-5.86,3.74,5.67-3.27c.54-.32,1.24-.13,1.56.41.3.52.15,1.18-.34,1.51l-22.12,15.09,22.06-12.73c.54-.32,1.24-.14,1.56.4.31.52.15,1.19-.35,1.53l-18.74,12.7,18.03-10.41c.55-.31,1.24-.12,1.55.43.29.52.14,1.17-.35,1.51l-11.52,7.64,10.27-5.93c.54-.32,1.24-.13,1.56.41.3.52.15,1.18-.34,1.51l-13.33,9.11,11.43-6.6c.55-.31,1.24-.12,1.55.43.29.51.14,1.17-.35,1.5l-6.7,4.53,4.25-2.45c.55-.31,1.24-.12,1.55.43.27.49.16,1.1-.28,1.45l-10.93,8.55,5.62-3.24c.55-.31,1.24-.12,1.55.43.31.54.12,1.23-.41,1.55l-19.66,11.36c-.17.1-.37.15-.57.15Z"/>
  <g>
    <path class="cls-3" d="m122.35,81.06c-5.15-1.73-10.66-2.1-15.99-1.08,11.37-11.48,22.95-22.77,34.28-34.27,5.48-5.67.29-11.92-4.5-15.86-10.05-6.66-19.42-29.35-33.25-20.97-29.98,29.78-59.78,59.78-89.71,89.62-6.92,9.21-3.34,22.38-5.31,33.25-1.25,3.62.67,7.56,4.29,8.81,1.43.49,2.97.51,4.41.04,39.49,1.09,38.2-10.76,64.47-35.29-4.21,20.54,16.24,39.55,36.53,34.93,30.28-4.78,34.35-49.94,4.78-59.18h0ZM102.98,12.14c8.43-12.01,26.6,18.6,34.74,23.68,6.21,7.29-3.97,12.39-7.97,17.38l-33.92-33.92c2.38-2.38,4.76-4.77,7.15-7.15h0Zm-9.27,9.27l33.91,33.91-9.73,9.73-33.92-33.91,9.74-9.73ZM27.59,111.33L93.72,45.22l10.28,10.28L37.87,121.62l-10.28-10.28Zm-7.76-16.09l61.97-61.94,10.13,10.13L25.81,109.55l-10.15-10.14c1.35-1.43,2.79-2.78,4.18-4.16h0Zm25.59,41.24c-42.6,3.83-35.75,6.68-31.61-34.6,11.18,11.18,22.36,22.36,33.55,33.54-.58.47-1.23.83-1.94,1.05Zm10.89-9.86c-2.23,2.25-4.49,4.46-6.7,6.73l-10.34-10.34L105.41,56.9l10.32,10.32c-7.76,10.04-18.61,14.97-27.73,23.19-7.77,14.38-20.29,24.55-31.68,36.22h0Zm65.43,10.25c-45.36,14.18-51.58-62.23-4.29-54.58,26.62,5.25,30,45.4,4.29,54.58h0Z"/>
    <path class="cls-3" d="m121.69,98.82l-16.08,20.68c-1.57-1.76-5.22-5.88-6.74-2.48l5.06,5.06c7.62-1.82,12.49-15.01,18.57-20.62,2.11-2.18,3.58-4.98-.82-2.64h0Z"/>
  </g>
</svg>