<?xml version="1.0" encoding="UTF-8"?>
<svg id="Layer_1_copy" data-name="Layer 1 copy" xmlns="http://www.w3.org/2000/svg" viewBox="0 0 150 150">
  <defs>
    <style>
      .cls-1 {
        fill: #ffc644;
      }

      .cls-2 {
        fill: #eaf2cc;
      }

      .cls-3 {
        fill: #f0a331;
      }

      .cls-4 {
        fill: #e15838;
      }

      .cls-5 {
        fill: #fffbce;
      }

      .cls-6 {
        fill: #729993;
      }

      .cls-7 {
        fill: #badeb4;
      }

      .cls-8 {
        fill: #494223;
      }
    </style>
  </defs>
  <path class="cls-2" d="m101.54,63.85c-.63,0-1.14-.51-1.14-1.14,0-.29.11-.57.31-.78l2.31-2.43-6.74,3.89c-.56.29-1.24.08-1.54-.47-.24-.45-.15-1,.21-1.35l5.24-4.69-3.92,2.26c-.55.31-1.24.13-1.55-.42-.24-.41-.19-.93.11-1.3l3.44-4.1-1.99,1.15c-.55.31-1.24.13-1.55-.42-.15-.26-.19-.57-.11-.86l.62-2.37c-.57-.26-.82-.94-.55-1.51.1-.21.26-.39.46-.51l1.14-.66c.54-.31,1.24-.13,1.56.42.15.26.19.57.12.86l-.46,1.71,5.24-3.02c.55-.31,1.24-.13,1.55.42.24.41.19.93-.11,1.3l-3.44,4.1,7.93-4.57c.54-.31,1.24-.13,1.56.42.27.47.17,1.06-.23,1.42l-5.23,4.68,3.94-2.28c.54-.32,1.24-.13,1.56.41.26.44.19,1-.16,1.36l-2.31,2.43.93-.54c.54-.31,1.24-.13,1.56.42.15.26.19.56.12.85l-.62,2.46c.57.25.83.93.58,1.5-.1.22-.26.4-.47.52l-1.14.66c-.4.23-.89.2-1.26-.08-.36-.28-.53-.74-.41-1.19l.46-1.82-5.41,3.12c-.17.1-.37.15-.57.15h0Z"/>
  <path class="cls-5" d="m81.85,52.43c-.63,0-1.14-.51-1.14-1.14,0-.35.16-.67.43-.89l2.33-1.86-6.32,3.64c-.55.31-1.24.12-1.55-.43-.27-.49-.16-1.1.28-1.45l1.46-1.14-2.71,1.56c-.54.32-1.24.15-1.56-.39-.28-.47-.19-1.06.21-1.43l3.14-2.94-2.91,1.68c-.54.32-1.24.15-1.56-.39-.2-.34-.21-.76-.03-1.11l1.74-3.42c-.42,0-.81-.22-1.03-.57-.32-.54-.13-1.24.41-1.56,0,0,0,0,0,0l2.7-1.55c.54-.31,1.24-.13,1.56.42.19.33.2.74.03,1.09l-1.63,3.19,8.15-4.67c.54-.32,1.24-.15,1.56.39.28.47.19,1.06-.21,1.43l-3.14,2.94,8.25-4.76c.55-.31,1.24-.12,1.55.43.27.49.16,1.1-.28,1.45l-1.46,1.14,5.24-3.02c.54-.31,1.24-.13,1.56.42.28.49.17,1.11-.27,1.46l-2.34,1.87,6.49-3.75c.54-.33,1.24-.16,1.57.38.28.46.2,1.06-.2,1.43l-4.94,4.73,11.33-6.54c.55-.31,1.24-.13,1.55.42.27.47.17,1.07-.24,1.43l-3.94,3.4,9.09-5.24c.54-.33,1.24-.16,1.57.38.28.46.2,1.06-.2,1.43l-4.96,4.73,11.36-6.56c.55-.31,1.24-.12,1.55.43.24.43.18.97-.15,1.33l-5.3,5.65,11.26-6.5c.54-.31,1.24-.13,1.56.42.24.42.19.94-.12,1.31l-4.54,5.26,4.43-2.55c.55-.31,1.24-.12,1.55.42.23.39.2.88-.07,1.25l-1.44,1.92c.63.07,1.08.63,1.01,1.25-.04.36-.25.68-.56.86l-3.78,2.18c-.55.31-1.24.12-1.55-.42-.23-.39-.2-.88.07-1.25l1.1-1.47-5.44,3.14c-.55.31-1.24.12-1.55-.42-.24-.42-.19-.94.12-1.3l4.54-5.26-12.11,6.98c-.55.31-1.24.12-1.55-.42-.25-.43-.19-.98.15-1.34l5.3-5.65-12.85,7.41c-.54.33-1.24.16-1.57-.38-.28-.46-.2-1.06.2-1.43l4.95-4.75-11.34,6.55c-.55.31-1.24.13-1.55-.42-.27-.47-.17-1.07.24-1.43l3.93-3.39-9.09,5.24c-.54.33-1.24.16-1.57-.38-.28-.46-.2-1.06.2-1.43l4.94-4.73-11.32,6.54c-.17.1-.37.16-.57.16h0Z"/>
  <path class="cls-6" d="m76.03,43.39c-.63,0-1.14-.51-1.14-1.14,0-.38.19-.73.5-.94l24.03-16.28-25.9,14.95c-.54.32-1.24.13-1.56-.41-.31-.53-.14-1.2.37-1.53l12.17-7.94-10.98,6.34c-.55.31-1.24.11-1.55-.43-.29-.51-.14-1.16.34-1.49l14.51-9.87-13.3,7.68c-.55.31-1.24.11-1.55-.44-.28-.5-.14-1.13.32-1.47l12.87-9.14-11.64,6.72c-.55.31-1.24.12-1.55-.42-.28-.5-.16-1.13.3-1.47l10.16-7.65-8.9,5.14c-.55.31-1.24.12-1.55-.43-.28-.5-.15-1.13.31-1.47l2.73-2.01-1.5.87c-.54.32-1.24.13-1.56-.41-.26-.45-.19-1.03.19-1.39l5.18-5.05-3.81,2.2c-.46.26-1.03.18-1.4-.2-.36-.38-.41-.97-.13-1.41l1.86-2.84c-.61.14-1.22-.24-1.37-.85-.11-.49.11-.99.54-1.24l3.78-2.18c.54-.31,1.24-.13,1.55.42.21.37.2.83-.03,1.19l-1.81,2.74,7.56-4.35c.54-.32,1.24-.13,1.56.41.26.45.19,1.03-.19,1.39l-5.18,5.04,11.87-6.84c.55-.3,1.24-.1,1.55.45.27.49.14,1.1-.3,1.45l-2.73,2,6.76-3.9c.55-.31,1.24-.11,1.55.44.28.49.15,1.11-.3,1.46l-10.16,7.65,16.54-9.54c.55-.31,1.24-.11,1.55.44.28.5.14,1.13-.32,1.47l-12.88,9.14,19.15-11.05c.55-.3,1.24-.1,1.54.46.27.5.13,1.13-.33,1.47l-14.51,9.86,20.42-11.78c.55-.3,1.24-.1,1.55.45.28.51.13,1.16-.36,1.49l-12.17,7.94,17.11-9.87c.55-.31,1.24-.11,1.55.43.29.51.14,1.16-.34,1.49l-24.03,16.27,27.8-16.05c.54-.32,1.24-.15,1.56.39.32.53.15,1.22-.37,1.55l-16.19,10.66,15.67-9.05c.55-.31,1.24-.11,1.55.44.29.52.13,1.17-.36,1.5l-6.89,4.47,5.71-3.29c.55-.3,1.24-.09,1.54.47.27.5.12,1.13-.34,1.46l-7.89,5.24,6.69-3.87c.55-.31,1.24-.12,1.55.43.29.51.15,1.15-.33,1.49l-10.08,7.06,8.86-5.12c.54-.32,1.24-.13,1.56.41.29.49.16,1.13-.29,1.47l-10.04,7.8,8.78-5.07c.55-.31,1.24-.12,1.55.42.27.48.16,1.09-.26,1.44l-5.5,4.48,4.22-2.44c.54-.32,1.24-.14,1.56.4.29.49.17,1.13-.28,1.48l-.79.64c.63-.05,1.17.42,1.22,1.05.02.21-.03.42-.12.6l-1.75,3.44.18-.1c.54-.32,1.24-.14,1.56.41.32.54.14,1.24-.41,1.56,0,0,0,0-.01,0l-3.51,2.02c-.54.32-1.24.14-1.56-.4-.2-.34-.21-.76-.03-1.1l1.75-3.44-8.58,4.95c-.54.31-1.24.13-1.56-.42-.28-.49-.17-1.11.27-1.46l.21-.17-3.55,2.05c-.55.31-1.24.11-1.55-.44-.27-.48-.16-1.08.26-1.43l5.5-4.48-11,6.35c-.54.32-1.24.13-1.56-.41-.29-.49-.16-1.13.29-1.47l10.04-7.77-16.75,9.67c-.55.31-1.24.12-1.55-.43-.29-.51-.15-1.15.33-1.49l10.09-7.07-15.58,8.99c-.55.3-1.24.1-1.55-.45-.28-.51-.13-1.15.35-1.49l7.88-5.24-12.44,7.18c-.54.33-1.24.16-1.57-.38-.33-.54-.16-1.24.38-1.57l6.91-4.49-11.14,6.43c-.54.33-1.24.17-1.57-.37-.33-.54-.17-1.24.37-1.57l16.18-10.64-21.83,12.6c-.17.1-.37.15-.57.15h0Z"/>
  <path class="cls-5" d="m92.26,72.99c-.63,0-1.14-.51-1.14-1.14,0-.34.15-.65.4-.87l3.76-3.19-5.82,3.35c-.55.31-1.24.11-1.55-.44-.26-.47-.16-1.06.24-1.41l1.72-1.46-.42.24c-.54.31-1.24.13-1.55-.42-.22-.38-.2-.84.04-1.21l1.76-2.6c-.46.05-.9-.17-1.14-.56-.31-.54-.13-1.24.41-1.55l3.77-2.18c.46-.27,1.04-.18,1.4.21.36.39.41.98.11,1.42l-1.66,2.45,7.06-4.08c.55-.31,1.24-.11,1.55.44.26.47.16,1.06-.24,1.41l-1.72,1.46,5.74-3.31c.55-.31,1.24-.12,1.55.43.27.47.17,1.07-.25,1.42l-3.75,3.19,8.71-5.03c.55-.31,1.24-.12,1.55.43.26.45.18,1.02-.2,1.38l-4.94,4.73,7.29-4.21c.55-.31,1.24-.12,1.55.42.22.39.2.87-.07,1.24l-3.34,4.55,2.43-1.4c.54-.31,1.24-.13,1.56.42.15.26.19.57.11.87l-.57,2.11c.57.27.8.95.53,1.52-.1.21-.26.38-.45.49l-1.14.66c-.54.31-1.24.13-1.56-.42-.15-.26-.19-.57-.11-.86l.38-1.43-4.73,2.73c-.55.31-1.24.12-1.55-.43-.22-.39-.2-.87.07-1.23l3.34-4.55-10.81,6.24c-.54.33-1.24.16-1.57-.38-.28-.46-.2-1.06.2-1.43l4.94-4.72-11.35,6.55c-.17.1-.36.16-.56.16h0Z"/>
  <path class="cls-3" d="m134.43,141.23c-.63,0-1.14-.51-1.14-1.14,0-.26.09-.5.25-.71l.76-.96-4.52,2.61c-.55.31-1.24.12-1.55-.42-.25-.43-.19-.97.15-1.34l4.51-4.86-6.66,3.84c-.55.31-1.24.12-1.55-.42-.28-.49-.16-1.11.28-1.46l.82-.64c-.58.24-1.25-.03-1.49-.61-.19-.44-.07-.96.28-1.28l5.86-5.37-4.52,2.61c-.54.31-1.24.13-1.56-.42-.27-.47-.17-1.06.23-1.42l5.3-4.74-3.98,2.3c-.55.31-1.24.11-1.55-.43-.27-.48-.16-1.09.27-1.44l2.23-1.81-.95.55c-.54.33-1.24.16-1.56-.38-.29-.47-.2-1.07.21-1.44l6.51-6.17-5.16,2.99c-.54.32-1.24.14-1.56-.4-.27-.46-.18-1.06.21-1.42l6.21-5.79-4.87,2.81c-.55.31-1.24.12-1.55-.43-.27-.47-.17-1.06.24-1.42l4.26-3.66-2.96,1.7c-.55.31-1.24.11-1.55-.44-.27-.49-.15-1.1.29-1.45l.78-.6c-.63.05-1.17-.42-1.22-1.05-.03-.37.13-.74.42-.97l2.18-1.76-.89.52c-.55.31-1.24.12-1.55-.42-.28-.49-.16-1.11.28-1.46l1.29-1.02h-.01c-.55.31-1.24.12-1.55-.43-.27-.48-.16-1.08.26-1.43l3.23-2.69-1.94,1.12c-.55.31-1.24.12-1.55-.42-.28-.49-.16-1.12.29-1.47l.77-.6c-.4.02-.79-.17-1.02-.5-.33-.5-.23-1.16.24-1.53l.96-.76c-.61.15-1.23-.23-1.37-.84-.1-.42.04-.85.37-1.13l4.01-3.42-2.7,1.56c-.55.31-1.24.12-1.55-.42-.26-.46-.17-1.04.21-1.4l2.46-2.28-1.12.64c-.54.31-1.24.13-1.55-.42-.14-.24-.18-.52-.13-.79l.75-3.74c-.26-.09-.48-.27-.62-.51-.31-.54-.13-1.24.41-1.55l1.14-.66c.54-.31,1.24-.13,1.55.42.14.24.18.52.13.79l-.65,3.24,7.78-4.49c.55-.31,1.24-.12,1.55.42.26.46.17,1.04-.21,1.4l-2.46,2.28,4.69-2.7c.55-.31,1.24-.12,1.55.43.27.47.17,1.07-.25,1.42l-4.01,3.42,2.7-1.56c.55-.31,1.24-.11,1.55.44.27.48.15,1.09-.28,1.44l-.96.76c.61-.14,1.23.23,1.37.85.1.43-.06.89-.41,1.16l-.77.6c.63-.04,1.17.43,1.21,1.06.03.37-.13.72-.41.95l-3.23,2.69,1.94-1.12c.52-.3,1.18-.15,1.51.35.34.49.24,1.16-.23,1.53l-1.29,1.02h.01c.55-.31,1.24-.11,1.55.43.27.48.16,1.09-.27,1.44l-2.18,1.76.89-.52c.55-.31,1.24-.11,1.55.44.27.49.15,1.1-.29,1.45l-.78.61c.63-.05,1.17.42,1.22,1.05.03.36-.12.72-.39.95l-4.25,3.65,2.95-1.7c.54-.32,1.24-.14,1.56.4.27.46.18,1.06-.21,1.42l-6.21,5.8,4.87-2.81c.54-.33,1.24-.16,1.56.38.29.47.2,1.07-.21,1.44l-6.51,6.17,5.16-2.98c.55-.31,1.24-.11,1.55.43.27.48.16,1.09-.27,1.44l-2.23,1.81.95-.55c.54-.31,1.24-.13,1.56.42.27.47.17,1.06-.23,1.42l-5.3,4.74,3.98-2.3c.55-.31,1.24-.12,1.55.43.26.46.17,1.03-.21,1.39l-5.86,5.37,4.52-2.61c.54-.31,1.24-.13,1.55.42.28.49.16,1.11-.28,1.46l-.99.78c.61-.16,1.23.2,1.39.81.1.38,0,.78-.27,1.07l-4.51,4.86,3.1-1.79c.55-.31,1.24-.12,1.55.42.23.4.19.9-.09,1.27l-1.28,1.62c.61.15.99.76.84,1.37-.07.3-.27.56-.54.72l-3.77,2.18c-.17.1-.37.15-.57.15h0Z"/>
  <path class="cls-3" d="m26.49,141.24c-.63,0-1.14-.51-1.14-1.14,0-.37.18-.72.49-.93l11.97-8.27-17.67,10.19c-.55.3-1.24.1-1.55-.45-.27-.5-.14-1.13.32-1.47l20.65-14.48-26.19,15.12c-.55.31-1.24.12-1.55-.43-.29-.51-.14-1.17.35-1.5l22.62-15.35-22.77,13.14c-.55.3-1.24.09-1.54-.46-.28-.52-.12-1.16.36-1.49l6.38-4.07-5.19,3c-.55.3-1.24.1-1.54-.46-.28-.51-.13-1.15.35-1.48l16.44-10.78-15.26,8.8c-.55.31-1.24.11-1.55-.44-.29-.52-.13-1.17.36-1.5l13.18-8.55-11.98,6.93c-.55.3-1.24.09-1.54-.47-.27-.51-.12-1.15.36-1.48l8.76-5.61-7.57,4.37c-.54.32-1.24.14-1.56-.41-.31-.53-.14-1.21.37-1.54l9.74-6.26-8.56,4.94c-.55.31-1.24.12-1.55-.43-.29-.52-.14-1.17.35-1.51l20.69-13.8-19.49,11.25c-.55.3-1.24.1-1.55-.45-.28-.51-.13-1.14.34-1.48l23.91-16.22-22.7,13.1c-.55.3-1.24.1-1.54-.45-.27-.5-.13-1.13.33-1.47l19.51-13.47-18.3,10.57c-.55.31-1.24.12-1.55-.43-.29-.5-.15-1.14.31-1.48l16.47-11.98-15.23,8.79c-.55.31-1.24.11-1.55-.44-.27-.48-.15-1.09.28-1.44l12.24-9.59-10.98,6.34c-.54.31-1.24.13-1.56-.42-.27-.47-.17-1.06.23-1.42l7.92-7.06-6.59,3.8c-.55.31-1.24.12-1.55-.42-.24-.42-.19-.95.13-1.32l3.62-4.1-2.2,1.27c-.54.31-1.24.13-1.55-.42-.14-.25-.19-.55-.12-.83l.67-2.78c-.23-.09-.42-.26-.54-.48-.31-.54-.13-1.24.41-1.55l1.14-.66c.54-.32,1.24-.13,1.56.41.15.25.19.55.12.84l-.52,2.18,5.95-3.44c.55-.31,1.24-.12,1.55.43.24.42.19.94-.13,1.31l-3.62,4.1,10.13-5.85c.54-.31,1.24-.13,1.56.42.27.47.17,1.06-.23,1.42l-7.92,7.06,15.43-8.91c.55-.31,1.24-.11,1.55.44.27.48.15,1.09-.28,1.44l-12.25,9.59,19.88-11.48c.55-.31,1.24-.12,1.55.43.29.5.15,1.14-.31,1.48l-16.46,11.98,24.08-13.9c.54-.32,1.24-.13,1.56.41.3.51.15,1.17-.34,1.51l-19.52,13.47,25.49-14.71c.55-.31,1.24-.12,1.55.43.29.51.14,1.17-.35,1.5l-23.91,16.22,22.7-13.11c.55-.31,1.24-.12,1.55.43.29.52.14,1.17-.35,1.51l-20.69,13.8,19.49-11.25c.55-.3,1.24-.1,1.55.45.28.52.13,1.16-.36,1.49l-9.74,6.26,8.56-4.94c.55-.31,1.24-.11,1.55.44.29.52.13,1.18-.37,1.51l-8.76,5.61,7.57-4.37c.55-.31,1.24-.11,1.55.44.29.52.13,1.17-.36,1.5l-13.15,8.53,11.97-6.9c.55-.31,1.24-.12,1.55.43.3.52.14,1.18-.36,1.51l-16.44,10.78,15.26-8.8c.55-.3,1.24-.09,1.54.46.28.52.12,1.16-.36,1.49l-6.41,4.1,5.24-3.02c.55-.31,1.24-.12,1.55.43.29.51.14,1.17-.35,1.5l-22.62,15.35,21.4-12.36c.55-.31,1.24-.12,1.55.43.29.51.15,1.15-.33,1.49l-20.65,14.48,19.43-11.22c.55-.31,1.24-.12,1.55.43.29.51.14,1.15-.34,1.49l-11.96,8.26,10.75-6.19c.55-.31,1.24-.12,1.55.43.28.5.15,1.14-.32,1.48l-9.35,6.7,8.12-4.69c.55-.31,1.24-.12,1.55.43.27.48.16,1.08-.26,1.43l-9.19,7.61,7.9-4.55c.54-.31,1.24-.13,1.56.42.27.47.17,1.06-.23,1.42l-4.37,3.87,3.04-1.76c.55-.31,1.24-.12,1.55.42.23.4.19.91-.1,1.27l-2.12,2.65.49-.28c.56-.29,1.25-.08,1.54.48.27.52.1,1.17-.4,1.49l-5.72,3.3c-.54.32-1.24.13-1.56-.41-.24-.41-.2-.92.1-1.28l2.12-2.65-7.53,4.35c-.55.31-1.24.12-1.55-.43-.26-.46-.17-1.05.23-1.41l4.37-3.87-9.91,5.71c-.55.31-1.24.11-1.55-.44-.26-.47-.16-1.07.26-1.42l9.19-7.61-16.4,9.47c-.55.31-1.24.12-1.55-.43-.28-.5-.15-1.14.32-1.48l9.35-6.71-14.93,8.62c-.17.1-.37.16-.57.16h0Z"/>
  <path class="cls-1" d="m12.22,82.03c-.63,0-1.14-.51-1.14-1.14,0-.3.12-.6.34-.81l5.09-5.04-6.75,3.9c-.55.31-1.24.12-1.55-.42-.25-.43-.18-.98.16-1.35l2.46-2.58-1.07.62c-.54.32-1.24.14-1.56-.4-.21-.36-.21-.81.01-1.17l.82-1.35c-.3-.08-.55-.27-.7-.54-.31-.54-.13-1.24.42-1.55l2.64-1.53c.54-.31,1.24-.13,1.55.42.21.36.2.8-.01,1.16l-.47.78,4.09-2.35c.55-.31,1.24-.12,1.55.42.25.43.18.98-.16,1.35l-2.46,2.58,7.54-4.35c.55-.31,1.24-.11,1.55.43.25.44.17,1-.18,1.36l-5.09,5.04,11.84-6.83c.55-.31,1.24-.12,1.55.43.24.43.18.96-.15,1.33l-5.3,5.74,12.99-7.49c.5-.29,1.13-.16,1.48.3.35.46.3,1.11-.12,1.51l-4.96,4.77,11.39-6.57c.55-.31,1.24-.12,1.55.43.28.49.15,1.11-.29,1.46l-.52.4,3.96-2.28c.55-.3,1.24-.1,1.55.45.24.44.17.98-.18,1.34l-5.11,5.1,11.96-6.9c.55-.31,1.24-.12,1.55.42.27.48.16,1.09-.26,1.44l-2.86,2.33,7.29-4.2c.55-.31,1.24-.11,1.55.44.27.49.15,1.1-.28,1.44l-1.4,1.09,5.16-2.98c.5-.29,1.13-.16,1.48.3.35.46.3,1.11-.12,1.51l-4.99,4.83,11.5-6.64c.55-.31,1.24-.12,1.55.43.27.49.16,1.1-.28,1.45l-1.73,1.37,5.61-3.25c.55-.31,1.24-.12,1.55.43.26.45.18,1.02-.2,1.38l-4.93,4.71,11.3-6.52c.55-.31,1.24-.11,1.55.44.26.47.16,1.06-.25,1.42l-3.55,2.99,8.4-4.85c.55-.31,1.24-.12,1.55.43.27.47.17,1.06-.24,1.42l-3.81,3.26,8.86-5.11c.55-.31,1.24-.12,1.55.42.27.48.16,1.09-.26,1.44l-2.82,2.3,7.21-4.16c.54-.31,1.24-.13,1.56.42.25.44.18,1-.17,1.36l-5.2,5.3,12.3-7.09c.55-.31,1.24-.12,1.55.43.27.47.16,1.07-.25,1.43l-3.3,2.75,7.97-4.6c.55-.31,1.24-.12,1.55.43.25.44.18.99-.17,1.35l-5.22,5.36,12.38-7.14c.55-.31,1.24-.11,1.55.44.26.46.17,1.05-.23,1.4l-4.17,3.67,8.84-5.11c.54-.31,1.24-.13,1.55.42.27.47.17,1.07-.24,1.43l-3.4,2.93,3.04-1.75c.55-.3,1.24-.1,1.55.45.24.44.17.98-.18,1.34l-1.73,1.73.35-.2c.45-.27,1.02-.19,1.38.19.36.37.43.95.15,1.39l-.79,1.28c.61.17.96.8.79,1.4-.08.29-.27.53-.53.68l-2.64,1.53c-.55.31-1.24.13-1.55-.42-.21-.36-.2-.81.02-1.16l.41-.67-3.88,2.24c-.54.31-1.24.13-1.56-.42-.26-.44-.18-1.01.18-1.37l1.73-1.74-6.11,3.52c-.55.31-1.24.12-1.55-.43-.27-.47-.17-1.06.24-1.42l3.4-2.93-8.27,4.78c-.55.31-1.24.11-1.55-.44-.26-.46-.17-1.05.23-1.4l4.18-3.68-9.56,5.52c-.55.31-1.24.12-1.55-.43-.25-.44-.18-.99.17-1.35l5.23-5.37-12.38,7.14c-.55.31-1.24.12-1.55-.43-.27-.47-.16-1.07.25-1.43l3.3-2.75-7.99,4.61c-.55.31-1.24.12-1.55-.43-.25-.44-.18-.99.17-1.36l5.2-5.31-12.28,7.09c-.54.32-1.24.13-1.56-.41-.28-.48-.17-1.1.27-1.46l2.82-2.3-7.22,4.16c-.54.31-1.24.13-1.55-.42-.27-.47-.17-1.07.24-1.43l3.81-3.26-8.85,5.11c-.55.31-1.24.12-1.55-.43-.27-.47-.17-1.07.25-1.43l3.55-2.99-8.4,4.85c-.55.31-1.24.12-1.55-.43-.26-.45-.18-1.02.2-1.38l4.93-4.71-11.3,6.52c-.54.31-1.24.13-1.55-.42-.28-.49-.16-1.11.28-1.46l1.73-1.37-5.61,3.25c-.54.32-1.24.14-1.56-.4-.27-.46-.19-1.04.19-1.4l4.99-4.83-11.49,6.64c-.55.31-1.24.11-1.55-.44-.27-.49-.15-1.1.28-1.44l1.4-1.09-5.17,2.98c-.51.3-1.17.15-1.51-.34-.34-.49-.24-1.16.23-1.53l2.86-2.33-7.28,4.2c-.55.3-1.24.1-1.55-.45-.24-.44-.17-.98.18-1.34l5.13-5.12-11.98,6.91c-.55.31-1.24.12-1.55-.43-.28-.49-.15-1.11.29-1.46l.52-.4-3.96,2.28c-.54.32-1.24.15-1.56-.39-.28-.46-.19-1.05.2-1.42l4.96-4.77-11.39,6.58c-.55.31-1.24.13-1.55-.42-.25-.43-.19-.97.15-1.34l5.31-5.74-12.99,7.49c-.17.1-.37.16-.57.16h0Z"/>
  <path class="cls-4" d="m52.14,70.65c-.63,0-1.14-.51-1.14-1.14,0-.25.09-.5.24-.7l3.42-4.36-6.19,3.56c-.53.34-1.23.18-1.57-.35-.31-.49-.21-1.14.25-1.5l1.94-1.66-.63.36c-.54.32-1.24.13-1.56-.41-.27-.47-.17-1.07.23-1.43l2.7-2.38-1.38.8c-.54.33-1.24.16-1.56-.38-.29-.47-.2-1.07.21-1.44l4.25-4.03-2.9,1.67c-.54.31-1.24.13-1.56-.42-.27-.47-.17-1.06.23-1.42l3.01-2.69-1.68.97c-.55.31-1.24.12-1.55-.43-.25-.44-.18-.99.17-1.35l5.5-5.64-4.1,2.38c-.54.31-1.24.13-1.56-.42-.26-.45-.18-1.02.19-1.38l4.63-4.54-3.27,1.89c-.55.31-1.24.12-1.55-.42-.25-.43-.18-.98.16-1.35l1.94-2.04-.54.31c-.55.31-1.24.11-1.55-.44-.2-.36-.19-.8.03-1.16l.68-1.04c-.59-.22-.88-.88-.66-1.47.09-.24.27-.45.49-.58l2.64-1.53c.55-.31,1.24-.13,1.55.42.21.37.2.83-.03,1.19l-.17.26,3.24-1.87c.55-.31,1.24-.12,1.55.42.25.43.18.98-.16,1.35l-1.93,2.03,4.25-2.45c.54-.31,1.24-.13,1.56.42.26.45.18,1.02-.19,1.38l-4.63,4.54,3.44-2c.55-.31,1.24-.12,1.55.43.25.44.18.99-.17,1.35l-5.5,5.64,4.11-2.37c.54-.31,1.24-.13,1.56.42.27.47.17,1.06-.23,1.42l-3.01,2.68,1.69-.97c.54-.33,1.24-.16,1.56.38.29.47.2,1.07-.21,1.44l-4.25,4.03,2.9-1.67c.54-.32,1.24-.13,1.56.41.27.47.17,1.07-.23,1.43l-2.71,2.39,1.39-.8c.55-.31,1.24-.12,1.55.43.27.47.17,1.06-.24,1.42l-1.94,1.67.63-.36c.55-.31,1.24-.12,1.55.43.23.4.19.89-.09,1.26l-3.42,4.36,1.94-1.12c.56-.29,1.25-.08,1.54.48.27.52.1,1.17-.4,1.49l-7,4.04c-.17.1-.37.16-.57.16h0Z"/>
  <path class="cls-7" d="m27.79,69.95c-.63,0-1.14-.51-1.14-1.14,0-.31.13-.61.36-.83l1.71-1.62-2.99,1.73c-.55.31-1.24.13-1.55-.42-.28-.48-.17-1.09.26-1.44l5.17-4.31-6.97,4.01c-.54.32-1.24.13-1.56-.41-.3-.51-.16-1.15.32-1.5l4.53-3.3-2.73,1.58c-.54.32-1.24.15-1.56-.39-.3-.5-.17-1.15.3-1.5l11.19-8.57-5.1,2.95c-.54.32-1.24.14-1.56-.4-.29-.49-.18-1.11.27-1.47l6.77-5.55-1.12.64c-.55.31-1.24.11-1.55-.44-.26-.47-.16-1.06.24-1.41l3.25-2.76c-.16-.07-.3-.19-.4-.32-.35-.44-.33-1.07.06-1.48l2.65-2.83s-.04-.06-.05-.09c-.31-.54-.13-1.24.41-1.56l2.7-1.56c.54-.32,1.24-.13,1.56.41.25.43.19.98-.16,1.35l-.23.23,1.16-.67c.55-.31,1.24-.12,1.55.43.27.47.17,1.07-.25,1.43l-1.16.99,2.25-1.3c.55-.31,1.24-.12,1.55.43.27.48.16,1.09-.26,1.44l-6.75,5.55,8.22-4.75c.54-.31,1.24-.13,1.56.42.29.5.16,1.13-.29,1.47l-11.19,8.56,6.1-3.52c.54-.32,1.24-.13,1.56.41.3.51.16,1.15-.32,1.5l-4.57,3.33c.57-.28,1.25-.04,1.52.52.23.47.11,1.03-.29,1.37l-5.21,4.34c.58-.25,1.25.02,1.49.6.19.44.08.95-.26,1.27l-3.51,3.33c.54.32.73,1.01.41,1.56-.1.17-.24.31-.41.41l-5.4,3.13c-.17.1-.37.15-.56.14h0Z"/>
  <g>
    <path class="cls-8" d="m9.75,81.64c2.21,9.54-5.87,62.75,6.11,59.15,67.52,1.79,42.87,1.75,47.29-58.89,20.15-.01,40.3.05,60.46.02v52.57c-.74,4.33,2.9,6.8,6.85,6.38,4.33,0,9.92-.4,10.11-5.98.29-17.85-.15-35.73,0-53.59,1.95-.97,2.28-2.83,2.28-5.39,2.5-13.01-17.41-5.36-25.01-7.28.77-4.76-1.29-9.99-6.87-9.45v-6.66c34.7,3.94,19.85-13.92,22.79-39.45,1.8-11.78-46.21-4.24-55.86-6.17-13.01,1.79-4.3,28.01-6.68,37.85-.97,12.3,15.27,6.55,22.79,7.77v6.65c-5.34-.21-7.61,4.78-6.86,9.45h-27.04c1-5.31,2.28-30.29-.72-33.61-3.95-.32-12.17-2.11-13.21,3.26-8.51-8.51-12.5,3.7-16.82,9.74-2.58,6.42-15.65,15.98-4.87,20.55-8.4.1-20.18-2.65-17.01,10.09-.09,1.42.88,2.69,2.28,2.99h0Zm46.97,57.89c-41.45-3.26-45.75,13.59-43.68-28.26h46.8c-1.45,6.39,3.51,26.46-3.12,28.26Zm3.12-29.69H13.05v-27.94h46.8v27.94Zm74.4,29.6c-4.15.63-8.1-1.26-7.34-6.05,0-17.16,0-34.32,0-51.48,3.45,0,6.91,0,10.37-.02-1.8,10.22,4.02,54.94-3.03,57.56h0ZM74.55,12.54c-.27-7.1,44.61-1.72,52.79-3.27,6.76,3.19,1.5,24.23,3.07,31.75h-55.87c.25-9.47-.56-19.03,0-28.47Zm5.85,37.64c-4.39.91-6.71-2.4-5.92-6.7h55.99c.12,2.72.2,6.46-2.78,6.7h-47.29Zm27.26,2.35v6.68c-3.46-.02-6.91.03-10.37-.02v-6.66h10.37Zm-15.64,9.45c6.25-.68,13.07-.12,19.38-.27,3.42.31,3.19,4.16,3.09,6.91h-24.02c-.11-2.23-.46-5.57,1.56-6.64h0Zm-45.5,6.64h-13.41c4.37-6.76,8.7-13.53,13.07-20.3.31,6.67-.62,13.76.34,20.3h0Zm3.42-32.6c.11-.1.23-.07,0,0Zm-.46,1.3c.02-.42.33-.84.38-1.21,3.85-.13,8.98-.95,7.7,4.67-.36,9.24.68,18.73-.32,27.84h-6.77c-2.66-9.53-.22-21.14-1-31.3h0Zm-24.24,22.5c4.76-7.18,9.22-14.65,14.01-21.75,1.87-.54,4.13,2.46,6.03,3.24,3.17.86-13.81,24.5-15.86,26.81-3.34-2.3-8.82-3.88-4.18-8.29Zm-14.2,10.68c25.37.05,50.99-.02,76.54,0,8.84.17,18.28-.12,27.32,0,5.75,1.37,21.34-2.67,24.65,1.77.14.68.4,7.42-.38,7.73H12.2c-2.56-.8-1.49-7.7-1.17-9.5h0Z"/>
    <path class="cls-8" d="m41.15,118.49c-3.33.68-8.74-1.57-10.93,1.32-.38,2.41,18.11,1.08,10.93-1.32Z"/>
    <path class="cls-8" d="m38.81,90.78c10.62-1.15-5.67-2.45-8.2-.8-.66,1.86,6.42.31,8.2.8Z"/>
  </g>
</svg>