<?xml version="1.0" encoding="UTF-8"?>
<svg id="Layer_1_copy" data-name="Layer 1 copy" xmlns="http://www.w3.org/2000/svg" viewBox="0 0 150 150">
  <defs>
    <style>
      .cls-1 {
        fill: #fffbc9;
      }

      .cls-2 {
        fill: #7c9bae;
      }

      .cls-3 {
        fill: #494223;
      }

      .cls-4 {
        fill: #edf2c0;
      }

      .cls-5 {
        fill: #f26830;
      }
    </style>
  </defs>
  <path class="cls-5" d="m18.94,138.92c-.63,0-1.14-.5-1.14-1.13,0-.38.18-.73.49-.94l4.57-3.19-8.45,4.89c-.56.29-1.24.08-1.54-.48-.27-.5-.12-1.13.34-1.46l1.72-1.15-3.16,1.82c-.54.32-1.24.15-1.56-.39-.32-.53-.15-1.22.37-1.55l.47-.31c-.59.21-1.24-.1-1.45-.69-.17-.49,0-1.03.43-1.32l7.55-5.18-6.54,3.78c-.55.31-1.24.12-1.55-.42-.29-.5-.15-1.14.31-1.48l13.9-10.25-11.95,6.9c-.54.32-1.24.14-1.56-.4-.31-.51-.16-1.18.33-1.52l6.66-4.72-4.02,2.31c-.54.32-1.24.13-1.56-.41-.28-.48-.17-1.09.25-1.45l9.91-8.29-8.15,4.71c-.54.31-1.24.13-1.55-.42-.28-.49-.16-1.1.27-1.45l4.47-3.6-7.43,4.29c-.55.3-1.24.1-1.54-.46-.24-.45-.16-1.01.21-1.36l5.32-4.78c-.35-.05-.65-.25-.83-.56-.31-.54-.13-1.24.42-1.56l7.77-4.49c.55-.3,1.24-.1,1.54.46.24.45.16,1.01-.21,1.36l-4.45,4,10.8-6.24c.55-.31,1.24-.12,1.55.43.27.48.16,1.09-.27,1.44l-4.46,3.59,6.77-3.91c.54-.32,1.24-.14,1.56.41.28.48.17,1.1-.26,1.45l-9.91,8.29,13.73-7.92c.54-.31,1.24-.13,1.56.42.29.51.15,1.16-.33,1.5l-6.66,4.72,8.47-4.89c.55-.31,1.24-.11,1.55.44.28.49.15,1.11-.3,1.46l-13.89,10.25,14.35-8.28c.55-.31,1.24-.12,1.55.43.29.51.14,1.15-.34,1.49l-7.57,5.19,7.54-4.35c.55-.31,1.24-.11,1.55.44.29.52.13,1.17-.35,1.5l-.23.14c.57-.28,1.25-.04,1.52.53.25.51.08,1.12-.38,1.44l-1.71,1.14,1.48-.85c.55-.31,1.24-.12,1.55.42.29.51.15,1.16-.33,1.5l-4.57,3.19,3.68-2.12c.54-.32,1.24-.13,1.56.41.28.49.17,1.11-.27,1.46l-2.65,2.15.99-.57c.54-.33,1.24-.16,1.56.38.29.47.2,1.07-.21,1.44l-5.51,5.18,1.82-1.04c.54-.32,1.24-.14,1.56.41s.14,1.24-.41,1.56c0,0,0,0-.01,0l-10.32,5.96c-.54.33-1.24.16-1.56-.38-.29-.47-.2-1.07.21-1.44l5.51-5.18-4.92,2.84c-.54.32-1.24.14-1.56-.41-.29-.49-.17-1.11.27-1.47l2.66-2.15-14.42,8.33c-.17.1-.37.15-.57.15h0Z"/>
  <path class="cls-4" d="m48.86,123.74c-.63,0-1.14-.51-1.14-1.14,0-.32.14-.63.38-.84l3.14-2.83-4.15,2.4c-.55.31-1.24.12-1.55-.42-.28-.5-.16-1.13.3-1.47l.28-.21-.71.41c-.54.31-1.24.13-1.56-.42-.28-.49-.17-1.11.27-1.46l4.82-3.87-5.89,3.4c-.55.31-1.24.12-1.55-.42-.27-.48-.17-1.08.25-1.44l7.22-6.07-8.77,5.06c-.55.31-1.24.12-1.55-.43-.29-.5-.15-1.14.31-1.48l.77-.56-1.27.73c-.54.32-1.24.13-1.56-.41-.27-.47-.17-1.07.23-1.43l8.24-7.27-10.16,5.87c-.55.31-1.24.12-1.55-.43-.28-.5-.15-1.13.3-1.47l2.08-1.54-2.71,1.56c-.55.31-1.24.12-1.55-.42-.29-.5-.15-1.15.32-1.49l.15-.11-.59.34c-.54.32-1.24.13-1.56-.41-.28-.48-.17-1.09.25-1.45l7.15-5.99-8.68,5.01c-.55.3-1.24.1-1.55-.45-.27-.49-.15-1.1.29-1.44l4.57-3.54-5.52,3.19c-.55.31-1.24.12-1.55-.43-.28-.5-.15-1.13.31-1.47l.86-.63-.7.41c-.55.31-1.24.12-1.55-.43-.28-.49-.15-1.12.3-1.47l1.26-.96c-.63.03-1.16-.45-1.19-1.08-.02-.43.2-.83.57-1.04l14.26-8.23c.55-.31,1.24-.12,1.55.43.28.49.15,1.12-.3,1.47l-.49.37,3.42-1.97c.55-.31,1.24-.12,1.55.43.28.5.15,1.13-.31,1.47l-.85.62,1.72-.99c.54-.32,1.24-.13,1.56.41.29.49.16,1.13-.29,1.47l-4.57,3.55,5.54-3.19c.55-.31,1.24-.12,1.55.42.27.48.17,1.08-.25,1.44l-7.15,5.98,8.68-5.01c.55-.31,1.24-.12,1.55.42.29.5.15,1.15-.32,1.49l-.15.11.59-.34c.55-.31,1.24-.12,1.55.43.28.5.15,1.13-.3,1.47l-2.09,1.55,2.73-1.57c.55-.31,1.24-.12,1.55.43.27.47.17,1.05-.23,1.41l-8.24,7.26,10.16-5.86c.55-.3,1.24-.1,1.55.45.27.5.14,1.12-.31,1.46l-.77.56,1.27-.73c.55-.31,1.24-.12,1.55.42.27.48.17,1.08-.25,1.44l-7.22,6.07,7.59-4.38c.54-.31,1.24-.13,1.56.42.28.49.17,1.11-.27,1.46l-4.82,3.87,4.06-2.35c.55-.31,1.24-.11,1.55.44.28.49.15,1.11-.3,1.46l-2.25,1.69c.61.14,1,.74.87,1.36-.05.23-.17.44-.35.6l-3.71,3.35c.63,0,1.13.53,1.12,1.16,0,.4-.22.77-.57.97l-8.2,4.73c-.17.1-.36.15-.56.15h0Z"/>
  <path class="cls-5" d="m75.28,134.9c-.63,0-1.14-.51-1.14-1.14,0-.36.17-.7.46-.91l.35-.26c-.6.19-1.24-.15-1.42-.75-.14-.47.03-.98.42-1.26l2.96-2.1-2.4,1.38c-.54.32-1.24.13-1.56-.41-.28-.49-.16-1.12.29-1.47l12.79-9.96-12.65,7.3c-.55.31-1.24.12-1.55-.43-.28-.49-.15-1.12.3-1.47l12-9.09-11.79,6.81c-.55.31-1.24.11-1.55-.43-.29-.51-.14-1.16.34-1.49l1.82-1.25-1.24.72c-.55.31-1.24.12-1.55-.43-.28-.5-.15-1.12.3-1.47l12.43-9.29-12.21,7.05c-.54.32-1.24.14-1.56-.41-.29-.5-.17-1.13.29-1.48l6.64-5.16-6.24,3.61c-.56.29-1.25.08-1.54-.48-.27-.52-.1-1.17.4-1.49l20.73-11.97c.55-.31,1.24-.12,1.55.42.28.49.16,1.11-.29,1.46l-6.65,5.16,14.29-8.25c.54-.31,1.24-.13,1.56.42.29.5.16,1.13-.3,1.48l-12.43,9.3,11.48-6.63c.55-.31,1.24-.11,1.55.43.29.51.14,1.16-.34,1.49l-1.82,1.24.79-.46c.55-.31,1.24-.12,1.55.43.28.49.15,1.12-.3,1.47l-12,9.09,11.06-6.38c.55-.31,1.24-.12,1.55.43.28.49.16,1.11-.28,1.46l-12.78,9.96,9.71-5.61c.55-.31,1.24-.11,1.55.44.28.5.14,1.13-.32,1.47l-7.29,5.15c.19.09.35.23.47.41.33.5.22,1.18-.27,1.54l-6.12,4.58c.06.06.11.13.15.21.31.54.13,1.24-.42,1.56l-9.24,5.33c-.17.1-.37.15-.57.15h0Z"/>
  <path class="cls-5" d="m38.01,80.15c-.63,0-1.14-.51-1.14-1.14,0-.23.07-.46.2-.65l1.5-2.19-4.61,2.67c-.55.31-1.24.12-1.55-.42-.27-.48-.17-1.08.25-1.44l1.33-1.11-3.6,2.08c-.55.31-1.24.11-1.55-.43-.27-.47-.16-1.07.25-1.42l8.83-7.41-13.47,7.77c-.55.31-1.24.12-1.55-.42-.29-.5-.15-1.14.31-1.48l12.07-8.9-16.33,9.43c-.54.32-1.24.13-1.56-.41-.3-.52-.15-1.18.35-1.52l8.11-5.43-10.81,6.24c-.55.3-1.24.1-1.55-.45-.28-.5-.14-1.12.32-1.46l14.07-10.04-11.02,6.37c-.55.31-1.24.12-1.55-.42-.29-.51-.15-1.15.32-1.49l8.81-6.28c-.62-.1-1.05-.68-.95-1.3.04-.27.18-.52.39-.69l7.67-6.49c-.31-.54-.13-1.24.42-1.55l4.53-2.61c.54-.32,1.24-.13,1.56.41.28.48.17,1.09-.25,1.44l-2.75,2.33,6.72-3.88c.55-.31,1.24-.12,1.55.42.29.51.15,1.15-.32,1.49l-6.64,4.73,10.87-6.28c.55-.31,1.24-.12,1.55.42.29.51.15,1.15-.32,1.49l-14.08,10.05,19.9-11.49c.55-.31,1.24-.11,1.55.44.29.51.14,1.16-.35,1.49l-8.08,5.41,4.24-2.45c.55-.31,1.24-.12,1.55.42.29.5.15,1.14-.31,1.48l-12.06,8.9,7.2-4.16c.55-.31,1.24-.12,1.55.42.27.48.17,1.08-.25,1.44l-8.83,7.42,3.63-2.09c.55-.31,1.24-.11,1.55.43.27.47.16,1.07-.25,1.42l-2.78,2.34c.61.16.97.78.81,1.39-.03.13-.09.25-.16.36l-2.99,4.35c.31.54.13,1.24-.41,1.56l-1.32.76c-.17.1-.36.16-.56.16Z"/>
  <path class="cls-1" d="m61.82,110.12c-.63,0-1.14-.51-1.14-1.14,0-.39.2-.76.54-.97l4.5-2.81-5.13,2.96c-.54.32-1.24.15-1.56-.39s-.15-1.24.39-1.56l4.99-3.1-5.62,3.25c-.54.32-1.24.15-1.56-.39-.32-.54-.15-1.24.39-1.56l17.1-10.72-18.13,10.47c-.55.3-1.24.1-1.55-.45-.28-.52-.13-1.16.36-1.49l34.38-22.02-36.24,20.92c-.55.31-1.24.11-1.55-.44-.29-.52-.13-1.19.37-1.51l27.1-16.96-28.42,16.41c-.56.29-1.24.08-1.54-.48-.27-.52-.11-1.15.37-1.48l17.12-10.54-18.03,10.41c-.55.3-1.24.1-1.55-.45-.29-.52-.13-1.17.37-1.5l41.94-26.57-43.92,25.36c-.54.32-1.24.15-1.56-.39-.32-.54-.15-1.24.39-1.56l37.93-23.78-39.62,22.87c-.54.32-1.24.14-1.56-.4-.32-.54-.14-1.24.4-1.56h0l16.67-10.21-17.55,10.13c-.54.31-1.24.13-1.56-.42-.31-.53-.14-1.21.38-1.53l33.97-21.18-35.05,20.25c-.54.32-1.24.15-1.56-.39s-.15-1.24.39-1.56h0l31.54-19.6-29.95,17.31c-.55.3-1.24.1-1.55-.45-.29-.53-.12-1.19.38-1.51l18.74-11.53-16.01,9.24c-.55.3-1.24.1-1.55-.45-.29-.53-.12-1.19.38-1.51l4.94-3.02-2.21,1.28c-.55.3-1.24.1-1.55-.45-.28-.52-.13-1.16.36-1.49l37.9-24.22-33.36,19.26c-.54.32-1.24.15-1.56-.39-.32-.54-.15-1.24.39-1.56l7.91-4.87-4.33,2.49c-.54.32-1.24.15-1.56-.39-.32-.54-.15-1.24.39-1.56l10.02-6.22-5.92,3.42c-.54.32-1.24.14-1.56-.41-.31-.53-.15-1.21.37-1.54l22.74-14.53-16.9,9.77c-.55.3-1.24.09-1.54-.46-.28-.52-.12-1.16.36-1.49l12.13-7.69-6.13,3.53c-.55.31-1.24.12-1.55-.43-.3-.52-.14-1.19.37-1.52l10.83-6.97-3.34,1.93c-.54.31-1.24.13-1.56-.42-.29-.51-.15-1.16.33-1.5l13.76-9.75c-.61-.16-.97-.79-.81-1.39.08-.29.27-.54.53-.69l17.49-10.09c.55-.31,1.24-.11,1.55.44.28.5.14,1.13-.32,1.47l-10.83,7.67,22.65-13.07c.55-.3,1.24-.1,1.55.45.28.52.13,1.16-.36,1.49l-10.85,6.98,13.33-7.7c.55-.31,1.24-.12,1.55.42.3.53.14,1.2-.37,1.52l-12.13,7.69,13.05-7.53c.55-.31,1.24-.11,1.55.44.29.52.13,1.18-.37,1.51l-22.75,14.54,24.12-13.94c.54-.32,1.24-.15,1.56.39s.15,1.24-.39,1.56h0l-10,6.2,10.77-6.21c.55-.31,1.24-.11,1.55.43.3.53.13,1.2-.38,1.52l-7.93,4.89,8.62-4.98c.55-.31,1.24-.11,1.55.44.29.52.13,1.18-.37,1.51l-37.88,24.21,39.85-23c.55-.3,1.24-.09,1.54.47.28.52.11,1.17-.38,1.49l-4.98,3.03,5.59-3.22c.54-.32,1.24-.15,1.56.4.32.54.15,1.24-.4,1.56l-18.72,11.51,19.67-11.36c.55-.31,1.24-.11,1.55.43.3.53.13,1.2-.38,1.52l-31.53,19.6,32.9-19c.54-.32,1.24-.15,1.56.39s.15,1.24-.39,1.56l-33.98,21.18,35.47-20.48c.54-.32,1.24-.14,1.56.4.32.54.14,1.24-.4,1.56l-16.7,10.23,17.38-10.03c.55-.31,1.24-.11,1.55.44.29.52.13,1.19-.37,1.51l-37.93,23.78,37.81-21.83c.55-.31,1.24-.12,1.55.42.3.53.14,1.2-.37,1.52l-41.96,26.57,39.5-22.8c.54-.32,1.24-.15,1.56.4.32.54.15,1.24-.4,1.56l-17.09,10.52,14.35-8.29c.54-.32,1.24-.15,1.56.39.32.54.15,1.24-.39,1.56l-27.11,16.97,23.61-13.63c.55-.31,1.24-.11,1.55.44.29.52.13,1.18-.37,1.51l-34.37,22.01,29.44-17c.54-.32,1.24-.15,1.56.39.32.54.15,1.24-.39,1.56h0l-17.08,10.7,12.33-7.12c.55-.3,1.24-.1,1.55.45.29.52.12,1.18-.38,1.5l-5.04,3.13.13-.08c.56-.29,1.24-.08,1.54.48.27.51.11,1.15-.37,1.47l-5.69,3.56c.61-.14,1.22.25,1.36.86.1.45-.08.92-.47,1.19l-21.36,14.65,5.82-3.36c.56-.29,1.25-.08,1.54.48.27.52.1,1.17-.4,1.49l-31.29,18.07c-.55.31-1.24.12-1.55-.42-.29-.51-.15-1.16.34-1.5l21.35-14.64-28.88,16.68c-.18.1-.38.15-.58.15h0Z"/>
  <path class="cls-2" d="m98.27,70.09c-.63,0-1.14-.51-1.14-1.14,0-.33.14-.64.39-.85l8.43-7.42-14.17,8.18c-.55.31-1.24.12-1.55-.43-.28-.49-.15-1.12.3-1.47l9.65-7.29-12.37,7.14c-.55.31-1.24.12-1.55-.42-.28-.5-.16-1.13.3-1.47l12.57-9.47-14.63,8.44c-.55.3-1.24.11-1.55-.44-.28-.51-.13-1.15.34-1.48l1.79-1.2-2.09,1.21c-.54.33-1.24.16-1.57-.38-.32-.53-.17-1.21.35-1.55l5.11-3.49-5.26,3.04c-.56.28-1.25.06-1.53-.5-.25-.49-.11-1.08.32-1.41l7.23-5.04-7.08,4.1c-.55.31-1.24.12-1.55-.42-.29-.5-.15-1.15.32-1.49l9.49-6.86-8.88,5.12c-.55.31-1.24.12-1.55-.42-.29-.5-.15-1.14.31-1.48l8.2-6.04-6.78,3.91c-.54.32-1.24.13-1.56-.41-.28-.49-.16-1.12.29-1.47l6.63-5.16-3.94,2.28c-.55.31-1.24.12-1.55-.43-.27-.47-.17-1.06.24-1.42l4.13-3.53c-.57-.26-.83-.93-.58-1.5.1-.22.26-.4.47-.52l7.72-4.46c.54-.31,1.24-.13,1.56.42.27.48.17,1.08-.25,1.43l-2.18,1.86,7.48-4.33c.54-.32,1.24-.15,1.56.39.3.5.17,1.14-.29,1.49l-6.63,5.16,10.21-5.9c.55-.31,1.24-.12,1.55.42.29.5.15,1.14-.31,1.48l-8.2,6.04,10.52-6.08c.55-.31,1.24-.12,1.55.42.29.5.15,1.15-.32,1.49l-9.49,6.85,11.08-6.4c.55-.31,1.24-.11,1.55.44.28.51.14,1.14-.33,1.48l-7.23,5.03,7.97-4.6c.54-.32,1.24-.13,1.56.41.3.52.15,1.18-.34,1.51l-5.1,3.5,5.28-3.04c.54-.32,1.24-.13,1.56.41.3.52.15,1.18-.35,1.52l-1.79,1.2,1.51-.87c.55-.31,1.24-.12,1.55.42.28.5.16,1.13-.3,1.47l-12.57,9.47,12.18-7.03c.55-.31,1.24-.11,1.55.44.27.49.15,1.11-.29,1.45l-9.65,7.3,8.19-4.72c.55-.31,1.24-.11,1.55.44.26.46.17,1.05-.23,1.4l-8.44,7.41,4.52-2.61c.55-.31,1.24-.12,1.55.43.31.54.12,1.23-.41,1.54l-14.46,8.35c-.17.1-.36.15-.56.15h0Z"/>
  <path class="cls-5" d="m137.13,40.72c-.63,0-1.14-.51-1.14-1.14,0-.13.02-.26.07-.39l.56-1.56-1.17.68c-.55.31-1.24.12-1.55-.42-.21-.37-.2-.82.02-1.17l2.36-3.7-3.88,2.24c-.55.3-1.24.1-1.55-.45-.25-.45-.16-1.02.21-1.37l.46-.41-.86.5c-.55.31-1.24.12-1.55-.42-.25-.44-.18-.99.17-1.35l4.8-4.96-6.44,3.7c-.54.32-1.24.14-1.56-.4-.27-.46-.18-1.06.21-1.42l6.24-5.81-7.94,4.59c-.55.31-1.24.11-1.55-.43-.27-.48-.16-1.1.28-1.44l3.76-2.96-4.65,2.68c-.54.31-1.24.13-1.56-.42-.28-.49-.17-1.11.27-1.46l5.16-4.13-6.27,3.62c-.54.32-1.24.13-1.56-.41-.3-.51-.16-1.15.32-1.5l.2-.14-.64.38c-.55.31-1.24.12-1.55-.42-.28-.49-.16-1.12.29-1.47l2.34-1.8-3.02,1.74c-.54.31-1.24.13-1.56-.42-.25-.44-.19-.99.16-1.36l4.55-4.76-6.15,3.55c-.55.31-1.24.11-1.55-.43-.25-.44-.17-1,.18-1.36l.77-.76-1.23.71c-.54.31-1.24.13-1.56-.42-.06-.11-.11-.23-.13-.35l-.33-1.71-.29.17c-.55.31-1.24.12-1.55-.43-.31-.54-.12-1.23.41-1.54l1.68-.97c.32-.19.71-.21,1.04-.05.34.15.58.46.64.82l.33,1.71,7.46-4.32c.55-.31,1.24-.11,1.55.43.25.44.17,1-.18,1.36l-.77.76,5.44-3.14c.54-.31,1.24-.13,1.56.42.25.44.19.99-.16,1.36l-4.55,4.76,11.14-6.44c.55-.31,1.24-.12,1.55.42.28.49.16,1.12-.29,1.47l-2.34,1.79,4.1-2.36c.54-.32,1.24-.13,1.56.41.3.51.16,1.15-.32,1.5l-.2.15.73-.41c.55-.31,1.24-.12,1.55.43.27.48.16,1.1-.27,1.45l-5.16,4.13,5.43-3.14c.55-.31,1.24-.12,1.55.42.28.49.16,1.11-.28,1.46l-3.77,2.97,2.91-1.68c.54-.32,1.24-.14,1.56.4.27.46.18,1.06-.21,1.42l-6.25,5.8,4.81-2.77c.55-.31,1.24-.12,1.55.42.25.44.18.99-.17,1.35l-4.8,4.96,3.02-1.74c.55-.3,1.24-.1,1.55.45.25.45.16,1.02-.21,1.37l-1.1,1c.63.03,1.11.57,1.07,1.2-.01.2-.07.38-.18.55l-2.38,3.72c.58-.24,1.25.04,1.48.63.11.26.11.55.02.82l-1.14,3.11.04.06c.31.55.13,1.24-.42,1.55,0,0,0,0,0,0l-.62.36c-.17.1-.37.16-.57.16h0Z"/>
  <g>
    <path class="cls-3" d="m86.86,67.25c15.78,9.59,37.68-8.36,28.3-25.4-16.22-27.17-55.82,7.01-28.3,25.4Zm-5.84-18.95c1.3-16,23.18-20.12,30.58-6.04,13.69,27.87-32.41,36.82-30.58,6.04Z"/>
    <path class="cls-3" d="m7.75,116.37c1.61.88,3.61-.26,5.21.59-10.55,19.47-1.69,27.73,17.84,18.22-.33,14.83,17.99-4.76,16.71-11.87,8.32,4.39,11.59-6.87,14.9-12.27,1.69.64,3.55.66,5.26.05,3.45,5.99,1.82,29.9,12.63,23.02,14.3-14.84,25.07-17.87,20.1-40.78,18.03-13.28,32.87-32,38.88-53.58,4.35-15.03,7.74-38.72-15.91-32.84-28.13,2.49-52.87,19.25-69.56,41.8-21.71-5.28-27.57,7.68-41.4,21.06-3.44,7.11,19.7,7.25,24.46,10.03-1.09,2.15-.96,4.71.34,6.73-4.95,3.36-19.46,7.25-11.79,14.93-7.22.39-19.21,7.11-17.67,14.91h0Zm90.36-7.04c-1.23,10.61-14.66,16.68-20.76,24.98-2.8-7.41-4.16-16.34-6.42-24.26,9.27-3.78,18.08-8.58,26.27-14.33l.91,13.61ZM127.67,8.61c16.62-2.31,11.07,18.7,9.09,28.49l-26.1-26.09c5.56-1.42,11.26-2.22,17-2.4Zm-43.49,14.18c7.09-4.72,14.84-8.37,23-10.83l28.67,28.66c-9.63,31.38-40.08,63.1-72.38,67.9-5.31-8.01-26.56-19.89-23.09-29.25,8.31-22.96,23.64-42.72,43.81-56.48h0Zm-58.42,52.21c-23.79-2.34,1.57-14.38,7.47-23.25,4.7-5.46,13.21-.89,19.49-1.52-6.16,8.59-11.25,17.9-15.14,27.72l-11.82-2.96Zm1.7,18.85c3.34-2.32,7.19-4.01,10.7-6.12,7.5,7.21,14.61,14.66,22.06,21.88-3.1,3.19-4.73,14.95-10.2,12.19-6.67-6.52-12.91-13.15-19.74-19.56,0-.26-.18-.47-.58-.55-2.4-2.34-4.64-5.26-2.25-7.84Zm-16.39,18.93c2.96-5.85,9.81-10.27,16.37-9.29,5.54,5.54,11.08,11.08,16.62,16.62,2.05,6.9-5.77,17.82-9.86,18.05,2.16-12.5-11.63,1.57-18.24-1.3-8.32-1.39-2.54-15.69.46-20.4.22-1.7-3.06-1.76-4.34-1.88-2.46.52-2.05.03-1.01-1.79h0Z"/>
    <path class="cls-3" d="m55.6,68.35c-1.53,1.69-.91,5.96-.43,8.07,4.08,1.25,2.78-3.9,2.96-6.32,12.54.14,3.94-3.73-2.53-1.75h0Z"/>
    <path class="cls-3" d="m74.18,90.85c-8.67,1.51,3.49,2.88,5.92,1.61,1.56-1.59.91-5.89.46-7.97-4.1-1.14-2.78,3.88-2.96,6.35h-3.42Z"/>
    <path class="cls-3" d="m60.66,82.86c-3.67,5.71,12.32-4.21,14.4-4.85,3.67-5.71-12.32,4.21-14.4,4.85Z"/>
  </g>
</svg>