<?xml version="1.0" encoding="UTF-8"?>
<svg id="a" data-name="Layer 1" xmlns="http://www.w3.org/2000/svg" viewBox="0 0 500 500">
  <defs>
    <style>
      .c {
        fill: #cfcfce;
      }

      .d {
        fill: #fff;
      }

      .e {
        fill: #ffc414;
      }

      .f {
        fill: #3d3e3d;
      }
    </style>
  </defs>
  <g id="b" data-name="Light">
    <path class="c" d="m183.84,418h-48c-8.84,0-16,7.16-16,16s7.16,16,16,16h128c8.84,0,16-7.16,16-16s-7.16-16-16-16h-80Z"/>
    <path class="c" d="m119.84,466c0,8.84,7.16,16,16,16h128c8.84,0,16-7.16,16-16s-7.16-16-16-16h-128c-8.84,0-16,7.16-16,16Z"/>
    <path class="e" d="m302.4,218c4.52,12.46-1.91,26.23-14.37,30.75-12.46,4.52-26.23-1.91-30.75-14.37-1.92-5.29-1.92-11.09,0-16.38h-57.44v-54.24c-9.81,8.91-24.99,8.19-33.9-1.62-8.91-9.81-8.19-24.99,1.62-33.9,9.15-8.32,23.13-8.32,32.29,0V58c-83.95.13-151.89,68.29-151.76,152.24.09,58.99,34.3,112.6,87.76,137.53v70.24h128v-70.24c51.1-23.62,84.96-73.55,88-129.76h-49.44Z"/>
    <path class="e" d="m319.84,18v70.24c-9.81-8.92-24.99-8.19-33.9,1.62-8.92,9.81-8.19,24.99,1.62,33.9,9.15,8.32,23.13,8.32,32.29,0v54.24h57.44c-4.52,12.46,1.91,26.23,14.37,30.75,12.46,4.52,26.23-1.91,30.75-14.37,1.92-5.29,1.92-11.09,0-16.38h49.44v-8c0-83.95-68.05-152-152-152Z"/>
    <path class="e" d="m183.84,298h32v120h-32v-120Z"/>
    <path class="e" d="m167.84,266c-8.84,0-16,7.16-16,16s7.16,16,16,16h16v-16c0-8.84-7.16-16-16-16Z"/>
    <path class="e" d="m247.84,282c0-8.84-7.16-16-16-16s-16,7.16-16,16v16h16c8.84,0,16-7.16,16-16Z"/>
    <path class="f" d="m183.84,130c3.94.03,7.73,1.51,10.64,4.16,3.28,2.96,8.34,2.7,11.3-.58,1.32-1.46,2.06-3.37,2.06-5.34V58c0-4.42-3.58-8-8-8-88.37.18-159.85,71.96-159.67,160.32.12,60.18,34,115.19,87.68,142.4v58.72c-9.57,3.38-15.97,12.41-16,22.56.04,5.92,2.26,11.62,6.24,16-3.98,4.38-6.21,10.08-6.24,16,0,13.26,10.75,24,24,24h128c13.26,0,24-10.74,24-24-.04-5.92-2.26-11.62-6.24-16,3.98-4.38,6.2-10.08,6.24-16-.03-10.15-6.43-19.18-16-22.56v-58.72c51.4-25.64,85.02-76.96,88-134.32.12-2.19-.66-4.32-2.16-5.92-1.52-1.6-3.64-2.49-5.84-2.48h-49.44c-4.41-.25-8.19,3.12-8.44,7.54-.06,1.05.09,2.11.44,3.1.81,1.68,1.3,3.5,1.44,5.36,0,8.84-7.16,16-16,16s-16-7.16-16-16c.02-1.84.37-3.65,1.04-5.36,1.46-4.17-.73-8.74-4.9-10.2-1-.35-2.05-.5-3.1-.44h-49.04v-46.24c0-4.42-3.6-7.99-8.02-7.98-1.97,0-3.88.74-5.34,2.06-6.54,5.94-16.66,5.46-22.6-1.08-5.94-6.54-5.46-16.66,1.08-22.6,2.98-2.71,6.86-4.19,10.88-4.16Zm-48,296h128c4.42,0,8,3.58,8,8s-3.58,8-8,8h-128c-4.42,0-8-3.58-8-8s3.58-8,8-8Zm40-136h-8c-4.42,0-8-3.58-8-8s3.58-8,8-8,8,3.58,8,8v8Zm16,16h16v104h-16v-104Zm72,168h-128c-4.42,0-8-3.58-8-8s3.58-8,8-8h128c4.42,0,8,3.58,8,8s-3.58,8-8,8Zm-80-296c2.7.02,5.39-.33,8-1.04v41.04c0,4.42,3.58,8,8,8h48c0,17.67,14.33,32,32,32s32-14.33,32-32h31.04c-5.53,49.96-36.78,93.38-82.4,114.48-2.84,1.31-4.65,4.15-4.64,7.28v62.24h-32v-104h8c13.26,0,24-10.74,24-24s-10.74-24-24-24-24,10.74-24,24v8h-16v-8c0-13.26-10.74-24-24-24s-24,10.74-24,24,10.74,24,24,24h8v104h-32v-62.24c0-3.12-1.8-5.97-4.64-7.28-72.18-33.39-103.62-118.97-70.23-191.15,22.38-48.37,69.65-80.43,122.87-83.33v48.8c-2.62-.63-5.31-.9-8-.8-17.67,0-32,14.33-32,32s14.33,32,32,32Zm40,112v-8c0-4.42,3.58-8,8-8s8,3.58,8,8-3.58,8-8,8h-8Z"/>
    <path class="f" d="m479.84,178v-8c0-88.37-71.63-160-160-160-4.42,0-8,3.58-8,8v57.04c-2.61-.71-5.3-1.06-8-1.04-17.67,0-32,14.33-32,32s14.33,32,32,32c2.7.02,5.39-.33,8-1.04v41.04c0,4.42,3.58,8,8,8h48c0,17.67,14.33,32,32,32s32-14.33,32-32h40c4.26-.37,7.63-3.74,8-8Zm-57.2-8c-4.41-.25-8.19,3.12-8.44,7.54-.06,1.05.09,2.11.44,3.1.72,1.7,1.13,3.51,1.2,5.36,0,8.84-7.16,16-16,16s-16-7.16-16-16c.02-1.84.37-3.65,1.04-5.36,1.46-4.17-.73-8.74-4.89-10.2-1-.35-2.05-.5-3.11-.44h-49.04v-46.24c-.01-4.42-3.6-7.99-8.02-7.98-1.97,0-3.88.74-5.34,2.06-6.63,5.85-16.74,5.21-22.58-1.42s-5.21-16.74,1.42-22.58c6.05-5.33,15.12-5.33,21.17,0,3.28,2.96,8.34,2.71,11.3-.57,1.25-1.39,1.98-3.17,2.06-5.03V26c76.39,4.25,136.12,67.49,136,144h-41.2Z"/>
    <path class="d" d="m379.6,75.2c-7.05-4.42-14.56-8.07-22.4-10.88l5.28-15.04c8.97,3.15,17.56,7.31,25.6,12.4l-8.48,13.52Z"/>
    <path class="d" d="m427.84,140.16c-5.61-20.07-16.69-38.18-32-52.32l10.88-11.68c17.46,16.11,30.06,36.78,36.4,59.68l-15.28,4.32Z"/>
  </g>
</svg>