<?xml version="1.0" encoding="UTF-8"?>
<svg id="a" data-name="Layer 1" xmlns="http://www.w3.org/2000/svg" viewBox="0 0 500 500">
  <defs>
    <style>
      .c {
        fill: #cfcfce;
      }

      .d {
        fill: #ffc414;
      }

      .e {
        fill: #3d3e3d;
      }
    </style>
  </defs>
  <g id="b" data-name="Light">
    <path class="c" d="m308,234c0-8.84-7.16-16-16-16h-64c-8.84,0-16,7.16-16,16s7.16,16,16,16h64c8.84,0,16-7.16,16-16Z"/>
    <path class="c" d="m158.48,183.52c-26.32-26.24-74.08-21.12-74.08-21.12,0,0-5.12,48,21.12,74.08,26.24,26.08,74.48,21.52,74.48,21.52l-56-56,56,56s4.72-48-21.52-74.48h0Z"/>
    <path class="c" d="m414.48,268.48c26.24-26.48,21.52-74.08,21.52-74.08,0,0-48-5.12-74.08,21.12-26.08,26.24-21.52,74.48-21.52,74.48l56-56-56,56s47.6,4.72,74.08-21.52h0Z"/>
    <path class="d" d="m292,434v-40h-32v24-24h-72l24,88h96l24-88h-40v40Z"/>
    <path class="d" d="m172,394h176v-40h-176v40h0Z"/>
    <path class="d" d="m260,114l-32-32,32,32,32-32-32,32v104h32c.14-24.36,9.58-47.74,26.4-65.36,30.17-32.28,28.45-82.91-3.83-113.07s-82.91-28.45-113.07,3.83c-29.23,31.28-28.65,80.02,1.3,110.6,16.42,17.23,25.47,40.2,25.2,64h32v-104Z"/>
    <path class="e" d="m164,178c-28.64-28.64-78.4-24-80.56-23.44-3.7.42-6.62,3.34-7.04,7.04-.4,2.08-5.2,51.84,23.6,80.4,20.88,20.96,53.12,24,69.76,24h6.88l29.76,29.84c1.52,1.42,3.52,2.19,5.6,2.16h40v48h-80c-4.42,0-8,3.58-8,8v40c0,4.42,3.58,8,8,8h9.92l22.08,82.08c.96,3.59,4.28,6.05,8,5.92h96c3.72.13,7.04-2.33,8-5.92l22.08-82.08h9.92c4.42,0,8-3.58,8-8v-40c0-4.42-3.58-8-8-8h-80v-16h40c2.13.01,4.17-.82,5.68-2.32l29.76-29.68h6.88c16.64,0,48.88-2.96,69.76-24,28.72-28.64,24-78.4,23.44-80.56-.42-3.7-3.34-6.62-7.04-7.04-2.16-.4-51.92-5.12-80.48,23.6-24.48,24.4-24.4,64-24,76.56l-27.28,27.44h-36.72v-56h24c13.25-.33,23.73-11.34,23.4-24.59-.24-9.72-6.32-18.33-15.4-21.81,1.66-20.03,10.13-38.89,24-53.44,33.23-35.46,31.43-91.15-4.04-124.39s-91.15-31.43-124.39,4.04c-32.22,34.38-31.64,88.03,1.3,121.71,13.73,14.01,21.94,32.5,23.12,52.08-12.38,4.75-18.56,18.63-13.81,31,3.48,9.07,12.09,15.15,21.81,15.4h24v24h-36.72l-27.28-27.52c.48-12.48.56-52.48-24-76.48Zm137.92,296h-83.84l-19.6-72h53.52v16h16v-16h16v32h16v-32h21.52l-19.6,72Zm38.08-88h-160v-24h160v24Zm27.2-164.8c17.76-17.68,47.44-19.2,60.8-19.2,0,13.28-1.44,43.04-19.2,60.8-13.65,11.86-30.97,18.64-49.04,19.2l41.92-41.92-11.36-11.36-41.92,42c.29-18.2,6.94-35.72,18.8-49.52ZM188.72,87.76c4.68-32.45,30.69-57.65,63.28-61.28,20.36-2.38,40.77,4.12,56,17.84,29.64,26.51,32.18,72.02,5.67,101.66-.37.41-.74.81-1.11,1.21-16.39,17.07-26.46,39.23-28.56,62.8h-16v-92.72l29.68-29.6-11.36-11.36-26.32,26.4-26.32-26.4-11.36,11.36,29.68,29.6v92.72h-16c-1.4-23.14-11.01-45.01-27.12-61.68-15.79-15.94-23.24-38.33-20.16-60.56h0Zm31.28,146.24c0-4.42,3.58-8,8-8h64c4.42,0,8,3.58,8,8s-3.58,8-8,8h-64c-4.42,0-8-3.58-8-8h0Zm-108.8-3.2c-17.68-17.76-19.2-47.52-19.2-60.8,13.2,0,43.04,1.44,60.8,19.2,11.9,13.65,18.69,31.01,19.2,49.12l-41.92-42-11.36,11.36,41.6,42.32c-14.88-1.52-35.52-5.6-49.12-19.2Z"/>
  </g>
</svg>