<?xml version="1.0" encoding="UTF-8"?>
<svg id="a" data-name="Layer 1" xmlns="http://www.w3.org/2000/svg" viewBox="0 0 500 500">
  <defs>
    <style>
      .c {
        fill: #cfcfce;
      }

      .d {
        fill: #ffc414;
      }

      .e {
        fill: #3d3e3d;
      }
    </style>
  </defs>
  <g id="b" data-name="Light">
    <polygon class="c" points="260 471.38 272.69 458.69 247.31 458.69 260 471.38"/>
    <path class="c" d="m196,395.74l11.56-7.7c6.71-5.77,22.8,10.67,28.44,13.04,28.04-18.72,20.01-18.63,48,0,5.74-2.42,21.64-18.79,28.43-13.04,0,0,11.57,7.7,11.57,7.7v-25.05h-128v25.05Z"/>
    <path class="d" d="m188.33,290.69h39.79v-52.26c-19.81-16.53-50.19-36.41-47.96-66-.52-30.77,34.02-52.56,59.97-36.17,12.3-7.14,27.6-7.14,39.91,0,25.96-16.38,60.5,5.39,59.98,36.17,2.26,29.53-28.18,49.56-47.96,66v52.26h39.79c91.63-64.45,40.59-219.44-71.77-216-112.33-3.44-171.32,139.7-71.76,216Z"/>
    <path class="d" d="m288.44,417.35c-6.7,5.78-22.81-10.67-28.44-13.04-28.04,18.72-20.01,18.63-48,0l-11.44,7.63,30.75,30.75h57.38l30.76-30.76-11.45-7.62-19.56,13.04Z"/>
    <path class="d" d="m332,338.69h-144c-4.41,0-8,3.59-8,8s3.59,8,8,8h144c10.33.14,10.41-16.14,0-16Z"/>
    <path class="d" d="m332.06,306.71c-.02-.05-144.02,0-144.06-.02-10.33-.14-10.41,16.14,0,16,0,0,144,0,144,0,10.3.15,10.43-16.06.06-15.98Z"/>
    <path class="d" d="m260.69,163.67c.96-5.7,3.34-11.03,6.58-15.79-4.68-1.55-9.86-1.55-14.54,0,4.63,6.69,7.21,14.67,7.28,22.82.01-2.37.26-4.71.69-7.02Z"/>
    <path class="d" d="m220.69,163.67c.97-5.71,3.36-11.03,6.58-15.8-15.22-5.4-31.33,8.08-31.27,24.57-2.36,24.25,30.22,42.21,45.12,56.11,5.79,1.07,1.76,58.09,2.88,62.14h32c1.09-4.32-2.89-60.96,2.88-62.14,14.96-13.98,47.43-31.8,45.12-56.11.06-16.48-16.04-29.97-31.26-24.57,12.62,16.74,8.46,48.32-12.74,55.63-13.24-3.52-19.73-20.27-20-32.8-.25,12.53-6.78,29.28-20,32.8-15.41-4.57-22.05-25.22-19.31-39.83Z"/>
    <path class="d" d="m278.34,180.86c.48.93,1.07,1.79,1.66,2.66,5.29-7.39,5.29-18.27,0-25.66-4.76,6.58-5.11,15.75-1.66,22.99Z"/>
    <path class="d" d="m238.34,180.86c.48.93,1.07,1.79,1.66,2.66,5.29-7.39,5.29-18.27,0-25.66-4.76,6.58-5.11,15.75-1.66,22.99Z"/>
    <path class="e" d="m356,346.69c0-6.17-2.41-11.74-6.24-16,8.61-8.74,8.05-25-1.03-33.16,95.04-77.01,34.12-242.64-88.73-238.84-122.82-3.8-183.79,161.84-88.72,238.84-9.09,8.16-9.64,24.42-1.03,33.16-11.61,11.72-5.82,33.76,9.76,38.53.89,4.19-2.33,45.04,2.36,47.11l-.02.02c104.8,97.46,50.68,97.12,155.31,0l-.02-.02c4.67-1.9,1.48-43.13,2.36-47.11,9.29-3.31,16-12.11,16-22.53Zm-176-32c0-4.41,3.59-8,8-8h143.97c4.41.03,8.04,3.55,8.03,8,0,4.41-3.59,8-8,8h-144c-4.41,0-8-3.59-8-8Zm61.12-86.14c-14.98-14.03-47.41-31.76-45.12-56.11-.06-16.48,16.04-29.97,31.26-24.57-12.62,16.73-8.46,48.33,12.74,55.62,21.19-7.3,25.36-38.88,12.74-55.61,4.68-1.55,9.86-1.55,14.54,0-12.63,16.73-8.48,48.32,12.72,55.61,21.2-7.3,25.35-38.88,12.73-55.62,15.22-5.4,31.33,8.08,31.27,24.57,2.36,24.25-30.22,42.21-45.12,56.11-5.79,1.07-1.76,58.09-2.88,62.14h-32c-1.12-4.15,2.9-61.07-2.88-62.14Zm.54-68.02c3.45,7.24,3.09,16.41-1.66,22.99-5.29-7.39-5.29-18.26,0-25.65.59.87,1.18,1.73,1.66,2.66Zm40,0c3.45,7.24,3.09,16.41-1.66,22.99-5.29-7.39-5.29-18.26,0-25.65.59.87,1.18,1.73,1.66,2.66Zm-141.66,34.17c0-66.17,53.83-120,120-120,112.44-3.45,163.54,151.57,71.82,216h-39.82v-52.26c19.83-16.53,50.23-36.41,48-66,.52-30.77-34.05-52.56-60.02-36.17-12.31-7.14-27.62-7.14-39.94,0-25.98-16.38-60.55,5.39-60.03,36.17-2.26,29.53,28.2,49.56,48,66v52.26h-39.82c-30.22-22.66-48.18-58.32-48.18-96Zm60.56,217.24l11.44-7.62c28.04,18.72,20.01,18.63,48,0,28.04,18.72,20.01,18.63,48,0l11.44,7.63-30.75,30.75h-57.38l-30.75-30.76Zm111.88-23.9c-6.7-5.78-22.81,10.67-28.44,13.04-28.04-18.72-20.01-18.63-48,0-5.74-2.42-21.64-18.79-28.43-13.04,0,0-11.57,7.7-11.57,7.7v-25.05h128v25.05l-11.56-7.7Zm-52.44,83.34l-12.69-12.69h25.38l-12.69,12.69Zm72-116.69h-144c-4.41,0-8-3.59-8-8s3.59-8,8-8h144c10.33-.14,10.41,16.14,0,16Z"/>
    <rect class="e" x="383.04" y="78.68" width="33.94" height="16" transform="translate(55.87 308.24) rotate(-45)"/>
    <rect class="e" x="392.01" y="285.74" width="16" height="33.94" transform="translate(-96.89 371.51) rotate(-45)"/>
    <rect class="e" x="420" y="186.69" width="32" height="16"/>
    <rect class="e" x="112" y="69.72" width="16" height="33.94" transform="translate(-26.15 110.24) rotate(-45)"/>
    <rect class="e" x="103.03" y="294.69" width="33.94" height="16" transform="translate(-178.88 173.51) rotate(-45)"/>
    <rect class="e" x="68" y="186.69" width="32" height="16"/>
    <rect class="e" x="356" y="402.69" width="16" height="16"/>
    <rect class="e" x="388" y="418.69" width="16" height="16"/>
    <rect class="e" x="388" y="386.69" width="16" height="16"/>
    <rect class="e" x="420" y="402.69" width="16" height="16"/>
    <rect class="e" x="420" y="434.69" width="16" height="16"/>
    <rect class="e" x="420" y="370.69" width="16" height="16"/>
    <rect class="e" x="148" y="402.69" width="16" height="16"/>
    <rect class="e" x="116" y="386.69" width="16" height="16"/>
    <rect class="e" x="116" y="418.69" width="16" height="16"/>
    <rect class="e" x="84" y="402.69" width="16" height="16"/>
    <rect class="e" x="84" y="370.69" width="16" height="16"/>
    <rect class="e" x="84" y="434.69" width="16" height="16"/>
    <rect class="e" x="252" y="10.69" width="16" height="32"/>
  </g>
</svg>