<?xml version="1.0" encoding="UTF-8"?>
<svg id="a" data-name="Layer 1" xmlns="http://www.w3.org/2000/svg" viewBox="0 0 500 500">
  <defs>
    <style>
      .f {
        fill: #fff;
      }

      .g {
        fill: #ffc414;
      }

      .h {
        fill: #3d3e3d;
      }
    </style>
  </defs>
  <g id="b" data-name="Dark">
    <g id="c" data-name="gray">
      <circle class="h" cx="250.01" cy="103.12" r="61.42"/>
    </g>
    <g id="d" data-name="yellow">
      <path class="g" d="m12,259.44c0,39.11,21.73,74.27,56.71,91.75l12.39,6.2v-46.98l-10.86-10.86c-2.88-2.88-4.5-6.79-4.5-10.86v-1.32c0-8.48,6.87-15.36,15.36-15.36v-46.07H12v33.48Z"/>
      <path class="g" d="m418.91,225.96v46.07c8.48,0,15.36,6.87,15.36,15.36v1.32c0,4.07-1.62,7.98-4.5,10.86l-10.86,10.86v46.98l12.39-6.2c34.98-17.49,56.71-52.65,56.71-91.75v-33.48h-69.1Z"/>
    </g>
    <g id="e" data-name="lines">
      <path class="f" d="m280.71,295.06h-15.36c0,4.23-3.45,7.68-7.68,7.68h-30.71v15.36h30.71c12.7,0,23.03-10.33,23.03-23.03Z"/>
      <path class="f" d="m426.59,366.1v-52.51l8.61-8.61c4.35-4.35,6.75-10.13,6.75-16.29v-1.31c0-10.01-6.42-18.55-15.36-21.72v-39.7h-89.99l-16.1,48.29c-.92,2.79-1.4,5.7-1.4,8.64,0,10.43,5.79,19.81,15.12,24.47l.24,15.22c0,9.05,3.52,17.57,9.93,23.97,5.64,5.64,12.94,8.88,20.78,9.61v32.99c-7.29,5.26-13.86,11.33-19.59,18.07-14.55-18.79-35.48-31.18-59.1-34.83l-3.18-9.54c20.48-4.68,35.81-23,35.81-44.88v-92.02h-23.03v-27.1c0-9.27,4.32-18.08,11.85-24.18,21.74-17.59,34.21-43.67,34.21-71.56,0-26.18-11.19-51.22-30.73-68.68-19.51-17.45-45.73-25.76-71.98-22.86-40.42,4.51-74.24,36.87-80.42,76.94-5.07,32.87,7.15,64.96,32.69,85.85,7.78,6.36,12.25,15.29,12.25,24.51v27.08h-23.03v92.02c0,21.87,15.33,40.19,35.81,44.88l-3.19,9.55c-23.36,3.67-44.58,16.29-59.07,34.86-5.74-6.76-12.32-12.84-19.62-18.11v-32.99c7.84-.73,15.15-3.98,20.78-9.62,6.41-6.4,9.93-14.9,9.93-23.96v-15.11l.24-.12c9.33-4.66,15.12-14.04,15.12-24.47,0-2.94-.48-5.85-1.4-8.65l-16.09-48.28h-20.89V93.63L106.76,22.11c-3.42-6.86-10.31-11.12-17.98-11.12s-14.56,4.26-17.98,11.11l-35.76,71.53v132.33h15.36v-122.84h30.71v122.84h-7.68v39.7c-8.94,3.17-15.36,11.71-15.36,21.72v1.31c0,6.15,2.4,11.94,6.75,16.29l8.61,8.61v52.51c-36.44,11.78-61.42,45.63-61.42,84.4v36.5h476.01v-36.5c0-38.76-24.98-72.62-61.42-84.4h0Zm-46.07-9.62h15.36v-15.36h-27.54c-4.94,0-9.59-1.93-13.09-5.43-3.45-3.45-5.44-8.22-5.44-13.11v-24.6l-8.72-4.37c-4.09-2.03-6.63-6.15-6.63-10.73,0-1.29.21-2.57.61-3.79l12.6-37.79h63.56v38.39h7.68c4.23,0,7.68,3.45,7.68,7.68v1.31c0,2.05-.8,3.98-2.25,5.44l-13.11,13.11v59.48l-23.62,9.84c-2.41,1.01-4.78,2.09-7.09,3.25v-23.32Zm-130.52,42.86l-21.93-22.01,4.43-13.29h34.99l4.43,13.29-21.93,22.01Zm-33.38-11.74l22.53,22.61-15.4,15.4-8.4-37.81c.42-.07.84-.14,1.27-.2Zm66.77-.02c.42.06.84.13,1.27.2l-8.41,37.82-15.4-15.4,22.54-22.62Zm-81.98-225.11c-21.29-17.41-31.47-44.19-27.24-71.63,5.14-33.33,33.3-60.25,66.95-64.02,22.23-2.46,43.55,4.28,60.05,19.04,16.28,14.56,25.61,35.42,25.61,57.24,0,23.23-10.4,44.97-28.51,59.62-10.19,8.24-16.35,19.94-17.35,32.51h-15.03l4.61-69.1h10.22c12.7,0,23.03-10.33,23.03-23.03s-10.33-23.03-23.03-23.03h-.99c-12.08,0-22.17,9.44-22.98,21.5l-.61,9.21h-12.25l-.61-9.21c-.81-12.05-10.9-21.5-22.98-21.5h-.99c-12.7,0-23.03,10.33-23.03,23.03s10.33,23.03,23.03,23.03h10.22l4.61,69.1h-15.04c-1.03-12.51-7.3-24.3-17.67-32.77h0Zm48.09,32.77l-4.61-69.1h10.2l-4.61,69.1h-.99Zm22.01-84.45l.55-8.18c.27-4.02,3.64-7.17,7.66-7.17h.99c4.23,0,7.68,3.45,7.68,7.68s-3.45,7.68-7.68,7.68h-9.2Zm-43.03,0h-9.2c-4.23,0-7.68-3.45-7.68-7.68s3.45-7.68,7.68-7.68h.99c4.02,0,7.39,3.15,7.66,7.17l.55,8.18Zm-9.2,99.81h61.42v15.36h-61.42v-15.36Zm-23.03,107.38v-76.67h107.49v76.67c0,16.94-13.77,30.71-30.71,30.71h-46.07c-16.94,0-30.71-13.78-30.71-30.71h0Zm-66.97,86.17l-5.29,10.57-28.55-17.13-3.2-12.8,14.24,5.93c8.33,3.46,15.97,8.01,22.8,13.42ZM84.53,28.96c1.62-3.23,6.87-3.23,8.48,0l29.41,58.8H55.13l29.4-58.8Zm11.92,74.16h30.71v122.84h-30.71v-122.84Zm-23.03,184.26c0-4.23,3.45-7.68,7.68-7.68h7.68v-38.39h63.56l12.6,37.78c.41,1.23.61,2.5.61,3.8,0,4.58-2.54,8.69-6.63,10.73l-8.72,4.37v24.6c0,4.95-1.93,9.6-5.44,13.11-3.49,3.49-8.15,5.41-13.09,5.41h-27.54v15.36h15.36v23.33c-2.31-1.16-4.68-2.24-7.09-3.25l-23.62-9.85v-59.48l-13.11-13.11c-1.45-1.45-2.25-3.39-2.25-5.44v-1.31Zm0,184.26v-46.07h-15.36v46.07h-30.71v-21.14c0-31.16,19.5-58.48,48.26-68.94l6.48,25.93,48.22,28.94,10.63-21.26c13.88,15.42,22.61,35.13,24.3,56.48h-91.82Zm107.22,0c-1.27-18.56-7.1-36.1-16.61-51.32,9.02-13.04,21.8-22.99,36.47-28.56l14.33,64.48,35.17-35.17,35.17,35.17,14.34-64.55c14.69,5.5,27.35,15.38,36.46,28.61-9.5,15.22-15.36,32.77-16.61,51.33h-138.72Zm292.01,0h-30.71v-46.07h-15.36v46.07h-91.82c2.83-35.72,25.26-66.96,58.76-80.91l25.93-10.8c31.46,8.98,53.21,37.66,53.21,70.57v21.14h0Z"/>
      <path class="f" d="m380.52,187.57c0,12.7,10.33,23.03,23.03,23.03s23.03-10.33,23.03-23.03-10.33-23.03-23.03-23.03-23.03,10.33-23.03,23.03Zm30.71,0c0,4.23-3.45,7.68-7.68,7.68s-7.68-3.45-7.68-7.68,3.45-7.68,7.68-7.68,7.68,3.45,7.68,7.68Z"/>
      <path class="f" d="m372.85,70.32c0-15.79,12.84-28.62,28.62-28.62h4.18c15.78,0,28.61,12.84,28.61,28.62,0,8.74-3.92,16.89-10.74,22.35l-27.65,22.12v34.4h15.36v-27.03l21.88-17.5c10.49-8.38,16.51-20.9,16.51-34.33,0-24.25-19.72-43.98-43.98-43.98h-4.18c-24.25,0-43.97,19.72-43.97,43.98v2.09h15.36v-2.09Z"/>
    </g>
  </g>
</svg>