<?xml version="1.0" encoding="UTF-8"?>
<svg id="a" data-name="Layer 1" xmlns="http://www.w3.org/2000/svg" viewBox="0 0 500 500">
  <defs>
    <style>
      .c {
        fill: #cfcfce;
      }

      .d {
        fill: #ffc414;
      }

      .e {
        fill: #3d3e3d;
      }
    </style>
  </defs>
  <g id="b" data-name="Light">
    <polygon class="c" points="243 385.84 186.19 354.27 163.24 382.96 207.75 421.1 243 385.84"/>
    <path class="c" d="m176.16,296c0,4.42,3.59,8,8,8h144c4.41,0,8-3.58,8-8s-3.56-7.96-7.94-7.99h-.08s-143.98,0-143.98,0c-4.41,0-8,3.58-8,8Z"/>
    <polygon class="c" points="269.32 385.84 293.82 410.34 304.91 421.44 355.99 383.13 326.77 353.92 269.32 385.84"/>
    <path class="c" d="m184.16,336h144c4.41,0,8-3.58,8-8s-3.59-8-8-8h-144c-4.41,0-8,3.58-8,8s3.59,8,8,8Z"/>
    <path class="c" d="m427.89,396l-57.3-3.82-61.62,46.22c-1.43,1.08-3.12,1.6-4.8,1.6-2.06,0-4.11-.79-5.66-2.34l-9.1-9.1-7.78,11.67,21.39,35.66c.75,1.24,1.14,2.66,1.14,4.11v8h176v-36.13c0-29.38-22.96-53.92-52.27-55.87Z"/>
    <path class="c" d="m209.31,475.88l21.39-35.66-7.78-11.67-9.1,9.1c-1.56,1.56-3.62,2.35-5.66,2.35-1.85,0-3.7-.64-5.21-1.93l-53.53-45.88-64.75,4.05c-29.45,1.84-52.51,26.38-52.51,55.89v35.87h176v-8c0-1.46.39-2.87,1.14-4.12Z"/>
    <path class="d" d="m184.33,272h39.83v-52.25l-28.02-23.35c-12.7-10.58-19.98-26.14-19.98-42.66,0-22.62,18.32-41.74,40-41.74,7.1,0,13.91,1.94,20.02,5.58,12.31-7.14,27.62-7.14,39.94,0,6.12-3.63,12.94-5.58,20.04-5.58,21.68,0,40,19.12,40,41.74,0,16.52-7.28,32.07-19.98,42.66l-28.02,23.35v52.25h39.83c30.22-22.66,48.17-58.33,48.17-96,0-66.17-53.83-120-120-120s-120,53.83-120,120c0,37.67,17.95,73.34,48.17,96Z"/>
    <polygon class="d" points="297.29 352 215.03 352 256.16 374.84 297.29 352"/>
    <path class="d" d="m265.31,444.12c-1.59-2.65-1.51-5.98.2-8.55l12.36-18.54-21.7-21.71-21.7,21.7,12.36,18.54c1.71,2.57,1.79,5.9.2,8.55l-22.86,38.1v5.78h64v-5.78l-22.86-38.1Z"/>
    <path class="d" d="m216.85,144.97c.25-1.38.58-2.74.97-4.07.13-.45.24-.9.38-1.34.57-1.7,1.23-3.37,2.02-4.98.15-.3.34-.58.49-.89.69-1.32,1.46-2.59,2.3-3.83.15-.22.26-.48.42-.7-2.34-.77-4.78-1.17-7.27-1.17-12.78,0-24,12.03-24,25.74,0,11.77,5.18,22.83,14.22,30.36l30.9,25.75c1.82,1.52,2.88,3.77,2.88,6.14v56h32v-56c0-2.38,1.06-4.62,2.88-6.15l30.9-25.75c9.04-7.53,14.22-18.59,14.22-30.35,0-13.71-11.22-25.74-24-25.74-2.49,0-4.93.4-7.27,1.17.16.22.26.48.42.7.84,1.24,1.6,2.51,2.3,3.83.16.3.34.58.49.89.79,1.61,1.46,3.27,2.02,4.98.14.44.26.89.38,1.34.39,1.34.72,2.7.97,4.07.1.51.19,1.02.26,1.54.25,1.81.42,3.63.42,5.48,0,12.02-5.46,23.33-14.98,31.02-1.46,1.18-3.24,1.78-5.02,1.78s-3.56-.59-5.02-1.78c-9.52-7.7-14.98-19-14.98-31.02,0,12.02-5.46,23.33-14.98,31.02-1.46,1.18-3.24,1.78-5.02,1.78s-3.56-.59-5.02-1.78c-9.52-7.7-14.98-19-14.98-31.02,0-1.85.18-3.67.42-5.48.07-.52.18-1.02.26-1.54Z"/>
    <path class="d" d="m234.5,162.15c.06.13.14.24.21.36.41.81.96,1.54,1.46,2.31.5-.77,1.06-1.5,1.46-2.31.06-.13.14-.24.21-.36.67-1.39,1.16-2.86,1.54-4.35.1-.37.18-.74.26-1.12.3-1.53.52-3.09.52-4.68s-.22-3.15-.54-4.69c-.08-.38-.16-.75-.26-1.12-.38-1.5-.87-2.96-1.54-4.35-.06-.12-.14-.23-.2-.36-.41-.82-.96-1.55-1.46-2.32-.5.77-1.06,1.5-1.46,2.32-.06.12-.14.23-.2.36-.67,1.39-1.16,2.86-1.54,4.35-.1.37-.18.74-.26,1.12-.31,1.54-.54,3.1-.54,4.69s.22,3.15.54,4.69c.08.38.16.75.26,1.12.38,1.49.87,2.96,1.54,4.34Z"/>
    <path class="d" d="m256.85,144.97c.25-1.38.58-2.74.97-4.08.13-.44.24-.89.38-1.33.57-1.7,1.24-3.38,2.03-4.98.14-.28.31-.54.46-.82.7-1.35,1.49-2.66,2.35-3.92.14-.21.25-.45.39-.66-4.68-1.56-9.86-1.56-14.54,0,.14.21.25.45.39.66.86,1.26,1.65,2.58,2.35,3.92.14.28.32.54.46.82.79,1.62,1.46,3.28,2.03,4.98.14.44.26.89.38,1.33.39,1.34.72,2.7.97,4.08.1.51.19,1.02.26,1.54.25,1.81.42,3.63.42,5.48,0-1.85.18-3.67.42-5.48.07-.52.18-1.02.26-1.54Z"/>
    <path class="d" d="m274.5,162.15c.06.13.14.24.21.36.41.81.96,1.54,1.46,2.31.5-.77,1.06-1.5,1.46-2.31.06-.13.14-.24.21-.36.67-1.39,1.16-2.86,1.54-4.35.1-.37.18-.74.26-1.12.3-1.53.52-3.09.52-4.68s-.22-3.15-.54-4.69c-.08-.38-.16-.75-.26-1.12-.38-1.5-.87-2.96-1.54-4.35-.06-.12-.14-.23-.2-.36-.41-.82-.96-1.55-1.46-2.32-.5.77-1.06,1.5-1.46,2.32-.06.12-.14.23-.2.36-.67,1.39-1.16,2.86-1.54,4.35-.1.37-.18.74-.26,1.12-.31,1.54-.54,3.1-.54,4.69s.22,3.15.54,4.69c.08.38.16.75.26,1.12.38,1.49.87,2.96,1.54,4.34Z"/>
    <path class="e" d="m428.95,380.03l-57.26-3.82-29.14-29.14c5.8-4.38,9.61-11.26,9.61-19.08,0-6.17-2.41-11.74-6.24-16,3.84-4.26,6.24-9.83,6.24-16,0-6.73-2.8-12.79-7.27-17.15,29.78-25.73,47.27-63.29,47.27-102.85,0-74.99-61.01-136-136-136S120.16,101,120.16,176c0,39.56,17.5,77.12,47.27,102.85-4.47,4.36-7.27,10.42-7.27,17.15,0,6.17,2.41,11.74,6.24,16-3.84,4.26-6.24,9.83-6.24,16,0,8.29,4.22,15.6,10.62,19.91l-22.66,28.32-64.46,4.03c-37.86,2.37-67.51,33.93-67.51,71.86v35.87h16v-35.87c0-29.5,23.06-54.05,52.5-55.89l64.75-4.05,53.53,45.88c1.51,1.29,3.37,1.93,5.22,1.93,2.05,0,4.1-.79,5.66-2.34l9.1-9.1,7.78,11.67-21.39,35.66c-.74,1.24-1.14,2.66-1.14,4.11v8h16v-5.78l22.86-38.1c1.59-2.65,1.51-5.98-.2-8.55l-12.36-18.54,21.7-21.7,21.7,21.7-12.36,18.54c-1.71,2.57-1.79,5.9-.2,8.55l22.86,38.1v5.78h16v-8c0-1.46-.39-2.87-1.14-4.12l-21.39-35.66,7.78-11.67,9.1,9.1c1.56,1.56,3.61,2.35,5.66,2.35,1.68,0,3.37-.52,4.8-1.6l61.62-46.22,57.3,3.82c29.31,1.95,52.27,26.5,52.27,55.87v36.13h16v-36.13c0-37.77-29.52-69.33-67.21-71.84Zm-72.97,3.1l-51.07,38.3-11.1-11.1-24.5-24.5,57.46-31.92,29.21,29.21Zm-124.85-200.11c1.46,1.18,3.25,1.78,5.02,1.78s3.56-.59,5.02-1.78c9.52-7.7,14.98-19,14.98-31.02,0-1.85-.18-3.67-.42-5.48-.07-.52-.17-1.02-.26-1.54-.25-1.38-.58-2.74-.97-4.08-.13-.44-.24-.89-.38-1.33-.57-1.7-1.24-3.38-2.03-4.98-.14-.28-.31-.54-.46-.82-.7-1.35-1.49-2.66-2.35-3.92-.14-.21-.25-.45-.39-.66,4.68-1.56,9.86-1.56,14.54,0-.14.21-.25.45-.39.66-.86,1.26-1.65,2.58-2.35,3.92-.14.28-.32.54-.46.82-.79,1.62-1.46,3.28-2.03,4.98-.14.44-.26.89-.38,1.33-.39,1.34-.72,2.7-.97,4.08-.1.51-.19,1.02-.26,1.54-.25,1.81-.42,3.63-.42,5.48,0,12.02,5.46,23.33,14.98,31.02,1.46,1.18,3.25,1.78,5.02,1.78s3.56-.59,5.02-1.78c9.52-7.7,14.98-19,14.98-31.02,0-1.85-.18-3.67-.42-5.48-.07-.52-.17-1.02-.26-1.54-.25-1.38-.58-2.74-.97-4.07-.13-.45-.24-.9-.38-1.34-.57-1.7-1.23-3.37-2.02-4.98-.15-.3-.34-.58-.49-.89-.69-1.32-1.46-2.59-2.3-3.83-.15-.22-.26-.48-.42-.7,2.34-.77,4.78-1.17,7.27-1.17,12.78,0,24,12.03,24,25.74,0,11.77-5.18,22.83-14.22,30.36l-30.9,25.75c-1.82,1.52-2.88,3.77-2.88,6.14v56h-32v-56c0-2.38-1.06-4.62-2.88-6.15l-30.9-25.75c-9.04-7.53-14.22-18.59-14.22-30.35,0-13.71,11.22-25.74,24-25.74,2.49,0,4.93.4,7.27,1.17-.16.22-.26.48-.42.7-.84,1.24-1.6,2.51-2.3,3.83-.16.3-.34.58-.49.89-.79,1.61-1.46,3.27-2.02,4.98-.14.44-.26.89-.38,1.34-.39,1.34-.72,2.7-.97,4.07-.1.51-.19,1.02-.26,1.54-.25,1.81-.42,3.63-.42,5.48,0,12.02,5.46,23.33,14.98,31.02Zm1.02-31.02c0-1.59.22-3.15.54-4.69.08-.38.16-.75.26-1.12.38-1.5.87-2.96,1.54-4.35.06-.12.14-.23.2-.36.41-.82.96-1.55,1.46-2.32.5.77,1.06,1.5,1.46,2.32.06.12.14.23.2.36.67,1.39,1.16,2.86,1.54,4.35.1.37.18.74.26,1.12.31,1.54.54,3.1.54,4.69s-.22,3.15-.54,4.69c-.08.38-.16.75-.26,1.12-.38,1.5-.87,2.96-1.54,4.35-.06.13-.14.24-.21.36-.41.81-.96,1.54-1.46,2.31-.5-.77-1.06-1.5-1.46-2.31-.06-.13-.14-.24-.21-.36-.67-1.39-1.16-2.86-1.54-4.35-.1-.37-.18-.74-.26-1.12-.3-1.54-.52-3.1-.52-4.69Zm40,0c0-1.59.22-3.15.54-4.69.08-.38.16-.75.26-1.12.38-1.5.87-2.96,1.54-4.35.06-.12.14-.23.2-.36.41-.82.96-1.55,1.46-2.32.5.77,1.06,1.5,1.46,2.32.06.12.14.23.2.36.67,1.39,1.16,2.86,1.54,4.35.1.37.18.74.26,1.12.31,1.54.54,3.1.54,4.69s-.22,3.15-.54,4.69c-.08.38-.16.75-.26,1.12-.38,1.5-.87,2.96-1.54,4.35-.06.13-.14.24-.21.36-.41.81-.96,1.54-1.46,2.31-.5-.77-1.06-1.5-1.46-2.31-.06-.13-.14-.24-.21-.36-.67-1.39-1.16-2.86-1.54-4.35-.1-.37-.18-.74-.26-1.12-.3-1.54-.52-3.1-.52-4.69Zm55.98,136h.08c4.38.04,7.94,3.61,7.94,8s-3.59,8-8,8h-144c-4.41,0-8-3.58-8-8s3.59-8,8-8h143.98Zm-143.98,32h144c4.41,0,8,3.58,8,8s-3.59,8-8,8h-144c-4.41,0-8-3.58-8-8s3.59-8,8-8Zm113.13,32l-41.13,22.85-41.13-22.85h82.26Zm-161.13-176c0-66.17,53.83-120,120-120s120,53.83,120,120c0,37.67-17.95,73.34-48.17,96h-39.83v-52.25l28.02-23.35c12.7-10.58,19.98-26.14,19.98-42.66,0-22.62-18.32-41.74-40-41.74-7.1,0-13.91,1.94-20.02,5.58-12.31-7.14-27.62-7.14-39.94,0-6.12-3.63-12.94-5.58-20.04-5.58-21.68,0-40,19.12-40,41.74,0,16.52,7.28,32.07,19.98,42.66l28.02,23.35v52.25h-39.83c-30.22-22.66-48.17-58.33-48.17-96Zm50.02,178.27l56.82,31.57-35.26,35.26-44.5-38.14,22.94-28.68Z"/>
    <rect class="e" x="380.85" y="63.99" width="22.62" height="16" transform="translate(63.96 298.39) rotate(-45)"/>
    <rect class="e" x="384.19" y="268.66" width="16" height="22.62" transform="translate(-83.1 359.33) rotate(-45)"/>
    <rect class="e" x="416.16" y="168" width="16" height="16"/>
    <rect class="e" x="112.16" y="60.69" width="16" height="22.62" transform="translate(-15.72 106.05) rotate(-45)"/>
    <rect class="e" x="108.87" y="271.99" width="22.62" height="16" transform="translate(-162.78 166.99) rotate(-45)"/>
    <rect class="e" x="80.16" y="168" width="16" height="16"/>
    <rect class="e" x="248.16" y="8" width="16" height="16"/>
  </g>
</svg>