<?xml version="1.0" encoding="UTF-8"?>
<svg id="a" data-name="Layer 1" xmlns="http://www.w3.org/2000/svg" viewBox="0 0 500 500">
  <defs>
    <style>
      .c {
        fill: #cfcfce;
      }

      .d {
        fill: #ffc414;
      }

      .e {
        fill: #3d3e3d;
      }
    </style>
  </defs>
  <g id="b" data-name="Light">
    <path class="c" d="m218,450c0,17.67,14.33,32,32,32s32-14.33,32-32v-8h-64v8Z"/>
    <polygon class="c" points="250 146 114 146 114 186 210 186 210 250 210 362 250 362 290 362 290 250 290 186 386 186 386 146 250 146"/>
    <circle class="c" cx="250" cy="106" r="40"/>
    <path class="d" d="m342,18h-184c-77.32,0-140,62.68-140,140h0c0,77.32,62.68,140,140,140,11.05,0,20,8.95,20,20v44h32v-176h-96v-40h136c-22.09,0-40-17.91-40-40s17.91-40,40-40,40,17.91,40,40-17.91,40-40,40h136v40h-96v176h32v-44c0-11.05,8.95-20,20-20,77.32,0,140-62.68,140-140h0c0-77.32-62.68-140-140-140Z"/>
    <path class="d" d="m326,402c11.05,0,20-8.95,20-20s-8.95-20-20-20h-152c-11.05,0-20,8.95-20,20s8.95,20,20,20c-11.05,0-20,8.95-20,20s8.95,20,20,20h152c11.05,0,20-8.95,20-20s-8.95-20-20-20Z"/>
    <path class="e" d="m342,10h-184C76.39,10,10,76.4,10,158s66.39,148,148,148c6.62,0,12,5.38,12,12v36.41c-13.54,1.96-24,13.53-24,27.59,0,7.84,3.26,14.91,8.46,20-5.21,5.09-8.46,12.16-8.46,20,0,15.44,12.56,28,28,28h36c0,22.06,17.94,40,40,40s40-17.94,40-40h36c15.44,0,28-12.56,28-28,0-7.84-3.26-14.91-8.46-20,5.21-5.09,8.46-12.16,8.46-20,0-14.06-10.46-25.63-24-27.59v-36.41c0-6.62,5.38-12,12-12,81.61,0,148-66.39,148-148S423.61,10,342,10Zm-92,464c-13.23,0-24-10.77-24-24h48c0,13.23-10.77,24-24,24Zm88-52c0,6.62-5.38,12-12,12h-152c-6.62,0-12-5.38-12-12s5.38-12,12-12h152c6.62,0,12,5.38,12,12Zm0-40c0,6.62-5.38,12-12,12h-152c-6.62,0-12-5.38-12-12s5.38-12,12-12h152c6.62,0,12,5.38,12,12Zm-128-204h-88v-24h256v24h-88c-4.42,0-8,3.58-8,8v168h-24v-104c0-4.42-3.58-8-8-8s-8,3.58-8,8v104h-24v-168c0-4.42-3.58-8-8-8Zm8-72c0-17.65,14.35-32,32-32s32,14.35,32,32-14.35,32-32,32-32-14.35-32-32Zm124,184c-15.44,0-28,12.56-28,28v36h-16v-160h88c4.42,0,8-3.58,8-8v-40c0-4.42-3.58-8-8-8h-100.32c7.63-8.5,12.32-19.7,12.32-32,0-26.47-21.53-48-48-48s-48,21.53-48,48c0,12.3,4.69,23.5,12.32,32h-100.32c-4.42,0-8,3.58-8,8v40c0,4.42,3.58,8,8,8h88v160h-16v-36c0-15.44-12.56-28-28-28-72.78,0-132-59.22-132-132S85.22,26,158,26h184c72.78,0,132,59.22,132,132s-59.22,132-132,132Z"/>
  </g>
</svg>